<?xml version="1.0" encoding="utf-8"?>
<!-- Generator: Adobe Illustrator 19.0.0, SVG Export Plug-In . SVG Version: 6.00 Build 0)  -->
<svg version="1.1" id="Layer_1" xmlns="http://www.w3.org/2000/svg" xmlns:xlink="http://www.w3.org/1999/xlink" x="0px" y="0px"
	 width="300px" height="240px" viewBox="0 0 300 240" style="enable-background:new 0 0 300 240;" xml:space="preserve">
<style type="text/css">
	.st0{fill:none;}
	.st1{fill:#C0CFCE;}
</style>
<path class="st0" d="M296.2,227.6l0.2,0.8c0.9,2.2,2.6,4.1,3.6,5.7v-12.1l-5.2-2.2C294.6,222.3,295.1,225,296.2,227.6z"/>
<path class="st0" d="M247.6,157.6c-19.4-24-44.8-41.8-73.1-52.1l0.1,0.2l24.6,61L164,151.8c-0.2,2.6,0.2,5.3,1.3,7.8l0.3,0.8
	c1.4,3.4,3.6,6.1,6.4,8c0.8,0.7,1.8,1.2,2.8,1.7l27.6,11.7l17.3,42.9l-51.2-21.7c-0.2,2.6,0.2,5.3,1.3,7.8l0.3,0.8
	c1.4,3.4,3.6,6.1,6.4,8c0.8,0.6,1.8,1.2,2.8,1.6l43.6,18.5l0.2,0.4h60.4c-1.9-13.3-5.4-26.5-10.6-39.5
	C266.4,184.6,257.8,170.3,247.6,157.6z"/>
<path class="st0" d="M213.4,53.4c-7.5,0.3-15.1,1.2-22.6,2.6c-11.1,2-22.1,5.2-33,9.6c-10.8,4.4-21,9.8-30.4,16
	c-6.4,4.2-12.4,8.9-18,13.9c-13,11.5-24,24.8-32.7,39.4c24.6,9.2,47.1,23.7,65.9,42.6l0-0.3l0-0.7c0.4-25.3,6.1-50,16.5-72.7
	c0.5-0.9,0.9-1.9,1.3-2.8c2-4.3,4.3-8.5,6.7-12.7c4.6,1.3,9.1,2.8,13.6,4.5c24.6,9.2,47.1,23.7,65.9,42.6
	c0.3-26.6,6.5-52.7,17.8-76.4C247.9,54.6,230.7,52.6,213.4,53.4z"/>
<path class="st0" d="M70.5,147.5l24.7,61.1l-35.1-14.9c-0.2,2.6,0.2,5.3,1.3,7.8l0.3,0.8c1.4,3.4,3.6,6.1,6.4,8
	c0.8,0.7,1.8,1.2,2.8,1.7l27.5,11.7l6.6,16.3h62.7c-6.3-14.9-14.5-28.4-24.1-40.4C124.2,175.6,98.8,157.8,70.5,147.5z"/>
<path class="st0" d="M273.6,168.7l0.3,0.8c1.4,3.4,3.7,6.1,6.4,8c0.8,0.6,1.7,1.2,2.7,1.7l16.9,7.2v-13.7l-27.7-11.8
	C272.1,163.5,272.6,166.1,273.6,168.7z"/>
<path class="st0" d="M300,117V73.2c-7-3.7-14.2-7-21.7-9.7L300,117z"/>
<path class="st0" d="M269.2,117.6l0.3,0.8c1.4,3.4,3.6,6.1,6.4,8c0.8,0.7,1.7,1.2,2.8,1.7l21.4,9.1v-13.7l-32.2-13.7
	C267.6,112.4,268.1,115,269.2,117.6z"/>
<path class="st1" d="M300,57.4c-5-2.5-10.2-4.7-15.5-6.7c-4.5-1.7-9-3.2-13.6-4.5c0,0,0,0,0,0c-12.8-3.7-26.1-6-39.6-6.8
	c-7.8-0.5-15.7-0.4-23.6,0.2c-18.5,1.3-37.1,5.5-55.3,12.9c-18.1,7.3-34.5,17.3-48.7,29.2C97.8,86.8,92.1,92.2,86.8,98
	c-9.2,9.9-17.1,20.8-23.8,32.4c0,0,0,0,0,0c-2.4,4.1-4.6,8.4-6.7,12.7c-14.2,29.8-20.3,63.3-16.8,97h65.6l-6.6-16.3L71,212
	c-1-0.4-2-1-2.8-1.7c-2.8-1.9-5.1-4.6-6.4-8l-0.3-0.8c-1-2.6-1.4-5.2-1.3-7.8l35.1,14.9l-24.7-61.1c28.2,10.3,53.7,28.2,73.1,52.2
	c9.7,12,17.8,25.5,24.1,40.4H223l-0.2-0.4l-43.6-18.5c-1.1-0.4-2-1-2.8-1.6c-2.8-1.9-5-4.6-6.4-8l-0.3-0.8c-1-2.6-1.5-5.2-1.3-7.8
	l51.2,21.7l-17.3-42.9L174.8,170c-1-0.4-2-1-2.8-1.7c-2.8-1.9-5.1-4.6-6.4-8l-0.3-0.8c-1-2.6-1.4-5.2-1.3-7.8l35.2,14.9l-24.6-61
	l-0.1-0.2c28.3,10.3,53.7,28.2,73.1,52.1c10.2,12.7,18.8,27,25.2,42.9c5.2,13,8.8,26.3,10.6,39.5H300v-6c-1-1.6-2.7-3.5-3.6-5.7
	l-0.3-0.8c-1-2.6-1.5-5.2-1.3-7.8l5.2,2.2v-35.6l-16.9-7.2c-1-0.4-1.9-1-2.8-1.7c-2.8-1.9-5.1-4.6-6.4-8l-0.3-0.8
	c-1-2.6-1.5-5.3-1.3-7.9l27.7,11.8v-35.5l-21.4-9.1c-1-0.4-2-1-2.8-1.7c-2.8-1.9-5-4.6-6.4-8l-0.3-0.8c-1-2.6-1.5-5.2-1.3-7.8
	l32.2,13.7V117l-21.7-53.5c7.4,2.7,14.7,6,21.7,9.7V57.4z M246.5,135.4c-18.7-19-41.3-33.4-65.9-42.6c-4.5-1.7-9-3.2-13.6-4.5
	c-2.4,4.1-4.6,8.4-6.7,12.7c-0.4,0.9-0.9,1.9-1.3,2.8c-10.3,22.7-16,47.4-16.5,72.7l0,0.7l0,0.3c-18.8-18.9-41.3-33.4-65.9-42.6
	c8.8-14.6,19.8-27.9,32.7-39.4c5.6-5,11.7-9.6,18-13.9c9.4-6.2,19.5-11.6,30.4-16c10.8-4.4,21.9-7.6,33-9.6
	c7.5-1.4,15.1-2.2,22.6-2.6c17.3-0.8,34.5,1.2,50.9,5.6C253,82.7,246.8,108.7,246.5,135.4z"/>
</svg>
