<?xml version="1.0" encoding="utf-8"?>
<!-- Generator: Adobe Illustrator 19.0.0, SVG Export Plug-In . SVG Version: 6.00 Build 0)  -->
<svg version="1.1" id="Layer_1" xmlns="http://www.w3.org/2000/svg" xmlns:xlink="http://www.w3.org/1999/xlink" x="0px" y="0px"
	 width="320px" height="120px" viewBox="0 0 320 120" style="enable-background:new 0 0 320 120;" xml:space="preserve">
<style type="text/css">
	.st0{fill:#FFFFFF;}
</style>
<path class="st0" d="M65.1,36c-1.7-1.3-3.6-2.3-5.6-3c-0.9-0.3-1.8-0.6-2.7-0.8c-1.4-0.3-2.8-0.4-4.3-0.4c-1.5,0-2.9,0.2-4.3,0.4
	c-0.9,0.2-1.9,0.4-2.7,0.8c-2,0.7-3.9,1.8-5.6,3l-0.1,0l-1.3-1l0-0.1c1.3-1,2.7-1.9,4.3-2.6c0.9-0.4,1.8-0.8,2.7-1.1
	c2.2-0.7,4.6-1.1,7-1.1c2.4,0,4.8,0.4,7,1.1c0.9,0.3,1.9,0.7,2.7,1.1c1.5,0.7,3,1.6,4.3,2.6l0,0.1L65.1,36L65.1,36z"/>
<path class="st0" d="M59.5,44c1.3-3.1,3.2-5.8,5.6-8c0.4-0.4,0.9-0.8,1.4-1.2c0.5,0.4,0.9,0.8,1.4,1.2c4.5,4.2,7.4,10.2,7.4,16.8
	c0,6.7-2.8,12.6-7.4,16.8c-0.2,0.2-0.5,0.4-0.7,0.6v-2.4c3.9-3.8,6.4-9.2,6.4-15.1c0-6.2-2.7-11.8-6.9-15.6l0,8.3L63.1,42
	c-0.1,0.3-0.2,0.6-0.2,1v0.1c0,0.5,0.1,0.9,0.4,1.2c0.1,0.1,0.2,0.2,0.3,0.3l2.7,2.7v5.8l-4.9-4.9c-0.1,0.3-0.2,0.6-0.2,1v0.1
	c0,0.5,0.1,0.9,0.4,1.2c0.1,0.1,0.2,0.2,0.2,0.3l4.2,4.2v5.8l-4.7-4.7c-0.1,0.3-0.2,0.6-0.2,1v0.1c0,0.5,0.1,0.9,0.4,1.2
	c0.1,0.1,0.1,0.2,0.2,0.3l4,4v16.4h-2.2v-6.3c-0.4,0.2-0.7,0.4-1.1,0.5c-0.9,0.4-1.8,0.8-2.7,1.1c-2,0.7-4.1,1-6.4,1.1v-7.7
	c2.5-2.4,4.4-5.5,5.4-8.9c0.6-1.9,0.9-4,0.9-6.1c0-2.1-0.3-4.2-0.9-6.2c-1.1-3.7-3.2-6.9-6-9.5v0v8.2L49.1,42
	c-0.1,0.3-0.2,0.6-0.2,1v0.1c0,0.5,0.1,0.9,0.4,1.2c0.1,0.1,0.1,0.2,0.2,0.3l2.7,2.6v5.8l-4.9-4.9c-0.1,0.3-0.2,0.6-0.2,1v0.1
	c0,0.5,0.1,0.9,0.4,1.2c0.1,0.1,0.1,0.2,0.3,0.3l4.2,4.2v5.8l-4.7-4.7c-0.1,0.3-0.2,0.6-0.2,1v0.1c0,0.5,0.1,0.9,0.4,1.2
	c0.1,0.1,0.2,0.2,0.3,0.3l4,4V84h-2.3v-8.6c-1.3-0.2-2.6-0.5-3.8-0.9c-0.9-0.3-1.9-0.7-2.7-1.1c-1.3-0.6-2.5-1.3-3.6-2.1v-3.4
	c2.5-2.4,4.4-5.5,5.4-8.9c0.6-1.9,0.9-4,0.9-6.1c0-2.1-0.3-4.2-0.9-6.2c-1.1-3.7-3.2-7-6-9.5v8.2L35.1,42c-0.1,0.3-0.2,0.6-0.2,1
	v0.1c0,0.5,0.1,0.9,0.4,1.2c0.1,0.1,0.1,0.2,0.2,0.3l2.6,2.6v5.8l-4.9-4.9c-0.1,0.3-0.2,0.6-0.2,1v0.1c0,0.5,0.1,0.9,0.4,1.2
	c0.1,0.1,0.2,0.2,0.3,0.3l4.2,4.2v5.8l-4.7-4.7c-0.1,0.3-0.2,0.6-0.2,1v0.1c0,0.5,0.1,0.9,0.4,1.2c0.1,0.1,0.2,0.2,0.2,0.3l4,4v16.5
	h-2.3V67.7c-3.5-4-5.6-9.2-5.6-14.9c0-6.7,2.9-12.6,7.4-16.8c0.4-0.4,0.9-0.8,1.4-1.2c0.5,0.4,0.9,0.8,1.4,1.2c2.4,2.2,4.4,5,5.6,8
	l0,0l0-0.1c1.2-2.9,3.1-5.5,5.3-7.7c0.1-0.1,0.2-0.2,0.3-0.3c0.4-0.4,0.9-0.8,1.4-1.2c0.5,0.4,0.9,0.8,1.4,1.2
	C56.2,38.2,58.2,40.9,59.5,44"/>
<path class="st0" d="M89.7,42c0.7,0.1,1.4,0.1,1.6,0.1c1.2,0,2-0.3,2.5-0.8c0.4-0.4,0.7-1.1,0.7-1.7c0-0.6-0.3-1.5-1.1-2.1
	c-0.6-0.4-1.3-0.5-1.9-0.5c-1,0-1.2,0.1-1.3,1.1l-0.4,3.2C89.7,41.8,89.7,41.9,89.7,42 M89.4,43.8c-0.1,0.8-0.2,1.8-0.2,2
	c-0.1,0.7-0.2,1.8-0.2,2.1c0,0.6,0.4,0.9,1.6,0.9c0.5,0,1.8,0,2.8-0.8c0.7-0.6,1.1-1.4,1.1-2.3c0-2.5-2.4-2.9-4.7-2.9
	c-0.2,0-0.2,0-0.2,0.1v0C89.5,42.9,89.5,43.3,89.4,43.8 M91.1,49.6c-0.2,0-0.9,0-1.5-0.1c-0.3,0-0.6,0-0.8,0c-0.3,0-0.5,0-0.6,0
	c-0.2,0-0.7,0-1.1,0.1c-0.4,0-0.7,0-0.8,0c-0.1,0-0.4,0-0.4-0.4c0-0.3,0.2-0.4,0.4-0.4c1.1,0,1.2-1.2,1.3-2.2l0.1-1
	c0.2-2.3,0.5-4.6,0.7-6.5c0-0.4,0.1-0.7,0.1-1c0-0.3,0-0.4-0.3-0.7c-0.2-0.2-0.4-0.3-0.9-0.3c-0.3,0-0.5,0-0.5-0.4
	c0-0.3,0.2-0.4,0.5-0.4c0.1,0,0.5,0,0.9,0.1l0.5,0c0.2,0,0.3,0,0.4,0c0.2,0,0.8,0,1.4-0.1l0.1,0c0.6,0,1.1,0,1.3,0
	c1,0,2.2,0.1,3.1,0.8c0.7,0.6,1.1,1.4,1.1,2.3c0,1.6-1.1,2.4-1.5,2.7c-0.3,0.2-0.5,0.3-1.1,0.4c1.8,0.3,2.8,1.3,2.8,2.8
	C96.2,48.1,93.6,49.6,91.1,49.6"/>
<path class="st0" d="M89.7,42.9C89.7,42.9,89.7,42.9,89.7,42.9c2.3,0,4.7,0.3,4.7,2.7c0,0.3,0,1.3-1,2.2c-0.9,0.7-2.2,0.7-2.7,0.7
	c-1.4,0-1.5-0.4-1.5-0.7c0-0.2,0.1-1.3,0.2-2.1c0-0.2,0.1-1.3,0.2-2C89.6,43.2,89.7,43,89.7,42.9C89.7,42.9,89.7,42.9,89.7,42.9
	 M89.8,41.9c0-0.1,0-0.2,0-0.5l0-0.2l0.4-3c0.1-0.9,0.2-1,1.1-1c0.8,0,1.3,0.1,1.9,0.4c1,0.7,1.1,1.8,1.1,2c0,0.6-0.3,1.2-0.6,1.6
	c-0.5,0.5-1.3,0.7-2.4,0.7C91.1,42,90.4,42,89.8,41.9 M87.3,36.2c-0.6,0-0.7,0.3-0.7,0.5c0,0.5,0.4,0.5,0.7,0.5
	c0.5,0,0.6,0.1,0.8,0.3c0.2,0.3,0.2,0.4,0.2,0.6c0,0.3,0,0.6-0.1,0.9l0,0.1c-0.3,1.9-0.5,4.3-0.7,6.5l-0.1,1
	c-0.1,1.2-0.3,2.1-1.2,2.1h0c-0.1,0-0.5,0-0.5,0.5c0,0.2,0.1,0.5,0.6,0.5c0.1,0,0.4,0,0.8,0c0.4,0,0.9-0.1,1.1-0.1
	c0.1,0,0.3,0,0.6,0c0.3,0,0.6,0,0.9,0c0.4,0,1.2,0.1,1.5,0.1c3,0,5.2-1.9,5.2-4.3c0-1-0.4-2.3-2.4-2.9c0.3-0.1,0.4-0.2,0.7-0.3
	c0.5-0.3,1.6-1.1,1.6-2.8c0-0.9-0.4-1.8-1.1-2.4c-0.9-0.7-2.1-0.8-3.2-0.8c-0.2,0-0.7,0-1.3,0l-0.1,0c-0.6,0-1.2,0.1-1.4,0.1
	c-0.1,0-0.2,0-0.4,0c-0.2,0-0.3,0-0.5,0C87.9,36.2,87.5,36.2,87.3,36.2 M90.6,48.8c0.7,0,1.9-0.1,2.8-0.8c1.1-0.9,1.1-2.1,1.1-2.4
	c0-2.7-2.6-3-4.9-3c-0.2,0-0.3,0.1-0.3,0.2c0,0-0.3,2.6-0.3,2.9c-0.1,0.7-0.2,1.8-0.2,2.1C88.9,48.6,89.5,48.8,90.6,48.8 M91.3,42.2
	c1,0,2-0.2,2.6-0.8c0.4-0.4,0.7-1.2,0.7-1.8c0-0.6-0.2-1.6-1.2-2.2c-0.6-0.4-1.3-0.5-2-0.5c-1.1,0-1.3,0.2-1.4,1.2l-0.4,3
	c-0.1,0.6-0.1,0.7-0.1,1C90.3,42.2,91,42.2,91.3,42.2 M87.3,36.4c0.1,0,0.5,0,0.9,0.1c0.4,0,0.8,0.1,0.9,0.1c0.2,0,0.8,0,1.4-0.1
	c0.6,0,1.2,0,1.4,0c1.1,0,2.2,0.1,3,0.8c1,0.8,1,1.8,1,2.2c0,1.5-1,2.3-1.5,2.6c-0.4,0.2-0.6,0.3-1.6,0.5v0c2.1,0.2,3.2,1.2,3.2,2.8
	c0,2.5-2.4,4.1-5,4.1c-0.2,0-0.9,0-1.5-0.1c-0.6,0-1.3-0.1-1.5-0.1c-0.3,0-1.7,0.1-1.8,0.1c-0.2,0-0.3-0.1-0.3-0.2
	c0-0.2,0.1-0.2,0.3-0.2c1.2,0,1.3-1.3,1.5-2.3c0.3-2.5,0.5-5.3,0.8-7.5c0-0.3,0.1-0.7,0.1-1c0-0.3-0.1-0.5-0.3-0.8
	c-0.2-0.2-0.4-0.4-1-0.4c-0.3,0-0.4,0-0.4-0.2C86.9,36.6,86.9,36.4,87.3,36.4"/>
<path class="st0" d="M102.7,42c-1.6,0-2.7,2.2-2.7,4.3c0,1.3,0.5,2.6,1.7,2.6c1.8,0,2.5-2.8,2.5-4.6C104.3,43,103.7,42,102.7,42
	 M101.8,49.6c-1.1,0-1.8-0.3-2.4-0.8c-0.9-0.9-0.9-2.1-0.9-2.4c0-2.1,1.5-5.1,4.2-5.1c2.3,0,3.2,1.6,3.2,3.1
	C105.8,46.5,104.5,49.6,101.8,49.6"/>
<path class="st0" d="M101.8,48.8c-1.5,0-1.6-1.9-1.6-2.5c0-2,1-4.2,2.5-4.2c0.9,0,1.4,0.9,1.4,2.3C104.1,46.3,103.4,48.8,101.8,48.8
	 M102.7,41.3c-2.8,0-4.3,3-4.3,5.2c0,0.2,0,1.5,1,2.5c0.6,0.6,1.4,0.9,2.5,0.9c2.8,0,4.2-3.2,4.2-5.3
	C105.9,43,105.1,41.3,102.7,41.3 M101.8,49.1c1.9,0,2.6-2.9,2.6-4.7c0-1.6-0.7-2.5-1.7-2.5c-1.8,0-2.8,2.4-2.8,4.4
	C99.9,47.9,100.5,49.1,101.8,49.1 M102.7,41.5c2.2,0,3,1.5,3,2.9c0,2.1-1.3,5.1-3.9,5.1c-1.1,0-1.8-0.3-2.3-0.8
	c-0.8-0.8-0.9-1.9-0.9-2.3C98.6,44.4,100,41.5,102.7,41.5"/>
<path class="st0" d="M109.3,49.7c-0.8,0-1.3-0.6-1.3-1.8c0-0.3,0-0.5,0-0.7c0-0.1,0-0.2,0-0.2l0.7-4.4c0,0-0.7,0-0.7,0
	c-0.1,0-0.5,0-0.5-0.2c0-0.2,0.3-0.3,0.4-0.4c0.6-0.2,1.1-0.5,1.9-1.8c0.2-0.3,0.3-0.5,0.4-0.5c0.1,0,0.2,0,0.2,0.2
	c0,0.1,0,0.3,0,0.4l-0.2,1.4c0,0.1,0,0.1,0,0.1c0,0,0,0,0,0c0,0,0,0,0.1,0c0.5,0,0.9,0,1,0h0.1c0.5,0,0.8,0,0.8,0.4
	c0,0.1,0,0.3-0.1,0.3c-0.1,0.1-0.4,0.2-1,0.2l-1,0c-0.1,0-0.1,0-0.1,0.3l-0.6,3.9c-0.1,0.4-0.1,0.7-0.1,1.1c0,0.8,0.4,0.8,0.6,0.8
	c0.4,0,0.8-0.2,1.4-0.7c0.2-0.2,0.3-0.3,0.4-0.3c0.1,0,0.2,0.1,0.2,0.2C112,48.3,110.5,49.7,109.3,49.7"/>
<path class="st0" d="M110.4,39.4c-0.2,0-0.3,0.2-0.5,0.5l0,0c-0.8,1.3-1.3,1.6-1.8,1.8c-0.1,0-0.5,0.2-0.5,0.5
	c0,0.2,0.2,0.4,0.6,0.4l0.5,0l-0.6,4.3c0,0.1,0,0.2,0,0.2c0,0.2,0,0.4,0,0.7c0,1.7,0.9,1.9,1.4,1.9c1.3,0,2.8-1.4,2.8-2
	c0-0.2-0.1-0.4-0.4-0.4c-0.1,0-0.3,0.1-0.5,0.3c-0.6,0.5-0.9,0.7-1.3,0.7c-0.1,0-0.4,0-0.4-0.6c0-0.3,0-0.7,0.1-1l0.6-3.9
	c0-0.1,0-0.1,0-0.1c0,0,0,0,0,0l1,0h0c0.6,0,0.9-0.1,1.1-0.2c0.2-0.1,0.2-0.3,0.2-0.4c0-0.6-0.4-0.6-1-0.6c-0.1,0-0.4,0-1,0l0.2-1.4
	c0-0.1,0-0.2,0-0.4C110.7,39.4,110.4,39.4,110.4,39.4 M110.4,39.7c0,0,0,0.1,0,0.1c0,0.1,0,0.3,0,0.3l-0.2,1.4c0,0.2,0,0.2,0.2,0.2
	c0.1,0,0.9,0,1,0c0.6,0,0.7,0,0.7,0.3c0,0.1,0,0.2-0.1,0.2c-0.1,0.1-0.7,0.1-0.9,0.1l-1,0c-0.2,0-0.2,0.1-0.3,0.4l-0.6,3.9
	c0,0.2-0.1,0.6-0.1,1.1c0,0.4,0.1,0.9,0.7,0.9c0.4,0,0.9-0.2,1.5-0.7c0.1-0.1,0.3-0.2,0.4-0.2c0.1,0,0.1,0.1,0.1,0.1
	c0,0.4-1.3,1.7-2.6,1.7c-1.1,0-1.1-1.2-1.1-1.6c0-0.4,0.1-0.7,0.1-0.9l0.7-4.6l-0.8-0.1c-0.1,0-0.3,0-0.3-0.1c0-0.1,0.2-0.2,0.3-0.2
	c0.6-0.3,1.2-0.6,2-1.9C110.1,40,110.3,39.7,110.4,39.7"/>
<path class="st0" d="M118.6,42.1c-2,0-3.7,3.1-3.7,5c0,0.4,0.1,1.4,1.3,1.4c1.3,0,2.5-1.4,2.8-2.7l0.6-2.9c0-0.2,0-0.4-0.1-0.5
	C119.3,42.2,119,42.1,118.6,42.1 M119.7,49.6c-0.6,0-0.8-0.9-0.9-2.1c-0.5,0.7-1.7,2.1-3.4,2.1c-1.4,0-1.9-1.2-1.9-2.3
	c0-2.9,3.1-5.9,5.2-5.9c0.3,0,0.6,0.1,1.1,0.2c0.1,0,0.2,0.1,0.3,0.1c0.1,0,0.3-0.2,0.5-0.6c0.2-0.3,0.3-0.5,0.4-0.5
	c0,0,0.2,0,0.2,0.3c0,0.1,0,0.2,0,0.3c0,0.1,0,0.1,0,0.1l0,0.2c-0.1,0.5-0.4,1.6-0.4,1.9l-0.5,2.6c0,0.2-0.1,1-0.1,1.4
	c0,0.5,0.2,1,0.4,1c0.2,0,0.5-0.3,0.7-0.6c0.6-0.7,0.7-0.8,0.8-0.8c0.2,0,0.2,0.2,0.2,0.3C122.3,47.7,120.8,49.6,119.7,49.6"/>
<path class="st0" d="M116.2,48.3c-1,0-1.1-0.8-1.1-1.2c0-1.8,1.7-4.9,3.6-4.9c0.3,0,0.6,0.1,0.7,0.2c0.1,0.1,0.1,0.2,0.1,0.4
	l-0.6,2.9C118.6,47,117.4,48.3,116.2,48.3 M121,40.5c-0.2,0-0.4,0.2-0.5,0.5l0,0l0,0c-0.2,0.4-0.4,0.5-0.4,0.5c0,0-0.2,0-0.2-0.1
	c-0.5-0.2-0.8-0.2-1.2-0.2c-2.2,0-5.4,3.1-5.4,6.1c0,1.2,0.6,2.4,2,2.4c1.7,0,2.8-1.1,3.4-1.9c0.2,1.1,0.4,1.9,1,1.9
	c1.1,0,2.7-2.1,2.7-2.6c0-0.2-0.1-0.4-0.3-0.4c-0.2,0-0.3,0.1-0.9,0.8c-0.3,0.3-0.5,0.5-0.6,0.5c-0.1,0-0.3-0.3-0.3-0.9
	c0-0.4,0.1-1.2,0.1-1.3l0.5-2.6c0.1-0.2,0.3-1.4,0.4-1.9l0-0.1l0,0v0c0,0,0-0.1,0-0.1c0-0.1,0-0.2,0-0.3
	C121.4,40.6,121.2,40.5,121,40.5 M116.2,48.6c1.3,0,2.6-1.4,2.9-2.8l0.6-2.9c0.1-0.6-0.4-0.9-1-0.9c-2,0-3.8,3.2-3.8,5.1
	C114.8,47.8,115.2,48.6,116.2,48.6 M121,40.7c0.1,0,0.1,0.1,0.1,0.2c0,0.1-0.1,0.3-0.1,0.4c-0.1,0.4-0.4,1.7-0.5,2l-0.5,2.6
	c0,0.1-0.1,1-0.1,1.4c0,0.5,0.2,1.1,0.5,1.1c0.3,0,0.7-0.4,0.8-0.6c0.6-0.6,0.6-0.7,0.7-0.7c0.1,0,0.1,0.1,0.1,0.1
	c0,0.4-1.5,2.3-2.4,2.3c-0.5,0-0.7-1.1-0.8-2.3c-0.4,0.6-1.5,2.3-3.5,2.3c-1.4,0-1.8-1.4-1.8-2.2c0-2.9,3.1-5.8,5.1-5.8
	c0.3,0,0.7,0.1,1.1,0.2c0.1,0,0.2,0.1,0.3,0.1c0.3,0,0.6-0.6,0.6-0.7C120.8,41,120.9,40.7,121,40.7"/>
<path class="st0" d="M130.5,49.7c-0.5,0-0.8-0.4-0.8-1c0-0.4,0.2-2.4,0.2-2.5l0.1-0.9c0-0.4,0.1-0.8,0.1-1.3c0-0.3-0.1-1.7-1.1-1.7
	c-0.8,0-1.8,1.1-2.2,3.4l-0.4,2.5c-0.2,1.3-0.3,1.4-0.8,1.4c-0.5,0-0.7-0.1-0.7-0.3c0-0.1,0-0.3,0.1-0.7l0.6-3.8
	c0-0.2,0.1-0.7,0.1-1c0-0.4-0.1-0.9-0.4-0.9c-0.3,0-0.5,0.5-0.6,0.7c-0.1,0.2-0.2,0.4-0.3,0.4c-0.2,0-0.3-0.2-0.3-0.4
	c0-0.5,0.8-2.1,1.8-2.1c0.7,0,0.9,1.1,0.9,1.9c1-1.2,2-1.9,3.2-1.9c0.6,0,1.1,0.3,1.3,1c0.2,0.4,0.2,1.2,0.2,2.3l-0.2,2
	c0,0.4-0.1,0.8-0.1,1.2c0,0.6,0.2,0.6,0.2,0.6c0.2,0,0.3,0,0.4-0.1c0.1-0.1,0.5-0.5,0.7-0.7c0.1-0.1,0.2-0.2,0.2-0.2l0.2-0.2
	l0.1,0.4C132.8,48.2,131.6,49.7,130.5,49.7"/>
<path class="st0" d="M125.7,41.3c-1,0-1.9,1.7-1.9,2.3c0,0.2,0.1,0.5,0.4,0.5c0.3,0,0.4-0.3,0.5-0.5c0.1-0.4,0.3-0.6,0.5-0.6
	c0.2,0,0.3,0.3,0.3,0.8c0,0.3,0,0.8-0.1,1l-0.6,3.8c-0.1,0.4-0.1,0.6-0.1,0.7c0,0.4,0.4,0.5,0.8,0.5c0.7,0,0.8-0.3,0.9-1.5l0.4-2.5
	c0.4-2.3,1.3-3.3,2.1-3.3c0.9,0,0.9,1.3,0.9,1.6c0,0.4,0,0.9-0.1,1.2l-0.1,0.9c0,0-0.2,2-0.2,2.5c0,0.7,0.3,1.2,0.9,1.2
	c1.1,0,2.4-1.5,2.4-2.1v0l0,0l0-0.1l-0.1-0.4l-0.3,0.3c0,0-0.1,0.1-0.2,0.2c-0.2,0.2-0.6,0.6-0.7,0.7c-0.1,0.1-0.2,0.1-0.3,0.1
	c0,0-0.1-0.1-0.1-0.4c0-0.4,0-0.8,0.1-1.2l0.2-1.9l0-0.1c0-0.8,0-1.8-0.2-2.4c-0.3-0.7-0.8-1.1-1.4-1.1c-1.1,0-2.1,0.6-3.1,1.7
	C126.7,42.2,126.5,41.3,125.7,41.3 M125.7,41.5c0.7,0,0.7,1.4,0.7,2.1h0c0.8-1.1,1.9-2.1,3.3-2.1c0.7,0,1,0.4,1.2,0.9
	c0.3,0.7,0.2,2.2,0.2,2.3l-0.2,1.9c0,0.4-0.1,0.8-0.1,1.2c0,0.4,0.1,0.7,0.4,0.7c0.2,0,0.3-0.1,0.5-0.2c0.2-0.1,0.8-0.8,0.9-0.9
	l0,0.1c0,0.4-1.2,1.9-2.2,1.9c-0.6,0-0.7-0.7-0.7-0.9c0-0.4,0.1-2,0.2-2.5l0.1-0.9c0.1-0.4,0.1-0.8,0.1-1.3c0-0.8-0.3-1.9-1.2-1.9
	c-0.8,0-1.9,1-2.3,3.5l-0.4,2.5c-0.2,1.3-0.3,1.3-0.7,1.3c-0.6,0-0.6-0.1-0.6-0.2c0-0.1,0-0.3,0.1-0.7l0.6-3.8
	c0-0.2,0.1-0.8,0.1-1.1c0-0.2,0-1-0.5-1c-0.4,0-0.6,0.4-0.7,0.8c-0.1,0.2-0.1,0.3-0.2,0.3c-0.1,0-0.2-0.2-0.2-0.2
	C124.1,43.1,124.9,41.5,125.7,41.5"/>
<path class="st0" d="M137,39.7c-0.3,0-0.8-1-0.8-1.1c0-0.2,0.7-0.9,0.9-0.9c0.3,0,0.8,0.9,0.8,1c0,0.1-0.1,0.2-0.1,0.3l-0.3,0.3
	C137.4,39.4,137.2,39.7,137,39.7 M135.7,49.7c-0.5,0-0.6-0.9-0.6-1.4c0-0.9,0.1-1.4,0.8-5.4l0-0.2c0-0.1,0-0.1,0-0.2
	c0,0,0-0.1-0.1-0.2c-0.1-0.1-0.4-0.1-0.5-0.1c0,0-0.2,0-0.3,0c-0.1,0-0.2,0-0.3,0c-0.2,0-0.3-0.1-0.3-0.2c0-0.2,0.2-0.4,0.4-0.4
	c0.2,0,0.3,0,0.6,0l0.4,0l0.3-0.1c0.5-0.1,0.9-0.2,1-0.2c0.3,0,0.3,0.2,0.3,0.2c0,0.1-0.2,0.9-0.2,1l-0.7,3.9
	c-0.1,0.3-0.1,0.9-0.1,1.3c0,0.3,0.1,0.4,0.2,0.4c0.1,0,0.3-0.1,0.5-0.4c0,0,0.1-0.1,0.1-0.1c0.3-0.4,0.4-0.5,0.5-0.5
	c0.1,0,0.2,0.1,0.2,0.3C137.9,48.4,136.3,49.7,135.7,49.7"/>
<path class="st0" d="M137.1,41.3c-0.1,0-0.6,0.1-1.1,0.2c-0.1,0-0.3,0-0.3,0.1l-0.4,0c-0.3,0-0.4,0-0.6,0c-0.3,0-0.5,0.2-0.5,0.5
	c0,0.2,0.2,0.4,0.4,0.4c0,0,0.2,0,0.3,0c0.1,0,0.2,0,0.3,0c0.2,0,0.3,0,0.5,0.1c0,0,0,0,0,0c0,0.1,0,0.1,0,0.2l0,0.2
	c-0.7,4-0.8,4.5-0.8,5.4c0,0.1,0,1.5,0.8,1.5c0.7,0,2.4-1.3,2.4-2.3c0-0.3-0.2-0.4-0.3-0.4c-0.2,0-0.3,0.2-0.6,0.6
	c0,0-0.1,0.1-0.1,0.1l0,0c-0.3,0.3-0.4,0.3-0.4,0.3c0,0,0-0.1,0-0.3c0-0.4,0.1-1,0.1-1.2l0.7-3.9c0,0,0.2-0.9,0.2-1
	C137.5,41.5,137.4,41.3,137.1,41.3 M137.1,37.5c-0.3,0-1,0.9-1,1.1c0,0.1,0.4,1.2,0.9,1.2c0.1,0,0.3,0,0.6-0.5l0.2-0.2l0,0l0,0
	c0.1-0.1,0.2-0.2,0.2-0.4C138,38.5,137.5,37.5,137.1,37.5 M137.1,41.5c0.1,0,0.2,0,0.2,0.1c0,0-0.2,0.8-0.2,1l-0.7,3.9
	c-0.1,0.3-0.1,0.9-0.1,1.3c0,0.2,0,0.6,0.3,0.6c0.3,0,0.6-0.4,0.7-0.4c0.1-0.1,0.4-0.6,0.5-0.6c0,0,0.1,0,0.1,0.1
	c0,0.8-1.5,2.1-2.1,2.1c-0.4,0-0.5-0.8-0.5-1.3c0-0.8,0.1-1.3,0.8-5.4c0-0.2,0-0.3,0-0.4c0-0.1,0-0.1-0.1-0.2
	c-0.2-0.1-0.4-0.1-0.6-0.1c-0.1,0-0.5,0.1-0.6,0.1c-0.1,0-0.1,0-0.1-0.1c0-0.2,0.1-0.2,0.3-0.2c0.3,0,0.4,0,1-0.1
	C136,41.7,136.9,41.5,137.1,41.5 M137.1,37.7c0.2,0,0.6,0.8,0.6,0.9c0,0.1-0.1,0.2-0.1,0.3l-0.2,0.2c-0.1,0.1-0.3,0.4-0.4,0.4
	c-0.2,0-0.6-0.9-0.6-1C136.4,38.5,137,37.7,137.1,37.7"/>
<path class="st0" d="M142.8,49.7c-1.8,0-2.8-1.2-2.8-3.1c0-2.4,2-5.2,4.4-5.2c1.3,0,2.3,0.8,2.3,1.4c0,0.4-0.3,0.7-0.7,0.7
	c-0.3,0-0.4-0.1-0.5-0.2c-0.1-0.1-0.4-0.6-0.5-0.7c-0.4-0.3-0.7-0.5-1.1-0.5c-1.2,0-2.6,1.6-2.6,3.7c0,1.7,0.8,2.6,2.3,2.6
	c0.7,0,1.2-0.2,1.7-0.7c0,0,0,0,0.1-0.1c0.3-0.3,0.4-0.4,0.5-0.4c0.2,0,0.3,0.1,0.3,0.3C146.1,48.1,144.6,49.7,142.8,49.7"/>
<path class="st0" d="M144.3,41.2c-2.5,0-4.5,2.9-4.5,5.4c0,2,1.1,3.2,3,3.2c1.9,0,3.5-1.7,3.5-2.2c0-0.2-0.2-0.4-0.4-0.4
	c-0.2,0-0.3,0.1-0.6,0.5c0,0-0.1,0.1-0.1,0.1c-0.5,0.4-1,0.6-1.6,0.6c-1.4,0-2.2-0.9-2.2-2.4c0-2,1.3-3.6,2.4-3.6
	c0.3,0,0.7,0.2,1,0.5c0,0.1,0.4,0.5,0.4,0.6l0,0l0,0c0.1,0.1,0.3,0.3,0.6,0.3c0.5,0,0.9-0.4,0.9-0.9
	C146.8,42.1,145.7,41.2,144.3,41.2 M144.3,41.5c1.2,0,2.2,0.8,2.2,1.3c0,0.3-0.2,0.6-0.6,0.6c-0.2,0-0.3-0.1-0.4-0.2
	c-0.1-0.1-0.4-0.5-0.5-0.6c-0.6-0.5-1.1-0.5-1.2-0.5c-1.3,0-2.7,1.7-2.7,3.8c0,1.9,1.1,2.7,2.4,2.7c0.7,0,1.3-0.2,1.8-0.7
	c0.1-0.1,0.4-0.5,0.5-0.5c0.1,0,0.2,0.1,0.2,0.2c0,0.4-1.4,2-3.2,2c-1.8,0-2.7-1.2-2.7-2.9C140.1,44.3,142,41.5,144.3,41.5"/>
<path class="st0" d="M160.7,52.7c-0.7,0-1.6-0.4-1.6-1c0,0,0-0.1,0.2-0.4c0.1-0.1,0.1-0.2,0.1-0.3l0-0.1c0.2-0.4,0.2-0.5,0.4-0.5
	c0.4,0,0.4,0.4,0.4,0.5c0,0.8,0.5,1,0.7,1c0.4,0,0.6-0.7,0.7-1c0.1-0.2,0.3-1.5,0.3-1.8c0,0,0,0,0,0c-0.1,0-0.3,0.1-0.3,0.1
	c-0.8,0.3-1.6,0.5-3,0.5c-4,0-6.7-2.6-6.7-6.4c0-4,3.1-7.2,7-7.2c1.3,0,2.8,0.4,4.2,1.1c0.4,0.2,0.5,0.2,0.5,0.2c0,0,0,0,0.1-0.1
	c0.2-0.2,0.3-0.3,0.4-0.3c0.1,0,0.3,0,0.3,0.4c0,0.1,0,0.4,0,0.6c0,0.3,0,0.5,0,0.6c0,0.1,0,0.5,0.1,0.8c0,0.3,0.1,0.7,0.1,0.8
	c0,0.4-0.2,0.4-0.3,0.4c-0.3,0-0.4-0.3-0.4-0.6c-0.1-0.6-0.3-1-0.9-1.6c-1.1-1-2.6-1.6-4.3-1.6c-1.5,0-2.6,0.4-3.4,1.2
	c-1,1-1.5,2.5-1.5,4.6c0,4.2,2.6,6.1,5.2,6.1c1.4,0,2.7-0.6,3.1-1.1c0.3-0.5,0.5-2.9,0.5-3.8c0-0.4-0.7-0.6-1.1-0.6h-0.7
	c-0.2-0.1-0.3-0.3-0.3-0.4c0-0.1,0-0.3,0.4-0.3c0,0,0.1,0,0.3,0c0.6,0,2,0.1,2.3,0.1c0.1,0,0.4,0,0.8-0.1c0.3,0,0.6-0.1,0.7-0.1
	c0.2,0,0.2,0.1,0.2,0.3c0,0.2-0.1,0.3-0.4,0.4c-0.6,0.2-0.7,0.3-0.9,3.1c-0.2,2-0.4,3.5-0.7,4.3C162.7,51.9,161.7,52.7,160.7,52.7"
	/>
<path class="st0" d="M158.8,36c-4,0-7.1,3.2-7.1,7.3c0,3.9,2.8,6.6,6.9,6.6c1.4,0,2.2-0.2,3-0.5l0,0c0,0,0.1,0,0.2-0.1
	c0,0.4-0.2,1.4-0.2,1.6c-0.1,0.4-0.3,0.9-0.5,0.9c-0.1,0-0.5-0.2-0.6-0.9c0-0.4-0.2-0.6-0.5-0.6c-0.3,0-0.4,0.2-0.6,0.6l0,0.1l0,0
	l0,0c0,0-0.1,0.1-0.1,0.2c-0.2,0.4-0.2,0.4-0.2,0.5c0,0.6,0.9,1.1,1.7,1.1c1.1,0,2.2-0.8,2.5-1.9c0.3-0.8,0.5-2.3,0.7-4.3
	c0.3-2.8,0.3-2.9,0.8-3l0.1,0c0.4-0.1,0.5-0.2,0.5-0.5c0-0.3-0.2-0.5-0.4-0.5c-0.1,0-0.4,0-0.8,0.1c-0.3,0-0.6,0.1-0.8,0.1
	c-0.2,0-1.7-0.1-2.3-0.1c-0.2,0-0.3,0-0.3,0c-0.4,0-0.6,0.2-0.6,0.5c0,0.2,0.1,0.5,0.3,0.5l0,0h0h0.7c0.4,0,1,0.1,1,0.5
	c0,0.9-0.2,3.3-0.5,3.7c-0.3,0.5-1.6,1-3,1c-2.5,0-5.1-1.8-5.1-6c0-2,0.5-3.5,1.5-4.5c0.8-0.8,1.9-1.2,3.4-1.2
	c1.6,0,3.1,0.6,4.2,1.6c0.5,0.6,0.7,0.9,0.8,1.5c0,0.2,0.1,0.7,0.6,0.7c0.2,0,0.5-0.2,0.5-0.6c0-0.1,0-0.4-0.1-0.8
	c0-0.3-0.1-0.7-0.1-0.8c0-0.1,0-0.3,0-0.6c0-0.3,0-0.6,0-0.7c0-0.5-0.4-0.6-0.4-0.6c-0.2,0-0.4,0.1-0.5,0.3c0,0,0,0,0,0
	c-0.1,0-0.2-0.1-0.4-0.2C161.6,36.4,160,36,158.8,36 M158.8,36.3c0.4,0,2,0,4.2,1.1c0,0,0.5,0.3,0.6,0.3c0,0,0.1,0,0.2-0.1
	c0.1-0.2,0.2-0.2,0.3-0.2c0.1,0,0.2,0.1,0.2,0.3c0,0.2-0.1,1.1-0.1,1.2c0,0.3,0.1,1.4,0.1,1.6c0,0.2,0,0.3-0.2,0.3
	c-0.2,0-0.2-0.1-0.3-0.5c-0.1-0.7-0.3-1-0.9-1.7c-1.7-1.6-3.8-1.6-4.4-1.6c-1.3,0-2.6,0.3-3.5,1.3c-1.2,1.2-1.5,3-1.5,4.7
	c0,4.6,3,6.2,5.4,6.2c1.4,0,2.8-0.5,3.2-1.1c0.4-0.6,0.5-3.1,0.5-3.9c0-0.5-0.7-0.7-1.2-0.7h-0.7c-0.1,0-0.1-0.2-0.1-0.3
	c0-0.1,0.1-0.2,0.3-0.2c0,0,2.2,0.1,2.6,0.1c0.2,0,1.3-0.1,1.5-0.1c0.1,0,0.1,0.1,0.1,0.2c0,0.2,0,0.2-0.4,0.3
	c-0.7,0.2-0.7,0.4-1,3.2c-0.1,0.8-0.3,3.1-0.7,4.3c-0.3,0.9-1.3,1.7-2.2,1.7c-0.7,0-1.4-0.4-1.4-0.8c0,0,0.2-0.6,0.3-0.7
	c0.2-0.5,0.2-0.5,0.4-0.5c0.2,0,0.2,0.1,0.2,0.4c0,0.8,0.6,1.1,0.8,1.1c0.5,0,0.7-0.6,0.8-1.1c0.1-0.3,0.3-1.5,0.3-1.8
	c0-0.1,0-0.1-0.1-0.1c-0.1,0-0.4,0.1-0.5,0.1c-0.8,0.3-1.6,0.5-2.9,0.5c-3.8,0-6.6-2.4-6.6-6.3C151.9,39.2,155,36.3,158.8,36.3"/>
<path class="st0" d="M172,42.1c-2,0-3.7,3.1-3.7,5c0,0.4,0.1,1.4,1.3,1.4c1.3,0,2.5-1.4,2.8-2.7l0.6-2.9c0-0.2,0-0.4-0.1-0.5
	C172.7,42.2,172.4,42.1,172,42.1 M173.1,49.6c-0.6,0-0.7-0.9-0.9-2.1c-0.5,0.7-1.7,2.1-3.4,2.1c-1.4,0-1.9-1.2-1.9-2.3
	c0-2.9,3.1-5.9,5.2-5.9c0.3,0,0.6,0.1,1.1,0.2c0.1,0,0.2,0.1,0.3,0.1c0.1,0,0.4-0.3,0.5-0.6c0.2-0.3,0.3-0.5,0.4-0.5
	c0,0,0.2,0,0.2,0.3c0,0.1,0,0.2,0,0.3c0,0.1,0,0.1,0,0.1l-0.1,0.5c-0.1,0.6-0.3,1.4-0.4,1.6l-0.5,2.6c0,0.1-0.1,0.9-0.1,1.4
	c0,0.5,0.2,1,0.4,1c0.2,0,0.5-0.3,0.7-0.6c0.6-0.7,0.7-0.8,0.8-0.8c0.1,0,0.2,0.2,0.2,0.3C175.7,47.7,174.2,49.6,173.1,49.6"/>
<path class="st0" d="M169.6,48.3c-1,0-1.1-0.8-1.1-1.2c0-1.8,1.7-4.9,3.6-4.9c0.3,0,0.6,0.1,0.7,0.2c0.1,0.1,0.1,0.2,0.1,0.4
	l-0.6,2.9C172,47,170.8,48.3,169.6,48.3 M174.4,40.5c-0.2,0-0.4,0.2-0.5,0.5c-0.1,0.3-0.3,0.5-0.4,0.5c0,0-0.2,0-0.2-0.1
	c-0.5-0.2-0.8-0.2-1.1-0.2c-2.2,0-5.4,3.1-5.4,6.1c0,1.1,0.5,2.4,2,2.4c1.6,0,2.8-1.1,3.4-1.9c0.2,1.1,0.4,1.9,1,1.9
	c1.1,0,2.7-2.1,2.7-2.6c0-0.2-0.1-0.4-0.4-0.4c-0.2,0-0.3,0.1-0.9,0.8c-0.2,0.3-0.5,0.5-0.6,0.5c-0.1,0-0.3-0.3-0.3-0.9
	c0-0.4,0.1-1.2,0.1-1.3l0.5-2.6c0-0.2,0.2-1,0.4-1.6l0.1-0.4l0,0v0c0,0,0-0.1,0-0.1c0-0.1,0-0.2,0-0.3
	C174.8,40.6,174.6,40.5,174.4,40.5 M169.6,48.6c1.3,0,2.6-1.4,2.9-2.8l0.6-2.9c0.1-0.6-0.4-0.9-1-0.9c-2,0-3.8,3.2-3.8,5.1
	C168.2,47.8,168.6,48.6,169.6,48.6 M174.4,40.7c0.1,0,0.1,0.1,0.1,0.2c0,0.1-0.1,0.3-0.1,0.4c-0.1,0.4-0.4,1.7-0.5,2l-0.5,2.6
	c0,0.1-0.1,1-0.1,1.4c0,0.5,0.2,1.1,0.5,1.1c0.3,0,0.7-0.4,0.8-0.6c0.6-0.6,0.6-0.7,0.7-0.7c0.1,0,0.1,0.1,0.1,0.1
	c0,0.4-1.5,2.3-2.4,2.3c-0.5,0-0.7-1.1-0.8-2.3c-0.4,0.6-1.5,2.3-3.5,2.3c-1.4,0-1.8-1.4-1.8-2.2c0-2.9,3.1-5.8,5.1-5.8
	c0.3,0,0.6,0.1,1,0.2c0.1,0,0.2,0.1,0.3,0.1c0.3,0,0.6-0.6,0.6-0.7C174.2,41,174.3,40.7,174.4,40.7"/>
<path class="st0" d="M179.3,49.7c-0.5,0-0.8,0-0.8-0.3c0-0.1,0-0.3,0-0.5l0.5-3c0.1-0.4,0.1-1.2,0.1-1.8c0-0.6-0.1-1.3-0.6-1.3
	c-0.2,0-0.4,0.1-0.8,1.3c0,0-0.1,0.4-0.3,0.4c-0.3,0-0.3-0.4-0.3-0.4c0-1.3,0.7-2.7,1.7-2.7c0.9,0,1.1,1.2,1.1,2
	c0.7-1.3,1.5-2,2.3-2c0.6,0,0.8,0.4,0.8,0.7c0,0-0.1,1.6-0.6,1.6c-0.2,0-0.3-0.2-0.3-0.4c-0.1-0.5-0.3-0.7-0.6-0.7
	c-0.8,0-1.2,2.1-1.4,3L180,49C179.9,49.5,179.8,49.7,179.3,49.7"/>
<path class="st0" d="M182.6,41.3c-0.6,0-1.4,0.3-2.2,1.7c-0.1-0.8-0.4-1.7-1.2-1.7c-1.1,0-1.9,1.5-1.9,2.8c0,0.2,0.1,0.6,0.4,0.6
	c0.3,0,0.4-0.3,0.4-0.5c0.3-1.2,0.5-1.2,0.6-1.2c0.4,0,0.4,0.7,0.4,1.1c0,0.5-0.1,1.4-0.1,1.7l-0.5,3c0,0-0.1,0.3-0.1,0.5
	c0,0.4,0.4,0.4,0.9,0.4c0.6,0,0.7-0.3,0.7-0.8l0.5-3.3l0-0.1c0.1-0.8,0.5-2.9,1.2-2.9c0.3,0,0.4,0.1,0.5,0.5l0,0.1
	c0,0.1,0.1,0.4,0.4,0.4c0.7,0,0.7-1.7,0.7-1.7C183.5,41.7,183.4,41.3,182.6,41.3 M182.6,41.5c0.5,0,0.6,0.2,0.6,0.5
	c0,0.5-0.2,1.5-0.4,1.5c-0.1,0-0.2-0.2-0.2-0.3c-0.1-0.5-0.3-0.7-0.7-0.7c-1,0-1.3,2.2-1.5,3.2l-0.5,3.3c-0.1,0.5-0.1,0.6-0.5,0.6
	c-0.4,0-0.6,0-0.6-0.2c0-0.1,0-0.3,0-0.4l0.5-3c0.1-0.4,0.1-1.3,0.1-1.8c0-0.6-0.1-1.4-0.7-1.4c-0.3,0-0.6,0.3-0.9,1.4
	c0,0-0.1,0.3-0.2,0.3c-0.1,0-0.1-0.3-0.1-0.3c0-1.2,0.7-2.6,1.6-2.6c0.9,0,1,1.5,1,2.3h0C180.5,43.2,181.4,41.5,182.6,41.5"/>
<path class="st0" d="M189.1,42c-1.8,0-3.2,2.8-3.2,4.6c0,0.9,0.5,1.8,1.5,1.8c1.1,0,2.2-1.4,2.4-2.5l0.5-3.1c0-0.2,0-0.3-0.1-0.5
	C189.8,42.2,189.5,42,189.1,42 M190.6,49.6c-0.9,0-1-1.1-1-1.9c-0.5,0.8-1.5,1.9-2.9,1.9c-1.7,0-2.3-1.5-2.3-2.6
	c0-2.5,2.6-5.7,4.7-5.7c0.4,0,0.7,0.1,1.3,0.4c0.3-1.9,0.7-4.6,0.7-4.8c0-0.1,0-0.1,0-0.1c-0.1-0.1-0.6-0.1-0.9-0.1
	c-0.5,0-0.8,0-0.9-0.1c-0.1-0.1-0.1-0.1-0.1-0.2c0-0.2,0.1-0.3,0.3-0.3c0.2,0,2.5-0.3,2.6-0.3h0c0.2,0,0.3,0.1,0.3,0.3
	c0,0.2-0.1,0.8-0.2,1.5l-1.3,8.9c0,0.2-0.1,0.7-0.1,0.9c0,0.6,0.2,0.9,0.5,0.9c0.3,0,0.7-0.4,0.9-0.7c0.3-0.4,0.3-0.5,0.5-0.5
	c0.2,0,0.3,0.1,0.3,0.3C193,48,191.7,49.6,190.6,49.6"/>
<path class="st0" d="M187.3,48.3c-0.9,0-1.4-0.9-1.4-1.7c0-1.7,1.4-4.5,3.1-4.5c0.4,0,0.7,0.1,0.9,0.3c0.1,0.1,0.1,0.2,0.1,0.4
	l-0.5,3.1C189.4,47,188.4,48.3,187.3,48.3 M192.1,35.6L192.1,35.6L192.1,35.6c-0.3,0-2.3,0.2-2.6,0.3c-0.3,0-0.5,0.2-0.5,0.4
	c0,0.1,0,0.2,0.1,0.3c0.2,0.1,0.4,0.2,1,0.2c0.2,0,0.6,0,0.8,0.1c0,0,0,0,0,0.1c0,0.2-0.3,2.5-0.7,4.6c-0.5-0.3-0.8-0.3-1.2-0.3
	c-2.2,0-4.8,3.2-4.8,5.8c0,1.1,0.7,2.7,2.5,2.7c1.3,0,2.2-0.8,2.8-1.6c0.1,0.8,0.3,1.6,1.1,1.6c1.2,0,2.5-1.7,2.5-2.4
	c0-0.2-0.2-0.4-0.4-0.4c-0.3,0-0.4,0.1-0.6,0.5l0,0l0,0c-0.2,0.3-0.6,0.7-0.8,0.7c-0.2,0-0.3-0.3-0.3-0.8c0-0.2,0-0.7,0.1-0.8
	l1.3-8.8l0-0.2c0.1-0.8,0.2-1.4,0.2-1.6C192.6,35.8,192.4,35.6,192.1,35.6 M187.3,48.6c1.2,0,2.3-1.5,2.5-2.6l0.5-3.1
	c0.1-0.6-0.6-1-1.2-1c-1.8,0-3.4,2.8-3.4,4.7C185.7,47.7,186.3,48.6,187.3,48.6 M192.1,35.9c0.1,0,0.2,0,0.2,0.1
	c0,0.2-0.2,1.4-0.2,1.7l-1.3,8.7c0,0.2-0.1,0.7-0.1,0.9c0,0.8,0.3,1,0.6,1c0.4,0,0.9-0.5,1-0.8c0.2-0.4,0.3-0.4,0.4-0.4
	c0.1,0,0.1,0.1,0.1,0.2c0,0.5-1.3,2.2-2.3,2.2c-0.9,0-0.9-1.4-0.9-2.1h0c-0.3,0.6-1.3,2.1-3,2.1c-1.6,0-2.2-1.4-2.2-2.4
	c0-2.4,2.5-5.5,4.6-5.5c0.4,0,0.7,0.1,1.4,0.5c0.3-1.8,0.7-4.7,0.7-5c0-0.1,0-0.2-0.1-0.2c-0.2-0.1-0.6-0.1-1-0.1
	c-0.2,0-0.7,0-0.8-0.1c0,0,0,0,0-0.1c0-0.1,0.1-0.2,0.2-0.2C189.7,36.1,192.1,35.9,192.1,35.9"/>
<path class="st0" d="M198.7,42.1c-1.2,0-2,1-2.6,3.1c0.9-0.1,1.9-0.2,2.6-0.7c0.3-0.2,0.9-0.7,0.9-1.4
	C199.7,42.7,199.5,42.1,198.7,42.1 M197.4,49.6c-0.9,0-1.4-0.2-1.9-0.7c-0.7-0.7-0.8-1.7-0.8-2.2c0-2.2,1.6-5.4,4.4-5.4
	c0.4,0,1.9,0.1,1.9,1.4c0,0.5-0.2,2.8-5,3c0,0,0,0.1,0,0.1c0,0.1,0,0.3,0,0.4c0,1.6,1.2,2.3,2.3,2.3c0.6,0,1.1-0.2,1.6-0.5
	c0,0,0.1,0,0.1-0.1c0.3-0.3,0.4-0.3,0.5-0.3c0.2,0,0.3,0.1,0.3,0.3C200.8,48.4,199.2,49.6,197.4,49.6"/>
<path class="st0" d="M196.3,45c0.5-1.9,1.3-2.8,2.4-2.8c0.7,0,0.8,0.5,0.8,0.8c0,0.6-0.5,1.1-0.8,1.3C198,44.8,197.2,44.9,196.3,45
	 M199.1,41.3c-2.9,0-4.6,3.3-4.6,5.5c0,0.5,0.1,1.5,0.9,2.3c0.5,0.5,1,0.7,2,0.7c1.9,0,3.6-1.2,3.6-1.9c0-0.2-0.2-0.4-0.4-0.4
	c-0.1,0-0.3,0.1-0.6,0.4c0,0-0.1,0.1-0.1,0.1c-0.5,0.4-0.9,0.5-1.5,0.5c-1.1,0-2.2-0.7-2.2-2.1c0-0.1,0-0.3,0-0.4
	c4.7-0.3,5-2.7,5-3.2C201.1,41.8,200.4,41.3,199.1,41.3 M196,45.3c1-0.1,2.1-0.2,2.9-0.8c0.4-0.2,0.9-0.7,0.9-1.5
	c0-0.5-0.2-1.1-1.1-1.1C196.9,42,196.2,44.4,196,45.3 M199.1,41.5c0.6,0,1.8,0.1,1.8,1.3c0,0.4-0.2,2.7-5,2.9c0,0.1,0,0.4,0,0.6
	c0,1.7,1.3,2.4,2.5,2.4c0.6,0,1.1-0.1,1.7-0.6c0.1-0.1,0.4-0.4,0.5-0.4c0.1,0,0.1,0.1,0.1,0.1c0,0.5-1.4,1.6-3.3,1.6
	c-1,0-1.4-0.2-1.8-0.6c-0.7-0.7-0.8-1.7-0.8-2.1C194.8,44.8,196.3,41.5,199.1,41.5"/>
<path class="st0" d="M209.2,49.7c-0.5,0-0.8-0.4-0.8-1c0-0.4,0.1-2.1,0.2-2.5l0.1-0.9c0.1-0.5,0.1-0.9,0.1-1.3c0-0.8-0.3-1.7-1-1.7
	c-0.8,0-1.8,1.1-2.2,3.4l-0.4,2.5c-0.2,1.3-0.3,1.4-0.8,1.4c-0.5,0-0.7-0.1-0.7-0.3c0-0.1,0-0.3,0.1-0.7l0.6-3.8c0-0.2,0-0.8,0-1
	c0-0.4-0.1-0.9-0.4-0.9c-0.3,0-0.5,0.5-0.6,0.7c-0.1,0.2-0.2,0.4-0.3,0.4c-0.2,0-0.3-0.2-0.3-0.4c0-0.5,0.8-2.1,1.8-2.1
	c0.7,0,0.9,1.2,0.9,1.9c1-1.2,2-1.9,3.2-1.9c0.8,0,1.2,0.6,1.3,1c0.2,0.4,0.2,1.2,0.2,2.3l-0.2,2c0,0.4-0.1,0.8-0.1,1.2
	c0,0.6,0.2,0.6,0.2,0.6c0.2,0,0.3-0.1,0.4-0.1c0.1-0.1,0.4-0.4,0.6-0.6c0.1-0.1,0.2-0.2,0.3-0.3l0.2-0.2l0.1,0.4
	C211.5,48.2,210.3,49.7,209.2,49.7"/>
<path class="st0" d="M204.5,41.3c-1,0-1.9,1.7-1.9,2.3c0,0.2,0.1,0.5,0.4,0.5c0.3,0,0.4-0.3,0.5-0.5c0.1-0.3,0.3-0.6,0.5-0.6
	c0.2,0,0.3,0.3,0.3,0.8c0,0.3,0,0.8,0,1l-0.6,3.8c-0.1,0.4-0.1,0.6-0.1,0.7c0,0.4,0.4,0.5,0.8,0.5c0.7,0,0.7-0.3,0.9-1.5l0.4-2.5
	c0.4-2.3,1.3-3.3,2.1-3.3c0.9,0,0.9,1.4,0.9,1.6c0,0.4,0,0.8-0.1,1.2l-0.1,0.9c0,0.4-0.2,2.1-0.2,2.5c0,0.7,0.3,1.2,0.9,1.2
	c1.1,0,2.4-1.5,2.4-2.1v0l0,0l0-0.1l-0.1-0.4l-0.3,0.3c0,0-0.2,0.2-0.3,0.3c-0.2,0.2-0.5,0.6-0.6,0.6c-0.1,0.1-0.2,0.1-0.3,0.1
	c0,0-0.1-0.1-0.1-0.4c0-0.4,0-0.8,0.1-1.2l0.2-1.9l0-0.1c0-0.8,0-1.8-0.2-2.4c-0.3-0.7-0.8-1.1-1.4-1.1c-1.1,0-2.1,0.6-3.1,1.6
	C205.4,42.2,205.2,41.3,204.5,41.3 M204.5,41.5c0.7,0,0.7,1.4,0.7,2.1h0c0.8-1.1,1.9-2.1,3.3-2.1c0.6,0,1,0.4,1.2,0.9
	c0.3,0.7,0.2,2.2,0.2,2.3l-0.2,1.9c0,0.4-0.1,0.8-0.1,1.2c0,0.4,0.1,0.7,0.4,0.7c0.2,0,0.3-0.1,0.5-0.2c0.2-0.1,0.8-0.8,0.9-0.9
	l0,0.1c0,0.4-1.1,1.9-2.2,1.9c-0.6,0-0.6-0.7-0.6-0.9c0-0.4,0.1-2,0.2-2.5l0.1-0.9c0.1-0.4,0.1-0.8,0.1-1.3c0-0.8-0.3-1.9-1.2-1.9
	c-0.8,0-1.9,1-2.3,3.5l-0.4,2.5c-0.2,1.3-0.3,1.3-0.7,1.3c-0.6,0-0.6-0.1-0.6-0.2c0-0.1,0-0.3,0.1-0.7l0.6-3.8c0-0.2,0-0.8,0-1.1
	c0-0.2,0-1-0.5-1c-0.4,0-0.6,0.4-0.7,0.8c-0.1,0.2-0.1,0.3-0.2,0.3c-0.1,0-0.2-0.2-0.2-0.2C202.9,43.1,203.7,41.5,204.5,41.5"/>
<path class="st0" d="M215.2,49.7c-1.4,0-2.4-0.6-2.4-1.6c0-0.5,0.3-0.6,0.6-0.6c0.4,0,0.5,0.2,1,1c0.1,0.2,0.3,0.5,1,0.5
	c1,0,1.3-0.6,1.3-1.1c0-0.7-0.4-1.2-1.1-2c-1-1-1.5-1.7-1.5-2.6c0-1.2,1-2,2.4-2c1.1,0,1.9,0.5,1.9,1.2c0,0.4-0.3,0.6-0.6,0.6
	c-0.3,0-0.5-0.2-0.8-0.6c-0.2-0.4-0.5-0.6-0.9-0.6c-0.5,0-0.8,0.4-0.8,0.8c0,0.6,0.4,1.1,0.7,1.4c1.4,1.5,2,2.2,2,3.3
	C217.9,49.1,216.4,49.7,215.2,49.7"/>
<path class="st0" d="M216.4,41.2c-1.5,0-2.5,0.9-2.5,2.1c0,0.9,0.5,1.6,1.5,2.6c0.8,0.9,1.1,1.3,1.1,1.9c0,0.6-0.4,0.9-1.1,0.9
	c-0.6,0-0.7-0.2-0.8-0.4c-0.5-0.9-0.6-1.1-1.1-1.1c-0.3,0-0.7,0.2-0.7,0.7c0,0.8,0.8,1.7,2.5,1.7c1.3,0,2.8-0.6,2.8-2.3
	c0-1.2-0.6-1.8-2-3.3c-0.3-0.3-0.7-0.8-0.7-1.3c0-0.3,0.3-0.6,0.7-0.6c0.4,0,0.6,0.2,0.8,0.6c0.2,0.3,0.4,0.6,0.9,0.6
	c0.4,0,0.7-0.3,0.7-0.8C218.4,41.8,217.6,41.2,216.4,41.2 M216.4,41.5c1,0,1.7,0.5,1.7,1.1c0,0.3-0.2,0.5-0.5,0.5
	c-0.3,0-0.4-0.2-0.6-0.5c-0.3-0.4-0.5-0.7-1-0.7c-0.6,0-1,0.4-1,0.9c0,0.6,0.5,1.2,0.8,1.5c1.4,1.5,1.9,2.1,1.9,3.2
	c0,1.6-1.5,2.1-2.6,2.1c-1.4,0-2.2-0.6-2.2-1.4c0-0.4,0.2-0.5,0.4-0.5c0.4,0,0.4,0.1,0.9,0.9c0.1,0.3,0.3,0.6,1.1,0.6
	c1.2,0,1.4-0.7,1.4-1.2c0-0.7-0.4-1.3-1.2-2.1c-1-1-1.4-1.7-1.4-2.5C214.2,42.2,215.2,41.5,216.4,41.5"/>
<path class="st0" d="M228,41.9c-1.6,0-2.7,2.2-2.7,4.3c0,1.3,0.5,2.6,1.7,2.6c1.8,0,2.5-2.8,2.5-4.6C229.5,42.9,228.9,41.9,228,41.9
	 M227,49.5c-1.1,0-1.8-0.3-2.4-0.8c-0.9-0.9-0.9-2.1-0.9-2.4c0-2.1,1.5-5.1,4.2-5.1c2.3,0,3.2,1.6,3.2,3.1
	C231.1,46.4,229.8,49.5,227,49.5"/>
<path class="st0" d="M227,48.7c-1.5,0-1.6-1.9-1.6-2.5c0-2,1-4.2,2.5-4.2c0.9,0,1.4,0.9,1.4,2.3C229.4,46.2,228.7,48.7,227,48.7
	 M227.9,41.1c-2.8,0-4.3,3-4.3,5.2c0,0.4,0.1,1.6,1,2.5c0.6,0.6,1.4,0.9,2.5,0.9c2.8,0,4.2-3.2,4.2-5.3
	C231.2,42.9,230.3,41.1,227.9,41.1 M227,49c1.9,0,2.7-2.9,2.7-4.7c0-1.6-0.7-2.5-1.7-2.5c-1.7,0-2.8,2.4-2.8,4.4
	C225.2,47.8,225.8,49,227,49 M227.9,41.4c2.2,0,3,1.5,3,2.9c0,2.1-1.3,5.1-3.9,5.1c-1.1,0-1.8-0.3-2.3-0.8c-0.8-0.8-0.9-1.9-0.9-2.3
	C223.9,44.3,225.3,41.4,227.9,41.4"/>
<path class="st0" d="M231.5,52.8c-0.5,0-0.6-0.3-0.6-0.5c0,0,0.3-1.6,0.7-1.6c0.1,0,0.2,0.1,0.2,0.4c0,0.4,0.1,0.6,0.4,0.6
	c0.3,0,0.6-0.3,0.9-2.7c0,0,0.5-4.9,0.6-5.2c0.1-0.5,0.1-1.3,0.1-1.5c0,0-0.1-0.1-0.8-0.1l-0.4,0c-0.1,0-0.2,0-0.2,0h0
	c-0.3,0-0.3-0.2-0.3-0.4c0-0.3,0.1-0.4,0.4-0.4l1,0c0.2,0,0.4,0,0.6-0.1c0.3-1.5,0.7-3.5,2.2-5c0.6-0.6,1.2-0.8,1.9-0.8
	c0.6,0,0.9,0.2,0.9,0.5c0,0-0.2,1.6-0.5,1.6c-0.2,0-0.3-0.3-0.3-0.4c-0.1-0.2-0.2-0.3-0.3-0.4c-0.1-0.1-0.3-0.3-0.5-0.3
	c-1.4,0-1.8,3-2.1,4.8c1.2,0,1.3,0,1.6,0c0.2,0,0.4,0.2,0.4,0.4c0,0.4-0.3,0.4-0.6,0.4h-0.6c-0.2,0-0.4,0-0.5,0c-0.2,0-0.3,0-0.3,0
	c-0.1,0.1-0.2,1.2-0.2,1.6l-0.4,3.4c-0.3,2.9-0.7,3.7-1.5,4.6C232.8,52.2,232.2,52.8,231.5,52.8"/>
<path class="st0" d="M238.1,35.5c-0.8,0-1.3,0.3-2,0.9c-1.5,1.5-1.9,3.5-2.2,4.9c-0.2,0-0.4,0-0.5,0l-1,0c-0.5,0-0.5,0.3-0.5,0.6
	c0,0.4,0.2,0.6,0.5,0.6c0,0,0.1,0,0.2,0c0.1,0,0.2,0,0.3,0l0.1,0c0.4,0,0.6,0,0.7,0c0,0.2-0.1,0.9-0.1,1.4c0,0.3-0.1,0.6-0.1,0.7
	l-0.5,4.5c-0.2,1.7-0.4,2.6-0.7,2.6c-0.2,0-0.2-0.3-0.2-0.5c0-0.4-0.2-0.5-0.4-0.5c-0.5,0-0.8,1.7-0.8,1.7c0,0.1,0.1,0.6,0.8,0.6
	c0.7,0,1.4-0.6,1.6-0.8l0,0c0.9-0.9,1.2-1.7,1.5-4.7l0.4-3.4c0-0.3,0.1-1.2,0.2-1.5c0,0,0.1,0,0.2,0c0.1,0,0.3,0,0.5,0l0.6,0
	c0.2,0,0.7,0,0.7-0.6c0-0.3-0.2-0.4-0.5-0.5c-0.2,0-0.4,0-1.4,0c0.3-1.7,0.7-4.6,1.9-4.6c0.2,0,0.3,0.1,0.5,0.2
	c0.1,0.1,0.2,0.2,0.3,0.4c0,0.2,0.2,0.4,0.5,0.4c0.5,0,0.6-1.7,0.6-1.7C239.1,35.8,238.7,35.5,238.1,35.5 M238.1,35.8
	c0.3,0,0.8,0.1,0.8,0.4c0,0-0.2,1.4-0.4,1.4c-0.1,0-0.2-0.2-0.2-0.3c-0.1-0.2-0.2-0.4-0.3-0.5c-0.1-0.1-0.3-0.3-0.6-0.3
	c-1.5,0-2,3.2-2.2,5.1c1.3,0,1.4,0,1.7,0c0.2,0,0.2,0.1,0.2,0.2c0,0.3-0.1,0.3-0.4,0.3h-0.6c-0.2,0-0.4,0-0.5,0c-0.2,0-0.3,0-0.4,0
	c-0.1,0.1-0.3,1.5-0.3,1.7l-0.4,3.4c-0.3,2.8-0.6,3.6-1.5,4.5c-0.1,0.1-0.8,0.8-1.4,0.8c-0.1,0-0.5,0-0.5-0.3c0-0.1,0.4-1.4,0.6-1.4
	c0.1,0,0.1,0.2,0.1,0.3c0,0.5,0.2,0.8,0.5,0.8c0.4,0,0.8-0.5,1-2.8l0.5-4.6c0-0.2,0.2-1.9,0.2-2.1c0-0.1,0-0.1-0.1-0.2
	c-0.1,0-0.7,0-0.9,0c-0.1,0-0.3,0-0.4,0c-0.1,0-0.1,0-0.2,0c-0.1,0-0.2-0.1-0.2-0.3c0-0.3,0-0.3,0.3-0.3l1,0c0.2,0,0.5,0,0.7-0.1
	c0.3-1.5,0.7-3.5,2.2-5C236.9,36,237.4,35.8,238.1,35.8"/>
<path class="st0" d="M89.5,68.5c-0.5,0-1-0.1-1.5-0.2c-0.5-0.1-0.9-0.3-1.2-0.5c-0.1-0.1-0.2-0.2-0.3-0.3c0-0.1-0.1-0.4-0.2-0.6
	c0,0-0.1-0.3-0.2-0.8c-0.2-0.5-0.2-0.9-0.2-1.1c0-0.4,0.2-0.4,0.3-0.4c0.2,0,0.4,0.3,0.4,0.5c0.2,0.7,0.6,1.3,1.3,1.7
	c0.6,0.5,1.3,0.7,2.1,0.7c0.8,0,1.4-0.2,1.9-0.7c0.5-0.4,0.8-1,0.8-1.6c0-0.6-0.2-1.1-0.7-1.5c-0.2-0.1-0.7-0.4-2.2-0.9
	c-1.3-0.4-2.2-0.9-2.8-1.5c-0.6-0.5-0.8-1.3-0.8-2.1c0-1,0.4-1.8,1.1-2.4c0.7-0.6,1.6-0.9,2.8-0.9c0.6,0,1.2,0.1,1.6,0.3l0.6,0.2
	c0,0,0.1,0,0.1,0c0,0,0.1,0,0.1-0.1l0.1-0.1c0,0,0.1-0.1,0.2-0.1h0c0.1,0,0.3,0.1,0.3,0.6c0,0.1,0,0.4,0.1,0.8l0.1,0.9
	c0,0.2,0,0.3,0,0.4c0,0.4-0.2,0.4-0.3,0.4c-0.2,0-0.3-0.3-0.4-0.5c-0.2-0.6-0.6-1.1-1.2-1.5c-0.6-0.4-1.3-0.6-2-0.6
	c-0.6,0-1.1,0.2-1.5,0.5c-0.4,0.3-0.6,0.8-0.6,1.3c0,0.5,0.1,0.8,0.4,1.2c0.2,0.3,0.5,0.5,0.7,0.6c0.3,0.1,1,0.4,2,0.7
	c2.2,0.7,3.3,1.9,3.3,3.5c0,1.1-0.4,2-1.2,2.7C91.8,68.2,90.7,68.5,89.5,68.5"/>
<path class="st0" d="M90,55.9c-1.1,0-2.1,0.3-2.8,0.9c-0.7,0.6-1.1,1.5-1.1,2.5c0,0.9,0.3,1.6,0.9,2.2c0.6,0.6,1.5,1,2.8,1.5
	c1.6,0.5,2,0.8,2.1,0.9c0.4,0.4,0.7,0.9,0.7,1.4c0,0.6-0.2,1.1-0.7,1.5c-0.5,0.4-1.1,0.6-1.8,0.6c-0.7,0-1.4-0.2-2-0.7
	c-0.6-0.4-1-1-1.2-1.7c0-0.2-0.2-0.6-0.5-0.6h0c-0.2,0-0.4,0.1-0.4,0.5c0,0.2,0.1,0.6,0.2,1.2c0.1,0.5,0.2,0.7,0.2,0.8
	c0.1,0.3,0.1,0.5,0.2,0.6c0.1,0.1,0.2,0.2,0.3,0.3c0.3,0.2,0.7,0.3,1.2,0.5c0.5,0.1,1.1,0.2,1.5,0.2c1.3,0,2.3-0.4,3.2-1.1
	c0.8-0.7,1.3-1.7,1.3-2.8c0-1.7-1.1-2.9-3.4-3.7c-1.1-0.4-1.8-0.6-2-0.7c-0.2-0.1-0.5-0.3-0.7-0.6c-0.2-0.3-0.3-0.7-0.3-1.1
	c0-0.5,0.2-0.9,0.5-1.2c0.4-0.3,0.8-0.5,1.4-0.5c0.7,0,1.4,0.2,2,0.6c0.6,0.4,1,0.8,1.1,1.4c0.1,0.2,0.2,0.6,0.5,0.6
	c0.2,0,0.4-0.1,0.4-0.5c0-0.1,0-0.2,0-0.4l-0.1-0.9c-0.1-0.6-0.1-0.8-0.1-0.8c0-0.6-0.3-0.7-0.5-0.7c-0.1,0-0.2,0.1-0.3,0.1
	l-0.1,0.1c0,0,0,0,0,0c0,0,0,0,0,0l-0.6-0.3C91.2,56,90.7,55.9,90,55.9 M90,56.2c0.6,0,1.1,0.1,1.6,0.3l0.6,0.2c0.1,0,0.1,0,0.2,0
	c0.1,0,0.1,0,0.2-0.1l0.1-0.1c0,0,0.1,0,0.1,0c0,0,0,0,0,0c0.1,0,0.2,0.1,0.2,0.4c0,0.1,0,0.4,0.1,0.9l0.1,0.9c0,0.2,0,0.3,0,0.4
	c0,0.2-0.1,0.3-0.2,0.3c-0.1,0-0.2-0.1-0.3-0.4c-0.2-0.6-0.6-1.1-1.3-1.5c-0.6-0.4-1.3-0.6-2.1-0.6c-0.6,0-1.1,0.2-1.5,0.5
	c-0.4,0.4-0.6,0.8-0.6,1.4c0,0.5,0.1,0.9,0.4,1.2c0.2,0.3,0.5,0.5,0.8,0.7c0.3,0.1,1,0.4,2.1,0.7c2.1,0.7,3.2,1.8,3.2,3.4
	c0,1.1-0.4,1.9-1.2,2.6c-0.8,0.7-1.8,1-3,1c-0.4,0-0.9-0.1-1.5-0.2c-0.5-0.1-0.9-0.3-1.2-0.4c-0.1-0.1-0.2-0.1-0.2-0.2
	c0-0.1-0.1-0.3-0.2-0.6c0,0-0.1-0.3-0.2-0.8c-0.2-0.5-0.2-0.9-0.2-1.1c0-0.2,0.1-0.2,0.2-0.2c0,0,0,0,0,0c0.1,0,0.2,0.1,0.3,0.4
	c0.2,0.7,0.6,1.3,1.3,1.8c0.7,0.5,1.4,0.7,2.2,0.7c0.8,0,1.5-0.2,2-0.7c0.5-0.5,0.8-1,0.8-1.7c0-0.6-0.3-1.2-0.8-1.6
	c-0.3-0.2-1-0.5-2.2-1c-1.3-0.4-2.2-0.9-2.7-1.4c-0.5-0.5-0.8-1.2-0.8-2c0-0.9,0.3-1.7,1-2.3C88,56.5,88.9,56.2,90,56.2"/>
<path class="st0" d="M101.2,56.9c-1.3,0-2.3,0.4-3.1,1.3c-0.8,0.9-1.1,2.1-1.1,3.5c0,1.7,0.5,3.1,1.5,4.3c1,1.2,2.2,1.7,3.6,1.7
	c1.3,0,2.4-0.5,3.2-1.4c0.8-0.9,1.3-2.2,1.3-3.6c0-1.7-0.5-3.1-1.5-4.2C104,57.5,102.7,56.9,101.2,56.9 M101.7,68.5
	c-1.9,0-3.4-0.6-4.6-1.7c-1.2-1.1-1.8-2.7-1.8-4.5c0-0.8,0.2-1.6,0.5-2.4c0.3-0.8,0.7-1.5,1.2-2c0.5-0.6,1.2-1,2.1-1.3
	c0.8-0.3,1.7-0.5,2.6-0.5c1.8,0,3.3,0.6,4.5,1.7c1.2,1.1,1.8,2.6,1.8,4.4c0,1.9-0.6,3.4-1.8,4.6C105.1,67.9,103.6,68.5,101.7,68.5"
	/>
<path class="st0" d="M102.1,67.6c-1.4,0-2.5-0.6-3.5-1.7c-1-1.1-1.4-2.6-1.4-4.2c0-1.4,0.4-2.6,1.1-3.4c0.7-0.8,1.7-1.3,3-1.3
	c1.5,0,2.7,0.5,3.7,1.6c1,1.1,1.5,2.5,1.5,4.1c0,1.4-0.4,2.6-1.2,3.5C104.3,67.2,103.3,67.6,102.1,67.6 M101.8,55.9
	c-0.9,0-1.8,0.2-2.6,0.5c-0.9,0.3-1.6,0.8-2.1,1.4c-0.5,0.5-1,1.2-1.3,2c-0.3,0.8-0.5,1.6-0.5,2.4c0,1.9,0.6,3.4,1.8,4.6
	c1.2,1.2,2.8,1.8,4.7,1.8c1.9,0,3.4-0.6,4.6-1.8c1.2-1.2,1.8-2.8,1.8-4.7c0-1.8-0.6-3.3-1.8-4.4C105.2,56.5,103.6,55.9,101.8,55.9
	 M102.1,67.9c1.3,0,2.4-0.5,3.3-1.5c0.9-1,1.3-2.2,1.3-3.7c0-1.7-0.5-3.1-1.6-4.3c-1-1.1-2.3-1.7-3.9-1.7c-1.3,0-2.4,0.4-3.2,1.3
	c-0.8,0.9-1.2,2.1-1.2,3.6c0,1.7,0.5,3.2,1.5,4.4C99.4,67.3,100.6,67.9,102.1,67.9 M101.8,56.2c1.8,0,3.3,0.6,4.4,1.7
	c1.1,1.1,1.7,2.5,1.7,4.3c0,1.8-0.6,3.3-1.7,4.5c-1.2,1.2-2.6,1.8-4.4,1.8c-1.9,0-3.4-0.6-4.5-1.7c-1.1-1.1-1.7-2.6-1.7-4.4
	c0-0.8,0.2-1.6,0.5-2.4c0.3-0.8,0.7-1.4,1.2-1.9c0.5-0.5,1.2-1,2-1.3C100.1,56.4,100.9,56.2,101.8,56.2"/>
<path class="st0" d="M115.6,68.5c-1,0-1.9-0.2-2.7-0.6c-0.8-0.4-1.4-0.9-1.8-1.6c-0.4-0.8-0.6-1.8-0.6-3V59l0-0.5
	c0-0.6-0.1-1-0.2-1.2c-0.1-0.2-0.5-0.3-0.9-0.4c-0.3,0-0.3-0.2-0.3-0.3c0-0.1,0-0.3,0.5-0.3c0.1,0,0.3,0,0.6,0c0.3,0,0.5,0,0.6,0
	l0.7,0h0.7c0.1,0,0.2,0,0.5,0c0.2,0,0.4,0,0.4,0c0.2,0,0.3,0.1,0.3,0.3c0,0.1-0.1,0.3-0.4,0.3c-0.3,0.1-0.5,0.2-0.6,0.4
	c-0.1,0.2-0.2,0.6-0.2,1.1l0,0.6v4.3c0,1.4,0.2,2.5,0.7,3.1c0.6,0.9,1.7,1.3,3.2,1.3c1.3,0,2.3-0.4,3-1.1c0.7-0.7,1-1.8,1-3.3v-4.5
	c0-0.7-0.1-1.2-0.3-1.5c-0.2-0.3-0.5-0.5-1-0.5c-0.3,0-0.4-0.2-0.4-0.3c0-0.2,0.1-0.3,0.3-0.3c0.2,0,0.3,0,0.6,0.1
	c0.2,0,0.5,0,0.8,0c0.6,0,1,0,1.2,0c0.2,0,0.3,0,0.4,0c0.2,0,0.3,0.1,0.3,0.3c0,0.1,0,0.2-0.3,0.3c-0.3,0.1-0.5,0.3-0.6,0.5
	c-0.1,0.2-0.1,0.5-0.1,1.4V63c0,1.6-0.3,2.8-1,3.7c-0.4,0.6-1,1-1.8,1.3C117.3,68.4,116.5,68.5,115.6,68.5"/>
<path class="st0" d="M118.6,56c-0.2,0-0.4,0.2-0.4,0.4c0,0.1,0,0.4,0.5,0.4c0.4,0,0.7,0.2,0.9,0.4c0.2,0.3,0.3,0.8,0.3,1.4v4.5
	c0,1.4-0.3,2.5-1,3.2c-0.6,0.7-1.6,1-2.9,1c-1.4,0-2.5-0.4-3.1-1.2c-0.4-0.6-0.6-1.6-0.6-3v-4.3l0-0.6c0-0.6,0.1-0.9,0.1-1
	c0.1-0.1,0.2-0.2,0.5-0.3c0.4-0.1,0.5-0.3,0.5-0.5c0-0.2-0.1-0.4-0.5-0.4c-0.1,0-0.2,0-0.5,0c-0.2,0-0.4,0-0.5,0h-0.7l-0.7,0
	c-0.1,0-0.3,0-0.6,0c-0.3,0-0.5,0-0.6,0c-0.6,0-0.6,0.4-0.6,0.5c0,0.1,0,0.4,0.5,0.4c0.4,0.1,0.7,0.2,0.8,0.4
	c0.1,0.1,0.2,0.4,0.2,1.1l0,0.5v4.4c0,1.2,0.2,2.3,0.6,3c0.4,0.7,1,1.2,1.8,1.7c0.8,0.4,1.7,0.6,2.7,0.6c0.9,0,1.7-0.2,2.5-0.5
	c0.8-0.3,1.4-0.8,1.8-1.4c0.7-0.9,1-2.2,1-3.8v-4.3c0-0.8,0.1-1.2,0.1-1.4c0.1-0.2,0.3-0.3,0.5-0.5c0.3-0.1,0.3-0.3,0.3-0.4
	c0-0.2-0.2-0.4-0.4-0.4c-0.1,0-0.2,0-0.4,0c-0.1,0-0.4,0-1.2,0c-0.3,0-0.5,0-0.7,0C118.9,56.1,118.7,56,118.6,56L118.6,56L118.6,56z
	 M118.6,56.3C118.6,56.3,118.6,56.3,118.6,56.3c0.1,0,0.3,0,0.6,0.1c0.2,0,0.5,0.1,0.8,0.1c0.6,0,1,0,1.2,0c0.2,0,0.3,0,0.4,0
	c0.1,0,0.2,0.1,0.2,0.2c0,0.1-0.1,0.2-0.2,0.2c-0.3,0.1-0.6,0.3-0.7,0.6c-0.1,0.3-0.2,0.7-0.2,1.5V63c0,1.6-0.3,2.8-0.9,3.6
	c-0.4,0.5-1,1-1.7,1.3c-0.7,0.3-1.5,0.5-2.4,0.5c-1,0-1.9-0.2-2.6-0.6c-0.8-0.4-1.3-0.9-1.7-1.5c-0.4-0.7-0.6-1.7-0.6-2.9V59l0-0.5
	c0-0.6-0.1-1-0.3-1.3c-0.2-0.2-0.5-0.4-1-0.5c-0.2,0-0.2-0.1-0.2-0.2c0-0.1,0.1-0.2,0.3-0.2c0.1,0,0.3,0,0.6,0c0.3,0,0.5,0,0.6,0
	l0.7,0h0.7c0.1,0,0.2,0,0.5,0c0.2,0,0.4,0,0.4,0c0.1,0,0.2,0,0.2,0.1c0,0.1-0.1,0.2-0.3,0.2c-0.3,0.1-0.6,0.2-0.7,0.4
	c-0.1,0.2-0.2,0.6-0.2,1.2l0,0.6v4.3c0,1.5,0.2,2.5,0.7,3.2c0.6,0.9,1.7,1.3,3.3,1.3c1.4,0,2.4-0.4,3.1-1.1c0.7-0.7,1-1.9,1-3.4
	v-4.5c0-0.7-0.1-1.2-0.3-1.6c-0.2-0.3-0.6-0.5-1-0.6c-0.2,0-0.2-0.1-0.2-0.2C118.4,56.3,118.5,56.3,118.6,56.3"/>
<path class="st0" d="M130.1,68.4c-0.1,0-0.2,0-0.4-0.1c-0.1,0-0.5,0-0.8,0l-0.6,0l-0.7,0c-0.2,0-0.4,0-0.6,0c-0.3,0-0.5,0.1-0.6,0.1
	c-0.4,0-0.4-0.2-0.4-0.3c0-0.1,0.1-0.3,0.4-0.3c0.4-0.1,0.7-0.2,0.8-0.3c0.1-0.1,0.2-0.4,0.2-0.9V58l0-0.2c0-0.3,0-0.3,0-0.3
	c0,0-0.1-0.1-0.3-0.1h-2.3c-0.4,0-0.7,0.1-0.9,0.2c-0.2,0.2-0.3,0.5-0.4,1c-0.1,0.3-0.2,0.4-0.4,0.4c-0.1,0-0.3,0-0.3-0.4
	c0-0.1,0-0.4,0.1-0.7c0.1-0.4,0.1-0.7,0.1-1c0-0.3,0-0.5,0.1-0.6c0.1-0.1,0.2-0.2,0.5-0.2h9.3c0.5,0,0.6,0.1,0.7,0.1
	c0.1,0.1,0.1,0.2,0.1,0.7c0,0.4,0,0.6,0,0.7c0,0.2,0,0.3,0.1,0.4c0,0.3-0.2,0.4-0.3,0.4h0c-0.1,0-0.3-0.1-0.3-0.4
	c-0.1-0.5-0.2-0.6-0.3-0.7c-0.1-0.1-0.3-0.2-0.9-0.2h-2.4c-0.3,0-0.4,0.1-0.4,0.1c0,0-0.1,0.1-0.1,0.4v8.4l0,0.3c0,0.6,0.4,1,1,1.1
	c0.3,0,0.4,0.2,0.4,0.3C130.5,68.2,130.5,68.4,130.1,68.4"/>
<path class="st0" d="M132.9,56.2h-9.3c-0.3,0-0.5,0.1-0.6,0.2c-0.1,0.1-0.1,0.3-0.1,0.7c0,0.2,0,0.6-0.1,1c-0.1,0.3-0.1,0.6-0.1,0.7
	c0,0.3,0.2,0.5,0.4,0.5h0c0.2,0,0.4-0.1,0.5-0.5c0.1-0.6,0.3-0.8,0.4-0.9c0.2-0.1,0.4-0.2,0.8-0.2h2.3c0.1,0,0.2,0,0.2,0
	c0,0,0,0.1,0,0.2l0,0.2v8.5c0,0.5-0.1,0.8-0.2,0.8c-0.1,0.1-0.3,0.2-0.7,0.3c-0.5,0.1-0.5,0.3-0.5,0.4c0,0.2,0.1,0.4,0.5,0.4
	c0.1,0,0.2,0,0.6-0.1c0.1,0,0.3,0,0.6,0l0.7,0l0.6,0c0.2,0,0.6,0,0.7,0c0.3,0,0.4,0.1,0.5,0.1c0.4,0,0.5-0.2,0.5-0.4
	c0-0.1-0.1-0.4-0.5-0.4c-0.6-0.1-0.9-0.4-0.9-1l0-0.3v-8.4c0-0.2,0-0.3,0-0.3c0,0,0,0,0,0c0,0,0.1,0,0.3,0h2.4
	c0.6,0,0.8,0.1,0.8,0.1c0.1,0,0.2,0.2,0.3,0.6c0.1,0.4,0.3,0.5,0.5,0.5c0.2,0,0.5-0.2,0.4-0.5c0-0.1,0-0.2-0.1-0.4
	c0-0.1,0-0.3,0-0.7c0-0.4,0-0.7-0.2-0.8C133.5,56.2,133.3,56.2,132.9,56.2 M132.9,56.4c0.3,0,0.5,0,0.6,0.1c0.1,0.1,0.1,0.3,0.1,0.6
	c0,0.3,0,0.6,0,0.7c0,0.2,0,0.3,0.1,0.4c0,0.2-0.1,0.3-0.2,0.3h0c-0.1,0-0.2-0.1-0.2-0.3c-0.1-0.4-0.2-0.7-0.4-0.8
	c-0.2-0.1-0.5-0.2-1-0.2h-2.4c-0.3,0-0.4,0-0.5,0.1c-0.1,0.1-0.1,0.2-0.1,0.5v8.4l0,0.3c0,0.7,0.4,1.1,1.1,1.2
	c0.2,0,0.3,0.1,0.3,0.2c0,0.1-0.1,0.2-0.2,0.2c-0.1,0-0.2,0-0.4-0.1c-0.1,0-0.4,0-0.8,0l-0.6,0l-0.7,0c-0.2,0-0.4,0-0.6,0
	c-0.3,0-0.5,0.1-0.6,0.1c-0.2,0-0.3-0.1-0.3-0.2c0-0.1,0.1-0.1,0.3-0.2c0.4-0.1,0.7-0.2,0.9-0.4c0.2-0.2,0.2-0.5,0.2-1V58l0-0.2
	c0-0.2,0-0.3-0.1-0.4c-0.1-0.1-0.2-0.1-0.4-0.1h-2.3c-0.5,0-0.8,0.1-1,0.3c-0.2,0.2-0.4,0.5-0.5,1.1c-0.1,0.2-0.1,0.3-0.2,0.3h0
	c-0.1,0-0.2-0.1-0.2-0.2c0-0.1,0-0.3,0.1-0.7c0.1-0.4,0.1-0.8,0.1-1c0-0.3,0-0.4,0.1-0.5c0.1-0.1,0.2-0.1,0.4-0.1H132.9z"/>
<path class="st0" d="M143.6,68.4c-0.1,0-0.2,0-0.2-0.1c0,0-0.1-0.1-0.1-0.2c0-0.1,0.1-0.3,0.4-0.3c0.5-0.1,0.8-0.5,0.8-1.3l0-0.3V63
	c0-0.3,0-0.4,0-0.4c0,0-0.1,0-0.4,0H139c-0.4,0-0.5,0.1-0.5,0.1c0,0-0.1,0.1-0.1,0.4v3.2c0,0.6,0.1,1,0.3,1.2c0.2,0.2,0.5,0.3,1,0.4
	c0.4,0,0.4,0.2,0.4,0.3c0,0.1,0,0.2-0.1,0.2c-0.1,0.1-0.2,0.1-0.3,0.1c-0.1,0-0.2,0-0.4,0c-0.2,0-0.5,0-1,0l-0.7,0l-0.6,0
	c-0.1,0-0.3,0-0.5,0c-0.3,0-0.5,0-0.6,0c-0.3,0-0.3-0.2-0.3-0.3c0-0.1,0-0.3,0.3-0.3l0.4-0.1c0.2,0,0.3-0.2,0.4-0.5
	c0.1-0.3,0.1-0.9,0.1-1.7v-7.4c0-0.5-0.1-0.8-0.3-1c-0.2-0.2-0.5-0.3-0.9-0.4c-0.3,0-0.4-0.2-0.4-0.3c0-0.1,0.1-0.3,0.3-0.3
	c0.1,0,0.3,0,0.6,0.1c0.4,0.1,1,0.1,1.6,0.1c0.4,0,0.8,0,1.1-0.1c0.2,0,0.3,0,0.4,0c0.4,0,0.4,0.2,0.4,0.3c0,0.1-0.1,0.2-0.3,0.3
	c-0.4,0.1-0.6,0.2-0.7,0.4c-0.1,0.2-0.2,0.4-0.2,0.8v3.1c0,0.4,0.1,0.5,0.1,0.5c0,0,0.1,0.1,0.5,0.1h5.1c0.3,0,0.4,0,0.4,0
	c0,0,0-0.1,0-0.2v-2.9c0-0.6-0.1-1-0.2-1.2c-0.1-0.2-0.4-0.4-0.8-0.5c-0.3-0.1-0.4-0.2-0.3-0.3c0-0.1,0-0.3,0.3-0.3
	c0.1,0,0.3,0,0.6,0c0.4,0,0.8,0.1,1.2,0.1c0.6,0,1,0,1.3-0.1c0.2,0,0.3,0,0.3,0c0.2,0,0.3,0.2,0.3,0.3c0,0.1,0,0.2-0.3,0.3l-0.3,0.1
	c-0.1,0-0.3,0.1-0.4,0.3c-0.1,0.2-0.2,0.4-0.2,0.7v8.3c0,0.7,0.1,1.1,0.2,1.2c0.1,0.2,0.4,0.3,0.9,0.4c0.3,0,0.4,0.2,0.4,0.3
	c0,0.1,0,0.2-0.1,0.2c-0.1,0.1-0.2,0.1-0.3,0.1c-0.1,0-0.3,0-0.5,0c-0.1,0-0.4,0-0.8,0l-0.6,0l-0.6,0c-0.1,0-0.2,0-0.4,0
	C143.9,68.4,143.7,68.4,143.6,68.4v-0.1V68.4z"/>
<path class="st0" d="M135.6,56c-0.3,0-0.5,0.2-0.5,0.4c0,0.1,0,0.4,0.5,0.4c0.4,0.1,0.7,0.2,0.8,0.4c0.1,0.2,0.2,0.5,0.2,0.9v7.4
	c0,1-0.1,1.4-0.1,1.6c-0.1,0.3-0.2,0.4-0.3,0.4l-0.4,0.1c-0.4,0.1-0.4,0.3-0.4,0.5c0,0.2,0.1,0.4,0.5,0.4c0.1,0,0.3,0,0.6,0
	c0.2,0,0.4,0,0.5,0l0.6,0l0.7,0c0.7,0,0.9,0,1,0c0.2,0,0.4,0,0.5,0c0.2,0,0.3,0,0.4-0.1c0.1-0.1,0.1-0.2,0.1-0.3
	c0-0.1-0.1-0.4-0.6-0.5c-0.4,0-0.7-0.2-0.9-0.4c-0.1-0.1-0.2-0.4-0.2-1.1V63c0-0.2,0-0.3,0-0.3c0,0,0,0,0,0c0,0,0.1,0,0.4,0h5.1
	c0.2,0,0.3,0,0.3,0c0,0,0,0.1,0,0.3v3.2l0,0.3c0,1-0.4,1.2-0.7,1.2c-0.4,0.1-0.5,0.3-0.5,0.4c0,0.2,0.1,0.3,0.1,0.3
	c0.1,0.1,0.2,0.1,0.3,0.1c0.1,0,0.3,0,0.6,0c0.2,0,0.3,0,0.4,0l0.7,0l0.6,0c0.4,0,0.7,0,0.8,0c0.2,0,0.4,0,0.5,0
	c0.2,0,0.3,0,0.4-0.1c0.1-0.1,0.1-0.2,0.1-0.3c0-0.1-0.1-0.3-0.5-0.4c-0.4,0-0.7-0.2-0.8-0.3c-0.1-0.1-0.2-0.4-0.2-1.1v-8.3
	c0-0.2,0-0.5,0.1-0.6c0.1-0.2,0.2-0.2,0.3-0.3l0.4-0.1c0.4-0.1,0.4-0.4,0.4-0.4c0-0.2-0.1-0.4-0.5-0.4c-0.1,0-0.2,0-0.4,0
	c-0.2,0-0.7,0-1.3,0c-0.4,0-0.8,0-1.2-0.1c-0.3,0-0.5,0-0.6,0c-0.3,0-0.5,0.2-0.5,0.4c0,0.1,0,0.4,0.5,0.5c0.3,0.1,0.6,0.2,0.7,0.4
	c0.1,0.1,0.2,0.5,0.2,1.1v2.9c0,0,0,0.1,0,0.1c0,0-0.1,0-0.3,0H139c-0.3,0-0.4,0-0.4,0c0,0,0-0.2,0-0.4V58c0-0.5,0.1-0.7,0.1-0.8
	c0.1-0.1,0.2-0.2,0.6-0.3c0.4-0.1,0.4-0.3,0.4-0.4c0-0.2-0.1-0.4-0.5-0.4c-0.1,0-0.2,0-0.4,0c-0.3,0-0.7,0.1-1.1,0.1
	c-0.6,0-1.1,0-1.5-0.1C135.9,56,135.7,56,135.6,56L135.6,56L135.6,56z M135.6,56.3C135.6,56.3,135.6,56.3,135.6,56.3
	c0.1,0,0.3,0,0.5,0.1c0.4,0.1,1,0.1,1.6,0.1c0.4,0,0.8,0,1.1-0.1c0.2,0,0.3,0,0.4,0c0.2,0,0.2,0.1,0.2,0.2c0,0.1-0.1,0.2-0.2,0.2
	c-0.4,0.1-0.6,0.2-0.8,0.4c-0.1,0.2-0.2,0.5-0.2,0.9v3.1c0,0.3,0,0.5,0.1,0.6c0.1,0.1,0.3,0.1,0.6,0.1h5.1c0.3,0,0.4,0,0.5-0.1
	c0.1,0,0.1-0.1,0.1-0.3v-2.9c0-0.6-0.1-1-0.2-1.3c-0.1-0.2-0.4-0.4-0.8-0.5c-0.2,0-0.3-0.1-0.2-0.2c0-0.1,0.1-0.1,0.2-0.1
	c0.1,0,0.3,0,0.6,0c0.4,0,0.8,0.1,1.2,0.1c0.6,0,1,0,1.3-0.1c0.2,0,0.3,0,0.3,0c0.1,0,0.2,0.1,0.2,0.2c0,0.1-0.1,0.1-0.2,0.2
	l-0.3,0.1c-0.2,0-0.3,0.2-0.4,0.4c-0.1,0.2-0.2,0.5-0.2,0.8v8.3c0,0.6,0.1,1,0.3,1.3c0.2,0.2,0.5,0.4,1,0.4c0.2,0,0.3,0.1,0.3,0.2
	c0,0.1-0.1,0.2-0.2,0.2c-0.1,0-0.3,0-0.4,0c-0.1,0-0.4,0-0.9,0l-0.6,0l-0.6,0c-0.1,0-0.2,0-0.4,0c-0.4,0-0.6,0-0.6,0h0
	c-0.1,0-0.2-0.1-0.2-0.2c0-0.1,0.1-0.2,0.3-0.2c0.6-0.1,0.9-0.6,0.9-1.5l0-0.3V63c0-0.3,0-0.4-0.1-0.5c0,0-0.2-0.1-0.5-0.1H139
	c-0.3,0-0.5,0-0.6,0.1c-0.1,0.1-0.1,0.2-0.1,0.5v3.2c0,0.6,0.1,1,0.3,1.3c0.2,0.2,0.5,0.4,1.1,0.4c0.2,0,0.3,0.1,0.3,0.2
	c0,0.1-0.1,0.2-0.2,0.2c-0.1,0-0.2,0-0.4,0c-0.2,0-0.5,0-1,0l-0.7,0l-0.6,0c-0.1,0-0.3,0-0.5,0c-0.3,0-0.5,0-0.5,0
	c-0.1,0-0.2-0.1-0.2-0.2c0-0.1,0.1-0.2,0.2-0.2l0.4-0.1c0.3-0.1,0.4-0.2,0.5-0.6c0.1-0.3,0.1-0.9,0.1-1.7v-7.4
	c0-0.5-0.1-0.9-0.3-1.1c-0.2-0.2-0.5-0.4-1-0.4c-0.2,0-0.2-0.1-0.2-0.2C135.4,56.3,135.4,56.3,135.6,56.3"/>
<path class="st0" d="M158.5,62.4c-0.1,0.2-0.1,0.3-0.1,0.3c0,0.1,0.1,0.1,0.3,0.1l0.2,0h2.6c0.1,0,0.3,0,0.3-0.1c0,0,0-0.1,0-0.2
	l0-0.2l-1.4-3.6c0-0.1-0.1-0.2-0.1-0.2C160.2,58.6,158.5,62.4,158.5,62.4 M157.2,68.4l-0.8,0c-0.3,0-0.6,0-0.9,0c-0.2,0-0.3,0-0.4,0
	c-0.3,0-0.5,0-0.5,0c-0.3,0-0.4-0.2-0.4-0.3c0-0.2,0.1-0.3,0.2-0.3l0.3-0.1c0,0,0.2-0.1,0.4-0.4c0.2-0.2,0.3-0.5,0.5-0.7l0.2-0.6
	l4.4-9.8c0-0.1,0.1-0.3,0.4-0.3c0.2,0,0.3,0.1,0.4,0.3l3.9,9.9c0.3,0.7,0.5,1.1,0.6,1.3c0.1,0.1,0.4,0.3,1,0.4
	c0.3,0.1,0.4,0.3,0.4,0.3c0,0.1,0,0.3-0.4,0.3c0,0-0.1,0-0.3,0c-0.3,0-0.8,0-1.6,0c-0.8,0-1.3,0-1.5,0c-0.1,0-0.2,0-0.3,0
	c-0.3,0-0.4-0.2-0.4-0.3c0-0.1,0-0.3,0.3-0.3l0.3-0.1c0.2,0,0.3-0.1,0.3-0.5c0-0.3-0.2-0.9-0.5-1.8l-0.4-1.1
	c-0.2-0.4-0.2-0.5-0.2-0.5l0,0c0,0-0.1,0-0.5,0h-3.1c-0.5,0-0.7,0.1-0.7,0.1c0,0-0.1,0.1-0.4,0.6l-0.6,1.3c-0.2,0.6-0.4,1-0.4,1.2
	c0,0.2,0.1,0.4,0.2,0.5c0.1,0.1,0.3,0.2,0.7,0.3c0.3,0.1,0.4,0.2,0.4,0.3c0,0.1,0,0.1-0.1,0.2c-0.1,0.1-0.2,0.1-0.3,0.1L157.2,68.4z
	"/>
<path class="st0" d="M158.6,62.6c0,0,0-0.1,0.1-0.2l1.6-3.5l0,0.1l1.4,3.4l0,0.1c0,0,0,0.1,0,0.1c0,0-0.1,0-0.2,0h-2.6l-0.2,0
	C158.6,62.6,158.6,62.6,158.6,62.6 M160.7,55.7c-0.2,0-0.4,0.1-0.5,0.4l-4.4,9.8l-0.2,0.6c-0.1,0.2-0.3,0.5-0.4,0.7
	c-0.2,0.3-0.3,0.3-0.3,0.3l-0.3,0.1c-0.2,0.1-0.3,0.2-0.3,0.4c0,0.2,0.1,0.4,0.5,0.4c0,0,0.2,0,0.5,0c0.1,0,0.2,0,0.4,0
	c0.4,0,0.7,0,0.9,0l0.8,0l0.1,0c0.1,0,0.1,0,0.2,0c0.2,0,0.3,0,0.4-0.1c0.1-0.1,0.1-0.2,0.1-0.3c0-0.1-0.1-0.4-0.5-0.4
	c-0.5-0.1-0.6-0.2-0.7-0.2c-0.1-0.1-0.1-0.3-0.1-0.4c0-0.2,0.1-0.5,0.4-1.2l0.6-1.3c0.2-0.5,0.3-0.6,0.3-0.6c0,0,0.1-0.1,0.6-0.1
	h3.1c0.3,0,0.4,0,0.4,0c0,0,0.1,0.2,0.2,0.4l0.4,1.1c0.4,1.1,0.5,1.5,0.5,1.7c0,0.3-0.1,0.3-0.2,0.3l-0.3,0.1
	c-0.4,0.1-0.4,0.3-0.4,0.4c0,0.2,0.1,0.4,0.5,0.4c0.1,0,0.2,0,0.3,0c0.1,0,0.5,0,1.4,0c0.8,0,1.3,0,1.6,0l0,0l0,0c0.2,0,0.3,0,0.3,0
	c0.5,0,0.5-0.3,0.5-0.4c0-0.1,0-0.4-0.5-0.5c-0.6-0.1-0.9-0.3-1-0.3c-0.1-0.1-0.3-0.3-0.6-1.2l-0.2-0.5l-3.7-9.5
	C161,55.8,160.8,55.7,160.7,55.7 M158.9,62.9h2.6c0.3,0,0.4-0.1,0.4-0.2c0,0,0-0.1,0-0.2l0-0.2l-1.4-3.4l-0.1-0.2
	c-0.1-0.2-0.1-0.3-0.2-0.3c0,0,0,0,0,0c0,0-0.1,0.1-0.1,0.2l-1.7,3.7c-0.1,0.2-0.1,0.3-0.1,0.3c0,0.2,0.1,0.2,0.4,0.2L158.9,62.9z
	 M160.7,56c0.1,0,0.2,0.1,0.2,0.2l3.7,9.5l0.2,0.5c0.3,0.7,0.5,1.1,0.7,1.3c0.2,0.2,0.5,0.3,1.1,0.4c0.2,0,0.3,0.1,0.3,0.2
	c0,0.1-0.1,0.1-0.2,0.1c-0.1,0-0.2,0-0.3,0c-0.3,0-0.8,0-1.6,0c-0.8,0-1.3,0-1.5,0c-0.1,0-0.2,0-0.3,0c-0.1,0-0.2-0.1-0.2-0.2
	c0-0.1,0.1-0.2,0.2-0.2l0.3-0.1c0.3-0.1,0.4-0.3,0.4-0.6c0-0.3-0.2-0.9-0.5-1.8l-0.4-1.1c-0.1-0.3-0.2-0.5-0.3-0.5
	c-0.1,0-0.3-0.1-0.6-0.1h-3.1c-0.4,0-0.7,0-0.8,0.1c-0.1,0.1-0.2,0.3-0.4,0.7l-0.6,1.3c-0.3,0.6-0.4,1-0.4,1.3
	c0,0.3,0.1,0.5,0.2,0.6c0.1,0.1,0.4,0.2,0.8,0.3c0.2,0,0.3,0.1,0.3,0.2c0,0.1-0.1,0.1-0.2,0.1c-0.1,0-0.2,0-0.3,0l-0.8,0
	c-0.3,0-0.6,0-0.9,0c-0.2,0-0.3,0-0.4,0c-0.3,0-0.5,0-0.5,0c-0.2,0-0.2-0.1-0.2-0.2c0-0.1,0-0.2,0.1-0.2l0.3-0.1
	c0.1,0,0.3-0.2,0.5-0.4c0.2-0.2,0.4-0.5,0.5-0.8l0.2-0.6l4.4-9.8C160.5,56.1,160.6,56,160.7,56"/>
<path class="st0" d="M172.8,68.5c-1,0-1.9-0.2-2.7-0.6c-0.8-0.4-1.4-0.9-1.8-1.6c-0.4-0.8-0.6-1.8-0.6-3V59l0-0.5
	c0-0.6-0.1-1-0.2-1.2c-0.1-0.2-0.5-0.3-0.9-0.4c-0.3,0-0.3-0.2-0.3-0.3c0-0.1,0-0.3,0.5-0.3c0.1,0,0.3,0,0.6,0c0.3,0,0.4,0,0.6,0
	l0.7,0h0.7c0.1,0,0.2,0,0.5,0c0.2,0,0.4,0,0.5,0c0.3,0,0.3,0.2,0.3,0.3c0,0.1-0.1,0.3-0.4,0.3c-0.3,0.1-0.5,0.2-0.6,0.4
	c-0.1,0.2-0.2,0.6-0.2,1.1l0,0.6v4.3c0,1.4,0.2,2.5,0.7,3.1c0.6,0.9,1.7,1.3,3.2,1.3c1.3,0,2.3-0.4,3-1.1c0.7-0.7,1-1.8,1-3.3v-4.5
	c0-0.7-0.1-1.2-0.3-1.5c-0.2-0.3-0.5-0.4-1-0.5c-0.3,0-0.4-0.2-0.4-0.3c0-0.2,0.1-0.3,0.3-0.3c0.2,0,0.3,0,0.6,0.1
	c0.2,0,0.5,0,0.8,0c0.6,0,1,0,1.2,0c0.2,0,0.3,0,0.4,0c0.2,0,0.3,0.1,0.3,0.3c0,0.1,0,0.2-0.3,0.3c-0.3,0.1-0.5,0.3-0.6,0.5
	c-0.1,0.2-0.1,0.7-0.1,1.4V63c0,1.6-0.3,2.8-1,3.7c-0.4,0.5-1,1-1.8,1.3C174.4,68.4,173.6,68.5,172.8,68.5"/>
<path class="st0" d="M175.7,56c-0.2,0-0.4,0.2-0.4,0.4c0,0.1,0,0.4,0.5,0.4c0.4,0,0.7,0.2,0.9,0.4c0.2,0.3,0.3,0.8,0.3,1.4v4.5
	c0,1.4-0.3,2.5-1,3.2c-0.6,0.7-1.6,1-2.9,1c-1.4,0-2.5-0.4-3.1-1.2c-0.4-0.6-0.6-1.6-0.6-3v-4.3l0-0.6c0-0.6,0.1-0.9,0.1-1
	c0.1-0.1,0.2-0.2,0.5-0.3c0.4-0.1,0.5-0.3,0.5-0.5c0-0.2-0.1-0.4-0.5-0.4c-0.1,0-0.2,0-0.5,0c-0.2,0-0.4,0-0.5,0h-0.7l-0.7,0
	c-0.1,0-0.3,0-0.6,0c-0.3,0-0.5,0-0.6,0c-0.6,0-0.6,0.4-0.6,0.5c0,0.1,0,0.4,0.5,0.4c0.4,0.1,0.7,0.2,0.8,0.4
	c0.1,0.1,0.2,0.4,0.2,1.1l0,0.5v4.4c0,1.2,0.2,2.3,0.6,3c0.4,0.7,1,1.2,1.8,1.7c0.8,0.4,1.7,0.6,2.7,0.6c0.9,0,1.7-0.2,2.5-0.5
	c0.8-0.3,1.4-0.8,1.8-1.4c0.7-0.9,1-2.1,1-3.8v-4.3c0-0.8,0.1-1.2,0.1-1.4c0.1-0.2,0.3-0.3,0.5-0.5c0.3-0.1,0.3-0.3,0.3-0.4
	c0-0.2-0.2-0.4-0.4-0.4c-0.1,0-0.2,0-0.4,0c-0.1,0-0.4,0-1.2,0c-0.3,0-0.5,0-0.7,0C176.1,56.1,175.9,56,175.7,56L175.7,56L175.7,56z
	 M175.7,56.3C175.7,56.3,175.7,56.3,175.7,56.3c0.1,0,0.3,0,0.6,0.1c0.2,0,0.5,0.1,0.8,0.1c0.6,0,1,0,1.2,0c0.2,0,0.3,0,0.4,0
	c0.1,0,0.2,0.1,0.2,0.2c0,0.1-0.1,0.2-0.2,0.2c-0.4,0.1-0.6,0.3-0.7,0.6c-0.1,0.3-0.2,0.7-0.2,1.5V63c0,1.6-0.3,2.8-0.9,3.6
	c-0.4,0.5-1,1-1.7,1.3c-0.7,0.3-1.5,0.5-2.4,0.5c-1,0-1.9-0.2-2.6-0.6c-0.8-0.4-1.4-0.9-1.7-1.5c-0.4-0.7-0.6-1.7-0.6-2.9V59l0-0.5
	c0-0.6-0.1-1-0.3-1.3c-0.2-0.2-0.5-0.4-1-0.5c-0.2,0-0.2-0.1-0.2-0.2c0-0.1,0.1-0.2,0.3-0.2c0.1,0,0.3,0,0.6,0c0.3,0,0.5,0,0.6,0
	l0.7,0h0.7c0.1,0,0.2,0,0.5,0c0.2,0,0.4,0,0.4,0c0.1,0,0.2,0,0.2,0.1c0,0.1-0.1,0.2-0.3,0.2c-0.3,0.1-0.6,0.2-0.7,0.4
	c-0.1,0.2-0.2,0.6-0.2,1.2l0,0.6v4.3c0,1.5,0.2,2.5,0.7,3.2c0.6,0.9,1.7,1.3,3.3,1.3c1.4,0,2.4-0.4,3.1-1.1c0.7-0.7,1-1.9,1-3.4
	v-4.5c0-0.7-0.1-1.2-0.3-1.6c-0.2-0.3-0.6-0.5-1.1-0.6c-0.2,0-0.3-0.1-0.3-0.2C175.5,56.3,175.6,56.3,175.7,56.3"/>
<path class="st0" d="M184,68.5c-0.5,0-1-0.1-1.5-0.2c-0.5-0.1-0.9-0.3-1.2-0.5c-0.1-0.1-0.2-0.2-0.3-0.3c0-0.1-0.1-0.3-0.2-0.6
	c0,0-0.2-0.8-0.2-0.8c-0.2-0.5-0.2-0.9-0.2-1.1c0-0.3,0.2-0.4,0.3-0.4c0.2,0,0.4,0.3,0.4,0.5c0.2,0.7,0.6,1.3,1.3,1.7
	c0.6,0.5,1.3,0.7,2.1,0.7c0.8,0,1.4-0.2,1.9-0.7c0.5-0.4,0.8-1,0.8-1.6c0-0.6-0.2-1.1-0.7-1.5c-0.2-0.1-0.7-0.4-2.2-0.9
	c-1.3-0.4-2.2-0.9-2.8-1.5c-0.6-0.5-0.8-1.3-0.8-2.1c0-1,0.4-1.8,1.1-2.4c0.7-0.6,1.6-0.9,2.8-0.9c0.6,0,1.2,0.1,1.6,0.3l0.6,0.2
	c0,0,0.1,0,0.1,0c0,0,0.1,0,0.1-0.1l0.1-0.1c0,0,0.1-0.1,0.2-0.1h0c0.2,0,0.3,0.1,0.3,0.6c0,0.1,0,0.2,0.1,0.8l0.1,0.9
	c0,0.2,0,0.3,0,0.4c0,0.4-0.2,0.4-0.3,0.4c-0.2,0-0.3-0.3-0.4-0.5c-0.2-0.6-0.6-1.1-1.2-1.5c-0.6-0.4-1.3-0.6-2-0.6
	c-0.6,0-1.1,0.2-1.5,0.5c-0.4,0.3-0.6,0.8-0.6,1.3c0,0.5,0.1,0.8,0.4,1.2c0.2,0.3,0.5,0.5,0.7,0.6c0.3,0.1,0.9,0.4,2,0.7
	c2.2,0.7,3.3,1.9,3.3,3.5c0,1.1-0.4,2-1.2,2.7C186.3,68.2,185.2,68.5,184,68.5"/>
<path class="st0" d="M184.5,55.9c-1.1,0-2.1,0.3-2.8,0.9c-0.8,0.6-1.1,1.5-1.1,2.5c0,0.9,0.3,1.6,0.9,2.2c0.6,0.6,1.5,1,2.8,1.5
	c1.6,0.5,2,0.8,2.1,0.9c0.4,0.4,0.7,0.9,0.7,1.4c0,0.6-0.2,1.1-0.7,1.5c-0.5,0.4-1.1,0.6-1.8,0.6c-0.7,0-1.4-0.2-2-0.7
	c-0.6-0.4-1-1-1.2-1.7c0-0.2-0.2-0.6-0.5-0.6h0c-0.1,0-0.4,0-0.4,0.5c0,0.2,0.1,0.6,0.2,1.2l0.1,0.3c0.1,0.3,0.1,0.5,0.1,0.5
	c0.1,0.5,0.2,0.6,0.2,0.7c0.1,0.1,0.2,0.2,0.3,0.3c0.3,0.2,0.7,0.3,1.2,0.5c0.5,0.1,1.1,0.2,1.5,0.2c1.3,0,2.4-0.4,3.2-1.1
	c0.8-0.7,1.3-1.7,1.3-2.8c0-1.7-1.1-2.9-3.4-3.7c-1.1-0.4-1.8-0.6-2-0.7c-0.2-0.1-0.5-0.3-0.7-0.6c-0.2-0.3-0.3-0.7-0.3-1.1
	c0-0.5,0.2-0.9,0.5-1.2c0.4-0.3,0.8-0.5,1.4-0.5c0.7,0,1.4,0.2,2,0.6c0.6,0.4,1,0.8,1.1,1.4c0.1,0.2,0.2,0.6,0.5,0.6
	c0.2,0,0.4-0.1,0.4-0.5c0,0,0-0.1,0-0.4l-0.1-0.9c-0.1-0.6-0.1-0.8-0.1-0.8c0-0.6-0.3-0.7-0.5-0.7c-0.2,0-0.2,0.1-0.3,0.1l-0.1,0.1
	c0,0,0,0,0,0c0,0,0,0-0.1,0l-0.6-0.2C185.7,56,185.2,55.9,184.5,55.9 M184.5,56.2c0.6,0,1.1,0.1,1.6,0.3l0.6,0.2c0.1,0,0.1,0,0.2,0
	c0.1,0,0.1,0,0.2-0.1l0.1-0.1c0,0,0.1,0,0.1,0c0,0,0,0,0,0c0.1,0,0.2,0.1,0.2,0.4c0,0.1,0,0.4,0.1,0.9l0.1,0.9c0,0.2,0,0.3,0,0.4
	c0,0.2-0.1,0.3-0.2,0.3c-0.1,0-0.2-0.1-0.3-0.4c-0.2-0.6-0.6-1.1-1.3-1.5c-0.6-0.4-1.3-0.6-2.1-0.6c-0.6,0-1.1,0.2-1.5,0.5
	c-0.4,0.4-0.6,0.8-0.6,1.4c0,0.5,0.1,0.9,0.4,1.2c0.2,0.3,0.5,0.5,0.8,0.7c0.3,0.1,1,0.4,2,0.7c2.1,0.7,3.2,1.8,3.2,3.4
	c0,1.1-0.4,1.9-1.2,2.6c-0.8,0.7-1.8,1-3,1c-0.4,0-0.9-0.1-1.5-0.2c-0.5-0.1-0.9-0.3-1.2-0.4c-0.1-0.1-0.2-0.1-0.2-0.2
	c0-0.1-0.1-0.3-0.2-0.6c0,0-0.1-0.3-0.2-0.8c-0.1-0.5-0.2-0.9-0.2-1.1c0-0.2,0.1-0.2,0.2-0.2c0,0,0,0,0,0c0.1,0,0.2,0.1,0.3,0.4
	c0.2,0.7,0.6,1.3,1.3,1.8c0.7,0.5,1.4,0.7,2.2,0.7c0.8,0,1.5-0.2,2-0.7c0.5-0.5,0.8-1,0.8-1.7c0-0.6-0.3-1.2-0.8-1.6
	c-0.3-0.2-1-0.5-2.2-1c-1.3-0.4-2.2-0.9-2.7-1.4c-0.5-0.5-0.8-1.2-0.8-2c0-0.9,0.3-1.7,1-2.3C182.6,56.5,183.4,56.2,184.5,56.2"/>
<path class="st0" d="M196.7,68.4c-0.1,0-0.2,0-0.4-0.1c-0.1,0-0.5,0-0.8,0l-0.6,0l-0.7,0c-0.2,0-0.4,0-0.6,0c-0.3,0-0.5,0.1-0.6,0.1
	c-0.4,0-0.4-0.2-0.4-0.3c0-0.1,0.1-0.3,0.4-0.3c0.4-0.1,0.7-0.2,0.8-0.3c0.1-0.2,0.2-0.5,0.2-0.9V58l0-0.2c0-0.3-0.1-0.3-0.1-0.3
	c0,0-0.1-0.1-0.3-0.1h-2.3c-0.4,0-0.7,0.1-0.9,0.2c-0.2,0.2-0.3,0.5-0.4,1c-0.1,0.3-0.2,0.4-0.3,0.4c-0.1,0-0.3,0-0.3-0.4
	c0-0.1,0-0.3,0.1-0.7c0.1-0.4,0.1-0.7,0.1-1c0-0.3,0-0.5,0.1-0.6c0.1-0.1,0.2-0.2,0.5-0.2h9.3c0.5,0,0.6,0.1,0.7,0.1
	c0.1,0.1,0.1,0.3,0.1,0.7c0,0.3,0,0.6,0,0.7c0,0.2,0,0.3,0.1,0.4c0,0.3-0.2,0.4-0.3,0.4h0c-0.1,0-0.3-0.1-0.3-0.4
	c-0.1-0.5-0.2-0.6-0.3-0.7c-0.1-0.1-0.3-0.2-0.9-0.2h-2.4c-0.3,0-0.4,0.1-0.4,0.1c0,0-0.1,0.1-0.1,0.4v8.4l0,0.3c0,0.6,0.4,1,1,1.1
	c0.3,0,0.4,0.2,0.4,0.3C197.1,68.2,197,68.4,196.7,68.4"/>
<path class="st0" d="M199.4,56.2h-9.3c-0.3,0-0.5,0.1-0.6,0.2c-0.1,0.1-0.1,0.3-0.1,0.7c0,0.3,0,0.6-0.1,1c-0.1,0.3-0.1,0.6-0.1,0.7
	c0,0.3,0.2,0.5,0.4,0.5h0c0.2,0,0.4-0.1,0.5-0.5c0.1-0.6,0.3-0.8,0.4-0.9c0.2-0.1,0.4-0.2,0.8-0.2h2.3c0.1,0,0.2,0,0.2,0
	c0,0,0,0.1,0,0.2l0,0.2v8.5c0,0.5-0.1,0.8-0.2,0.8c-0.1,0.1-0.3,0.2-0.7,0.3c-0.4,0-0.5,0.3-0.5,0.4c0,0.2,0.1,0.4,0.5,0.4
	c0.1,0,0.2,0,0.6-0.1c0.1,0,0.3,0,0.6,0l0.7,0l0.6,0c0.2,0,0.6,0,0.7,0c0.3,0,0.4,0.1,0.5,0.1c0.4,0,0.5-0.2,0.5-0.4
	c0-0.1-0.1-0.4-0.5-0.4c-0.6-0.1-0.9-0.4-0.9-1l0-0.3v-8.4c0-0.2,0-0.3,0-0.3c0,0,0,0,0,0c0,0,0.1,0,0.3,0h2.4
	c0.6,0,0.8,0.1,0.8,0.1c0.1,0,0.2,0.2,0.3,0.6c0.1,0.4,0.3,0.5,0.5,0.5c0.2,0,0.5-0.2,0.4-0.5c0-0.1,0-0.2-0.1-0.4
	c0-0.1,0-0.4,0-0.7c0-0.4,0-0.7-0.2-0.8C200.1,56.2,199.9,56.2,199.4,56.2 M199.4,56.4c0.3,0,0.5,0,0.6,0.1c0.1,0.1,0.1,0.3,0.1,0.6
	c0,0.3,0,0.6,0,0.7c0,0.2,0,0.3,0.1,0.4c0,0.2-0.1,0.3-0.2,0.3h0c-0.1,0-0.2-0.1-0.2-0.3c-0.1-0.4-0.2-0.7-0.4-0.8
	c-0.2-0.1-0.5-0.2-1-0.2h-2.4c-0.3,0-0.4,0-0.5,0.1c-0.1,0.1-0.1,0.2-0.1,0.5v8.4l0,0.3c0,0.7,0.4,1.1,1.1,1.2
	c0.2,0,0.3,0.1,0.3,0.2c0,0.1-0.1,0.2-0.2,0.2c-0.1,0-0.2,0-0.4-0.1c-0.1,0-0.4,0-0.8,0l-0.6,0l-0.7,0c-0.2,0-0.4,0-0.6,0
	c-0.3,0-0.5,0.1-0.6,0.1c-0.2,0-0.3-0.1-0.3-0.2c0-0.1,0.1-0.1,0.3-0.2c0.4-0.1,0.7-0.2,0.9-0.4c0.2-0.2,0.2-0.5,0.2-1V58l0-0.2
	c0-0.2,0-0.3-0.1-0.4c-0.1-0.1-0.2-0.1-0.4-0.1h-2.3c-0.5,0-0.8,0.1-1,0.3c-0.2,0.2-0.4,0.5-0.5,1.1c-0.1,0.2-0.1,0.3-0.2,0.3h0
	c-0.1,0-0.2-0.1-0.2-0.2c0-0.1,0-0.3,0.1-0.7c0.1-0.4,0.1-0.8,0.1-1c0-0.3,0-0.4,0.1-0.5c0.1-0.1,0.2-0.1,0.4-0.1H199.4z"/>
<path class="st0" d="M205.4,57c-0.4,0-0.5,0.1-0.6,0.1c-0.1,0.1-0.1,0.3-0.1,0.5l0,0.3v3.5c0,0.3,0.1,0.4,0.1,0.4
	c0,0,0.1,0.1,0.4,0.1h1c0.7,0,1.3-0.2,1.7-0.6c0.4-0.4,0.6-0.9,0.6-1.6c0-0.8-0.3-1.5-0.8-2C207,57.3,206.3,57,205.4,57 M211.5,68.5
	c-0.5,0-1-0.2-1.5-0.4c-0.4-0.3-0.9-0.8-1.3-1.4l-2.3-3.5c-0.1-0.2-0.3-0.3-0.6-0.3h-1.1l-0.2,0h0c0,0,0,0,0,0.1v2.7l0,0.3
	c0,0.6,0,0.9,0.1,1c0,0.2,0.1,0.3,0.3,0.4c0.2,0.2,0.6,0.3,1.1,0.3c0.3,0,0.4,0.2,0.4,0.3c0,0.1,0,0.2-0.1,0.2
	c-0.1,0.1-0.2,0.1-0.4,0.1c-0.1,0-0.3,0-0.5,0c-0.2,0-0.6,0-1.1,0l-0.8,0l-0.4,0c-0.2,0-0.4,0-0.7,0c-0.2,0-0.4,0-0.5,0
	c-0.2,0-0.3-0.1-0.3-0.3c0-0.1,0.1-0.2,0.3-0.3c0.4-0.1,0.7-0.3,0.8-0.5c0.1-0.3,0.2-0.9,0.2-1.9v-6.2l0-0.9c0-0.8-0.3-1.3-0.8-1.4
	l-0.4-0.1c-0.3-0.1-0.4-0.2-0.4-0.3c0-0.1,0-0.3,0.4-0.3c0,0,0.2,0,0.6,0c0.2,0,0.5,0,0.8,0c0.3,0,0.7,0,1.3-0.1c0.5,0,0.9,0,1.2,0
	c1.3,0,2.4,0.3,3.1,0.8c0.7,0.5,1.1,1.3,1.1,2.3c0,1.3-0.7,2.3-2.1,3l2.6,3.8c0.7,1,1.4,1.6,1.9,1.6l0.3,0c0.1,0,0.2,0,0.2,0.1l0,0
	l0,0.1c0,0.2-0.3,0.3-0.5,0.4C212.1,68.4,211.8,68.5,211.5,68.5"/>
<path class="st0" d="M204.8,61.8c0,0,0-0.1,0-0.3V58l0-0.3c0-0.2,0-0.4,0.1-0.4c0,0,0.2-0.1,0.5-0.1c0.8,0,1.5,0.2,2.1,0.7
	c0.5,0.5,0.8,1.1,0.8,1.9c0,0.7-0.2,1.1-0.6,1.5c-0.4,0.4-0.9,0.5-1.6,0.5h-1C204.9,61.8,204.8,61.8,204.8,61.8 M205.8,56.1
	c-0.3,0-0.7,0-1.2,0c-0.6,0-1.1,0.1-1.3,0.1c-0.3,0-0.5,0-0.7,0c-0.4,0-0.6,0-0.6,0c-0.5,0-0.6,0.4-0.6,0.4c0,0.1,0,0.4,0.5,0.5
	l0.4,0.1c0.3,0,0.7,0.2,0.7,1.2l0,0.9v6.2c0,0.9-0.1,1.6-0.2,1.8c-0.1,0.3-0.3,0.4-0.7,0.5c-0.4,0.1-0.4,0.3-0.4,0.4
	c0,0.2,0.1,0.4,0.5,0.4c0.1,0,0.3,0,0.5,0c0.3,0,0.5,0,0.7,0l0.4,0l0.8,0c0.5,0,0.8,0,1.1,0c0.3,0,0.5,0,0.5,0
	c0.2,0,0.4-0.1,0.5-0.2c0.1-0.1,0.1-0.2,0.1-0.3c0-0.1-0.1-0.4-0.6-0.4c-0.5,0-0.8-0.2-1-0.3c-0.1-0.1-0.2-0.2-0.3-0.4
	c0-0.1-0.1-0.3-0.1-0.9l0-0.3V63c0,0,0,0,0,0l0.1,0h1.1c0.2,0,0.4,0.1,0.4,0.2l0.1,0.2l2.1,3.3c0.4,0.7,0.9,1.2,1.3,1.5
	c0.5,0.3,1,0.5,1.5,0.5c0.3,0,0.6,0,0.9-0.1c0.1,0,0.5-0.1,0.6-0.5c0-0.1,0-0.2-0.1-0.3c-0.1-0.1-0.2-0.1-0.3-0.1l-0.3,0
	c-0.5,0-1.2-0.6-1.8-1.6l-0.3-0.4l-2.2-3.3c1.3-0.7,2-1.8,2-3.1c0-1.1-0.4-1.9-1.1-2.4C208.2,56.3,207.1,56.1,205.8,56.1
	 M205.1,62.1h1c0.8,0,1.3-0.2,1.8-0.6c0.4-0.4,0.6-1,0.6-1.7c0-0.8-0.3-1.5-0.9-2.1c-0.6-0.5-1.3-0.8-2.2-0.8
	c-0.3,0-0.6,0.1-0.7,0.2c-0.1,0.1-0.2,0.3-0.2,0.6l0,0.3v3.5c0,0.3,0,0.4,0.1,0.5C204.7,62.1,204.8,62.1,205.1,62.1 M205.8,56.3
	c1.3,0,2.3,0.2,3,0.7c0.7,0.5,1,1.2,1,2.2c0,1.3-0.7,2.3-2.1,3l2.4,3.5l0.3,0.4c0.7,1.1,1.4,1.6,2,1.7l0.3,0c0.1,0,0.2,0,0.1,0.1
	c0,0.1-0.1,0.2-0.4,0.2c-0.2,0.1-0.5,0.1-0.8,0.1c-0.5,0-1-0.1-1.4-0.4c-0.4-0.3-0.8-0.8-1.2-1.4l-2.1-3.3l-0.1-0.2
	c-0.1-0.2-0.4-0.4-0.7-0.4h-1.1l-0.2,0c-0.1,0-0.1,0.1-0.1,0.3v2.7l0,0.3c0,0.5,0,0.8,0.1,1c0.1,0.2,0.2,0.3,0.4,0.5
	c0.2,0.2,0.6,0.3,1.1,0.4c0.2,0,0.3,0.1,0.3,0.2c0,0.1-0.1,0.2-0.3,0.2c-0.1,0-0.2,0-0.5,0c-0.2,0-0.6,0-1.1,0l-0.8,0l-0.4,0
	c-0.2,0-0.4,0-0.7,0c-0.2,0-0.4,0-0.5,0c-0.1,0-0.2-0.1-0.2-0.2c0-0.1,0.1-0.1,0.2-0.2c0.5-0.1,0.8-0.3,0.9-0.6c0.1-0.3,0.2-1,0.2-2
	v-6.2l0-0.9c0-0.9-0.3-1.4-0.9-1.5l-0.4-0.1c-0.2,0-0.3-0.1-0.3-0.2c0-0.1,0.1-0.2,0.3-0.2c0,0,0.2,0,0.6,0c0.2,0,0.5,0,0.8,0
	c0.3,0,0.7,0,1.4-0.1C205,56.3,205.4,56.3,205.8,56.3"/>
<path class="st0" d="M219.1,58.6l-1.7,3.7c-0.1,0.2-0.1,0.3-0.1,0.3c0,0.1,0.1,0.1,0.3,0.1l0.2,0h2.6c0.2,0,0.3,0,0.3-0.1
	c0,0,0-0.1,0-0.2l0-0.2l-1.3-3.4l-0.1-0.2C219.2,58.7,219.1,58.6,219.1,58.6C219.1,58.6,219.1,58.6,219.1,58.6 M216.1,68.4l-0.8,0
	c-0.3,0-0.6,0-0.9,0c-0.2,0-0.3,0-0.4,0c-0.3,0-0.5,0-0.5,0c-0.3,0-0.4-0.2-0.4-0.3c0-0.1,0.1-0.3,0.2-0.3l0.3-0.1
	c0,0,0.2-0.1,0.4-0.4c0.2-0.2,0.3-0.5,0.5-0.7l0.2-0.6l4.4-9.8c0-0.1,0.1-0.3,0.4-0.3c0.2,0,0.3,0.1,0.4,0.3l3.7,9.5l0.2,0.5
	c0.3,0.8,0.5,1.1,0.6,1.3c0.1,0.1,0.4,0.3,1,0.4c0.3,0.1,0.4,0.2,0.4,0.3c0,0.1-0.1,0.3-0.4,0.3c0,0-0.1,0-0.3,0c-0.3,0-0.9,0-1.6,0
	c-0.8,0-1.3,0-1.5,0c-0.1,0-0.2,0-0.3,0c-0.3,0-0.4-0.2-0.4-0.3c0-0.1,0-0.3,0.3-0.3l0.3-0.1c0.2,0,0.3-0.2,0.3-0.5
	c0-0.3-0.2-0.9-0.5-1.8l-0.4-1.1c-0.2-0.4-0.2-0.5-0.2-0.5c0,0-0.1,0-0.5,0h-3.1c-0.5,0-0.7,0.1-0.7,0.1c0,0-0.1,0.1-0.4,0.6
	l-0.6,1.3c-0.3,0.7-0.4,1.1-0.4,1.2c0,0.2,0.1,0.4,0.2,0.5c0.1,0.1,0.3,0.2,0.7,0.3c0.3,0.1,0.4,0.2,0.4,0.3c0,0.1,0,0.1-0.1,0.2
	c-0.1,0.1-0.2,0.1-0.3,0.1L216.1,68.4z"/>
<path class="st0" d="M217.4,62.6c0,0,0-0.1,0.1-0.2l1.6-3.5l0,0.1l1.4,3.4l0,0.1c0,0,0,0.1,0,0.1c0,0-0.1,0-0.2,0h-2.6l-0.2,0
	C217.5,62.6,217.5,62.6,217.4,62.6 M219.6,55.7c-0.2,0-0.4,0.1-0.5,0.4l-4.4,9.8l-0.2,0.6c-0.1,0.2-0.3,0.5-0.4,0.7
	c-0.2,0.3-0.3,0.3-0.3,0.3l-0.3,0.1c-0.2,0.1-0.3,0.2-0.3,0.4c0,0.2,0.1,0.4,0.5,0.4c0,0,0.2,0,0.4,0l0.1,0c0.1,0,0.2,0,0.4,0
	c0.4,0,0.7,0,0.9,0l0.8,0l0.1,0c0.1,0,0.1,0,0.2,0c0.2,0,0.3,0,0.4-0.1c0.1-0.1,0.1-0.2,0.1-0.3c0-0.1-0.1-0.4-0.5-0.4
	c-0.5-0.1-0.6-0.2-0.7-0.2c-0.1-0.1-0.1-0.3-0.1-0.4c0-0.2,0.1-0.5,0.4-1.2l0.6-1.3c0.2-0.5,0.3-0.6,0.3-0.6c0,0,0.1-0.1,0.6-0.1
	h3.1c0.3,0,0.4,0,0.4,0c0,0,0.1,0.1,0.2,0.4l0.4,1.1c0.4,1.1,0.5,1.5,0.5,1.7c0,0.3-0.1,0.3-0.2,0.3l-0.3,0.1
	c-0.4,0.1-0.4,0.3-0.4,0.4c0,0.2,0.1,0.4,0.5,0.4c0.1,0,0.2,0,0.3,0c0.1,0,0.5,0,1.4,0c0.8,0,1.3,0,1.6,0l0.1,0c0.1,0,0.2,0,0.3,0
	c0.4,0,0.5-0.3,0.5-0.4c0-0.1,0-0.4-0.5-0.5c-0.6-0.1-0.9-0.3-0.9-0.3c-0.1-0.1-0.3-0.3-0.6-1.2l-0.2-0.5l-3.7-9.5
	C219.9,55.8,219.7,55.7,219.6,55.7 M217.8,62.9h2.6c0.3,0,0.4-0.1,0.4-0.2c0,0,0-0.1,0-0.2l0-0.2l-1.4-3.4l-0.1-0.2
	c-0.1-0.2-0.1-0.3-0.2-0.3c0,0,0,0,0,0c0,0-0.1,0.1-0.1,0.2l-1.7,3.7c-0.1,0.2-0.1,0.3-0.1,0.3c0,0.2,0.1,0.2,0.4,0.2L217.8,62.9z
	 M219.6,56c0.1,0,0.2,0.1,0.2,0.2l3.7,9.5l0.2,0.5c0.3,0.7,0.5,1.1,0.7,1.3c0.2,0.2,0.5,0.3,1.1,0.4c0.2,0,0.3,0.1,0.3,0.2
	c0,0.1-0.1,0.1-0.2,0.1c-0.1,0-0.2,0-0.3,0c-0.3,0-0.8,0-1.6,0c-0.8,0-1.3,0-1.5,0c-0.1,0-0.2,0-0.3,0c-0.2,0-0.2-0.1-0.2-0.2
	c0-0.1,0.1-0.2,0.2-0.2l0.3-0.1c0.3-0.1,0.4-0.3,0.4-0.6c0-0.3-0.2-0.9-0.5-1.8l-0.4-1.1c-0.1-0.3-0.2-0.5-0.3-0.5
	c-0.1,0-0.3-0.1-0.6-0.1h-3.1c-0.4,0-0.7,0-0.8,0.1c-0.1,0.1-0.2,0.3-0.4,0.7l-0.6,1.3c-0.3,0.6-0.4,1-0.4,1.3
	c0,0.3,0.1,0.5,0.2,0.6c0.1,0.1,0.4,0.2,0.8,0.3c0.2,0,0.3,0.1,0.3,0.2c0,0.1-0.1,0.1-0.2,0.1c-0.1,0-0.2,0-0.3,0l-0.8,0
	c-0.3,0-0.6,0-1,0c-0.2,0-0.3,0-0.4,0c-0.3,0-0.4,0-0.5,0c-0.2,0-0.2-0.1-0.2-0.2c0-0.1,0.1-0.2,0.1-0.2l0.3-0.1
	c0.1,0,0.3-0.2,0.5-0.4c0.2-0.2,0.4-0.5,0.5-0.8l0.2-0.6l4.4-9.8C219.4,56.1,219.5,56,219.6,56"/>
<path class="st0" d="M227.6,68.4c-0.1,0-0.2,0-0.2-0.1c0,0-0.1-0.1-0.1-0.2c0-0.1,0.1-0.2,0.3-0.3c0.4-0.1,0.6-0.3,0.7-0.5
	c0.1-0.2,0.2-0.6,0.2-1.1l0-0.4v-7.7c0-0.7-0.3-1.1-0.8-1.2l-0.4-0.1c-0.3-0.1-0.3-0.2-0.3-0.3c0-0.1,0-0.3,0.4-0.3
	c0.1,0,0.3,0,0.6,0c0.4,0,0.8,0.1,1.3,0.1c0.5,0,1,0,1.4,0c0.2,0,0.3,0,0.4,0c0.3,0,0.3,0.2,0.3,0.3c0,0.1,0,0.3-0.3,0.4l-0.3,0.1
	c-0.4,0.1-0.7,0.6-0.7,1.4v7.5l0,0.3c0,0.9,0.1,1.1,0.2,1.1c0,0,0.3,0.1,1.2,0.1c1.1,0,2-0.1,2.8-0.4c0.8-0.2,1.2-0.6,1.4-0.9
	c0.1-0.2,0.2-0.3,0.4-0.3c0.1,0,0.2,0,0.2,0.1c0.1,0.1,0.1,0.1,0.1,0.2c0,0.4-0.2,0.9-0.6,1.3c-0.5,0.7-1.4,1-2.5,1
	c-0.2,0-0.4,0-0.6,0l-0.9-0.1c-0.5,0-1.1-0.1-1.7-0.1c-0.7,0-1.3,0-1.8,0.1C227.9,68.4,227.7,68.4,227.6,68.4L227.6,68.4z"/>
<path class="st0" d="M227.4,56.1c-0.5,0-0.6,0.4-0.6,0.5c0,0.1,0,0.3,0.4,0.4l0.4,0.1c0.3,0.1,0.7,0.2,0.7,1.1v7.7l0,0.4
	c0,0.6-0.1,0.9-0.2,1c-0.1,0.2-0.3,0.3-0.7,0.4c-0.4,0.1-0.4,0.3-0.4,0.5c0,0.2,0.1,0.4,0.5,0.4c0.2,0,0.3,0,0.5-0.1
	c0.5-0.1,1.1-0.1,1.7-0.1c0.6,0,1.2,0,1.7,0.1l0.9,0.1c0.2,0,0.5,0,0.7,0c1.2,0,2.1-0.3,2.6-1c0.4-0.5,0.6-1,0.6-1.4
	c0-0.1,0-0.3-0.1-0.3c-0.1-0.1-0.1-0.1-0.3-0.1c-0.2,0-0.3,0.1-0.5,0.4c-0.2,0.4-0.6,0.7-1.4,0.9c-0.8,0.2-1.7,0.4-2.7,0.4
	c-0.9,0-1.1-0.1-1.1-0.1c0,0-0.1-0.2-0.1-1l0-0.3v-7.5c0-0.8,0.2-1.2,0.6-1.3l0.3-0.1c0.4-0.1,0.5-0.4,0.5-0.5
	c0-0.2-0.1-0.4-0.5-0.4c0,0-0.2,0-0.4,0c-0.5,0-0.9,0-1.4,0c-0.4,0-0.9,0-1.3-0.1C227.7,56.1,227.5,56.1,227.4,56.1 M227.4,56.4
	c0.1,0,0.3,0,0.5,0c0.4,0,0.8,0.1,1.3,0.1c0.5,0,1,0,1.4,0c0.2,0,0.3,0,0.4,0c0.1,0,0.2,0,0.2,0.1c0,0.1-0.1,0.2-0.3,0.2l-0.3,0.1
	c-0.5,0.1-0.8,0.6-0.8,1.5v7.5l0,0.3c0,0.7,0.1,1.1,0.2,1.2c0.1,0.1,0.6,0.2,1.3,0.2c1.1,0,2-0.1,2.8-0.4c0.8-0.3,1.3-0.6,1.5-1
	c0.1-0.2,0.2-0.2,0.2-0.2c0.1,0,0.1,0.1,0.1,0.2c0,0.4-0.2,0.8-0.6,1.2c-0.5,0.6-1.3,0.9-2.4,0.9c-0.2,0-0.4,0-0.6,0l-0.9-0.1
	c-0.5,0-1.1-0.1-1.7-0.1c-0.7,0-1.3,0-1.8,0.1c-0.2,0-0.4,0-0.5,0.1h0c-0.1,0-0.2-0.1-0.2-0.2c0-0.1,0.1-0.2,0.2-0.2
	c0.4-0.1,0.7-0.3,0.8-0.5c0.1-0.2,0.2-0.6,0.2-1.2l0-0.4v-7.7c0-0.8-0.3-1.2-0.9-1.3l-0.4-0.1c-0.1,0-0.2-0.1-0.2-0.2
	C227.1,56.4,227.2,56.4,227.4,56.4"/>
<path class="st0" d="M241.5,68.4c-0.1,0-0.2,0-0.3,0c-0.2,0-0.5,0-0.9,0l-1.2,0l-1,0.1c-0.2,0-0.3,0-0.4,0c-0.3,0-0.4-0.2-0.4-0.3
	c0-0.1,0-0.3,0.4-0.3c0.4-0.1,0.6-0.2,0.8-0.4c0.1-0.1,0.2-0.5,0.2-1.4v-7.4c0-0.9-0.1-1.2-0.2-1.4c-0.1-0.2-0.5-0.4-1-0.4
	c-0.2,0-0.4-0.2-0.4-0.3c0-0.1,0-0.2,0.1-0.2c0.1-0.1,0.2-0.1,0.3-0.1c0,0,0.1,0,0.1,0c0.4,0.1,1,0.1,1.7,0.1c0.4,0,0.8,0,1.1,0
	l0.6,0l0.2,0c0.3,0,0.4,0.2,0.4,0.3c0,0.1,0,0.3-0.3,0.3l-0.4,0.2c-0.3,0.1-0.6,0.5-0.6,1.9v6.5c0,0.8,0,1.3,0.1,1.5
	c0.1,0.3,0.2,0.5,0.4,0.6c0.2,0.1,0.4,0.2,0.7,0.2c0.2,0,0.5,0.1,0.5,0.3C241.9,68.2,241.9,68.4,241.5,68.4"/>
<path class="st0" d="M241.1,56.1c0,0-0.1,0-0.1,0l-0.1,0l-0.6,0c-0.3,0-0.6,0-1.1,0c-0.7,0-1.2,0-1.6-0.1c-0.1,0-0.1,0-0.2,0
	c-0.2,0-0.3,0-0.4,0.1c-0.1,0.1-0.1,0.2-0.1,0.3c0,0.1,0.1,0.4,0.5,0.4c0.5,0.1,0.8,0.2,0.9,0.4c0.1,0.1,0.2,0.4,0.2,1.3V66
	c0,0.9-0.1,1.2-0.2,1.3c-0.1,0.2-0.3,0.3-0.7,0.3c-0.4,0.1-0.5,0.3-0.5,0.4c0,0.2,0.1,0.4,0.5,0.4c0.1,0,0.3,0,0.4,0l1-0.1l1.2,0
	c0.4,0,0.7,0,0.9,0c0.1,0,0.3,0,0.4,0c0.4,0,0.5-0.2,0.5-0.5c0-0.4-0.5-0.4-0.7-0.5c-0.4-0.1-0.6-0.1-0.7-0.2
	c-0.1-0.1-0.2-0.3-0.3-0.5c-0.1-0.2-0.1-0.5-0.1-1.5v-6.5c0-1.5,0.3-1.8,0.5-1.8l0.4-0.2c0.4-0.1,0.4-0.4,0.4-0.5
	C241.6,56.3,241.4,56.1,241.1,56.1 M241.1,56.3c0.2,0,0.2,0.1,0.2,0.2c0,0.1-0.1,0.2-0.2,0.2l-0.4,0.2c-0.4,0.2-0.6,0.8-0.6,2.1v6.5
	c0,0.8,0,1.3,0.1,1.6c0.1,0.3,0.3,0.5,0.4,0.6c0.2,0.1,0.4,0.2,0.8,0.3c0.3,0,0.4,0.1,0.4,0.2c0,0.1-0.1,0.2-0.3,0.2
	c-0.1,0-0.2,0-0.3,0c-0.2,0-0.5,0-0.9,0l-1.2,0l-1,0.1c-0.2,0-0.3,0-0.4,0c-0.2,0-0.2-0.1-0.2-0.2c0-0.1,0.1-0.2,0.3-0.2
	c0.4-0.1,0.7-0.2,0.8-0.5c0.1-0.2,0.2-0.7,0.2-1.4v-7.4c0-0.7-0.1-1.2-0.2-1.4c-0.2-0.2-0.5-0.4-1-0.5c-0.2,0-0.3-0.1-0.3-0.2
	c0-0.1,0.1-0.2,0.3-0.2c0,0,0.1,0,0.2,0c0.4,0.1,1,0.1,1.7,0.1c0.4,0,0.8,0,1.1,0l0.6,0C241,56.3,241,56.3,241.1,56.3"/>
<path class="st0" d="M248.8,58.6l-1.7,3.7c-0.1,0.2-0.1,0.3-0.1,0.3c0,0.1,0.1,0.1,0.3,0.1l0.2,0h2.6c0.1,0,0.3,0,0.3-0.1
	c0,0,0-0.1,0-0.2l0-0.2l-1.4-3.6C248.9,58.7,248.8,58.6,248.8,58.6C248.8,58.6,248.8,58.6,248.8,58.6 M245.8,68.4l-0.8,0
	c-0.3,0-0.6,0-0.9,0c-0.2,0-0.3,0-0.4,0c-0.3,0-0.5,0-0.5,0c-0.3,0-0.4-0.2-0.4-0.3c0-0.2,0.1-0.3,0.2-0.3l0.3-0.1
	c0,0,0.2-0.1,0.4-0.4c0.2-0.2,0.3-0.5,0.5-0.7l0.2-0.6l4.4-9.8c0-0.1,0.1-0.3,0.4-0.3c0.1,0,0.3,0.1,0.4,0.3l3.7,9.5l0.2,0.5
	c0.3,0.8,0.5,1.1,0.6,1.3c0.2,0.2,0.5,0.3,1,0.4c0.3,0.1,0.4,0.2,0.4,0.3c0,0.1-0.1,0.3-0.4,0.3c0,0-0.1,0-0.3,0c-0.3,0-0.8,0-1.6,0
	c-0.8,0-1.3,0-1.5,0c-0.1,0-0.2,0-0.3,0c-0.3,0-0.4-0.2-0.4-0.3c0-0.1,0-0.3,0.3-0.3l0.3-0.1c0.2,0,0.3-0.1,0.3-0.5
	c0-0.3-0.2-0.9-0.5-1.8l-0.4-1.1c-0.2-0.4-0.2-0.5-0.2-0.5c0,0-0.1,0-0.5,0h-3.1c-0.5,0-0.7,0.1-0.7,0.1c0,0-0.1,0.1-0.4,0.6
	l-0.6,1.3c-0.2,0.6-0.4,1-0.4,1.2c0,0.2,0.1,0.4,0.2,0.5c0.1,0.1,0.3,0.2,0.7,0.3c0.3,0.1,0.4,0.2,0.4,0.3c0,0.1,0,0.1-0.1,0.2
	c-0.1,0.1-0.2,0.1-0.3,0.1L245.8,68.4z"/>
<path class="st0" d="M247.2,62.6c0,0,0-0.1,0.1-0.2l1.6-3.5l0,0.1l1.4,3.4l0,0.1c0,0,0,0.1,0,0.1c0,0-0.1,0-0.2,0h-2.6l-0.2,0
	C247.2,62.6,247.2,62.6,247.2,62.6 M249.3,55.7c-0.2,0-0.4,0.1-0.5,0.4l-4.4,9.8l-0.2,0.6c-0.1,0.2-0.3,0.5-0.4,0.7
	c-0.2,0.3-0.3,0.3-0.3,0.3l-0.3,0.1c-0.2,0.1-0.3,0.2-0.3,0.4c0,0.2,0.1,0.4,0.5,0.4c0,0,0.2,0,0.5,0c0.1,0,0.2,0,0.4,0
	c0.4,0,0.7,0,0.9,0l0.8,0l0.1,0c0.1,0,0.2,0,0.2,0c0.2,0,0.3,0,0.4-0.1c0.1-0.1,0.1-0.2,0.1-0.3c0-0.1-0.1-0.4-0.5-0.4
	c-0.4-0.1-0.6-0.2-0.7-0.2c-0.1-0.1-0.1-0.3-0.1-0.4c0-0.2,0.1-0.5,0.4-1.2l0.6-1.3c0.2-0.5,0.3-0.6,0.3-0.6c0,0,0.1-0.1,0.6-0.1
	h3.1c0.3,0,0.4,0,0.4,0c0,0,0.1,0.2,0.2,0.4l0.4,1.1c0.4,1.1,0.5,1.5,0.5,1.7c0,0.3-0.1,0.3-0.2,0.3l-0.3,0.1
	c-0.4,0.1-0.4,0.3-0.4,0.4c0,0.2,0.1,0.4,0.5,0.4c0.1,0,0.2,0,0.3,0c0.1,0,0.5,0,1.4,0c0.8,0,1.3,0,1.6,0l0,0l0,0c0.2,0,0.3,0,0.3,0
	c0.5,0,0.5-0.3,0.5-0.4c0-0.1,0-0.4-0.5-0.5c-0.6-0.1-0.9-0.3-1-0.3c-0.1-0.1-0.3-0.3-0.6-1.2l-0.2-0.5l-3.7-9.5
	C249.6,55.8,249.4,55.7,249.3,55.7 M247.5,62.9h2.6c0.3,0,0.4-0.1,0.4-0.2c0,0,0-0.1,0-0.2l0-0.2l-1.4-3.4l-0.1-0.2
	c-0.1-0.2-0.1-0.3-0.2-0.3c0,0,0,0,0,0c0,0-0.1,0.1-0.1,0.2l-1.7,3.7c-0.1,0.2-0.1,0.3-0.1,0.3c0,0.2,0.1,0.2,0.4,0.2L247.5,62.9z
	 M249.3,56c0.1,0,0.2,0.1,0.2,0.2l3.7,9.5l0.2,0.5c0.3,0.7,0.5,1.1,0.7,1.3c0.2,0.2,0.5,0.3,1.1,0.4c0.2,0,0.3,0.1,0.3,0.2
	c0,0.1-0.1,0.1-0.2,0.1c-0.1,0-0.2,0-0.3,0c-0.3,0-0.8,0-1.6,0c-0.8,0-1.3,0-1.5,0c-0.1,0-0.2,0-0.3,0c-0.1,0-0.2-0.1-0.2-0.2
	c0-0.1,0.1-0.2,0.2-0.2l0.3-0.1c0.3-0.1,0.4-0.3,0.4-0.6c0-0.3-0.2-0.9-0.5-1.8l-0.4-1.1c-0.1-0.3-0.2-0.5-0.3-0.5
	c-0.1,0-0.3-0.1-0.6-0.1h-3.1c-0.4,0-0.7,0-0.8,0.1c-0.1,0.1-0.2,0.3-0.4,0.7l-0.6,1.3c-0.3,0.6-0.4,1-0.4,1.3
	c0,0.3,0.1,0.5,0.2,0.6c0.1,0.1,0.4,0.2,0.8,0.3c0.2,0,0.3,0.1,0.3,0.2c0,0.1-0.1,0.1-0.2,0.1c-0.1,0-0.2,0-0.3,0l-0.8,0
	c-0.3,0-0.6,0-1,0c-0.2,0-0.3,0-0.4,0c-0.3,0-0.5,0-0.5,0c-0.2,0-0.2-0.1-0.2-0.2c0-0.1,0-0.2,0.1-0.2l0.3-0.1
	c0.1,0,0.3-0.2,0.5-0.4c0.2-0.2,0.4-0.5,0.5-0.8l0.2-0.6l4.4-9.8C249.1,56.1,249.2,56,249.3,56"/>
</svg>
