<?xml version="1.0" encoding="utf-8"?>
<!-- Generator: Adobe Illustrator 19.0.0, SVG Export Plug-In . SVG Version: 6.00 Build 0)  -->
<svg version="1.1" id="Layer_1" xmlns="http://www.w3.org/2000/svg" xmlns:xlink="http://www.w3.org/1999/xlink" x="0px" y="0px"
	 width="320px" height="120px" viewBox="135 -35 320 120" style="enable-background:new 135 -35 320 120;" xml:space="preserve">
<style type="text/css">
	.st0{fill:#FFFFFF;}
</style>
<g>
	<path class="st0" d="M189.8,4c-1.7-1.3-3.6-2.3-5.6-3c-0.9-0.3-1.8-0.6-2.7-0.8c-1.4-0.3-2.8-0.4-4.3-0.4s-2.9,0.2-4.3,0.4
		C172,0.4,171,0.6,170.2,1c-2,0.7-3.9,1.8-5.6,3h-0.1l-1.3-1V2.9c1.3-1,2.7-1.9,4.3-2.6c0.9-0.4,1.8-0.8,2.7-1.1
		c2.2-0.7,4.6-1.1,7-1.1s4.8,0.4,7,1.1c0.9,0.3,1.9,0.7,2.7,1.1c1.5,0.7,3,1.6,4.3,2.6V3L189.8,4L189.8,4z"/>
	<path class="st0" d="M184.2,12c1.3-3.1,3.2-5.8,5.6-8c0.4-0.4,0.9-0.8,1.4-1.2c0.5,0.4,0.9,0.8,1.4,1.2c4.5,4.2,7.4,10.2,7.4,16.8
		c0,6.7-2.8,12.6-7.4,16.8c-0.2,0.2-0.5,0.4-0.7,0.6v-2.4c3.9-3.8,6.4-9.2,6.4-15.1c0-6.2-2.7-11.8-6.9-15.6v8.3L188,10
		c-0.1,0.3-0.2,0.6-0.2,1v0.1c0,0.5,0.1,0.9,0.4,1.2c0.1,0.1,0.2,0.2,0.3,0.3l2.7,2.7v5.8l-4.9-4.9c-0.1,0.3-0.2,0.6-0.2,1v0.1
		c0,0.5,0.1,0.9,0.4,1.2c0.1,0.1,0.2,0.2,0.2,0.3l4.2,4.2v5.8l-4.7-4.7c-0.1,0.3-0.2,0.6-0.2,1v0.1c0,0.5,0.1,0.9,0.4,1.2
		c0.1,0.1,0.1,0.2,0.2,0.3l4,4v16.4h-2.2v-6.3c-0.4,0.2-0.7,0.4-1.1,0.5c-0.9,0.4-1.8,0.8-2.7,1.1c-2,0.7-4.1,1-6.4,1.1v-7.7
		c2.5-2.4,4.4-5.5,5.4-8.9c0.6-1.9,0.9-4,0.9-6.1s-0.3-4.2-0.9-6.2c-1.1-3.7-3.2-6.9-6-9.5l0,0v8.2l-3.4-3.4c-0.1,0.3-0.2,0.6-0.2,1
		V11c0,0.5,0.1,0.9,0.4,1.2c0.1,0.1,0.1,0.2,0.2,0.3l2.7,2.6v5.8l-4.9-4.9c-0.1,0.3-0.2,0.6-0.2,1v0.1c0,0.5,0.1,0.9,0.4,1.2
		c0.1,0.1,0.1,0.2,0.3,0.3l4.2,4.2v5.8l-4.7-4.7c-0.1,0.3-0.2,0.6-0.2,1V25c0,0.5,0.1,0.9,0.4,1.2c0.1,0.1,0.2,0.2,0.3,0.3l4,4v21.4
		h-2.3v-8.6c-1.3-0.2-2.6-0.5-3.8-0.9c-0.9-0.3-1.9-0.7-2.7-1.1c-1.3-0.6-2.5-1.3-3.6-2.1v-3.4c2.5-2.4,4.4-5.5,5.4-8.9
		c0.6-1.9,0.9-4,0.9-6.1s-0.3-4.2-0.9-6.2c-1.1-3.7-3.2-7-6-9.5v8.2l-3.4-3.4c-0.1,0.3-0.2,0.6-0.2,1V11c0,0.5,0.1,0.9,0.4,1.2
		c0.1,0.1,0.1,0.2,0.2,0.3l2.6,2.6v5.8l-4.9-4.9c-0.1,0.3-0.2,0.6-0.2,1v0.1c0,0.5,0.1,0.9,0.4,1.2c0.1,0.1,0.2,0.2,0.3,0.3l4.2,4.2
		v5.8l-4.7-4.7c-0.1,0.3-0.2,0.6-0.2,1V25c0,0.5,0.1,0.9,0.4,1.2c0.1,0.1,0.2,0.2,0.2,0.3l4,4V47h-2.3V35.7c-3.5-4-5.6-9.2-5.6-14.9
		c0-6.7,2.9-12.6,7.4-16.8c0.4-0.4,0.9-0.8,1.4-1.2c0.5,0.4,0.9,0.8,1.4,1.2c2.4,2.2,4.4,5,5.6,8l0,0v-0.1c1.2-2.9,3.1-5.5,5.3-7.7
		c0.1-0.1,0.2-0.2,0.3-0.3c0.4-0.4,0.9-0.8,1.4-1.2c0.5,0.4,0.9,0.8,1.4,1.2C180.9,6.2,182.9,8.9,184.2,12"/>
	<path class="st0" d="M214.4,10c0.7,0.1,1.4,0.1,1.6,0.1c1.2,0,2-0.3,2.5-0.8c0.4-0.4,0.7-1.1,0.7-1.7c0-0.6-0.3-1.5-1.1-2.1
		c-0.6-0.4-1.3-0.5-1.9-0.5c-1,0-1.2,0.1-1.3,1.1l-0.4,3.2C214.4,9.7,214.4,9.8,214.4,10 M214.1,11.8c-0.1,0.8-0.2,1.8-0.2,2
		c-0.1,0.7-0.2,1.8-0.2,2.1c0,0.6,0.4,0.9,1.6,0.9c0.5,0,1.8,0,2.8-0.8c0.7-0.6,1.1-1.4,1.1-2.3c0-2.5-2.4-2.9-4.7-2.9
		c-0.2,0-0.2,0-0.2,0.1l0,0C214.2,10.9,214.2,11.3,214.1,11.8 M215.8,17.5c-0.2,0-0.9,0-1.5-0.1c-0.3,0-0.6,0-0.8,0
		c-0.3,0-0.5,0-0.6,0c-0.2,0-0.7,0-1.1,0.1c-0.4,0-0.7,0-0.8,0c-0.1,0-0.4,0-0.4-0.4c0-0.3,0.2-0.4,0.4-0.4c1.1,0,1.2-1.2,1.3-2.2
		l0.1-1c0.2-2.3,0.5-4.6,0.7-6.5c0-0.4,0.1-0.7,0.1-1s0-0.4-0.3-0.7C212.7,5.1,212.5,5,212,5c-0.3,0-0.5,0-0.5-0.4
		c0-0.3,0.2-0.4,0.5-0.4c0.1,0,0.5,0,0.9,0.1h0.5c0.2,0,0.3,0,0.4,0c0.2,0,0.8,0,1.4-0.1h0.1c0.6,0,1.1,0,1.3,0c1,0,2.2,0.1,3.1,0.8
		c0.7,0.6,1.1,1.4,1.1,2.3c0,1.6-1.1,2.4-1.5,2.7c-0.3,0.2-0.5,0.3-1.1,0.4c1.8,0.3,2.8,1.3,2.8,2.8
		C220.9,16.1,218.3,17.5,215.8,17.5"/>
	<path class="st0" d="M214.4,10.9L214.4,10.9c2.3,0,4.7,0.3,4.7,2.7c0,0.3,0,1.3-1,2.2c-0.9,0.7-2.2,0.7-2.7,0.7
		c-1.4,0-1.5-0.4-1.5-0.7c0-0.2,0.1-1.3,0.2-2.1c0-0.2,0.1-1.3,0.2-2C214.3,11.2,214.4,11,214.4,10.9L214.4,10.9 M214.5,9.9
		c0-0.1,0-0.2,0-0.5V9.2l0.4-3c0.1-0.9,0.2-1,1.1-1c0.8,0,1.3,0.1,1.9,0.4c1,0.7,1.1,1.8,1.1,2c0,0.6-0.3,1.2-0.6,1.6
		c-0.5,0.5-1.3,0.7-2.4,0.7C215.8,9.9,215.1,9.9,214.5,9.9 M212,4.1c-0.6,0-0.7,0.3-0.7,0.5c0,0.5,0.4,0.5,0.7,0.5
		c0.5,0,0.6,0.1,0.8,0.3C213,5.7,213,5.8,213,6c0,0.3,0,0.6-0.1,0.9V7c-0.3,1.9-0.5,4.3-0.7,6.5l-0.1,1c-0.1,1.2-0.3,2.1-1.2,2.1
		l0,0c-0.1,0-0.5,0-0.5,0.5c0,0.2,0.1,0.5,0.6,0.5c0.1,0,0.4,0,0.8,0s0.9-0.1,1.1-0.1c0.1,0,0.3,0,0.6,0c0.3,0,0.6,0,0.9,0
		c0.4,0,1.2,0.1,1.5,0.1c3,0,5.2-1.9,5.2-4.3c0-1-0.4-2.3-2.4-2.9c0.3-0.1,0.4-0.2,0.7-0.3c0.5-0.3,1.6-1.1,1.6-2.8
		c0-0.9-0.4-1.8-1.1-2.4c-0.9-0.7-2.1-0.8-3.2-0.8c-0.2,0-0.7,0-1.3,0h-0.1c-0.6,0-1.2,0.1-1.4,0.1c-0.1,0-0.2,0-0.4,0
		c-0.2,0-0.3,0-0.5,0C212.6,4.2,212.2,4.1,212,4.1 M215.3,16.8c0.7,0,1.9-0.1,2.8-0.8c1.1-0.9,1.1-2.1,1.1-2.4c0-2.7-2.6-3-4.9-3
		c-0.2,0-0.3,0.1-0.3,0.2c0,0-0.3,2.6-0.3,2.9c-0.1,0.7-0.2,1.8-0.2,2.1C213.6,16.6,214.2,16.8,215.3,16.8 M216,10.2
		c1,0,2-0.2,2.6-0.8c0.4-0.4,0.7-1.2,0.7-1.8s-0.2-1.6-1.2-2.2c-0.6-0.4-1.3-0.5-2-0.5c-1.1,0-1.3,0.2-1.4,1.2l-0.4,3
		c-0.1,0.6-0.1,0.7-0.1,1C215,10.2,215.7,10.2,216,10.2 M212,4.4c0.1,0,0.5,0,0.9,0.1c0.4,0,0.8,0.1,0.9,0.1c0.2,0,0.8,0,1.4-0.1
		c0.6,0,1.2,0,1.4,0c1.1,0,2.2,0.1,3,0.8c1,0.8,1,1.8,1,2.2c0,1.5-1,2.3-1.5,2.6c-0.4,0.2-0.6,0.3-1.6,0.5l0,0
		c2.1,0.2,3.2,1.2,3.2,2.8c0,2.5-2.4,4.1-5,4.1c-0.2,0-0.9,0-1.5-0.1c-0.6,0-1.3-0.1-1.5-0.1c-0.3,0-1.7,0.1-1.8,0.1
		c-0.2,0-0.3-0.1-0.3-0.2c0-0.2,0.1-0.2,0.3-0.2c1.2,0,1.3-1.3,1.5-2.3c0.3-2.5,0.5-5.3,0.8-7.5c0-0.3,0.1-0.7,0.1-1
		s-0.1-0.5-0.3-0.8c-0.2-0.2-0.4-0.4-1-0.4c-0.3,0-0.4,0-0.4-0.2S211.6,4.4,212,4.4"/>
	<path class="st0" d="M227.4,10c-1.6,0-2.7,2.2-2.7,4.3c0,1.3,0.5,2.6,1.7,2.6c1.8,0,2.5-2.8,2.5-4.6C229,10.9,228.4,10,227.4,10
		 M226.5,17.6c-1.1,0-1.8-0.3-2.4-0.8c-0.9-0.9-0.9-2.1-0.9-2.4c0-2.1,1.5-5.1,4.2-5.1c2.3,0,3.2,1.6,3.2,3.1
		C230.5,14.5,229.2,17.6,226.5,17.6"/>
	<path class="st0" d="M226.5,16.8c-1.5,0-1.6-1.9-1.6-2.5c0-2,1-4.2,2.5-4.2c0.9,0,1.4,0.9,1.4,2.3
		C228.8,14.2,228.1,16.8,226.5,16.8 M227.4,9.2c-2.8,0-4.3,3-4.3,5.2c0,0.2,0,1.5,1,2.5c0.6,0.6,1.4,0.9,2.5,0.9
		c2.8,0,4.2-3.2,4.2-5.3C230.6,11,229.8,9.2,227.4,9.2 M226.5,17.1c1.9,0,2.6-2.9,2.6-4.7c0-1.6-0.7-2.5-1.7-2.5
		c-1.8,0-2.8,2.4-2.8,4.4C224.6,15.9,225.2,17.1,226.5,17.1 M227.4,9.5c2.2,0,3,1.5,3,2.9c0,2.1-1.3,5.1-3.9,5.1
		c-1.1,0-1.8-0.3-2.3-0.8c-0.8-0.8-0.9-1.9-0.9-2.3C223.3,12.4,224.7,9.5,227.4,9.5"/>
	<path class="st0" d="M234,17.6c-0.8,0-1.3-0.6-1.3-1.8c0-0.3,0-0.5,0-0.7c0-0.1,0-0.2,0-0.2l0.7-4.4h-0.7c-0.1,0-0.5,0-0.5-0.2
		s0.3-0.3,0.4-0.4c0.6-0.2,1.1-0.5,1.9-1.8c0.2-0.3,0.3-0.5,0.4-0.5s0.2,0,0.2,0.2c0,0.1,0,0.3,0,0.4l-0.2,1.4c0,0.1,0,0.1,0,0.1
		l0,0c0,0,0,0,0.1,0c0.5,0,0.9,0,1,0h0.1c0.5,0,0.8,0,0.8,0.4c0,0.1,0,0.3-0.1,0.3c-0.1,0.1-0.4,0.2-1,0.2h-1c-0.1,0-0.1,0-0.1,0.3
		l-0.6,3.9c-0.1,0.4-0.1,0.7-0.1,1.1c0,0.8,0.4,0.8,0.6,0.8c0.4,0,0.8-0.2,1.4-0.7c0.2-0.2,0.3-0.3,0.4-0.3s0.2,0.1,0.2,0.2
		C236.7,16.3,235.2,17.6,234,17.6"/>
	<path class="st0" d="M235.1,7.4c-0.2,0-0.3,0.2-0.5,0.5l0,0c-0.8,1.3-1.3,1.6-1.8,1.8c-0.1,0-0.5,0.2-0.5,0.5
		c0,0.2,0.2,0.4,0.6,0.4h0.5l-0.7,4.3c0,0.1,0,0.2,0,0.2c0,0.2,0,0.4,0,0.7c0,1.7,0.9,1.9,1.4,1.9c1.3,0,2.8-1.4,2.8-2
		c0-0.2-0.1-0.4-0.4-0.4c-0.1,0-0.3,0.1-0.5,0.3c-0.6,0.5-0.9,0.7-1.3,0.7c-0.1,0-0.4,0-0.4-0.6c0-0.3,0-0.7,0.1-1l0.6-3.9
		c0-0.1,0-0.1,0-0.1l0,0h1l0,0c0.6,0,0.9-0.1,1.1-0.2s0.2-0.3,0.2-0.4c0-0.6-0.4-0.6-1-0.6c-0.1,0-0.4,0-1,0l0.2-1.4
		c0-0.1,0-0.2,0-0.4C235.4,7.4,235.1,7.4,235.1,7.4 M235.1,7.7L235.1,7.7c0,0.2,0,0.4,0,0.4l-0.2,1.4c0,0.2,0,0.2,0.2,0.2
		c0.1,0,0.9,0,1,0c0.6,0,0.7,0,0.7,0.3c0,0.1,0,0.2-0.1,0.2c-0.1,0.1-0.7,0.1-0.9,0.1h-1c-0.2,0-0.2,0.1-0.3,0.4l-0.6,3.9
		c0,0.2-0.1,0.6-0.1,1.1c0,0.4,0.1,0.9,0.7,0.9c0.4,0,0.9-0.2,1.5-0.7c0.1-0.1,0.3-0.2,0.4-0.2s0.1,0.1,0.1,0.1
		c0,0.4-1.3,1.7-2.6,1.7c-1.1,0-1.1-1.2-1.1-1.6c0-0.4,0.1-0.7,0.1-0.9l0.7-4.6l-0.8-0.1c-0.1,0-0.3,0-0.3-0.1s0.2-0.2,0.3-0.2
		c0.6-0.3,1.2-0.6,2-1.9C234.8,7.9,235,7.7,235.1,7.7"/>
	<path class="st0" d="M243.3,10.1c-2,0-3.7,3.1-3.7,5c0,0.4,0.1,1.4,1.3,1.4c1.3,0,2.5-1.4,2.8-2.7l0.6-2.9c0-0.2,0-0.4-0.1-0.5
		C244,10.2,243.7,10.1,243.3,10.1 M244.4,17.6c-0.6,0-0.8-0.9-0.9-2.1c-0.5,0.7-1.7,2.1-3.4,2.1c-1.4,0-1.9-1.2-1.9-2.3
		c0-2.9,3.1-5.9,5.2-5.9c0.3,0,0.6,0.1,1.1,0.2c0.1,0,0.2,0.1,0.3,0.1c0.1,0,0.3-0.2,0.5-0.6c0.2-0.3,0.3-0.5,0.4-0.5
		c0,0,0.2,0,0.2,0.3c0,0.1,0,0.2,0,0.3s0,0.1,0,0.1v0.2c-0.1,0.5-0.4,1.6-0.4,1.9L245,14c0,0.2-0.1,1-0.1,1.4c0,0.5,0.2,1,0.4,1
		c0.2,0,0.5-0.3,0.7-0.6c0.6-0.7,0.7-0.8,0.8-0.8c0.2,0,0.2,0.2,0.2,0.3C247,15.6,245.5,17.6,244.4,17.6"/>
	<path class="st0" d="M240.9,16.3c-1,0-1.1-0.8-1.1-1.2c0-1.8,1.7-4.9,3.6-4.9c0.3,0,0.6,0.1,0.7,0.2s0.1,0.2,0.1,0.4l-0.6,2.9
		C243.3,14.9,242.1,16.3,240.9,16.3 M245.7,8.4c-0.2,0-0.4,0.2-0.5,0.5l0,0l0,0c-0.2,0.4-0.4,0.5-0.4,0.5s-0.2,0-0.2-0.1
		c-0.5-0.2-0.8-0.2-1.2-0.2c-2.2,0-5.4,3.1-5.4,6.1c0,1.2,0.6,2.4,2,2.4c1.7,0,2.8-1.1,3.4-1.9c0.2,1.1,0.4,1.9,1,1.9
		c1.1,0,2.7-2.1,2.7-2.6c0-0.2-0.1-0.4-0.3-0.4c-0.2,0-0.3,0.1-0.9,0.8c-0.3,0.3-0.5,0.5-0.6,0.5S245,15.6,245,15
		c0-0.4,0.1-1.2,0.1-1.3l0.5-2.6c0.1-0.2,0.3-1.4,0.4-1.9V9.1l0,0l0,0V9c0-0.1,0-0.2,0-0.3C246.1,8.6,245.9,8.4,245.7,8.4
		 M240.9,16.6c1.3,0,2.6-1.4,2.9-2.8l0.6-2.9c0.1-0.6-0.4-0.9-1-0.9c-2,0-3.8,3.2-3.8,5.1C239.5,15.8,239.9,16.6,240.9,16.6
		 M245.7,8.7c0.1,0,0.1,0.1,0.1,0.2c0,0.1-0.1,0.3-0.1,0.4c-0.1,0.4-0.4,1.7-0.5,2l-0.5,2.6c0,0.1-0.1,1-0.1,1.4
		c0,0.5,0.2,1.1,0.5,1.1s0.7-0.4,0.8-0.6c0.6-0.6,0.6-0.7,0.7-0.7s0.1,0.1,0.1,0.1c0,0.4-1.5,2.3-2.4,2.3c-0.5,0-0.7-1.1-0.8-2.3
		c-0.4,0.6-1.5,2.3-3.5,2.3c-1.4,0-1.8-1.4-1.8-2.2c0-2.9,3.1-5.8,5.1-5.8c0.3,0,0.7,0.1,1.1,0.2c0.1,0,0.2,0.1,0.3,0.1
		c0.3,0,0.6-0.6,0.6-0.7C245.5,9,245.6,8.7,245.7,8.7"/>
	<path class="st0" d="M255.2,17.6c-0.5,0-0.8-0.4-0.8-1c0-0.4,0.2-2.4,0.2-2.5l0.1-0.9c0-0.4,0.1-0.8,0.1-1.3c0-0.3-0.1-1.7-1.1-1.7
		c-0.8,0-1.8,1.1-2.2,3.4l-0.4,2.5c-0.2,1.3-0.3,1.4-0.8,1.4s-0.7-0.1-0.7-0.3c0-0.1,0-0.3,0.1-0.7l0.6-3.8c0-0.2,0.1-0.7,0.1-1
		c0-0.4-0.1-0.9-0.4-0.9s-0.5,0.5-0.6,0.7s-0.2,0.4-0.3,0.4c-0.2,0-0.3-0.2-0.3-0.4c0-0.5,0.8-2.1,1.8-2.1c0.7,0,0.9,1.1,0.9,1.9
		c1-1.2,2-1.9,3.2-1.9c0.6,0,1.1,0.3,1.3,1c0.2,0.4,0.2,1.2,0.2,2.3l-0.2,2c0,0.4-0.1,0.8-0.1,1.2c0,0.6,0.2,0.6,0.2,0.6
		c0.2,0,0.3,0,0.4-0.1c0.1-0.1,0.5-0.5,0.7-0.7c0.1-0.1,0.2-0.2,0.2-0.2l0.2-0.2l0.1,0.4C257.5,16.1,256.3,17.6,255.2,17.6"/>
	<path class="st0" d="M250.4,9.2c-1,0-1.9,1.7-1.9,2.3c0,0.2,0.1,0.5,0.4,0.5s0.4-0.3,0.5-0.5c0.1-0.4,0.3-0.6,0.5-0.6
		s0.3,0.3,0.3,0.8c0,0.3,0,0.8-0.1,1l-0.6,3.8c-0.1,0.4-0.1,0.6-0.1,0.7c0,0.4,0.4,0.5,0.8,0.5c0.7,0,0.8-0.3,0.9-1.5l0.4-2.5
		c0.4-2.3,1.3-3.3,2.1-3.3c0.9,0,0.9,1.3,0.9,1.6c0,0.4,0,0.9-0.1,1.2l-0.1,0.9c0,0-0.2,2-0.2,2.5c0,0.7,0.3,1.2,0.9,1.2
		c1.1,0,2.4-1.5,2.4-2.1l0,0l0,0v-0.1l-0.1-0.4l-0.3,0.3c0,0-0.1,0.1-0.2,0.2c-0.2,0.2-0.6,0.6-0.7,0.7c-0.1,0.1-0.2,0.1-0.3,0.1
		c0,0-0.1-0.1-0.1-0.4c0-0.4,0-0.8,0.1-1.2l0.2-1.9v-0.1c0-0.8,0-1.8-0.2-2.4c-0.3-0.7-0.8-1.1-1.4-1.1c-1.1,0-2.1,0.6-3.1,1.7
		C251.4,10.2,251.2,9.2,250.4,9.2 M250.4,9.5c0.7,0,0.7,1.4,0.7,2.1l0,0c0.8-1.1,1.9-2.1,3.3-2.1c0.7,0,1,0.4,1.2,0.9
		c0.3,0.7,0.2,2.2,0.2,2.3l-0.2,1.9c0,0.4-0.1,0.8-0.1,1.2c0,0.4,0.1,0.7,0.4,0.7c0.2,0,0.3-0.1,0.5-0.2s0.8-0.8,0.9-0.9v0.1
		c0,0.4-1.2,1.9-2.2,1.9c-0.6,0-0.7-0.7-0.7-0.9c0-0.4,0.1-2,0.2-2.5l0.1-0.9c0.1-0.4,0.1-0.8,0.1-1.3c0-0.8-0.3-1.9-1.2-1.9
		c-0.8,0-1.9,1-2.3,3.5l-0.4,2.5c-0.2,1.3-0.3,1.3-0.7,1.3c-0.6,0-0.6-0.1-0.6-0.2s0-0.3,0.1-0.7l0.6-3.8c0-0.2,0.1-0.8,0.1-1.1
		c0-0.2,0-1-0.5-1c-0.4,0-0.6,0.4-0.7,0.8c-0.1,0.2-0.1,0.3-0.2,0.3s-0.2-0.2-0.2-0.2C248.8,11.1,249.6,9.5,250.4,9.5"/>
	<path class="st0" d="M261.7,7.6c-0.3,0-0.8-1-0.8-1.1c0-0.2,0.7-0.9,0.9-0.9c0.3,0,0.8,0.9,0.8,1s-0.1,0.2-0.1,0.3l-0.3,0.3
		C262.1,7.4,261.9,7.6,261.7,7.6 M260.4,17.6c-0.5,0-0.6-0.9-0.6-1.4c0-0.9,0.1-1.4,0.8-5.4v-0.2c0-0.1,0-0.1,0-0.2
		c0,0,0-0.1-0.1-0.2c-0.1-0.1-0.4-0.1-0.5-0.1c0,0-0.2,0-0.3,0s-0.2,0-0.3,0c-0.2,0-0.3-0.1-0.3-0.2c0-0.2,0.2-0.4,0.4-0.4
		s0.3,0,0.6,0h0.4l0.3-0.1c0.5-0.1,0.9-0.2,1-0.2c0.3,0,0.3,0.2,0.3,0.2c0,0.1-0.2,0.9-0.2,1l-0.7,3.9c-0.1,0.3-0.1,0.9-0.1,1.3
		c0,0.3,0.1,0.4,0.2,0.4c0.1,0,0.3-0.1,0.5-0.4l0.1-0.1c0.3-0.4,0.4-0.5,0.5-0.5c0.1,0,0.2,0.1,0.2,0.3
		C262.6,16.3,261,17.6,260.4,17.6"/>
	<path class="st0" d="M261.8,9.2c-0.1,0-0.6,0.1-1.1,0.2c-0.1,0-0.3,0-0.3,0.1H260c-0.3,0-0.4,0-0.6,0c-0.3,0-0.5,0.2-0.5,0.5
		c0,0.2,0.2,0.4,0.4,0.4c0,0,0.2,0,0.3,0s0.2,0,0.3,0c0.2,0,0.3,0,0.5,0.1l0,0c0,0.1,0,0.1,0,0.2v0.2c-0.7,4-0.8,4.5-0.8,5.4
		c0,0.1,0,1.5,0.8,1.5c0.7,0,2.4-1.3,2.4-2.3c0-0.3-0.2-0.4-0.3-0.4c-0.2,0-0.3,0.2-0.6,0.6l-0.1,0.1l0,0c-0.3,0.3-0.4,0.3-0.4,0.3
		s0-0.1,0-0.3c0-0.4,0.1-1,0.1-1.2l0.7-3.9c0,0,0.2-0.9,0.2-1C262.2,9.4,262.1,9.2,261.8,9.2 M261.8,5.4c-0.3,0-1,0.9-1,1.1
		c0,0.1,0.4,1.2,0.9,1.2c0.1,0,0.3,0,0.6-0.5l0.2-0.2l0,0l0,0c0.1-0.1,0.2-0.2,0.2-0.4C262.7,6.4,262.2,5.4,261.8,5.4 M261.8,9.5
		c0.1,0,0.2,0,0.2,0.1c0,0-0.2,0.8-0.2,1l-0.7,3.9c-0.1,0.3-0.1,0.9-0.1,1.3c0,0.2,0,0.6,0.3,0.6s0.6-0.4,0.7-0.4
		c0.1-0.1,0.4-0.6,0.5-0.6c0,0,0.1,0,0.1,0.1c0,0.8-1.5,2.1-2.1,2.1c-0.4,0-0.5-0.8-0.5-1.3c0-0.8,0.1-1.3,0.8-5.4
		c0-0.2,0-0.3,0-0.4s0-0.1-0.1-0.2c-0.2-0.1-0.4-0.1-0.6-0.1c-0.1,0-0.5,0.1-0.6,0.1c-0.1,0-0.1,0-0.1-0.1c0-0.2,0.1-0.2,0.3-0.2
		c0.3,0,0.4,0,1-0.1C260.7,9.7,261.6,9.5,261.8,9.5 M261.8,5.7c0.2,0,0.6,0.8,0.6,0.9c0,0.1-0.1,0.2-0.1,0.3l-0.2,0.2
		c-0.1,0.1-0.3,0.4-0.4,0.4c-0.2,0-0.6-0.9-0.6-1C261.1,6.4,261.7,5.7,261.8,5.7"/>
	<path class="st0" d="M267.5,17.6c-1.8,0-2.8-1.2-2.8-3.1c0-2.4,2-5.2,4.4-5.2c1.3,0,2.3,0.8,2.3,1.4c0,0.4-0.3,0.7-0.7,0.7
		c-0.3,0-0.4-0.1-0.5-0.2c-0.1-0.1-0.4-0.6-0.5-0.7c-0.4-0.3-0.7-0.5-1.1-0.5c-1.2,0-2.6,1.6-2.6,3.7c0,1.7,0.8,2.6,2.3,2.6
		c0.7,0,1.2-0.2,1.7-0.7c0,0,0,0,0.1-0.1c0.3-0.3,0.4-0.4,0.5-0.4c0.2,0,0.3,0.1,0.3,0.3C270.8,16,269.3,17.6,267.5,17.6"/>
	<path class="st0" d="M269,9.2c-2.5,0-4.5,2.9-4.5,5.4c0,2,1.1,3.2,3,3.2c1.9,0,3.5-1.7,3.5-2.2c0-0.2-0.2-0.4-0.4-0.4
		c-0.2,0-0.3,0.1-0.6,0.5l-0.1,0.1c-0.5,0.4-1,0.6-1.6,0.6c-1.4,0-2.2-0.9-2.2-2.4c0-2,1.3-3.6,2.4-3.6c0.3,0,0.7,0.2,1,0.5
		c0,0.1,0.4,0.5,0.4,0.6l0,0l0,0c0.1,0.1,0.3,0.3,0.6,0.3c0.5,0,0.9-0.4,0.9-0.9C271.5,10.1,270.4,9.2,269,9.2 M269,9.5
		c1.2,0,2.2,0.8,2.2,1.3c0,0.3-0.2,0.6-0.6,0.6c-0.2,0-0.3-0.1-0.4-0.2c-0.1-0.1-0.4-0.5-0.5-0.6c-0.6-0.5-1.1-0.5-1.2-0.5
		c-1.3,0-2.7,1.7-2.7,3.8c0,1.9,1.1,2.7,2.4,2.7c0.7,0,1.3-0.2,1.8-0.7c0.1-0.1,0.4-0.5,0.5-0.5c0.1,0,0.2,0.1,0.2,0.2
		c0,0.4-1.4,2-3.2,2s-2.7-1.2-2.7-2.9C264.8,12.2,266.7,9.5,269,9.5"/>
	<path class="st0" d="M285.4,20.7c-0.7,0-1.6-0.4-1.6-1c0,0,0-0.1,0.2-0.4c0.1-0.1,0.1-0.2,0.1-0.3v-0.1c0.2-0.4,0.2-0.5,0.4-0.5
		c0.4,0,0.4,0.4,0.4,0.5c0,0.8,0.5,1,0.7,1c0.4,0,0.6-0.7,0.7-1c0.1-0.2,0.3-1.5,0.3-1.8l0,0c-0.1,0-0.3,0.1-0.3,0.1
		c-0.8,0.3-1.6,0.5-3,0.5c-4,0-6.7-2.6-6.7-6.4c0-4,3.1-7.2,7-7.2c1.3,0,2.8,0.4,4.2,1.1c0.4,0.2,0.5,0.2,0.5,0.2s0,0,0.1-0.1
		c0.2-0.2,0.3-0.3,0.4-0.3c0.1,0,0.3,0,0.3,0.4c0,0.1,0,0.4,0,0.6c0,0.3,0,0.5,0,0.6s0,0.5,0.1,0.8c0,0.3,0.1,0.7,0.1,0.8
		c0,0.4-0.2,0.4-0.3,0.4c-0.3,0-0.4-0.3-0.4-0.6c-0.1-0.6-0.3-1-0.9-1.6c-1.1-1-2.6-1.6-4.3-1.6c-1.5,0-2.6,0.4-3.4,1.2
		c-1,1-1.5,2.5-1.5,4.6c0,4.2,2.6,6.1,5.2,6.1c1.4,0,2.7-0.6,3.1-1.1c0.3-0.5,0.5-2.9,0.5-3.8c0-0.4-0.7-0.6-1.1-0.6h-0.7
		c-0.2-0.1-0.3-0.3-0.3-0.4s0-0.3,0.4-0.3c0,0,0.1,0,0.3,0c0.6,0,2,0.1,2.3,0.1c0.1,0,0.4,0,0.8-0.1c0.3,0,0.6-0.1,0.7-0.1
		c0.2,0,0.2,0.1,0.2,0.3s-0.1,0.3-0.4,0.4c-0.6,0.2-0.7,0.3-0.9,3.1c-0.2,2-0.4,3.5-0.7,4.3C287.4,19.9,286.4,20.7,285.4,20.7"/>
	<path class="st0" d="M283.5,4c-4,0-7.1,3.2-7.1,7.3c0,3.9,2.8,6.6,6.9,6.6c1.4,0,2.2-0.2,3-0.5l0,0c0,0,0.1,0,0.2-0.1
		c0,0.4-0.2,1.4-0.2,1.6c-0.1,0.4-0.3,0.9-0.5,0.9c-0.1,0-0.5-0.2-0.6-0.9c0-0.4-0.2-0.6-0.5-0.6s-0.4,0.2-0.6,0.6V19l0,0l0,0
		c0,0-0.1,0.1-0.1,0.2c-0.2,0.4-0.2,0.4-0.2,0.5c0,0.6,0.9,1.1,1.7,1.1c1.1,0,2.2-0.8,2.5-1.9c0.3-0.8,0.5-2.3,0.7-4.3
		c0.3-2.8,0.3-2.9,0.8-3h0.1c0.4-0.1,0.5-0.2,0.5-0.5s-0.2-0.5-0.4-0.5c-0.1,0-0.4,0-0.8,0.1c-0.3,0-0.6,0.1-0.8,0.1
		c-0.2,0-1.7-0.1-2.3-0.1c-0.2,0-0.3,0-0.3,0c-0.4,0-0.6,0.2-0.6,0.5c0,0.2,0.1,0.5,0.3,0.5l0,0l0,0h0.7c0.4,0,1,0.1,1,0.5
		c0,0.9-0.2,3.3-0.5,3.7c-0.3,0.5-1.6,1-3,1c-2.5,0-5.1-1.8-5.1-6c0-2,0.5-3.5,1.5-4.5c0.8-0.8,1.9-1.2,3.4-1.2
		c1.6,0,3.1,0.6,4.2,1.6c0.5,0.6,0.7,0.9,0.8,1.5c0,0.2,0.1,0.7,0.6,0.7c0.2,0,0.5-0.2,0.5-0.6c0-0.1,0-0.4-0.1-0.8
		c0-0.3-0.1-0.7-0.1-0.8s0-0.3,0-0.6s0-0.6,0-0.7c0-0.5-0.4-0.6-0.4-0.6c-0.2,0-0.4,0.1-0.5,0.3l0,0c-0.1,0-0.2-0.1-0.4-0.2
		C286.3,4.4,284.7,4,283.5,4 M283.5,4.2c0.4,0,2,0,4.2,1.1c0,0,0.5,0.3,0.6,0.3c0,0,0.1,0,0.2-0.1c0.1-0.2,0.2-0.2,0.3-0.2
		s0.2,0.1,0.2,0.3s-0.1,1.1-0.1,1.2c0,0.3,0.1,1.4,0.1,1.6c0,0.2,0,0.3-0.2,0.3s-0.2-0.1-0.3-0.5c-0.1-0.7-0.3-1-0.9-1.7
		c-1.7-1.6-3.8-1.6-4.4-1.6c-1.3,0-2.6,0.3-3.5,1.3c-1.2,1.2-1.5,3-1.5,4.7c0,4.6,3,6.2,5.4,6.2c1.4,0,2.8-0.5,3.2-1.1
		c0.4-0.6,0.5-3.1,0.5-3.9c0-0.5-0.7-0.7-1.2-0.7h-0.7c-0.1,0-0.1-0.2-0.1-0.3s0.1-0.2,0.3-0.2c0,0,2.2,0.1,2.6,0.1
		c0.2,0,1.3-0.1,1.5-0.1c0.1,0,0.1,0.1,0.1,0.2c0,0.2,0,0.2-0.4,0.3c-0.7,0.2-0.7,0.4-1,3.2c-0.1,0.8-0.3,3.1-0.7,4.3
		c-0.3,0.9-1.3,1.7-2.2,1.7c-0.7,0-1.4-0.4-1.4-0.8c0,0,0.2-0.6,0.3-0.7c0.2-0.5,0.2-0.5,0.4-0.5c0.2,0,0.2,0.1,0.2,0.4
		c0,0.8,0.6,1.1,0.8,1.1c0.5,0,0.7-0.6,0.8-1.1c0.1-0.3,0.3-1.5,0.3-1.8c0-0.1,0-0.1-0.1-0.1c-0.1,0-0.4,0.1-0.5,0.1
		c-0.8,0.3-1.6,0.5-2.9,0.5c-3.8,0-6.6-2.4-6.6-6.3C276.6,7.2,279.7,4.2,283.5,4.2"/>
	<path class="st0" d="M296.7,10.1c-2,0-3.7,3.1-3.7,5c0,0.4,0.1,1.4,1.3,1.4c1.3,0,2.5-1.4,2.8-2.7l0.6-2.9c0-0.2,0-0.4-0.1-0.5
		C297.4,10.2,297.1,10.1,296.7,10.1 M297.8,17.6c-0.6,0-0.7-0.9-0.9-2.1c-0.5,0.7-1.7,2.1-3.4,2.1c-1.4,0-1.9-1.2-1.9-2.3
		c0-2.9,3.1-5.9,5.2-5.9c0.3,0,0.6,0.1,1.1,0.2c0.1,0,0.2,0.1,0.3,0.1s0.4-0.3,0.5-0.6c0.2-0.3,0.3-0.5,0.4-0.5c0,0,0.2,0,0.2,0.3
		c0,0.1,0,0.2,0,0.3s0,0.1,0,0.1l-0.1,0.5c-0.1,0.6-0.3,1.4-0.4,1.6l-0.5,2.6c0,0.1-0.1,0.9-0.1,1.4s0.2,1,0.4,1
		c0.2,0,0.5-0.3,0.7-0.6c0.6-0.7,0.7-0.8,0.8-0.8c0.1,0,0.2,0.2,0.2,0.3C300.4,15.6,298.9,17.6,297.8,17.6"/>
	<path class="st0" d="M294.3,16.3c-1,0-1.1-0.8-1.1-1.2c0-1.8,1.7-4.9,3.6-4.9c0.3,0,0.6,0.1,0.7,0.2c0.1,0.1,0.1,0.2,0.1,0.4
		l-0.6,2.9C296.7,14.9,295.5,16.3,294.3,16.3 M299.1,8.4c-0.2,0-0.4,0.2-0.5,0.5c-0.1,0.3-0.3,0.5-0.4,0.5c0,0-0.2,0-0.2-0.1
		c-0.5-0.2-0.8-0.2-1.1-0.2c-2.2,0-5.4,3.1-5.4,6.1c0,1.1,0.5,2.4,2,2.4c1.6,0,2.8-1.1,3.4-1.9c0.2,1.1,0.4,1.9,1,1.9
		c1.1,0,2.7-2.1,2.7-2.6c0-0.2-0.1-0.4-0.4-0.4c-0.2,0-0.3,0.1-0.9,0.8c-0.2,0.3-0.5,0.5-0.6,0.5c-0.1,0-0.3-0.3-0.3-0.9
		c0-0.4,0.1-1.2,0.1-1.3l0.5-2.6c0-0.2,0.2-1,0.4-1.6l0.1-0.4l0,0l0,0V9c0-0.1,0-0.2,0-0.3C299.5,8.6,299.3,8.4,299.1,8.4
		 M294.3,16.6c1.3,0,2.6-1.4,2.9-2.8l0.6-2.9c0.1-0.6-0.4-0.9-1-0.9c-2,0-3.8,3.2-3.8,5.1C292.9,15.8,293.3,16.6,294.3,16.6
		 M299.1,8.7c0.1,0,0.1,0.1,0.1,0.2c0,0.1-0.1,0.3-0.1,0.4c-0.1,0.4-0.4,1.7-0.5,2l-0.5,2.6c0,0.1-0.1,1-0.1,1.4
		c0,0.5,0.2,1.1,0.5,1.1s0.7-0.4,0.8-0.6c0.6-0.6,0.6-0.7,0.7-0.7c0.1,0,0.1,0.1,0.1,0.1c0,0.4-1.5,2.3-2.4,2.3
		c-0.5,0-0.7-1.1-0.8-2.3c-0.4,0.6-1.5,2.3-3.5,2.3c-1.4,0-1.8-1.4-1.8-2.2c0-2.9,3.1-5.8,5.1-5.8c0.3,0,0.6,0.1,1,0.2
		c0.1,0,0.2,0.1,0.3,0.1c0.3,0,0.6-0.6,0.6-0.7C298.9,9,299,8.7,299.1,8.7"/>
	<path class="st0" d="M304,17.6c-0.5,0-0.8,0-0.8-0.3c0-0.1,0-0.3,0-0.5l0.5-3c0.1-0.4,0.1-1.2,0.1-1.8s-0.1-1.3-0.6-1.3
		c-0.2,0-0.4,0.1-0.8,1.3c0,0-0.1,0.4-0.3,0.4c-0.3,0-0.3-0.4-0.3-0.4c0-1.3,0.7-2.7,1.7-2.7c0.9,0,1.1,1.2,1.1,2
		c0.7-1.3,1.5-2,2.3-2c0.6,0,0.8,0.4,0.8,0.7c0,0-0.1,1.6-0.6,1.6c-0.2,0-0.3-0.2-0.3-0.4c-0.1-0.5-0.3-0.7-0.6-0.7
		c-0.8,0-1.2,2.1-1.4,3l-0.1,3.4C304.6,17.5,304.5,17.6,304,17.6"/>
	<path class="st0" d="M307.3,9.2c-0.6,0-1.4,0.3-2.2,1.7c-0.1-0.8-0.4-1.7-1.2-1.7c-1.1,0-1.9,1.5-1.9,2.8c0,0.2,0.1,0.6,0.4,0.6
		s0.4-0.3,0.4-0.5c0.3-1.2,0.5-1.2,0.6-1.2c0.4,0,0.4,0.7,0.4,1.1c0,0.5-0.1,1.4-0.1,1.7l-0.5,3c0,0-0.1,0.3-0.1,0.5
		c0,0.4,0.4,0.4,0.9,0.4c0.6,0,0.7-0.3,0.7-0.8l0.5-3.3v-0.1c0.1-0.8,0.5-2.9,1.2-2.9c0.3,0,0.4,0.1,0.5,0.5v0.1
		c0,0.1,0.1,0.4,0.4,0.4c0.7,0,0.7-1.7,0.7-1.7C308.2,9.7,308.1,9.2,307.3,9.2 M307.3,9.5c0.5,0,0.6,0.2,0.6,0.5
		c0,0.5-0.2,1.5-0.4,1.5c-0.1,0-0.2-0.2-0.2-0.3c-0.1-0.5-0.3-0.7-0.7-0.7c-1,0-1.3,2.2-1.5,3.2l-0.5,3.3c-0.1,0.5-0.1,0.6-0.5,0.6
		c-0.4,0-0.6,0-0.6-0.2c0-0.1,0-0.3,0-0.4l0.5-3c0.1-0.4,0.1-1.3,0.1-1.8c0-0.6-0.1-1.4-0.7-1.4c-0.3,0-0.6,0.3-0.9,1.4
		c0,0-0.1,0.3-0.2,0.3c-0.1,0-0.1-0.3-0.1-0.3c0-1.2,0.7-2.6,1.6-2.6c0.9,0,1,1.5,1,2.3l0,0C305.2,11.2,306.1,9.5,307.3,9.5"/>
	<path class="st0" d="M313.8,10c-1.8,0-3.2,2.8-3.2,4.6c0,0.9,0.5,1.8,1.5,1.8c1.1,0,2.2-1.4,2.4-2.5l0.5-3.1c0-0.2,0-0.3-0.1-0.5
		C314.5,10.2,314.2,10,313.8,10 M315.3,17.6c-0.9,0-1-1.1-1-1.9c-0.5,0.8-1.5,1.9-2.9,1.9c-1.7,0-2.3-1.5-2.3-2.6
		c0-2.5,2.6-5.7,4.7-5.7c0.4,0,0.7,0.1,1.3,0.4c0.3-1.9,0.7-4.6,0.7-4.8c0-0.1,0-0.1,0-0.1c-0.1-0.1-0.6-0.1-0.9-0.1
		c-0.5,0-0.8,0-0.9-0.1c-0.1-0.1-0.1-0.1-0.1-0.2c0-0.2,0.1-0.3,0.3-0.3s2.5-0.3,2.6-0.3l0,0c0.2,0,0.3,0.1,0.3,0.3
		c0,0.2-0.1,0.8-0.2,1.5l-1.3,8.9c0,0.2-0.1,0.7-0.1,0.9c0,0.6,0.2,0.9,0.5,0.9s0.7-0.4,0.9-0.7c0.3-0.4,0.3-0.5,0.5-0.5
		s0.3,0.1,0.3,0.3C317.7,15.9,316.4,17.6,315.3,17.6"/>
	<path class="st0" d="M312,16.3c-0.9,0-1.4-0.9-1.4-1.7c0-1.7,1.4-4.5,3.1-4.5c0.4,0,0.7,0.1,0.9,0.3c0.1,0.1,0.1,0.2,0.1,0.4
		l-0.5,3.1C314.1,15,313.1,16.3,312,16.3 M316.8,3.6L316.8,3.6L316.8,3.6c-0.3,0-2.3,0.2-2.6,0.3c-0.3,0-0.5,0.2-0.5,0.4
		c0,0.1,0,0.2,0.1,0.3c0.2,0.1,0.4,0.2,1,0.2c0.2,0,0.6,0,0.8,0.1c0,0,0,0,0,0.1c0,0.2-0.3,2.5-0.7,4.6c-0.5-0.3-0.8-0.3-1.2-0.3
		c-2.2,0-4.8,3.2-4.8,5.8c0,1.1,0.7,2.7,2.5,2.7c1.3,0,2.2-0.8,2.8-1.6c0.1,0.8,0.3,1.6,1.1,1.6c1.2,0,2.5-1.7,2.5-2.4
		c0-0.2-0.2-0.4-0.4-0.4c-0.3,0-0.4,0.1-0.6,0.5l0,0l0,0c-0.2,0.3-0.6,0.7-0.8,0.7c-0.2,0-0.3-0.3-0.3-0.8c0-0.2,0-0.7,0.1-0.8
		l1.3-8.8V5.6c0.1-0.8,0.2-1.4,0.2-1.6C317.3,3.8,317.1,3.6,316.8,3.6 M312,16.6c1.2,0,2.3-1.5,2.5-2.6l0.5-3.1c0.1-0.6-0.6-1-1.2-1
		c-1.8,0-3.4,2.8-3.4,4.7C310.4,15.6,311,16.6,312,16.6 M316.8,3.9c0.1,0,0.2,0,0.2,0.1c0,0.2-0.2,1.4-0.2,1.7l-1.3,8.7
		c0,0.2-0.1,0.7-0.1,0.9c0,0.8,0.3,1,0.6,1c0.4,0,0.9-0.5,1-0.8c0.2-0.4,0.3-0.4,0.4-0.4c0.1,0,0.1,0.1,0.1,0.2
		c0,0.5-1.3,2.2-2.3,2.2c-0.9,0-0.9-1.4-0.9-2.1l0,0c-0.3,0.6-1.3,2.1-3,2.1c-1.6,0-2.2-1.4-2.2-2.4c0-2.4,2.5-5.5,4.6-5.5
		c0.4,0,0.7,0.1,1.4,0.5c0.3-1.8,0.7-4.7,0.7-5c0-0.1,0-0.2-0.1-0.2c-0.2-0.1-0.6-0.1-1-0.1c-0.2,0-0.7,0-0.8-0.1c0,0,0,0,0-0.1
		s0.1-0.2,0.2-0.2C314.4,4.1,316.8,3.9,316.8,3.9"/>
	<path class="st0" d="M323.4,10.1c-1.2,0-2,1-2.6,3.1c0.9-0.1,1.9-0.2,2.6-0.7c0.3-0.2,0.9-0.7,0.9-1.4
		C324.4,10.7,324.2,10.1,323.4,10.1 M322.1,17.6c-0.9,0-1.4-0.2-1.9-0.7c-0.7-0.7-0.8-1.7-0.8-2.2c0-2.2,1.6-5.4,4.4-5.4
		c0.4,0,1.9,0.1,1.9,1.4c0,0.5-0.2,2.8-5,3v0.1c0,0.1,0,0.3,0,0.4c0,1.6,1.2,2.3,2.3,2.3c0.6,0,1.1-0.2,1.6-0.5c0,0,0.1,0,0.1-0.1
		c0.3-0.3,0.4-0.3,0.5-0.3c0.2,0,0.3,0.1,0.3,0.3C325.5,16.4,323.9,17.6,322.1,17.6"/>
	<path class="st0" d="M321,13c0.5-1.9,1.3-2.8,2.4-2.8c0.7,0,0.8,0.5,0.8,0.8c0,0.6-0.5,1.1-0.8,1.3C322.7,12.8,321.9,12.9,321,13
		 M323.8,9.2c-2.9,0-4.6,3.3-4.6,5.5c0,0.5,0.1,1.5,0.9,2.3c0.5,0.5,1,0.7,2,0.7c1.9,0,3.6-1.2,3.6-1.9c0-0.2-0.2-0.4-0.4-0.4
		c-0.1,0-0.3,0.1-0.6,0.4l-0.1,0.1c-0.5,0.4-0.9,0.5-1.5,0.5c-1.1,0-2.2-0.7-2.2-2.1c0-0.1,0-0.3,0-0.4c4.7-0.3,5-2.7,5-3.2
		C325.8,9.8,325.1,9.2,323.8,9.2 M320.7,13.3c1-0.1,2.1-0.2,2.9-0.8c0.4-0.2,0.9-0.7,0.9-1.5c0-0.5-0.2-1.1-1.1-1.1
		C321.6,9.9,320.9,12.4,320.7,13.3 M323.8,9.5c0.6,0,1.8,0.1,1.8,1.3c0,0.4-0.2,2.7-5,2.9c0,0.1,0,0.4,0,0.6c0,1.7,1.3,2.4,2.5,2.4
		c0.6,0,1.1-0.1,1.7-0.6c0.1-0.1,0.4-0.4,0.5-0.4c0.1,0,0.1,0.1,0.1,0.1c0,0.5-1.4,1.6-3.3,1.6c-1,0-1.4-0.2-1.8-0.6
		c-0.7-0.7-0.8-1.7-0.8-2.1C319.5,12.7,321,9.5,323.8,9.5"/>
	<path class="st0" d="M333.9,17.6c-0.5,0-0.8-0.4-0.8-1c0-0.4,0.1-2.1,0.2-2.5l0.1-0.9c0.1-0.5,0.1-0.9,0.1-1.3c0-0.8-0.3-1.7-1-1.7
		c-0.8,0-1.8,1.1-2.2,3.4l-0.4,2.5c-0.2,1.3-0.3,1.4-0.8,1.4s-0.7-0.1-0.7-0.3c0-0.1,0-0.3,0.1-0.7l0.6-3.8c0-0.2,0-0.8,0-1
		c0-0.4-0.1-0.9-0.4-0.9s-0.5,0.5-0.6,0.7c-0.1,0.2-0.2,0.4-0.3,0.4c-0.2,0-0.3-0.2-0.3-0.4c0-0.5,0.8-2.1,1.8-2.1
		c0.7,0,0.9,1.2,0.9,1.9c1-1.2,2-1.9,3.2-1.9c0.8,0,1.2,0.6,1.3,1c0.2,0.4,0.2,1.2,0.2,2.3l-0.2,2c0,0.4-0.1,0.8-0.1,1.2
		c0,0.6,0.2,0.6,0.2,0.6c0.2,0,0.3-0.1,0.4-0.1c0.1-0.1,0.4-0.4,0.6-0.6c0.1-0.1,0.2-0.2,0.3-0.3l0.2-0.2l0.1,0.4
		C336.2,16.1,335,17.6,333.9,17.6"/>
	<path class="st0" d="M329.2,9.2c-1,0-1.9,1.7-1.9,2.3c0,0.2,0.1,0.5,0.4,0.5s0.4-0.3,0.5-0.5c0.1-0.3,0.3-0.6,0.5-0.6
		s0.3,0.3,0.3,0.8c0,0.3,0,0.8,0,1l-0.6,3.8c-0.1,0.4-0.1,0.6-0.1,0.7c0,0.4,0.4,0.5,0.8,0.5c0.7,0,0.7-0.3,0.9-1.5l0.4-2.5
		c0.4-2.3,1.3-3.3,2.1-3.3c0.9,0,0.9,1.4,0.9,1.6c0,0.4,0,0.8-0.1,1.2l-0.1,0.9c0,0.4-0.2,2.1-0.2,2.5c0,0.7,0.3,1.2,0.9,1.2
		c1.1,0,2.4-1.5,2.4-2.1l0,0l0,0v-0.1l-0.1-0.4l-0.3,0.3c0,0-0.2,0.2-0.3,0.3c-0.2,0.2-0.5,0.6-0.6,0.6c-0.1,0.1-0.2,0.1-0.3,0.1
		c0,0-0.1-0.1-0.1-0.4c0-0.4,0-0.8,0.1-1.2l0.2-1.9v-0.1c0-0.8,0-1.8-0.2-2.4c-0.3-0.7-0.8-1.1-1.4-1.1c-1.1,0-2.1,0.6-3.1,1.6
		C330.1,10.2,329.9,9.2,329.2,9.2 M329.2,9.5c0.7,0,0.7,1.4,0.7,2.1l0,0c0.8-1.1,1.9-2.1,3.3-2.1c0.6,0,1,0.4,1.2,0.9
		c0.3,0.7,0.2,2.2,0.2,2.3l-0.2,1.9c0,0.4-0.1,0.8-0.1,1.2c0,0.4,0.1,0.7,0.4,0.7c0.2,0,0.3-0.1,0.5-0.2s0.8-0.8,0.9-0.9v0.1
		c0,0.4-1.1,1.9-2.2,1.9c-0.6,0-0.6-0.7-0.6-0.9c0-0.4,0.1-2,0.2-2.5l0.1-0.9c0.1-0.4,0.1-0.8,0.1-1.3c0-0.8-0.3-1.9-1.2-1.9
		c-0.8,0-1.9,1-2.3,3.5l-0.4,2.5c-0.2,1.3-0.3,1.3-0.7,1.3c-0.6,0-0.6-0.1-0.6-0.2s0-0.3,0.1-0.7l0.6-3.8c0-0.2,0-0.8,0-1.1
		c0-0.2,0-1-0.5-1c-0.4,0-0.6,0.4-0.7,0.8c-0.1,0.2-0.1,0.3-0.2,0.3c-0.1,0-0.2-0.2-0.2-0.2C327.6,11.1,328.4,9.5,329.2,9.5"/>
	<path class="st0" d="M339.9,17.6c-1.4,0-2.4-0.6-2.4-1.6c0-0.5,0.3-0.6,0.6-0.6c0.4,0,0.5,0.2,1,1c0.1,0.2,0.3,0.5,1,0.5
		c1,0,1.3-0.6,1.3-1.1c0-0.7-0.4-1.2-1.1-2c-1-1-1.5-1.7-1.5-2.6c0-1.2,1-2,2.4-2c1.1,0,1.9,0.5,1.9,1.2c0,0.4-0.3,0.6-0.6,0.6
		c-0.3,0-0.5-0.2-0.8-0.6c-0.2-0.4-0.5-0.6-0.9-0.6c-0.5,0-0.8,0.4-0.8,0.8c0,0.6,0.4,1.1,0.7,1.4c1.4,1.5,2,2.2,2,3.3
		C342.6,17.1,341.1,17.6,339.9,17.6"/>
	<path class="st0" d="M341.1,9.2c-1.5,0-2.5,0.9-2.5,2.1c0,0.9,0.5,1.6,1.5,2.6c0.8,0.9,1.1,1.3,1.1,1.9c0,0.6-0.4,0.9-1.1,0.9
		c-0.6,0-0.7-0.2-0.8-0.4c-0.5-0.9-0.6-1.1-1.1-1.1c-0.3,0-0.7,0.2-0.7,0.7c0,0.8,0.8,1.7,2.5,1.7c1.3,0,2.8-0.6,2.8-2.3
		c0-1.2-0.6-1.8-2-3.3c-0.3-0.3-0.7-0.8-0.7-1.3c0-0.3,0.3-0.6,0.7-0.6s0.6,0.2,0.8,0.6c0.2,0.3,0.4,0.6,0.9,0.6
		c0.4,0,0.7-0.3,0.7-0.8C343.1,9.8,342.3,9.2,341.1,9.2 M341.1,9.5c1,0,1.7,0.5,1.7,1.1c0,0.3-0.2,0.5-0.5,0.5s-0.4-0.2-0.6-0.5
		c-0.3-0.4-0.5-0.7-1-0.7c-0.6,0-1,0.4-1,0.9c0,0.6,0.5,1.2,0.8,1.5c1.4,1.5,1.9,2.1,1.9,3.2c0,1.6-1.5,2.1-2.6,2.1
		c-1.4,0-2.2-0.6-2.2-1.4c0-0.4,0.2-0.5,0.4-0.5c0.4,0,0.4,0.1,0.9,0.9c0.1,0.3,0.3,0.6,1.1,0.6c1.2,0,1.4-0.7,1.4-1.2
		c0-0.7-0.4-1.3-1.2-2.1c-1-1-1.4-1.7-1.4-2.5C338.9,10.1,339.9,9.5,341.1,9.5"/>
	<path class="st0" d="M352.7,9.9c-1.6,0-2.7,2.2-2.7,4.3c0,1.3,0.5,2.6,1.7,2.6c1.8,0,2.5-2.8,2.5-4.6
		C354.2,10.8,353.6,9.9,352.7,9.9 M351.7,17.5c-1.1,0-1.8-0.3-2.4-0.8c-0.9-0.9-0.9-2.1-0.9-2.4c0-2.1,1.5-5.1,4.2-5.1
		c2.3,0,3.2,1.6,3.2,3.1C355.8,14.4,354.5,17.5,351.7,17.5"/>
	<path class="st0" d="M351.7,16.7c-1.5,0-1.6-1.9-1.6-2.5c0-2,1-4.2,2.5-4.2c0.9,0,1.4,0.9,1.4,2.3
		C354.1,14.1,353.4,16.7,351.7,16.7 M352.6,9.1c-2.8,0-4.3,3-4.3,5.2c0,0.4,0.1,1.6,1,2.5c0.6,0.6,1.4,0.9,2.5,0.9
		c2.8,0,4.2-3.2,4.2-5.3C355.9,10.8,355,9.1,352.6,9.1 M351.7,17c1.9,0,2.7-2.9,2.7-4.7c0-1.6-0.7-2.5-1.7-2.5
		c-1.7,0-2.8,2.4-2.8,4.4C349.9,15.8,350.5,17,351.7,17 M352.6,9.4c2.2,0,3,1.5,3,2.9c0,2.1-1.3,5.1-3.9,5.1c-1.1,0-1.8-0.3-2.3-0.8
		c-0.8-0.8-0.9-1.9-0.9-2.3C348.6,12.3,350,9.4,352.6,9.4"/>
	<path class="st0" d="M356.2,20.8c-0.5,0-0.6-0.3-0.6-0.5c0,0,0.3-1.6,0.7-1.6c0.1,0,0.2,0.1,0.2,0.4c0,0.4,0.1,0.6,0.4,0.6
		c0.3,0,0.6-0.3,0.9-2.7c0,0,0.5-4.9,0.6-5.2c0.1-0.5,0.1-1.3,0.1-1.5c0,0-0.1-0.1-0.8-0.1h-0.4c-0.1,0-0.2,0-0.2,0l0,0
		c-0.3,0-0.3-0.2-0.3-0.4c0-0.3,0.1-0.4,0.4-0.4h1c0.2,0,0.4,0,0.6-0.1c0.3-1.5,0.7-3.5,2.2-5c0.6-0.6,1.2-0.8,1.9-0.8
		c0.6,0,0.9,0.2,0.9,0.5c0,0-0.2,1.6-0.5,1.6c-0.2,0-0.3-0.3-0.3-0.4c-0.1-0.2-0.2-0.3-0.3-0.4c-0.1-0.1-0.3-0.3-0.5-0.3
		c-1.4,0-1.8,3-2.1,4.8c1.2,0,1.3,0,1.6,0c0.2,0,0.4,0.2,0.4,0.4c0,0.4-0.3,0.4-0.6,0.4h-0.6c-0.2,0-0.4,0-0.5,0c-0.2,0-0.3,0-0.3,0
		c-0.1,0.1-0.2,1.2-0.2,1.6l-0.4,3.4c-0.3,2.9-0.7,3.7-1.5,4.6C357.5,20.2,356.9,20.8,356.2,20.8"/>
	<path class="st0" d="M362.8,3.5c-0.8,0-1.3,0.3-2,0.9c-1.5,1.5-1.9,3.5-2.2,4.9c-0.2,0-0.4,0-0.5,0h-1c-0.5,0-0.5,0.3-0.5,0.6
		c0,0.4,0.2,0.6,0.5,0.6c0,0,0.1,0,0.2,0c0.1,0,0.2,0,0.3,0h0.1c0.4,0,0.6,0,0.7,0c0,0.2-0.1,0.9-0.1,1.4c0,0.3-0.1,0.6-0.1,0.7
		l-0.5,4.5c-0.2,1.7-0.4,2.6-0.7,2.6c-0.2,0-0.2-0.3-0.2-0.5c0-0.4-0.2-0.5-0.4-0.5c-0.5,0-0.8,1.7-0.8,1.7c0,0.1,0.1,0.6,0.8,0.6
		s1.4-0.6,1.6-0.8l0,0c0.9-0.9,1.2-1.7,1.5-4.7l0.2-3.6c0-0.3,0.1-1.2,0.2-1.5c0,0,0.1,0,0.2,0c0.1,0,0.3,0,0.5,0h0.6
		c0.2,0,0.7,0,0.7-0.6c0-0.3-0.2-0.4-0.5-0.5c-0.2,0-0.4,0-1.4,0c0.3-1.7,0.7-4.6,1.9-4.6c0.2,0,0.3,0.1,0.5,0.2
		c0.1,0.1,0.2,0.2,0.3,0.4c0,0.2,0.2,0.4,0.5,0.4c0.5,0,0.6-1.7,0.6-1.7C363.8,3.7,363.4,3.5,362.8,3.5 M362.8,3.8
		c0.3,0,0.8,0.1,0.8,0.4c0,0-0.2,1.4-0.4,1.4c-0.1,0-0.2-0.2-0.2-0.3c-0.1-0.2-0.2-0.4-0.3-0.5s-0.3-0.3-0.6-0.3
		c-1.5,0-2,3.2-2.2,5.1c1.3,0,1.4,0,1.7,0c0.2,0,0.2,0.1,0.2,0.2c0,0.3-0.1,0.3-0.4,0.3h-0.6c-0.2,0-0.4,0-0.5,0c-0.2,0-0.3,0-0.4,0
		c-0.1,0.1-0.3,1.5-0.3,1.7l-0.4,3.4c-0.3,2.8-0.6,3.6-1.5,4.5c-0.1,0.1-0.8,0.8-1.4,0.8c-0.1,0-0.5,0-0.5-0.3
		c0-0.1,0.4-1.4,0.6-1.4c0.1,0,0.1,0.2,0.1,0.3c0,0.5,0.2,0.8,0.5,0.8c0.4,0,0.8-0.5,1-2.8l0.5-4.6c0-0.2,0.2-1.9,0.2-2.1
		c0-0.1,0-0.1-0.1-0.2c-0.1,0-0.7,0-0.9,0c-0.1,0-0.3,0-0.4,0c-0.1,0-0.1,0-0.2,0s-0.2-0.1-0.2-0.3c0-0.3,0-0.3,0.3-0.3h1
		c0.2,0,0.5,0,0.7-0.1c0.3-1.5,0.7-3.5,2.2-5C361.6,4,362.1,3.8,362.8,3.8"/>
	<path class="st0" d="M214.2,36.5c-0.5,0-1-0.1-1.5-0.2s-0.9-0.3-1.2-0.5c-0.1-0.1-0.2-0.2-0.3-0.3c0-0.1-0.1-0.4-0.2-0.6
		c0,0-0.1-0.3-0.2-0.8c-0.2-0.5-0.2-0.9-0.2-1.1c0-0.4,0.2-0.4,0.3-0.4c0.2,0,0.4,0.3,0.4,0.5c0.2,0.7,0.6,1.3,1.3,1.7
		c0.6,0.5,1.3,0.7,2.1,0.7c0.8,0,1.4-0.2,1.9-0.7c0.5-0.4,0.8-1,0.8-1.6s-0.2-1.1-0.7-1.5c-0.2-0.1-0.7-0.4-2.2-0.9
		c-1.3-0.4-2.2-0.9-2.8-1.5c-0.6-0.5-0.8-1.3-0.8-2.1c0-1,0.4-1.8,1.1-2.4s1.6-0.9,2.8-0.9c0.6,0,1.2,0.1,1.6,0.3l0.6,0.2h0.1
		c0,0,0.1,0,0.1-0.1l0.1-0.1c0,0,0.1-0.1,0.2-0.1l0,0c0.1,0,0.3,0.1,0.3,0.6c0,0.1,0,0.4,0.1,0.8l0.1,0.9c0,0.2,0,0.3,0,0.4
		c0,0.4-0.2,0.4-0.3,0.4c-0.2,0-0.3-0.3-0.4-0.5c-0.2-0.6-0.6-1.1-1.2-1.5s-1.3-0.6-2-0.6c-0.6,0-1.1,0.2-1.5,0.5s-0.6,0.8-0.6,1.3
		s0.1,0.8,0.4,1.2c0.2,0.3,0.5,0.5,0.7,0.6c0.3,0.1,1,0.4,2,0.7c2.2,0.7,3.3,1.9,3.3,3.5c0,1.1-0.4,2-1.2,2.7
		C216.5,36.1,215.4,36.5,214.2,36.5"/>
	<path class="st0" d="M214.7,23.9c-1.1,0-2.1,0.3-2.8,0.9c-0.7,0.6-1.1,1.5-1.1,2.5c0,0.9,0.3,1.7,0.9,2.2c0.6,0.6,1.5,1,2.8,1.5
		c1.6,0.5,2,0.8,2.1,0.9c0.4,0.4,0.7,0.9,0.7,1.4c0,0.6-0.2,1.1-0.7,1.5s-1.1,0.6-1.8,0.6c-0.7,0-1.4-0.2-2-0.7
		c-0.6-0.4-1-1-1.2-1.7c0-0.2-0.2-0.6-0.5-0.6l0,0c-0.2,0-0.4,0.1-0.4,0.5c0,0.2,0.1,0.6,0.2,1.2c0.1,0.5,0.2,0.7,0.2,0.8
		c0.1,0.3,0.1,0.5,0.2,0.6s0.2,0.2,0.3,0.3c0.3,0.2,0.7,0.3,1.2,0.5c0.5,0.1,1.1,0.2,1.5,0.2c1.3,0,2.3-0.4,3.2-1.1
		c0.8-0.7,1.3-1.7,1.3-2.8c0-1.7-1.1-2.9-3.4-3.7c-1.1-0.4-1.8-0.6-2-0.7c-0.2-0.1-0.5-0.3-0.7-0.6s-0.3-0.7-0.3-1.1
		c0-0.5,0.2-0.9,0.5-1.2c0.4-0.3,0.8-0.5,1.4-0.5c0.7,0,1.4,0.2,2,0.6s1,0.8,1.1,1.4c0.1,0.2,0.2,0.6,0.5,0.6c0.2,0,0.4-0.1,0.4-0.5
		c0-0.1,0-0.2,0-0.4l-0.1-0.9c-0.1-0.6-0.1-0.8-0.1-0.8c0-0.6-0.3-0.7-0.5-0.7c-0.1,0-0.2,0.1-0.3,0.1l-0.1,0.1l0,0l0,0l-0.6-0.3
		C215.9,24,215.4,23.9,214.7,23.9 M214.7,24.2c0.6,0,1.1,0.1,1.6,0.3l0.6,0.2c0.1,0,0.1,0,0.2,0s0.1,0,0.2-0.1l0.1-0.1h0.1l0,0
		c0.1,0,0.2,0.1,0.2,0.4c0,0.1,0,0.4,0.1,0.9l0.1,0.9c0,0.2,0,0.3,0,0.3c0,0.2-0.1,0.3-0.2,0.3s-0.2-0.1-0.3-0.4
		c-0.2-0.6-0.6-1.1-1.3-1.5c-0.6-0.4-1.3-0.6-2.1-0.6c-0.6,0-1.1,0.2-1.5,0.5c-0.4,0.4-0.6,0.8-0.6,1.4c0,0.5,0.1,0.9,0.4,1.2
		c0.2,0.3,0.5,0.5,0.8,0.7c0.3,0.1,1,0.4,2.1,0.7c2.1,0.7,3.2,1.8,3.2,3.4c0,1.1-0.4,1.9-1.2,2.6c-0.8,0.7-1.8,1-3,1
		c-0.4,0-0.9-0.1-1.5-0.2c-0.5-0.1-0.9-0.3-1.2-0.4c-0.1-0.1-0.2-0.1-0.2-0.2s-0.1-0.3-0.2-0.6c0,0-0.1-0.3-0.2-0.8
		c-0.2-0.5-0.2-0.9-0.2-1.1s0.1-0.2,0.2-0.2l0,0c0.1,0,0.2,0.1,0.3,0.4c0.2,0.7,0.6,1.3,1.3,1.8c0.7,0.5,1.4,0.7,2.2,0.7
		s1.5-0.2,2-0.7s0.8-1,0.8-1.7c0-0.6-0.3-1.2-0.8-1.6c-0.3-0.2-1-0.5-2.2-1c-1.3-0.4-2.2-0.9-2.7-1.4s-0.8-1.2-0.8-2
		c0-0.9,0.3-1.7,1-2.3C212.7,24.5,213.6,24.2,214.7,24.2"/>
	<path class="st0" d="M225.9,24.9c-1.3,0-2.3,0.4-3.1,1.3c-0.8,0.9-1.1,2.1-1.1,3.5c0,1.7,0.5,3.1,1.5,4.3s2.2,1.7,3.6,1.7
		c1.3,0,2.4-0.5,3.2-1.4c0.8-0.9,1.3-2.2,1.3-3.6c0-1.7-0.5-3.1-1.5-4.2C228.7,25.4,227.4,24.9,225.9,24.9 M226.4,36.5
		c-1.9,0-3.4-0.6-4.6-1.7c-1.2-1.1-1.8-2.7-1.8-4.5c0-0.8,0.2-1.6,0.5-2.4c0.3-0.8,0.7-1.5,1.2-2c0.5-0.6,1.2-1,2.1-1.3
		c0.8-0.3,1.7-0.5,2.6-0.5c1.8,0,3.3,0.6,4.5,1.7c1.2,1.1,1.8,2.6,1.8,4.4c0,1.9-0.6,3.4-1.8,4.6C229.8,35.9,228.3,36.5,226.4,36.5"
		/>
	<path class="st0" d="M226.8,35.6c-1.4,0-2.5-0.6-3.5-1.7s-1.4-2.6-1.4-4.2c0-1.4,0.4-2.6,1.1-3.4c0.7-0.8,1.7-1.3,3-1.3
		c1.5,0,2.7,0.5,3.7,1.6s1.5,2.5,1.5,4.1c0,1.4-0.4,2.6-1.2,3.5C229,35.2,228,35.6,226.8,35.6 M226.5,23.9c-0.9,0-1.8,0.2-2.6,0.5
		c-0.9,0.3-1.6,0.8-2.1,1.4c-0.5,0.5-1,1.2-1.3,2c-0.3,0.8-0.5,1.6-0.5,2.4c0,1.9,0.6,3.4,1.8,4.6c1.2,1.2,2.8,1.8,4.7,1.8
		c1.9,0,3.4-0.6,4.6-1.8s1.8-2.8,1.8-4.7c0-1.8-0.6-3.3-1.8-4.4C229.9,24.5,228.3,23.9,226.5,23.9 M226.8,35.9
		c1.3,0,2.4-0.5,3.3-1.5s1.3-2.2,1.3-3.7c0-1.7-0.5-3.1-1.6-4.3c-1-1.1-2.3-1.7-3.9-1.7c-1.3,0-2.4,0.4-3.2,1.3
		c-0.8,0.9-1.2,2.1-1.2,3.6c0,1.7,0.5,3.2,1.5,4.4C224.1,35.3,225.3,35.9,226.8,35.9 M226.5,24.2c1.8,0,3.3,0.6,4.4,1.7
		c1.1,1.1,1.7,2.5,1.7,4.3s-0.6,3.3-1.7,4.5c-1.2,1.2-2.6,1.8-4.4,1.8c-1.9,0-3.4-0.6-4.5-1.7c-1.1-1.1-1.7-2.6-1.7-4.4
		c0-0.8,0.2-1.6,0.5-2.4s0.7-1.4,1.2-1.9s1.2-1,2-1.3C224.8,24.3,225.6,24.2,226.5,24.2"/>
	<path class="st0" d="M240.3,36.5c-1,0-1.9-0.2-2.7-0.6c-0.8-0.4-1.4-0.9-1.8-1.6c-0.4-0.8-0.6-1.8-0.6-3v-4.4v-0.5
		c0-0.6-0.1-1-0.2-1.2s-0.5-0.3-0.9-0.4c-0.3,0-0.3-0.2-0.3-0.3c0-0.1,0-0.3,0.5-0.3c0.1,0,0.3,0,0.6,0c0.3,0,0.5,0,0.6,0h0.7h0.7
		c0.1,0,0.2,0,0.5,0c0.2,0,0.4,0,0.4,0c0.2,0,0.3,0.1,0.3,0.3c0,0.1-0.1,0.3-0.4,0.3c-0.3,0.1-0.5,0.2-0.6,0.4
		c-0.1,0.2-0.2,0.6-0.2,1.1v0.6v4.3c0,1.4,0.2,2.5,0.7,3.1c0.6,0.9,1.7,1.3,3.2,1.3c1.3,0,2.3-0.4,3-1.1c0.7-0.7,1-1.8,1-3.3v-4.5
		c0-0.7-0.1-1.2-0.3-1.5s-0.5-0.5-1-0.5c-0.3,0-0.4-0.2-0.4-0.3c0-0.2,0.1-0.3,0.3-0.3c0.2,0,0.3,0,0.6,0.1c0.2,0,0.5,0,0.8,0
		c0.6,0,1,0,1.2,0s0.3,0,0.4,0c0.2,0,0.3,0.1,0.3,0.3c0,0.1,0,0.2-0.3,0.3c-0.3,0.1-0.5,0.3-0.6,0.5s-0.1,0.5-0.1,1.4V31
		c0,1.6-0.3,2.8-1,3.7c-0.4,0.6-1,1-1.8,1.3C242,36.3,241.2,36.5,240.3,36.5"/>
	<path class="st0" d="M243.3,24c-0.2,0-0.4,0.2-0.4,0.4c0,0.1,0,0.4,0.5,0.4c0.4,0,0.7,0.2,0.9,0.4c0.2,0.3,0.3,0.8,0.3,1.4v4.5
		c0,1.4-0.3,2.5-1,3.2c-0.6,0.7-1.6,1-2.9,1c-1.4,0-2.5-0.4-3.1-1.2c-0.4-0.6-0.6-1.6-0.6-3v-4.2v-0.6c0-0.6,0.1-0.9,0.1-1
		c0.1-0.1,0.2-0.2,0.5-0.3c0.4-0.1,0.5-0.4,0.5-0.5c0-0.2-0.1-0.4-0.5-0.4c-0.1,0-0.2,0-0.5,0c-0.2,0-0.4,0-0.5,0h-0.7h-0.7
		c-0.1,0-0.3,0-0.6,0c-0.3,0-0.5,0-0.6,0c-0.6,0-0.6,0.4-0.6,0.5s0,0.4,0.5,0.4c0.4,0.1,0.7,0.2,0.8,0.4c0.1,0.1,0.2,0.4,0.2,1.1V27
		v4.4c0,1.2,0.2,2.3,0.6,3s1,1.2,1.8,1.7c0.8,0.4,1.7,0.6,2.7,0.6c0.9,0,1.7-0.2,2.5-0.5s1.4-0.8,1.8-1.4c0.7-0.9,1-2.2,1-3.8v-4.3
		c0-0.8,0.1-1.2,0.1-1.4c0.1-0.2,0.3-0.3,0.5-0.5c0.3-0.1,0.3-0.3,0.3-0.4c0-0.2-0.2-0.4-0.4-0.4c-0.1,0-0.2,0-0.4,0
		c-0.1,0-0.4,0-1.2,0c-0.3,0-0.5,0-0.7,0C243.6,24,243.4,24,243.3,24L243.3,24L243.3,24z M243.3,24.3L243.3,24.3
		c0.1,0,0.3,0,0.6,0.1c0.2,0,0.5,0.1,0.8,0.1c0.6,0,1,0,1.2,0s0.3,0,0.4,0s0.2,0.1,0.2,0.1c0,0.1-0.1,0.2-0.2,0.2
		c-0.3,0.1-0.6,0.3-0.7,0.6c-0.1,0.3-0.2,0.7-0.2,1.5v4.3c0,1.6-0.3,2.8-0.9,3.6c-0.4,0.5-1,1-1.7,1.3s-1.5,0.5-2.4,0.5
		c-1,0-1.9-0.2-2.6-0.6c-0.8-0.4-1.3-0.9-1.7-1.5c-0.4-0.7-0.6-1.7-0.6-2.9v-4.4v-0.5c0-0.6-0.1-1-0.3-1.3c-0.2-0.2-0.5-0.4-1-0.5
		c-0.2,0-0.2-0.1-0.2-0.2s0.1-0.2,0.3-0.2c0.1,0,0.3,0,0.6,0s0.5,0,0.6,0h0.7h0.7c0.1,0,0.2,0,0.5,0c0.2,0,0.4,0,0.4,0
		c0.1,0,0.2,0,0.2,0.1s-0.1,0.2-0.3,0.2c-0.3,0.1-0.6,0.2-0.7,0.4c-0.1,0.2-0.2,0.6-0.2,1.2V27v4.3c0,1.5,0.2,2.5,0.7,3.2
		c0.6,0.9,1.7,1.3,3.3,1.3c1.4,0,2.4-0.4,3.1-1.1c0.7-0.7,1-1.9,1-3.4v-4.5c0-0.7-0.1-1.2-0.3-1.6c-0.2-0.3-0.6-0.5-1-0.6
		C243.4,24.6,243.4,24.5,243.3,24.3C243.1,24.3,243.2,24.3,243.3,24.3"/>
	<path class="st0" d="M254.8,36.4c-0.1,0-0.2,0-0.4-0.1c-0.1,0-0.5,0-0.8,0H253h-0.7c-0.2,0-0.4,0-0.6,0c-0.3,0-0.5,0.1-0.6,0.1
		c-0.4,0-0.4-0.2-0.4-0.3s0.1-0.3,0.4-0.3c0.4-0.1,0.7-0.2,0.8-0.3c0.1-0.1,0.2-0.4,0.2-0.9v-8.5v-0.2c0-0.3,0-0.3,0-0.3
		s-0.1-0.1-0.3-0.1h-2.3c-0.4,0-0.7,0.1-0.9,0.2c-0.2,0.2-0.3,0.5-0.4,1c-0.1,0.3-0.2,0.4-0.4,0.4c-0.1,0-0.3,0-0.3-0.4
		c0-0.1,0-0.4,0.1-0.7c0.1-0.4,0.1-0.7,0.1-1s0-0.5,0.1-0.6s0.2-0.2,0.5-0.2h9.3c0.5,0,0.6,0.1,0.7,0.1c0.1,0.1,0.1,0.2,0.1,0.7
		c0,0.4,0,0.6,0,0.7c0,0.2,0,0.3,0.1,0.4c0,0.3-0.2,0.4-0.3,0.4l0,0c-0.1,0-0.3-0.1-0.3-0.4c-0.1-0.5-0.2-0.6-0.3-0.7
		s-0.3-0.2-0.9-0.2h-2.4c-0.3,0-0.4,0.1-0.4,0.1s-0.1,0.1-0.1,0.4v8.4v0.3c0,0.6,0.4,1,1,1.1c0.3,0,0.4,0.2,0.4,0.3
		C255.2,36.2,255.2,36.4,254.8,36.4"/>
	<path class="st0" d="M257.6,24.1h-9.3c-0.3,0-0.5,0.1-0.6,0.2s-0.1,0.3-0.1,0.7c0,0.2,0,0.6-0.1,1c-0.1,0.3-0.1,0.6-0.1,0.7
		c0,0.3,0.2,0.5,0.4,0.5l0,0c0.2,0,0.4-0.1,0.5-0.5c0.1-0.6,0.3-0.8,0.4-0.9c0.2-0.1,0.4-0.2,0.8-0.2h2.3c0.1,0,0.2,0,0.2,0
		s0,0.1,0,0.2V26v8.5c0,0.5-0.1,0.8-0.2,0.8c-0.1,0.1-0.3,0.2-0.7,0.3c-0.5,0.1-0.5,0.3-0.5,0.4c0,0.2,0.1,0.4,0.5,0.4
		c0.1,0,0.2,0,0.6-0.1c0.1,0,0.3,0,0.6,0h0.7h0.6c0.2,0,0.6,0,0.7,0c0.3,0,0.4,0.1,0.5,0.1c0.4,0,0.5-0.2,0.5-0.4
		c0-0.1-0.1-0.4-0.5-0.4c-0.6-0.1-0.9-0.4-0.9-1v-0.3v-8.4c0-0.2,0-0.3,0-0.3l0,0c0,0,0.1,0,0.3,0h2.4c0.6,0,0.8,0.1,0.8,0.1
		c0.1,0,0.2,0.2,0.3,0.6c0.1,0.4,0.3,0.5,0.5,0.5s0.5-0.2,0.4-0.5c0-0.1,0-0.2-0.1-0.4c0-0.1,0-0.3,0-0.7c0-0.4,0-0.7-0.2-0.8
		C258.2,24.2,258,24.1,257.6,24.1 M257.6,24.4c0.3,0,0.5,0,0.6,0.1c0.1,0.1,0.1,0.3,0.1,0.6c0,0.3,0,0.6,0,0.7c0,0.2,0,0.3,0.1,0.4
		c0,0.2-0.1,0.3-0.2,0.3l0,0c-0.1,0-0.2-0.1-0.2-0.3c-0.1-0.4-0.2-0.7-0.4-0.8c-0.2-0.1-0.5-0.2-1-0.2h-2.4c-0.3,0-0.4,0-0.5,0.1
		s-0.1,0.2-0.1,0.5v8.4v0.3c0,0.7,0.4,1.1,1.1,1.2c0.2,0,0.3,0.1,0.3,0.2s-0.1,0.2-0.2,0.2s-0.2,0-0.4-0.1c-0.1,0-0.4,0-0.8,0H253
		h-0.7c-0.2,0-0.4,0-0.6,0c-0.3,0-0.5,0.1-0.6,0.1c-0.2,0-0.3-0.1-0.3-0.2s0.1-0.1,0.3-0.2c0.4-0.1,0.7-0.2,0.9-0.4
		c0.2-0.2,0.2-0.5,0.2-1v-8.5v-0.2c0-0.2,0-0.3-0.1-0.4s-0.2-0.1-0.4-0.1h-2.3c-0.5,0-0.8,0.1-1,0.3c-0.2,0.2-0.4,0.5-0.5,1.1
		c-0.1,0.2-0.1,0.3-0.2,0.3l0,0c-0.1,0-0.2-0.1-0.2-0.2s0-0.3,0.1-0.7c0.1-0.4,0.1-0.8,0.1-1c0-0.3,0-0.4,0.1-0.5s0.2-0.1,0.4-0.1
		L257.6,24.4L257.6,24.4z"/>
	<path class="st0" d="M268.3,36.4c-0.1,0-0.2,0-0.2-0.1c0,0-0.1-0.1-0.1-0.2s0.1-0.3,0.4-0.3c0.5-0.1,0.8-0.5,0.8-1.3v-0.3v-3.3
		c0-0.3,0-0.4,0-0.4s-0.1,0-0.4,0h-5.1c-0.4,0-0.5,0.1-0.5,0.1s-0.1,0.1-0.1,0.4v3.2c0,0.6,0.1,1,0.3,1.2s0.5,0.3,1,0.4
		c0.4,0,0.4,0.2,0.4,0.3s0,0.2-0.1,0.2c-0.1,0.1-0.2,0.1-0.3,0.1s-0.2,0-0.4,0c-0.2,0-0.5,0-1,0h-0.7h-0.6c-0.1,0-0.3,0-0.5,0
		c-0.3,0-0.5,0-0.6,0c-0.3,0-0.3-0.2-0.3-0.3s0-0.3,0.3-0.3l0.4-0.1c0.2,0,0.3-0.2,0.4-0.5c0.1-0.3,0.1-0.9,0.1-1.7v-7.4
		c0-0.5-0.1-0.8-0.3-1c-0.2-0.2-0.5-0.3-0.9-0.4c-0.3,0-0.4-0.2-0.4-0.3c0-0.1,0.1-0.3,0.3-0.3c0.1,0,0.3,0,0.6,0.1
		c0.4,0.1,1,0.1,1.6,0.1c0.4,0,0.8,0,1.1-0.1c0.2,0,0.3,0,0.4,0c0.4,0,0.4,0.2,0.4,0.3c0,0.1-0.1,0.2-0.3,0.3
		c-0.4,0.1-0.6,0.2-0.7,0.4c-0.1,0.2-0.2,0.4-0.2,0.8v3.1c0,0.4,0.1,0.5,0.1,0.5s0.1,0.1,0.5,0.1h5.1c0.3,0,0.4,0,0.4,0s0-0.1,0-0.2
		v-2.9c0-0.6-0.1-1-0.2-1.2c-0.1-0.2-0.4-0.4-0.8-0.5c-0.3-0.1-0.4-0.2-0.3-0.3c0-0.1,0-0.3,0.3-0.3c0.1,0,0.3,0,0.6,0
		c0.4,0,0.8,0.1,1.2,0.1c0.6,0,1,0,1.3-0.1c0.2,0,0.3,0,0.3,0c0.2,0,0.3,0.2,0.3,0.3c0,0.1,0,0.2-0.3,0.3l-0.3,0.1
		c-0.1,0-0.3,0.1-0.4,0.3c-0.1,0.2-0.2,0.4-0.2,0.7v8.3c0,0.7,0.1,1.1,0.2,1.2c0.1,0.2,0.4,0.3,0.9,0.4c0.3,0,0.4,0.2,0.4,0.3
		s0,0.2-0.1,0.2c-0.1,0.1-0.2,0.1-0.3,0.1c-0.1,0-0.3,0-0.5,0c-0.1,0-0.4,0-0.8,0h-0.6h-0.6c-0.1,0-0.2,0-0.4,0
		C268.6,36.4,268.4,36.4,268.3,36.4L268.3,36.4L268.3,36.4z"/>
	<path class="st0" d="M260.3,24c-0.3,0-0.5,0.2-0.5,0.4c0,0.1,0,0.4,0.5,0.4c0.4,0.1,0.7,0.2,0.8,0.4c0.1,0.2,0.2,0.5,0.2,0.9v7.4
		c0,1-0.1,1.4-0.1,1.6c-0.1,0.3-0.2,0.4-0.3,0.4l-0.4,0.1c-0.4,0.1-0.4,0.3-0.4,0.5s0.1,0.4,0.5,0.4c0.1,0,0.3,0,0.6,0
		c0.2,0,0.4,0,0.5,0h0.6h0.7c0.7,0,0.9,0,1,0c0.2,0,0.4,0,0.5,0c0.2,0,0.3,0,0.4-0.1c0.1-0.1,0.1-0.2,0.1-0.3s-0.1-0.4-0.6-0.5
		c-0.4,0-0.7-0.2-0.9-0.4c-0.1-0.1-0.2-0.4-0.2-1.1v-3.2c0-0.2,0-0.3,0-0.3l0,0c0,0,0.1,0,0.4,0h5.1c0.2,0,0.3,0,0.3,0s0,0.1,0,0.3
		v3.2v0.3c0,1-0.4,1.2-0.7,1.2c-0.4,0.1-0.5,0.3-0.5,0.4c0,0.2,0.1,0.3,0.1,0.3c0.1,0.1,0.2,0.1,0.3,0.1s0.3,0,0.6,0
		c0.2,0,0.3,0,0.4,0h0.7h0.6c0.4,0,0.7,0,0.8,0c0.2,0,0.4,0,0.5,0c0.2,0,0.3,0,0.4-0.1c0.1-0.1,0.1-0.2,0.1-0.3s-0.1-0.3-0.5-0.4
		c-0.4,0-0.7-0.2-0.8-0.3s-0.2-0.4-0.2-1.1v-8.3c0-0.2,0-0.5,0.1-0.6c0.1-0.2,0.2-0.2,0.3-0.3l0.4-0.1c0.4-0.1,0.4-0.3,0.4-0.4
		c0-0.2-0.1-0.4-0.5-0.4c-0.1,0-0.2,0-0.4,0c-0.2,0-0.7,0-1.3,0c-0.4,0-0.8,0-1.2-0.1c-0.3,0-0.5,0-0.6,0c-0.3,0-0.5,0.2-0.5,0.4
		c0,0.1,0,0.4,0.5,0.5c0.3,0.1,0.6,0.2,0.7,0.4c0.1,0.1,0.2,0.5,0.2,1.1v2.9v0.1c0,0-0.1,0-0.3,0h-5c-0.3,0-0.4,0-0.4,0s0-0.2,0-0.4
		v-3.1c0-0.5,0.1-0.7,0.1-0.8c0.1-0.1,0.2-0.2,0.6-0.3c0.4-0.1,0.4-0.3,0.4-0.4c0-0.2-0.1-0.4-0.5-0.4c-0.1,0-0.2,0-0.4,0
		c-0.3,0-0.7,0.1-1.1,0.1c-0.6,0-1.1,0-1.5-0.1C260.6,24,260.4,24,260.3,24L260.3,24L260.3,24z M260.3,24.2L260.3,24.2
		c0.1,0,0.3,0,0.5,0.1c0.4,0.1,1,0.1,1.6,0.1c0.4,0,0.8,0,1.1-0.1c0.2,0,0.3,0,0.4,0c0.2,0,0.2,0.1,0.2,0.2s-0.1,0.2-0.2,0.2
		c-0.4,0.1-0.6,0.2-0.8,0.4c-0.1,0.2-0.2,0.5-0.2,0.9v3.1c0,0.3,0,0.5,0.1,0.6c0.1,0.1,0.3,0.1,0.6,0.1h5.1c0.3,0,0.4,0,0.5-0.1
		c0.1,0,0.1-0.1,0.1-0.3v-2.9c0-0.6-0.1-1-0.2-1.3c-0.1-0.2-0.4-0.4-0.8-0.5c-0.2,0-0.3-0.1-0.2-0.2c0-0.1,0.1-0.1,0.2-0.1
		c0.1,0,0.3,0,0.6,0c0.4,0,0.8,0.1,1.2,0.1c0.6,0,1,0,1.3-0.1c0.2,0,0.3,0,0.3,0c0.1,0,0.2,0.1,0.2,0.2s-0.1,0.1-0.2,0.2l-0.3,0.1
		c-0.2,0-0.3,0.2-0.4,0.4c-0.1,0.2-0.2,0.5-0.2,0.8v8.3c0,0.6,0.1,1,0.3,1.3c0.2,0.2,0.5,0.4,1,0.4c0.2,0,0.3,0.1,0.3,0.2
		s-0.1,0.2-0.2,0.2c-0.1,0-0.3,0-0.4,0c-0.1,0-0.4,0-0.9,0h-0.6h-0.6c-0.1,0-0.2,0-0.4,0c-0.4,0-0.6,0-0.6,0l0,0
		c-0.1,0-0.2-0.1-0.2-0.2s0.1-0.2,0.3-0.2c0.6-0.1,0.9-0.6,0.9-1.5v-0.3v-3.4c0-0.3,0-0.4-0.1-0.5c0,0-0.2-0.1-0.5-0.1h-5.4
		c-0.3,0-0.5,0-0.6,0.1c-0.1,0.1-0.1,0.2-0.1,0.5v3.2c0,0.6,0.1,1,0.3,1.3c0.2,0.2,0.5,0.4,1.1,0.4c0.2,0,0.3,0.1,0.3,0.2
		s-0.1,0.2-0.2,0.2c-0.1,0-0.2,0-0.4,0s-0.5,0-1,0h-0.7h-0.6c-0.1,0-0.3,0-0.5,0c-0.3,0-0.5,0-0.5,0c-0.1,0-0.2-0.1-0.2-0.2
		s0.1-0.2,0.2-0.2l0.4-0.1c0.3-0.1,0.4-0.2,0.5-0.6c0.1-0.3,0.1-0.9,0.1-1.7V26c0-0.5-0.1-0.9-0.3-1.1c-0.2-0.2-0.5-0.4-1-0.4
		c-0.2,0-0.2-0.1-0.2-0.2C260.1,24.3,260.1,24.2,260.3,24.2"/>
	<path class="st0" d="M283.2,30.3c-0.1,0.2-0.1,0.3-0.1,0.3c0,0.1,0.1,0.1,0.3,0.1h0.2h2.6c0.1,0,0.3,0,0.3-0.1c0,0,0-0.1,0-0.2
		v-0.2l-1.4-3.6c0-0.1-0.1-0.2-0.1-0.2C284.9,26.6,283.2,30.3,283.2,30.3 M281.9,36.4h-0.8c-0.3,0-0.6,0-0.9,0c-0.2,0-0.3,0-0.4,0
		c-0.3,0-0.5,0-0.5,0c-0.3,0-0.4-0.2-0.4-0.3c0-0.2,0.1-0.3,0.2-0.3l0.3-0.1c0,0,0.2-0.1,0.4-0.4c0.2-0.2,0.3-0.5,0.5-0.7l0.2-0.6
		l4.4-9.8c0-0.1,0.1-0.3,0.4-0.3c0.2,0,0.3,0.1,0.4,0.3l3.9,9.9c0.3,0.7,0.5,1.1,0.6,1.3c0.1,0.1,0.4,0.3,1,0.4
		c0.3,0.1,0.4,0.3,0.4,0.3c0,0.1,0,0.3-0.4,0.3c0,0-0.1,0-0.3,0c-0.3,0-0.8,0-1.6,0c-0.8,0-1.3,0-1.5,0c-0.1,0-0.2,0-0.3,0
		c-0.3,0-0.4-0.2-0.4-0.3s0-0.3,0.3-0.3l0.3-0.1c0.2,0,0.3-0.1,0.3-0.5c0-0.3-0.2-0.9-0.5-1.8l-0.4-1.1c-0.2-0.4-0.2-0.5-0.2-0.5
		l0,0c0,0-0.1,0-0.5,0h-3.1c-0.5,0-0.7,0.1-0.7,0.1s-0.1,0.1-0.4,0.6l-0.6,1.3c-0.2,0.6-0.4,1-0.4,1.2s0.1,0.4,0.2,0.5
		c0.1,0.1,0.3,0.2,0.7,0.3c0.3,0.1,0.4,0.2,0.4,0.3s0,0.1-0.1,0.2c-0.1,0.1-0.2,0.1-0.3,0.1C282.1,36.4,281.9,36.4,281.9,36.4z"/>
	<path class="st0" d="M283.3,30.6c0,0,0-0.1,0.1-0.2l1.6-3.5V27l1.4,3.4v0.1v0.1c0,0-0.1,0-0.2,0h-2.6L283.3,30.6
		C283.3,30.6,283.3,30.6,283.3,30.6 M285.4,23.7c-0.2,0-0.4,0.1-0.5,0.4l-4.4,9.8l-0.2,0.6c-0.1,0.2-0.3,0.5-0.4,0.7
		c-0.2,0.3-0.3,0.3-0.3,0.3l-0.3,0.1c-0.2,0.1-0.3,0.2-0.3,0.4s0.1,0.4,0.5,0.4c0,0,0.2,0,0.5,0c0.1,0,0.2,0,0.4,0
		c0.4,0,0.7,0,0.9,0h0.8h0.1c0.1,0,0.1,0,0.2,0c0.2,0,0.3,0,0.4-0.1c0.1-0.1,0.1-0.2,0.1-0.3s-0.1-0.4-0.5-0.4
		c-0.5-0.1-0.6-0.2-0.7-0.2c-0.1-0.1-0.1-0.3-0.1-0.4c0-0.2,0.1-0.5,0.4-1.2l0.6-1.3c0.2-0.5,0.3-0.6,0.3-0.6s0.1-0.1,0.6-0.1h3.1
		c0.3,0,0.4,0,0.4,0s0.1,0.2,0.2,0.4l0.4,1.1c0.4,1.1,0.5,1.5,0.5,1.7c0,0.3-0.1,0.3-0.2,0.3l-0.3,0.1c-0.4,0.1-0.4,0.3-0.4,0.4
		c0,0.2,0.1,0.4,0.5,0.4c0.1,0,0.2,0,0.3,0s0.5,0,1.4,0c0.8,0,1.3,0,1.6,0l0,0l0,0c0.2,0,0.3,0,0.3,0c0.5,0,0.5-0.3,0.5-0.4
		s0-0.4-0.5-0.5c-0.6-0.1-0.9-0.3-1-0.3c-0.1-0.1-0.3-0.3-0.6-1.2l-0.2-0.5l-3.7-9.5C285.7,23.8,285.5,23.7,285.4,23.7 M283.6,30.8
		h2.6c0.3,0,0.4-0.1,0.4-0.2c0,0,0-0.1,0-0.2v-0.2l-1.4-3.4l-0.1-0.2c-0.1-0.2-0.1-0.3-0.2-0.3l0,0c0,0-0.1,0.1-0.1,0.2l-1.7,3.7
		c-0.1,0.2-0.1,0.3-0.1,0.3c0,0.2,0.1,0.2,0.4,0.2L283.6,30.8z M285.4,24c0.1,0,0.2,0.1,0.2,0.2l3.7,9.5l0.2,0.5
		c0.3,0.7,0.5,1.1,0.7,1.3s0.5,0.3,1.1,0.4c0.2,0,0.3,0.1,0.3,0.2s-0.1,0.1-0.2,0.1c-0.1,0-0.2,0-0.3,0c-0.3,0-0.8,0-1.6,0
		c-0.8,0-1.3,0-1.5,0c-0.1,0-0.2,0-0.3,0s-0.2-0.1-0.2-0.2s0.1-0.2,0.2-0.2l0.3-0.1c0.3-0.1,0.4-0.3,0.4-0.6s-0.2-0.9-0.5-1.8
		l-0.4-1.1c-0.1-0.3-0.2-0.5-0.3-0.5s-0.3-0.1-0.6-0.1h-3.1c-0.4,0-0.7,0-0.8,0.1s-0.2,0.3-0.4,0.7l-0.6,1.3c-0.3,0.6-0.4,1-0.4,1.3
		s0.1,0.5,0.2,0.6c0.1,0.1,0.4,0.2,0.8,0.3c0.2,0,0.3,0.1,0.3,0.2s-0.1,0.1-0.2,0.1c-0.1,0-0.2,0-0.3,0h-0.8c-0.3,0-0.6,0-0.9,0
		c-0.2,0-0.3,0-0.4,0c-0.3,0-0.5,0-0.5,0c-0.2,0-0.2-0.1-0.2-0.2s0-0.2,0.1-0.2l0.3-0.1c0.1,0,0.3-0.2,0.5-0.4s0.4-0.5,0.5-0.8
		l0.2-0.6l4.4-9.8C285.2,24.1,285.3,24,285.4,24"/>
	<path class="st0" d="M297.5,36.5c-1,0-1.9-0.2-2.7-0.6c-0.8-0.4-1.4-0.9-1.8-1.6c-0.4-0.8-0.6-1.8-0.6-3v-4.4v-0.5
		c0-0.6-0.1-1-0.2-1.2c-0.1-0.2-0.5-0.3-0.9-0.4c-0.3,0-0.3-0.2-0.3-0.3c0-0.1,0-0.3,0.5-0.3c0.1,0,0.3,0,0.6,0c0.3,0,0.4,0,0.6,0
		h0.7h0.7c0.1,0,0.2,0,0.5,0c0.2,0,0.4,0,0.5,0c0.3,0,0.3,0.2,0.3,0.3c0,0.1-0.1,0.3-0.4,0.3c-0.3,0.1-0.5,0.2-0.6,0.4
		c-0.1,0.2-0.2,0.6-0.2,1.1v0.6v4.3c0,1.4,0.2,2.5,0.7,3.1c0.6,0.9,1.7,1.3,3.2,1.3c1.3,0,2.3-0.4,3-1.1c0.7-0.7,1-1.8,1-3.3v-4.5
		c0-0.7-0.1-1.2-0.3-1.5c-0.2-0.3-0.5-0.4-1-0.5c-0.3,0-0.4-0.2-0.4-0.3c0-0.2,0.1-0.3,0.3-0.3s0.3,0,0.6,0.1c0.2,0,0.5,0,0.8,0
		c0.6,0,1,0,1.2,0s0.3,0,0.4,0c0.2,0,0.3,0.1,0.3,0.3c0,0.1,0,0.2-0.3,0.3c-0.3,0.1-0.5,0.3-0.6,0.5c-0.1,0.2-0.1,0.7-0.1,1.4V31
		c0,1.6-0.3,2.8-1,3.7c-0.4,0.5-1,1-1.8,1.3C299.1,36.3,298.3,36.5,297.5,36.5"/>
	<path class="st0" d="M300.4,24c-0.2,0-0.4,0.2-0.4,0.4c0,0.1,0,0.4,0.5,0.4c0.4,0,0.7,0.2,0.9,0.4c0.2,0.3,0.3,0.8,0.3,1.4v4.5
		c0,1.4-0.3,2.5-1,3.2c-0.6,0.7-1.6,1-2.9,1c-1.4,0-2.5-0.4-3.1-1.2c-0.4-0.6-0.6-1.6-0.6-3v-4.2v-0.6c0-0.6,0.1-0.9,0.1-1
		c0.1-0.1,0.2-0.2,0.5-0.3c0.4-0.1,0.5-0.4,0.5-0.5c0-0.2-0.1-0.4-0.5-0.4c-0.1,0-0.2,0-0.5,0c-0.2,0-0.4,0-0.5,0H293h-0.7
		c-0.1,0-0.3,0-0.6,0c-0.3,0-0.5,0-0.6,0c-0.6,0-0.6,0.4-0.6,0.5s0,0.4,0.5,0.4c0.4,0.1,0.7,0.2,0.8,0.4c0.1,0.1,0.2,0.4,0.2,1.1V27
		v4.4c0,1.2,0.2,2.3,0.6,3c0.4,0.7,1,1.2,1.8,1.7c0.8,0.4,1.7,0.6,2.7,0.6c0.9,0,1.7-0.2,2.5-0.5s1.4-0.8,1.8-1.4
		c0.7-0.9,1-2.1,1-3.8v-4.3c0-0.8,0.1-1.2,0.1-1.4c0.1-0.2,0.3-0.3,0.5-0.5c0.3-0.1,0.3-0.3,0.3-0.4c0-0.2-0.2-0.4-0.4-0.4
		c-0.1,0-0.2,0-0.4,0c-0.1,0-0.4,0-1.2,0c-0.3,0-0.5,0-0.7,0C300.8,24,300.6,24,300.4,24L300.4,24L300.4,24z M300.4,24.3L300.4,24.3
		c0.1,0,0.3,0,0.6,0.1c0.2,0,0.5,0.1,0.8,0.1c0.6,0,1,0,1.2,0s0.3,0,0.4,0c0.1,0,0.2,0.1,0.2,0.1c0,0.1-0.1,0.2-0.2,0.2
		c-0.4,0.1-0.6,0.3-0.7,0.6c-0.1,0.3-0.2,0.7-0.2,1.5v4.3c0,1.6-0.3,2.8-0.9,3.6c-0.4,0.5-1,1-1.7,1.3s-1.5,0.5-2.4,0.5
		c-1,0-1.9-0.2-2.6-0.6c-0.8-0.4-1.4-0.9-1.7-1.5c-0.4-0.7-0.6-1.7-0.6-2.9v-4.4v-0.5c0-0.6-0.1-1-0.3-1.3c-0.2-0.2-0.5-0.4-1-0.5
		c-0.2,0-0.2-0.1-0.2-0.2s0.1-0.2,0.3-0.2c0.1,0,0.3,0,0.6,0c0.3,0,0.5,0,0.6,0h0.7h0.7c0.1,0,0.2,0,0.5,0c0.2,0,0.4,0,0.4,0
		c0.1,0,0.2,0,0.2,0.1s-0.1,0.2-0.3,0.2c-0.3,0.1-0.6,0.2-0.7,0.4c-0.1,0.2-0.2,0.6-0.2,1.2V27v4.3c0,1.5,0.2,2.5,0.7,3.2
		c0.6,0.9,1.7,1.3,3.3,1.3c1.4,0,2.4-0.4,3.1-1.1c0.7-0.7,1-1.9,1-3.4v-4.5c0-0.7-0.1-1.2-0.3-1.6c-0.2-0.3-0.6-0.5-1.1-0.6
		C300.4,24.6,300.3,24.5,300.4,24.3C300.2,24.3,300.3,24.3,300.4,24.3"/>
	<path class="st0" d="M308.7,36.5c-0.5,0-1-0.1-1.5-0.2s-0.9-0.3-1.2-0.5c-0.1-0.1-0.2-0.2-0.3-0.3c0-0.1-0.1-0.3-0.2-0.6l-0.2-0.8
		c-0.2-0.5-0.2-0.9-0.2-1.1c0-0.3,0.2-0.4,0.3-0.4c0.2,0,0.4,0.3,0.4,0.5c0.2,0.7,0.6,1.3,1.3,1.7c0.6,0.5,1.3,0.7,2.1,0.7
		s1.4-0.2,1.9-0.7c0.5-0.4,0.8-1,0.8-1.6s-0.2-1.1-0.7-1.5c-0.2-0.1-0.7-0.4-2.2-0.9c-1.3-0.4-2.2-0.9-2.8-1.5
		c-0.6-0.5-0.8-1.3-0.8-2.1c0-1,0.4-1.8,1.1-2.4s1.6-0.9,2.8-0.9c0.6,0,1.2,0.1,1.6,0.3l0.6,0.2h0.1c0,0,0.1,0,0.1-0.1l0.1-0.1
		c0,0,0.1-0.1,0.2-0.1l0,0c0.2,0,0.3,0.1,0.3,0.6c0,0.1,0,0.2,0.1,0.8l0.1,0.9c0,0.2,0,0.3,0,0.4c0,0.4-0.2,0.4-0.3,0.4
		c-0.2,0-0.3-0.3-0.4-0.5c-0.2-0.6-0.6-1.1-1.2-1.5c-0.6-0.4-1.3-0.6-2-0.6c-0.6,0-1.1,0.2-1.5,0.5c-0.4,0.3-0.6,0.8-0.6,1.3
		s0.1,0.8,0.4,1.2c0.2,0.3,0.5,0.5,0.7,0.6c0.3,0.1,0.9,0.4,2,0.7c2.2,0.7,3.3,1.9,3.3,3.5c0,1.1-0.4,2-1.2,2.7
		C311,36.1,309.9,36.5,308.7,36.5"/>
	<path class="st0" d="M309.2,23.9c-1.1,0-2.1,0.3-2.8,0.9c-0.8,0.6-1.1,1.5-1.1,2.5c0,0.9,0.3,1.6,0.9,2.2c0.6,0.6,1.5,1,2.8,1.5
		c1.6,0.5,2,0.8,2.1,0.9c0.4,0.4,0.7,0.9,0.7,1.4c0,0.6-0.2,1.1-0.7,1.5s-1.1,0.6-1.8,0.6c-0.7,0-1.4-0.2-2-0.7
		c-0.6-0.4-1-1-1.2-1.7c0-0.2-0.2-0.6-0.5-0.6l0,0c-0.1,0-0.4,0-0.4,0.5c0,0.2,0.1,0.6,0.2,1.2l0.1,0.3c0.1,0.3,0.1,0.5,0.1,0.5
		c0.1,0.5,0.2,0.6,0.2,0.7c0.1,0.1,0.2,0.2,0.3,0.3c0.3,0.2,0.7,0.3,1.2,0.5c0.5,0.1,1.1,0.2,1.5,0.2c1.3,0,2.4-0.4,3.2-1.1
		c0.8-0.7,1.3-1.7,1.3-2.8c0-1.7-1.1-2.9-3.4-3.7c-1.1-0.4-1.8-0.6-2-0.7s-0.5-0.3-0.7-0.6s-0.3-0.7-0.3-1.1c0-0.5,0.2-0.9,0.5-1.2
		c0.4-0.3,0.8-0.5,1.4-0.5c0.7,0,1.4,0.2,2,0.6c0.6,0.4,1,0.8,1.1,1.4c0.1,0.2,0.2,0.6,0.5,0.6c0.2,0,0.4-0.1,0.4-0.5
		c0,0,0-0.1,0-0.4l-0.1-0.9c-0.1-0.6-0.1-0.8-0.1-0.8c0-0.6-0.3-0.7-0.5-0.7s-0.2,0.1-0.3,0.1l-0.1,0.1l0,0c0,0,0,0-0.1,0l-0.6-0.2
		C310.4,24,309.9,23.9,309.2,23.9 M309.2,24.2c0.6,0,1.1,0.1,1.6,0.3l0.6,0.2c0.1,0,0.1,0,0.2,0c0.1,0,0.1,0,0.2-0.1l0.1-0.1h0.1
		l0,0c0.1,0,0.2,0.1,0.2,0.4c0,0.1,0,0.4,0.1,0.9l0.1,0.9c0,0.2,0,0.3,0,0.3c0,0.2-0.1,0.3-0.2,0.3c-0.1,0-0.2-0.1-0.3-0.4
		c-0.2-0.6-0.6-1.1-1.3-1.5c-0.6-0.4-1.3-0.6-2.1-0.6c-0.6,0-1.1,0.2-1.5,0.5c-0.4,0.4-0.6,0.8-0.6,1.4c0,0.5,0.1,0.9,0.4,1.2
		c0.2,0.3,0.5,0.5,0.8,0.7c0.3,0.1,1,0.4,2,0.7c2.1,0.7,3.2,1.8,3.2,3.4c0,1.1-0.4,1.9-1.2,2.6c-0.8,0.7-1.8,1-3,1
		c-0.4,0-0.9-0.1-1.5-0.2c-0.5-0.1-0.9-0.3-1.2-0.4c-0.1-0.1-0.2-0.1-0.2-0.2s-0.1-0.3-0.2-0.6c0,0-0.1-0.3-0.2-0.8
		c-0.1-0.5-0.2-0.9-0.2-1.1s0.1-0.2,0.2-0.2l0,0c0.1,0,0.2,0.1,0.3,0.4c0.2,0.7,0.6,1.3,1.3,1.8s1.4,0.7,2.2,0.7
		c0.8,0,1.5-0.2,2-0.7s0.8-1,0.8-1.7c0-0.6-0.3-1.2-0.8-1.6c-0.3-0.2-1-0.5-2.2-1c-1.3-0.4-2.2-0.9-2.7-1.4s-0.8-1.2-0.8-2
		c0-0.9,0.3-1.7,1-2.3C307.3,24.5,308.1,24.2,309.2,24.2"/>
	<path class="st0" d="M321.4,36.4c-0.1,0-0.2,0-0.4-0.1c-0.1,0-0.5,0-0.8,0h-0.6h-0.7c-0.2,0-0.4,0-0.6,0c-0.3,0-0.5,0.1-0.6,0.1
		c-0.4,0-0.4-0.2-0.4-0.3s0.1-0.3,0.4-0.3c0.4-0.1,0.7-0.2,0.8-0.3c0.1-0.2,0.2-0.5,0.2-0.9v-8.5v-0.2c0-0.3-0.1-0.3-0.1-0.3
		s-0.1-0.1-0.3-0.1H316c-0.4,0-0.7,0.1-0.9,0.2c-0.2,0.2-0.3,0.5-0.4,1c-0.1,0.3-0.2,0.4-0.3,0.4s-0.3,0-0.3-0.4
		c0-0.1,0-0.3,0.1-0.7c0.1-0.4,0.1-0.7,0.1-1s0-0.5,0.1-0.6c0.1-0.1,0.2-0.2,0.5-0.2h9.3c0.5,0,0.6,0.1,0.7,0.1
		c0.1,0.1,0.1,0.3,0.1,0.7c0,0.3,0,0.6,0,0.7c0,0.2,0,0.3,0.1,0.4c0,0.3-0.2,0.4-0.3,0.4l0,0c-0.1,0-0.3-0.1-0.3-0.4
		c-0.1-0.5-0.2-0.6-0.3-0.7s-0.3-0.2-0.9-0.2h-2.4c-0.3,0-0.4,0.1-0.4,0.1s-0.1,0.1-0.1,0.4v8.4v0.3c0,0.6,0.4,1,1,1.1
		c0.3,0,0.4,0.2,0.4,0.3C321.8,36.2,321.7,36.4,321.4,36.4"/>
	<path class="st0" d="M324.1,24.1h-9.3c-0.3,0-0.5,0.1-0.6,0.2c-0.1,0.1-0.1,0.3-0.1,0.7c0,0.3,0,0.6-0.1,1
		c-0.1,0.3-0.1,0.6-0.1,0.7c0,0.3,0.2,0.5,0.4,0.5l0,0c0.2,0,0.4-0.1,0.5-0.5c0.1-0.6,0.3-0.8,0.4-0.9c0.2-0.1,0.4-0.2,0.8-0.2h2.3
		c0.1,0,0.2,0,0.2,0s0,0.1,0,0.2V26v8.5c0,0.5-0.1,0.8-0.2,0.8c-0.1,0.1-0.3,0.2-0.7,0.3c-0.4,0-0.5,0.3-0.5,0.4
		c0,0.2,0.1,0.4,0.5,0.4c0.1,0,0.2,0,0.6-0.1c0.1,0,0.3,0,0.6,0h0.7h0.6c0.2,0,0.6,0,0.7,0c0.3,0,0.4,0.1,0.5,0.1
		c0.4,0,0.5-0.2,0.5-0.4c0-0.1-0.1-0.4-0.5-0.4c-0.6-0.1-0.9-0.4-0.9-1v-0.3v-8.4c0-0.2,0-0.3,0-0.3l0,0c0,0,0.1,0,0.3,0h2.4
		c0.6,0,0.8,0.1,0.8,0.1c0.1,0,0.2,0.2,0.3,0.6c0.1,0.4,0.3,0.5,0.5,0.5s0.5-0.2,0.4-0.5c0-0.1,0-0.2-0.1-0.4c0-0.1,0-0.4,0-0.7
		c0-0.4,0-0.7-0.2-0.8C324.8,24.2,324.6,24.1,324.1,24.1 M324.1,24.4c0.3,0,0.5,0,0.6,0.1c0.1,0.1,0.1,0.3,0.1,0.6
		c0,0.3,0,0.6,0,0.7c0,0.2,0,0.3,0.1,0.4c0,0.2-0.1,0.3-0.2,0.3l0,0c-0.1,0-0.2-0.1-0.2-0.3c-0.1-0.4-0.2-0.7-0.4-0.8
		c-0.2-0.1-0.5-0.2-1-0.2h-2.4c-0.3,0-0.4,0-0.5,0.1c-0.1,0.1-0.1,0.2-0.1,0.5v8.4v0.3c0,0.7,0.4,1.1,1.1,1.2c0.2,0,0.3,0.1,0.3,0.2
		s-0.1,0.2-0.2,0.2c-0.1,0-0.2,0-0.4-0.1c-0.1,0-0.4,0-0.8,0h-0.6h-0.7c-0.2,0-0.4,0-0.6,0c-0.3,0-0.5,0.1-0.6,0.1
		c-0.2,0-0.3-0.1-0.3-0.2s0.1-0.1,0.3-0.2c0.4-0.1,0.7-0.2,0.9-0.4s0.2-0.5,0.2-1v-8.5v-0.2c0-0.2,0-0.3-0.1-0.4
		c-0.1-0.1-0.2-0.1-0.4-0.1h-2.3c-0.5,0-0.8,0.1-1,0.3c-0.2,0.2-0.4,0.5-0.5,1.1c-0.1,0.2-0.1,0.3-0.2,0.3l0,0
		c-0.1,0-0.2-0.1-0.2-0.2s0-0.3,0.1-0.7c0.1-0.4,0.1-0.8,0.1-1c0-0.3,0-0.4,0.1-0.5c0.1-0.1,0.2-0.1,0.4-0.1L324.1,24.4L324.1,24.4z
		"/>
	<path class="st0" d="M330.1,25c-0.4,0-0.5,0.1-0.6,0.1c-0.1,0.1-0.1,0.3-0.1,0.5v0.3v3.5c0,0.3,0.1,0.4,0.1,0.4s0.1,0.1,0.4,0.1h1
		c0.7,0,1.3-0.2,1.7-0.6c0.4-0.4,0.6-0.9,0.6-1.6c0-0.8-0.3-1.5-0.8-2C331.7,25.3,331,25,330.1,25 M336.2,36.5c-0.5,0-1-0.2-1.5-0.4
		c-0.4-0.3-0.9-0.8-1.3-1.4l-2.3-3.5c-0.1-0.2-0.3-0.3-0.6-0.3h-1.1h-0.2l0,0c0,0,0,0,0,0.1v2.7V34c0,0.6,0,0.9,0.1,1
		c0,0.2,0.1,0.3,0.3,0.4c0.2,0.2,0.6,0.3,1.1,0.3c0.3,0,0.4,0.2,0.4,0.3s0,0.2-0.1,0.2c-0.1,0.1-0.2,0.1-0.4,0.1c-0.1,0-0.3,0-0.5,0
		s-0.6,0-1.1,0h-0.8h-0.4c-0.2,0-0.4,0-0.7,0c-0.2,0-0.4,0-0.5,0c-0.2,0-0.3-0.1-0.3-0.3c0-0.1,0.1-0.2,0.3-0.3
		c0.4-0.1,0.7-0.3,0.8-0.5c0.1-0.3,0.2-0.9,0.2-1.9v-6.2v-0.9c0-0.8-0.3-1.3-0.8-1.4l-0.4-0.1c-0.3-0.1-0.4-0.2-0.4-0.3
		c0-0.1,0-0.3,0.4-0.3c0,0,0.2,0,0.6,0c0.2,0,0.5,0,0.8,0s0.7,0,1.3-0.1c0.5,0,0.9,0,1.2,0c1.3,0,2.4,0.3,3.1,0.8s1.1,1.3,1.1,2.3
		c0,1.3-0.7,2.3-2.1,3l2.6,3.8c0.7,1,1.4,1.6,1.9,1.6h0.3c0.1,0,0.2,0,0.2,0.1l0,0v0.1c0,0.2-0.3,0.3-0.5,0.4
		C336.8,36.4,336.5,36.5,336.2,36.5"/>
	<path class="st0" d="M329.5,29.8c0,0,0-0.1,0-0.3v-3.6v-0.3c0-0.2,0-0.4,0.1-0.4c0,0,0.2-0.1,0.5-0.1c0.8,0,1.5,0.2,2.1,0.7
		c0.5,0.5,0.8,1.1,0.8,1.9c0,0.7-0.2,1.1-0.6,1.5c-0.4,0.4-0.9,0.5-1.6,0.5h-1C329.6,29.8,329.5,29.8,329.5,29.8 M330.5,24
		c-0.3,0-0.7,0-1.2,0c-0.6,0-1.1,0.1-1.3,0.1c-0.3,0-0.5,0-0.7,0c-0.4,0-0.6,0-0.6,0c-0.5,0-0.6,0.4-0.6,0.4c0,0.1,0,0.4,0.5,0.5
		l0.4,0.1c0.3,0,0.7,0.2,0.7,1.2v0.9v6.2c0,0.9-0.1,1.6-0.2,1.8c-0.1,0.3-0.3,0.4-0.7,0.5s-0.4,0.3-0.4,0.4c0,0.2,0.1,0.4,0.5,0.4
		c0.1,0,0.3,0,0.5,0c0.3,0,0.5,0,0.7,0h0.4h0.8c0.5,0,0.8,0,1.1,0s0.5,0,0.5,0c0.2,0,0.4-0.1,0.5-0.2c0.1-0.1,0.1-0.2,0.1-0.3
		s-0.1-0.4-0.6-0.4s-0.8-0.2-1-0.3c-0.1-0.1-0.2-0.2-0.3-0.4c0-0.1-0.1-0.3-0.1-0.9v-0.3V31l0,0h0.1h1.1c0.2,0,0.4,0.1,0.4,0.2
		l0.1,0.2l2.1,3.3c0.4,0.7,0.9,1.2,1.3,1.5c0.5,0.3,1,0.5,1.5,0.5c0.3,0,0.6,0,0.9-0.1c0.1,0,0.5-0.1,0.6-0.5c0-0.1,0-0.2-0.1-0.3
		c-0.1-0.1-0.2-0.1-0.3-0.1h-0.3c-0.5,0-1.2-0.6-1.8-1.6l-0.3-0.4l-2.2-3.3c1.3-0.7,2-1.8,2-3.1c0-1.1-0.4-1.9-1.1-2.4
		C332.9,24.3,331.8,24,330.5,24 M329.8,30.1h1c0.8,0,1.3-0.2,1.8-0.6c0.4-0.4,0.6-1,0.6-1.7c0-0.8-0.3-1.5-0.9-2.1
		c-0.6-0.5-1.3-0.8-2.2-0.8c-0.3,0-0.6,0.1-0.7,0.2c-0.1,0.1-0.2,0.3-0.2,0.6V26v3.5c0,0.3,0,0.4,0.1,0.5
		C329.4,30,329.5,30.1,329.8,30.1 M330.5,24.3c1.3,0,2.3,0.2,3,0.7s1,1.2,1,2.2c0,1.3-0.7,2.3-2.1,3l2.4,3.5l0.3,0.4
		c0.7,1.1,1.4,1.6,2,1.7h0.3c0.1,0,0.2,0,0.1,0.1c0,0.1-0.1,0.2-0.4,0.2c-0.2,0.1-0.5,0.1-0.8,0.1c-0.5,0-1-0.1-1.4-0.4
		c-0.4-0.3-0.8-0.8-1.2-1.4l-2.1-3.3l-0.1-0.2c-0.1-0.2-0.4-0.4-0.7-0.4h-1.1h-0.2c-0.1,0-0.1,0.1-0.1,0.3v2.7v0.3
		c0,0.5,0,0.8,0.1,1c0.1,0.2,0.2,0.3,0.4,0.5s0.6,0.3,1.1,0.4c0.2,0,0.3,0.1,0.3,0.2s-0.1,0.2-0.3,0.2c-0.1,0-0.2,0-0.5,0
		c-0.2,0-0.6,0-1.1,0h-0.8h-0.4c-0.2,0-0.4,0-0.7,0c-0.2,0-0.4,0-0.5,0c-0.1,0-0.2-0.1-0.2-0.2s0.1-0.1,0.2-0.2
		c0.5-0.1,0.8-0.3,0.9-0.6c0.1-0.3,0.2-1,0.2-2v-6.2V26c0-0.9-0.3-1.4-0.9-1.5l-0.4-0.1c-0.2,0-0.3-0.1-0.3-0.2s0.1-0.2,0.3-0.2
		c0,0,0.2,0,0.6,0c0.2,0,0.5,0,0.8,0s0.7,0,1.4-0.1C329.7,24.3,330.1,24.3,330.5,24.3"/>
	<path class="st0" d="M343.8,26.6l-1.7,3.7c-0.1,0.2-0.1,0.3-0.1,0.3c0,0.1,0.1,0.1,0.3,0.1h0.2h2.6c0.2,0,0.3,0,0.3-0.1
		c0,0,0-0.1,0-0.2v-0.2l-1.3-3.4l-0.1-0.2C343.9,26.6,343.8,26.6,343.8,26.6L343.8,26.6 M340.8,36.4H340c-0.3,0-0.6,0-0.9,0
		c-0.2,0-0.3,0-0.4,0c-0.3,0-0.5,0-0.5,0c-0.3,0-0.4-0.2-0.4-0.3s0.1-0.3,0.2-0.3l0.3-0.1c0,0,0.2-0.1,0.4-0.4
		c0.2-0.2,0.3-0.5,0.5-0.7l0.2-0.6l4.4-9.8c0-0.1,0.1-0.3,0.4-0.3c0.2,0,0.3,0.1,0.4,0.3l3.7,9.5l0.2,0.5c0.3,0.8,0.5,1.1,0.6,1.3
		c0.1,0.1,0.4,0.3,1,0.4c0.3,0.1,0.4,0.2,0.4,0.3s-0.1,0.3-0.4,0.3c0,0-0.1,0-0.3,0c-0.3,0-0.9,0-1.6,0c-0.8,0-1.3,0-1.5,0
		c-0.1,0-0.2,0-0.3,0c-0.3,0-0.4-0.2-0.4-0.3s0-0.3,0.3-0.3l0.3-0.1c0.2,0,0.3-0.2,0.3-0.5s-0.2-0.9-0.5-1.8l-0.4-1.1
		c-0.2-0.4-0.2-0.5-0.2-0.5s-0.1,0-0.5,0h-3.1c-0.5,0-0.7,0.1-0.7,0.1s-0.1,0.1-0.4,0.6l-0.6,1.3c-0.3,0.7-0.4,1.1-0.4,1.2
		c0,0.2,0.1,0.4,0.2,0.5c0.1,0.1,0.3,0.2,0.7,0.3c0.3,0.1,0.4,0.2,0.4,0.3s0,0.1-0.1,0.2c-0.1,0.1-0.2,0.1-0.3,0.1L340.8,36.4z"/>
	<path class="st0" d="M342.1,30.6c0,0,0-0.1,0.1-0.2l1.6-3.5V27l1.4,3.4v0.1v0.1c0,0-0.1,0-0.2,0h-2.6L342.1,30.6
		C342.2,30.6,342.2,30.6,342.1,30.6 M344.3,23.7c-0.2,0-0.4,0.1-0.5,0.4l-4.4,9.8l-0.2,0.6c-0.1,0.2-0.3,0.5-0.4,0.7
		c-0.2,0.3-0.3,0.3-0.3,0.3l-0.3,0.1c-0.2,0.1-0.3,0.2-0.3,0.4s0.1,0.4,0.5,0.4c0,0,0.2,0,0.4,0h0.1c0.1,0,0.2,0,0.4,0
		c0.4,0,0.7,0,0.9,0h0.8h0.1c0.1,0,0.1,0,0.2,0c0.2,0,0.3,0,0.4-0.1c0.1-0.1,0.1-0.2,0.1-0.3s-0.1-0.4-0.5-0.4
		c-0.5-0.1-0.6-0.2-0.7-0.2c-0.1-0.1-0.1-0.3-0.1-0.4c0-0.2,0.1-0.5,0.4-1.2l0.6-1.3c0.2-0.5,0.3-0.6,0.3-0.6s0.1-0.1,0.6-0.1h3.1
		c0.3,0,0.4,0,0.4,0s0.1,0.1,0.2,0.4l0.4,1.1c0.4,1.1,0.5,1.5,0.5,1.7c0,0.3-0.1,0.3-0.2,0.3l-0.3,0.1c-0.4,0.1-0.4,0.3-0.4,0.4
		c0,0.2,0.1,0.4,0.5,0.4c0.1,0,0.2,0,0.3,0s0.5,0,1.4,0c0.8,0,1.3,0,1.6,0h0.1c0.1,0,0.2,0,0.3,0c0.4,0,0.5-0.3,0.5-0.4
		s0-0.4-0.5-0.5c-0.6-0.1-0.9-0.3-0.9-0.3c-0.1-0.1-0.3-0.3-0.6-1.2l-0.2-0.5l-3.7-9.5C344.6,23.8,344.4,23.7,344.3,23.7
		 M342.5,30.8h2.6c0.3,0,0.4-0.1,0.4-0.2c0,0,0-0.1,0-0.2v-0.2l-1.4-3.4l-0.1-0.2c-0.1-0.2-0.1-0.3-0.2-0.3l0,0c0,0-0.1,0.1-0.1,0.2
		l-1.7,3.7c-0.1,0.2-0.1,0.3-0.1,0.3c0,0.2,0.1,0.2,0.4,0.2L342.5,30.8z M344.3,24c0.1,0,0.2,0.1,0.2,0.2l3.7,9.5l0.2,0.5
		c0.3,0.7,0.5,1.1,0.7,1.3s0.5,0.3,1.1,0.4c0.2,0,0.3,0.1,0.3,0.2s-0.1,0.1-0.2,0.1c-0.1,0-0.2,0-0.3,0c-0.3,0-0.8,0-1.6,0
		s-1.3,0-1.5,0c-0.1,0-0.2,0-0.3,0c-0.2,0-0.2-0.1-0.2-0.2s0.1-0.2,0.2-0.2l0.3-0.1c0.3-0.1,0.4-0.3,0.4-0.6s-0.2-0.9-0.5-1.8
		l-0.4-1.1c-0.1-0.3-0.2-0.5-0.3-0.5s-0.3-0.1-0.6-0.1h-3.1c-0.4,0-0.7,0-0.8,0.1c-0.1,0.1-0.2,0.3-0.4,0.7l-0.6,1.3
		c-0.3,0.6-0.4,1-0.4,1.3s0.1,0.5,0.2,0.6c0.1,0.1,0.4,0.2,0.8,0.3c0.2,0,0.3,0.1,0.3,0.2s-0.1,0.1-0.2,0.1c-0.1,0-0.2,0-0.3,0h-0.8
		c-0.3,0-0.6,0-1,0c-0.2,0-0.3,0-0.4,0c-0.3,0-0.4,0-0.5,0c-0.2,0-0.2-0.1-0.2-0.2s0.1-0.2,0.1-0.2l0.3-0.1c0.1,0,0.3-0.2,0.5-0.4
		s0.4-0.5,0.5-0.8l0.2-0.6l4.4-9.8C344.1,24.1,344.2,24,344.3,24"/>
	<path class="st0" d="M352.2,36.4c-0.1,0-0.2,0-0.2-0.1c0,0-0.1-0.1-0.1-0.2s0.1-0.2,0.3-0.3c0.4-0.1,0.6-0.3,0.7-0.5
		c0.1-0.2,0.2-0.6,0.2-1.1v-0.4v-7.7c0-0.7-0.3-1.1-0.8-1.2l-0.4-0.1c-0.3-0.1-0.3-0.2-0.3-0.3c0-0.1,0-0.3,0.4-0.3
		c0.1,0,0.3,0,0.6,0c0.4,0,0.8,0.1,1.3,0.1s1,0,1.4,0c0.2,0,0.3,0,0.4,0c0.3,0,0.3,0.2,0.3,0.3c0,0.1,0,0.3-0.3,0.4l-0.3,0.1
		c-0.4,0.1-0.7,0.6-0.7,1.4V34v0.3c0,0.9,0.1,1.1,0.2,1.1c0,0,0.3,0.1,1.2,0.1c1.1,0,2-0.1,2.8-0.4c0.8-0.2,1.2-0.6,1.4-0.9
		c0.1-0.2,0.2-0.3,0.4-0.3c0.1,0,0.2,0,0.2,0.1c0.1,0.1,0.1,0.1,0.1,0.2c0,0.4-0.2,0.9-0.6,1.3c-0.5,0.7-1.4,1-2.5,1
		c-0.2,0-0.4,0-0.6,0l-0.9-0.1c-0.5,0-1.1-0.1-1.7-0.1c-0.7,0-1.3,0-1.8,0.1C352.6,36.4,352.4,36.4,352.2,36.4L352.2,36.4z"/>
	<path class="st0" d="M352.1,24.1c-0.5,0-0.6,0.4-0.6,0.5s0,0.3,0.4,0.4l0.4,0.1c0.3,0.1,0.7,0.2,0.7,1.1v7.7v0.4
		c0,0.6-0.1,0.9-0.2,1c-0.1,0.2-0.3,0.3-0.7,0.4c-0.4,0.1-0.4,0.3-0.4,0.5s0.1,0.4,0.5,0.4c0.2,0,0.3,0,0.5-0.1
		c0.5-0.1,1.1-0.1,1.7-0.1c0.6,0,1.2,0,1.7,0.1l0.9,0.1c0.2,0,0.5,0,0.7,0c1.2,0,2.1-0.3,2.6-1c0.4-0.5,0.6-1,0.6-1.4
		c0-0.1,0-0.3-0.1-0.3c-0.1-0.1-0.1-0.1-0.3-0.1s-0.3,0.1-0.5,0.4c-0.2,0.4-0.6,0.7-1.4,0.9c-0.8,0.2-1.7,0.4-2.7,0.4
		c-0.9,0-1.1-0.1-1.1-0.1s-0.1-0.2-0.1-1v-0.3v-7.5c0-0.8,0.2-1.2,0.6-1.3l0.3-0.1c0.4-0.1,0.5-0.4,0.5-0.5c0-0.2-0.1-0.4-0.5-0.4
		c0,0-0.2,0-0.4,0c-0.5,0-0.9,0-1.4,0c-0.4,0-0.9,0-1.3-0.1C352.4,24.1,352.2,24.1,352.1,24.1 M352.1,24.3c0.1,0,0.3,0,0.5,0
		c0.4,0,0.8,0.1,1.3,0.1s1,0,1.4,0c0.2,0,0.3,0,0.4,0s0.2,0,0.2,0.1s-0.1,0.2-0.3,0.2l-0.3,0.1c-0.5,0.1-0.8,0.6-0.8,1.5v7.5v0.3
		c0,0.7,0.1,1.1,0.2,1.2c0.1,0.1,0.6,0.2,1.3,0.2c1.1,0,2-0.1,2.8-0.4s1.3-0.6,1.5-1c0.1-0.2,0.2-0.2,0.2-0.2c0.1,0,0.1,0.1,0.1,0.2
		c0,0.4-0.2,0.8-0.6,1.2c-0.5,0.6-1.3,0.9-2.4,0.9c-0.2,0-0.4,0-0.6,0l-0.9-0.1c-0.5,0-1.1-0.1-1.7-0.1c-0.7,0-1.3,0-1.8,0.1
		c-0.2,0-0.4,0-0.5,0.1l0,0c-0.1,0-0.2-0.1-0.2-0.2s0.1-0.2,0.2-0.2c0.4-0.1,0.7-0.3,0.8-0.5s0.2-0.6,0.2-1.2v-0.4V26
		c0-0.8-0.3-1.2-0.9-1.3l-0.4-0.1c-0.1,0-0.2-0.1-0.2-0.2C351.8,24.4,351.9,24.3,352.1,24.3"/>
	<path class="st0" d="M366.2,36.4c-0.1,0-0.2,0-0.3,0c-0.2,0-0.5,0-0.9,0h-1.2l-1,0.1c-0.2,0-0.3,0-0.4,0c-0.3,0-0.4-0.2-0.4-0.3
		s0-0.3,0.4-0.3c0.4-0.1,0.6-0.2,0.8-0.4c0.1-0.1,0.2-0.5,0.2-1.4v-7.4c0-0.8-0.1-1.2-0.2-1.4c-0.1-0.2-0.5-0.4-1-0.4
		c-0.2,0-0.4-0.2-0.4-0.3c0-0.1,0-0.2,0.1-0.2c0.1-0.1,0.2-0.1,0.3-0.1h0.1c0.4,0.1,1,0.1,1.7,0.1c0.4,0,0.8,0,1.1,0h0.6h0.2
		c0.3,0,0.4,0.2,0.4,0.3c0,0.1,0,0.3-0.3,0.3l-0.4,0.2c-0.3,0.1-0.6,0.5-0.6,1.9v6.5c0,0.8,0,1.3,0.1,1.5c0.1,0.3,0.2,0.5,0.4,0.6
		s0.4,0.2,0.7,0.2c0.2,0,0.5,0.1,0.5,0.3C366.6,36.1,366.6,36.4,366.2,36.4"/>
	<path class="st0" d="M365.8,24L365.8,24h-0.2H365c-0.3,0-0.6,0-1.1,0c-0.7,0-1.2,0-1.6-0.1c-0.1,0-0.1,0-0.2,0
		c-0.2,0-0.3,0-0.4,0.1c-0.1,0.1-0.1,0.2-0.1,0.3c0,0.1,0.1,0.4,0.5,0.4c0.5,0.1,0.8,0.2,0.9,0.4c0.1,0.1,0.2,0.4,0.2,1.3v7.4
		c0,0.9-0.1,1.2-0.2,1.3c-0.1,0.2-0.3,0.3-0.7,0.3c-0.4,0.1-0.5,0.3-0.5,0.4c0,0.2,0.1,0.4,0.5,0.4c0.1,0,0.3,0,0.4,0l1-0.1h1.2
		c0.4,0,0.7,0,0.9,0c0.1,0,0.3,0,0.4,0c0.4,0,0.5-0.2,0.5-0.5c0-0.4-0.5-0.4-0.7-0.5c-0.4-0.1-0.6-0.1-0.7-0.2
		c-0.1-0.1-0.2-0.3-0.3-0.5s-0.1-0.5-0.1-1.5v-6c0-1.5,0.3-1.8,0.5-1.8l0.4-0.2c0.4-0.1,0.4-0.4,0.4-0.5
		C366.2,24.3,366.1,24,365.8,24 M365.8,24.3c0.2,0,0.2,0.1,0.2,0.2s-0.1,0.2-0.2,0.2l-0.4,0.2c-0.4,0.2-0.6,0.8-0.6,2.1v6.4
		c0,0.8,0,1.3,0.1,1.6s0.3,0.5,0.4,0.6c0.2,0.1,0.4,0.2,0.8,0.3c0.3,0,0.4,0.1,0.4,0.2s-0.1,0.2-0.3,0.2c-0.1,0-0.2,0-0.3,0
		c-0.2,0-0.5,0-0.9,0h-1.2l-1,0.1c-0.2,0-0.3,0-0.4,0c-0.2,0-0.2-0.1-0.2-0.2s0.1-0.2,0.3-0.2c0.4-0.1,0.7-0.2,0.8-0.5
		c0.1-0.2,0.2-0.7,0.2-1.4v-7.4c0-0.7-0.1-1.2-0.2-1.4c-0.2-0.2-0.5-0.4-1-0.5c-0.2,0-0.3-0.1-0.3-0.2s0.1-0.2,0.3-0.2
		c0,0,0.1,0,0.2,0c0.4,0.1,1,0.1,1.7,0.1c0.4,0,0.8,0,1.1,0h0.6C365.7,24.3,365.7,24.3,365.8,24.3"/>
	<path class="st0" d="M373.5,26.6l-1.7,3.7c-0.1,0.2-0.1,0.3-0.1,0.3c0,0.1,0.1,0.1,0.3,0.1h0.2h2.6c0.1,0,0.3,0,0.3-0.1
		c0,0,0-0.1,0-0.2v-0.2l-1.4-3.6C373.6,26.6,373.5,26.6,373.5,26.6L373.5,26.6 M370.5,36.4h-0.8c-0.3,0-0.6,0-0.9,0
		c-0.2,0-0.3,0-0.4,0c-0.3,0-0.5,0-0.5,0c-0.3,0-0.4-0.2-0.4-0.3c0-0.2,0.1-0.3,0.2-0.3l0.3-0.1c0,0,0.2-0.1,0.4-0.4
		c0.2-0.2,0.3-0.5,0.5-0.7L369,34l4.4-9.8c0-0.1,0.1-0.3,0.4-0.3c0.1,0,0.3,0.1,0.4,0.3l3.7,9.5l0.2,0.5c0.3,0.8,0.5,1.1,0.6,1.3
		c0.2,0.2,0.5,0.3,1,0.4c0.3,0.1,0.4,0.2,0.4,0.3s-0.1,0.3-0.4,0.3c0,0-0.1,0-0.3,0c-0.3,0-0.8,0-1.6,0s-1.3,0-1.5,0
		c-0.1,0-0.2,0-0.3,0c-0.3,0-0.4-0.2-0.4-0.3s0-0.3,0.3-0.3l0.3-0.1c0.2,0,0.3-0.1,0.3-0.5c0-0.3-0.2-0.9-0.5-1.8l-0.4-1.1
		c-0.2-0.4-0.2-0.5-0.2-0.5s-0.1,0-0.5,0h-3.1c-0.5,0-0.7,0.1-0.7,0.1s-0.1,0.1-0.4,0.6l-0.6,1.3c-0.2,0.6-0.4,1-0.4,1.2
		s0.1,0.4,0.2,0.5c0.1,0.1,0.3,0.2,0.7,0.3c0.3,0.1,0.4,0.2,0.4,0.3s0,0.1-0.1,0.2s-0.2,0.1-0.3,0.1L370.5,36.4z"/>
	<path class="st0" d="M371.9,30.6c0,0,0-0.1,0.1-0.2l1.6-3.5V27l1.4,3.4v0.1v0.1c0,0-0.1,0-0.2,0h-2.6L371.9,30.6
		C371.9,30.6,371.9,30.6,371.9,30.6 M374,23.7c-0.2,0-0.4,0.1-0.5,0.4l-4.4,9.8l-0.2,0.6c-0.1,0.2-0.3,0.5-0.4,0.7
		c-0.2,0.3-0.3,0.3-0.3,0.3l-0.3,0.1c-0.2,0.1-0.3,0.2-0.3,0.4s0.1,0.4,0.5,0.4c0,0,0.2,0,0.5,0c0.1,0,0.2,0,0.4,0
		c0.4,0,0.7,0,0.9,0h0.8h0.1c0.1,0,0.2,0,0.2,0c0.2,0,0.3,0,0.4-0.1c0.1-0.1,0.1-0.2,0.1-0.3s-0.1-0.4-0.5-0.4
		c-0.4-0.1-0.6-0.2-0.7-0.2c-0.1-0.1-0.1-0.3-0.1-0.4c0-0.2,0.1-0.5,0.4-1.2l0.6-1.3c0.2-0.5,0.3-0.6,0.3-0.6s0.1-0.1,0.6-0.1h3.1
		c0.3,0,0.4,0,0.4,0s0.1,0.2,0.2,0.4l0.4,1.1c0.4,1.1,0.5,1.5,0.5,1.7c0,0.3-0.1,0.3-0.2,0.3l-0.3,0.1c-0.4,0.1-0.4,0.3-0.4,0.4
		c0,0.2,0.1,0.4,0.5,0.4c0.1,0,0.2,0,0.3,0s0.5,0,1.4,0c0.8,0,1.3,0,1.6,0l0,0l0,0c0.2,0,0.3,0,0.3,0c0.5,0,0.5-0.3,0.5-0.4
		s0-0.4-0.5-0.5c-0.6-0.1-0.9-0.3-1-0.3c-0.1-0.1-0.3-0.3-0.6-1.2l-0.2-0.5l-3.7-9.5C374.2,23.8,374.1,23.7,374,23.7 M372.2,30.8
		h2.6c0.3,0,0.4-0.1,0.4-0.2c0,0,0-0.1,0-0.2v-0.2l-1.4-3.4l-0.1-0.2c-0.1-0.2-0.1-0.3-0.2-0.3l0,0c0,0-0.1,0.1-0.1,0.2l-1.7,3.7
		c-0.1,0.2-0.1,0.3-0.1,0.3c0,0.2,0.1,0.2,0.4,0.2L372.2,30.8z M374,24c0.1,0,0.2,0.1,0.2,0.2l3.7,9.5l0.2,0.5
		c0.3,0.7,0.5,1.1,0.7,1.3s0.5,0.3,1.1,0.4c0.2,0,0.3,0.1,0.3,0.2s-0.1,0.1-0.2,0.1c-0.1,0-0.2,0-0.3,0c-0.3,0-0.8,0-1.6,0
		s-1.3,0-1.5,0c-0.1,0-0.2,0-0.3,0s-0.2-0.1-0.2-0.2s0.1-0.2,0.2-0.2l0.3-0.1c0.3-0.1,0.4-0.3,0.4-0.6s-0.2-0.9-0.5-1.8l-0.4-1.1
		c-0.1-0.3-0.2-0.5-0.3-0.5s-0.3-0.1-0.6-0.1h-3.1c-0.4,0-0.7,0-0.8,0.1s-0.2,0.3-0.4,0.7l-0.6,1.3c-0.3,0.6-0.4,1-0.4,1.3
		s0.1,0.5,0.2,0.6c0.1,0.1,0.4,0.2,0.8,0.3c0.2,0,0.3,0.1,0.3,0.2s-0.1,0.1-0.2,0.1c-0.1,0-0.2,0-0.3,0h-0.8c-0.3,0-0.6,0-1,0
		c-0.2,0-0.3,0-0.4,0c-0.3,0-0.5,0-0.5,0c-0.2,0-0.2-0.1-0.2-0.2s0-0.2,0.1-0.2l0.3-0.1c0.1,0,0.3-0.2,0.5-0.4s0.4-0.5,0.5-0.8
		l0.2-0.6l4.4-9.8C373.8,24.1,373.9,24,374,24"/>
</g>
</svg>
