<?xml version="1.0" encoding="utf-8"?>
<!-- Generator: Adobe Illustrator 19.0.0, SVG Export Plug-In . SVG Version: 6.00 Build 0)  -->
<svg version="1.1" id="Layer_1" xmlns="http://www.w3.org/2000/svg" xmlns:xlink="http://www.w3.org/1999/xlink" x="0px" y="0px"
	 width="320px" height="120px" viewBox="285 -35 320 120" style="enable-background:new 285 -35 320 120;" xml:space="preserve">
<style type="text/css">
	.st0{fill:#FFFFFF;}
</style>
<path class="st0" d="M350.1,10.1c-1.7-1.3-3.6-2.3-5.6-3c-0.9-0.3-1.8-0.6-2.7-0.8c-1.4-0.3-2.8-0.4-4.3-0.4s-2.9,0.2-4.3,0.4
	c-0.9,0.2-1.9,0.4-2.7,0.8c-2,0.7-3.9,1.8-5.6,3h-0.1l-1.3-1V9c1.3-1,2.7-1.9,4.3-2.6c0.9-0.4,1.8-0.8,2.7-1.1
	c2.2-0.7,4.6-1.1,7-1.1s4.8,0.4,7,1.1c0.9,0.3,1.9,0.7,2.7,1.1c1.5,0.7,3,1.6,4.3,2.6v0.1L350.1,10.1L350.1,10.1z"/>
<path class="st0" d="M344.5,18.1c1.3-3.1,3.2-5.8,5.6-8c0.4-0.4,0.9-0.8,1.4-1.2c0.5,0.4,0.9,0.8,1.4,1.2c4.5,4.2,7.4,10.2,7.4,16.8
	c0,6.7-2.8,12.6-7.4,16.8c-0.2,0.2-0.5,0.4-0.7,0.6v-2.4c3.9-3.8,6.4-9.2,6.4-15.1c0-6.2-2.7-11.8-6.9-15.6v8.3l-3.4-3.4
	c-0.1,0.3-0.2,0.6-0.2,1v0.1c0,0.5,0.1,0.9,0.4,1.2c0.1,0.1,0.2,0.2,0.3,0.3l2.7,2.7v5.8l-4.9-4.9c-0.1,0.3-0.2,0.6-0.2,1v0.1
	c0,0.5,0.1,0.9,0.4,1.2c0.1,0.1,0.2,0.2,0.2,0.3l4.2,4.2v5.8l-4.7-4.7c-0.1,0.3-0.2,0.6-0.2,1v0.1c0,0.5,0.1,0.9,0.4,1.2
	c0.1,0.1,0.1,0.2,0.2,0.3l4,4v16.4h-2.2v-6.3c-0.4,0.2-0.7,0.4-1.1,0.5c-0.9,0.4-1.8,0.8-2.7,1.1c-2,0.7-4.1,1-6.4,1.1v-7.7
	c2.5-2.4,4.4-5.5,5.4-8.9c0.6-1.9,0.9-4,0.9-6.1s-0.3-4.2-0.9-6.2c-1.1-3.7-3.2-6.9-6-9.5l0,0v8.2l-3.4-3.4c-0.1,0.3-0.2,0.6-0.2,1
	v0.1c0,0.5,0.1,0.9,0.4,1.2c0.1,0.1,0.1,0.2,0.2,0.3l2.7,2.6V27l-4.9-4.9c-0.1,0.3-0.2,0.6-0.2,1v0.1c0,0.5,0.1,0.9,0.4,1.2
	c0.1,0.1,0.1,0.2,0.3,0.3l4.2,4.2v5.8l-4.7-4.7c-0.1,0.3-0.2,0.6-0.2,1v0.1c0,0.5,0.1,0.9,0.4,1.2c0.1,0.1,0.2,0.2,0.3,0.3l4,4V58
	h-2.3v-8.6c-1.3-0.2-2.6-0.5-3.8-0.9c-0.9-0.3-1.9-0.7-2.7-1.1c-1.3-0.6-2.5-1.3-3.6-2.1v-3.4c2.5-2.4,4.4-5.5,5.4-8.9
	c0.6-1.9,0.9-4,0.9-6.1s-0.3-4.2-0.9-6.2c-1.1-3.7-3.2-7-6-9.5v8.2l-3.4-3.4c-0.1,0.3-0.2,0.6-0.2,1v0.1c0,0.5,0.1,0.9,0.4,1.2
	c0.1,0.1,0.1,0.2,0.2,0.3l2.6,2.6V27l-4.9-4.9c-0.1,0.3-0.2,0.6-0.2,1v0.1c0,0.5,0.1,0.9,0.4,1.2c0.1,0.1,0.2,0.2,0.3,0.3l4.2,4.2
	v5.8l-4.7-4.7c-0.1,0.3-0.2,0.6-0.2,1v0.1c0,0.5,0.1,0.9,0.4,1.2c0.1,0.1,0.2,0.2,0.2,0.3l4,4v16.5H321V41.8
	c-3.5-4-5.6-9.2-5.6-14.9c0-6.7,2.9-12.6,7.4-16.8c0.4-0.4,0.9-0.8,1.4-1.2c0.5,0.4,0.9,0.8,1.4,1.2c2.4,2.2,4.4,5,5.6,8l0,0V18
	c1.2-2.9,3.1-5.5,5.3-7.7c0.1-0.1,0.2-0.2,0.3-0.3c0.4-0.4,0.9-0.8,1.4-1.2c0.5,0.4,0.9,0.8,1.4,1.2C341.2,12.3,343.2,15,344.5,18.1
	"/>
<path class="st0" d="M374.7,16.1c0.7,0.1,1.4,0.1,1.6,0.1c1.2,0,2-0.3,2.5-0.8c0.4-0.4,0.7-1.1,0.7-1.7c0-0.6-0.3-1.5-1.1-2.1
	c-0.6-0.4-1.3-0.5-1.9-0.5c-1,0-1.2,0.1-1.3,1.1l-0.4,3.2C374.7,15.8,374.7,15.9,374.7,16.1 M374.4,17.9c-0.1,0.8-0.2,1.8-0.2,2
	c-0.1,0.7-0.2,1.8-0.2,2.1c0,0.6,0.4,0.9,1.6,0.9c0.5,0,1.8,0,2.8-0.8c0.7-0.6,1.1-1.4,1.1-2.3c0-2.5-2.4-2.9-4.7-2.9
	c-0.2,0-0.2,0-0.2,0.1l0,0C374.5,17,374.5,17.4,374.4,17.9 M376.1,23.6c-0.2,0-0.9,0-1.5-0.1c-0.3,0-0.6,0-0.8,0c-0.3,0-0.5,0-0.6,0
	c-0.2,0-0.7,0-1.1,0.1c-0.4,0-0.7,0-0.8,0c-0.1,0-0.4,0-0.4-0.4c0-0.3,0.2-0.4,0.4-0.4c1.1,0,1.2-1.2,1.3-2.2l0.1-1
	c0.2-2.3,0.5-4.6,0.7-6.5c0-0.4,0.1-0.7,0.1-1s0-0.4-0.3-0.7c-0.2-0.2-0.4-0.3-0.9-0.3c-0.3,0-0.5,0-0.5-0.4c0-0.3,0.2-0.4,0.5-0.4
	c0.1,0,0.5,0,0.9,0.1h0.5c0.2,0,0.3,0,0.4,0c0.2,0,0.8,0,1.4-0.1h0.1c0.6,0,1.1,0,1.3,0c1,0,2.2,0.1,3.1,0.8
	c0.7,0.6,1.1,1.4,1.1,2.3c0,1.6-1.1,2.4-1.5,2.7c-0.3,0.2-0.5,0.3-1.1,0.4c1.8,0.3,2.8,1.3,2.8,2.8
	C381.2,22.2,378.6,23.6,376.1,23.6"/>
<path class="st0" d="M374.7,17L374.7,17c2.3,0,4.7,0.3,4.7,2.7c0,0.3,0,1.3-1,2.2c-0.9,0.7-2.2,0.7-2.7,0.7c-1.4,0-1.5-0.4-1.5-0.7
	c0-0.2,0.1-1.3,0.2-2.1c0-0.2,0.1-1.3,0.2-2C374.6,17.3,374.7,17.1,374.7,17L374.7,17 M374.8,16c0-0.1,0-0.2,0-0.5v-0.2l0.4-3
	c0.1-0.9,0.2-1,1.1-1c0.8,0,1.3,0.1,1.9,0.4c1,0.7,1.1,1.8,1.1,2c0,0.6-0.3,1.2-0.6,1.6c-0.5,0.5-1.3,0.7-2.4,0.7
	C376.1,16,375.4,16,374.8,16 M372.3,10.2c-0.6,0-0.7,0.3-0.7,0.5c0,0.5,0.4,0.5,0.7,0.5c0.5,0,0.6,0.1,0.8,0.3
	c0.2,0.3,0.2,0.4,0.2,0.6c0,0.3,0,0.6-0.1,0.9v0.1c-0.3,1.9-0.5,4.3-0.7,6.5l-0.1,1c-0.1,1.2-0.3,2.1-1.2,2.1l0,0
	c-0.1,0-0.5,0-0.5,0.5c0,0.2,0.1,0.5,0.6,0.5c0.1,0,0.4,0,0.8,0s0.9-0.1,1.1-0.1c0.1,0,0.3,0,0.6,0c0.3,0,0.6,0,0.9,0
	c0.4,0,1.2,0.1,1.5,0.1c3,0,5.2-1.9,5.2-4.3c0-1-0.4-2.3-2.4-2.9c0.3-0.1,0.4-0.2,0.7-0.3c0.5-0.3,1.6-1.1,1.6-2.8
	c0-0.9-0.4-1.8-1.1-2.4c-0.9-0.7-2.1-0.8-3.2-0.8c-0.2,0-0.7,0-1.3,0h-0.1c-0.6,0-1.2,0.1-1.4,0.1c-0.1,0-0.2,0-0.4,0
	c-0.2,0-0.3,0-0.5,0C372.9,10.3,372.5,10.2,372.3,10.2 M375.6,22.9c0.7,0,1.9-0.1,2.8-0.8c1.1-0.9,1.1-2.1,1.1-2.4
	c0-2.7-2.6-3-4.9-3c-0.2,0-0.3,0.1-0.3,0.2c0,0-0.3,2.6-0.3,2.9c-0.1,0.7-0.2,1.8-0.2,2.1C373.9,22.7,374.5,22.9,375.6,22.9
	 M376.3,16.3c1,0,2-0.2,2.6-0.8c0.4-0.4,0.7-1.2,0.7-1.8s-0.2-1.6-1.2-2.2c-0.6-0.4-1.3-0.5-2-0.5c-1.1,0-1.3,0.2-1.4,1.2l-0.4,3
	c-0.1,0.6-0.1,0.7-0.1,1C375.3,16.3,376,16.3,376.3,16.3 M372.3,10.5c0.1,0,0.5,0,0.9,0.1c0.4,0,0.8,0.1,0.9,0.1
	c0.2,0,0.8,0,1.4-0.1c0.6,0,1.2,0,1.4,0c1.1,0,2.2,0.1,3,0.8c1,0.8,1,1.8,1,2.2c0,1.5-1,2.3-1.5,2.6c-0.4,0.2-0.6,0.3-1.6,0.5l0,0
	c2.1,0.2,3.2,1.2,3.2,2.8c0,2.5-2.4,4.1-5,4.1c-0.2,0-0.9,0-1.5-0.1c-0.6,0-1.3-0.1-1.5-0.1c-0.3,0-1.7,0.1-1.8,0.1
	c-0.2,0-0.3-0.1-0.3-0.2c0-0.2,0.1-0.2,0.3-0.2c1.2,0,1.3-1.3,1.5-2.3c0.3-2.5,0.5-5.3,0.8-7.5c0-0.3,0.1-0.7,0.1-1
	s-0.1-0.5-0.3-0.8c-0.2-0.2-0.4-0.4-1-0.4c-0.3,0-0.4,0-0.4-0.2C371.9,10.7,371.9,10.5,372.3,10.5"/>
<path class="st0" d="M387.7,16.1c-1.6,0-2.7,2.2-2.7,4.3c0,1.3,0.5,2.6,1.7,2.6c1.8,0,2.5-2.8,2.5-4.6
	C389.3,17,388.7,16.1,387.7,16.1 M386.8,23.7c-1.1,0-1.8-0.3-2.4-0.8c-0.9-0.9-0.9-2.1-0.9-2.4c0-2.1,1.5-5.1,4.2-5.1
	c2.3,0,3.2,1.6,3.2,3.1C390.8,20.6,389.5,23.7,386.8,23.7"/>
<path class="st0" d="M386.8,22.9c-1.5,0-1.6-1.9-1.6-2.5c0-2,1-4.2,2.5-4.2c0.9,0,1.4,0.9,1.4,2.3C389.1,20.3,388.4,22.9,386.8,22.9
	 M387.7,15.3c-2.8,0-4.3,3-4.3,5.2c0,0.2,0,1.5,1,2.5c0.6,0.6,1.4,0.9,2.5,0.9c2.8,0,4.2-3.2,4.2-5.3
	C390.9,17.1,390.1,15.3,387.7,15.3 M386.8,23.2c1.9,0,2.6-2.9,2.6-4.7c0-1.6-0.7-2.5-1.7-2.5c-1.8,0-2.8,2.4-2.8,4.4
	C384.9,22,385.5,23.2,386.8,23.2 M387.7,15.6c2.2,0,3,1.5,3,2.9c0,2.1-1.3,5.1-3.9,5.1c-1.1,0-1.8-0.3-2.3-0.8
	c-0.8-0.8-0.9-1.9-0.9-2.3C383.6,18.5,385,15.6,387.7,15.6"/>
<path class="st0" d="M394.3,23.7c-0.8,0-1.3-0.6-1.3-1.8c0-0.3,0-0.5,0-0.7c0-0.1,0-0.2,0-0.2l0.7-4.4H393c-0.1,0-0.5,0-0.5-0.2
	s0.3-0.3,0.4-0.4c0.6-0.2,1.1-0.5,1.9-1.8c0.2-0.3,0.3-0.5,0.4-0.5c0.1,0,0.2,0,0.2,0.2c0,0.1,0,0.3,0,0.4l-0.2,1.4
	c0,0.1,0,0.1,0,0.1l0,0c0,0,0,0,0.1,0c0.5,0,0.9,0,1,0h0.1c0.5,0,0.8,0,0.8,0.4c0,0.1,0,0.3-0.1,0.3c-0.1,0.1-0.4,0.2-1,0.2h-1
	c-0.1,0-0.1,0-0.1,0.3l-0.6,3.9c-0.1,0.4-0.1,0.7-0.1,1.1c0,0.8,0.4,0.8,0.6,0.8c0.4,0,0.8-0.2,1.4-0.7c0.2-0.2,0.3-0.3,0.4-0.3
	s0.2,0.1,0.2,0.2C397,22.4,395.5,23.7,394.3,23.7"/>
<path class="st0" d="M395.4,13.5c-0.2,0-0.3,0.2-0.5,0.5l0,0c-0.8,1.3-1.3,1.6-1.8,1.8c-0.1,0-0.5,0.2-0.5,0.5
	c0,0.2,0.2,0.4,0.6,0.4h0.5L393,21c0,0.1,0,0.2,0,0.2c0,0.2,0,0.4,0,0.7c0,1.7,0.9,1.9,1.4,1.9c1.3,0,2.8-1.4,2.8-2
	c0-0.2-0.1-0.4-0.4-0.4c-0.1,0-0.3,0.1-0.5,0.3c-0.6,0.5-0.9,0.7-1.3,0.7c-0.1,0-0.4,0-0.4-0.6c0-0.3,0-0.7,0.1-1l0.6-3.9
	c0-0.1,0-0.1,0-0.1l0,0h1l0,0c0.6,0,0.9-0.1,1.1-0.2c0.2-0.1,0.2-0.3,0.2-0.4c0-0.6-0.4-0.6-1-0.6c-0.1,0-0.4,0-1,0l0.2-1.4
	c0-0.1,0-0.2,0-0.4C395.7,13.5,395.4,13.5,395.4,13.5 M395.4,13.8L395.4,13.8c0,0.2,0,0.4,0,0.4l-0.2,1.4c0,0.2,0,0.2,0.2,0.2
	c0.1,0,0.9,0,1,0c0.6,0,0.7,0,0.7,0.3c0,0.1,0,0.2-0.1,0.2c-0.1,0.1-0.7,0.1-0.9,0.1h-1c-0.2,0-0.2,0.1-0.3,0.4l-0.6,3.9
	c0,0.2-0.1,0.6-0.1,1.1c0,0.4,0.1,0.9,0.7,0.9c0.4,0,0.9-0.2,1.5-0.7c0.1-0.1,0.3-0.2,0.4-0.2c0.1,0,0.1,0.1,0.1,0.1
	c0,0.4-1.3,1.7-2.6,1.7c-1.1,0-1.1-1.2-1.1-1.6c0-0.4,0.1-0.7,0.1-0.9l0.7-4.6l-0.8-0.1c-0.1,0-0.3,0-0.3-0.1s0.2-0.2,0.3-0.2
	c0.6-0.3,1.2-0.6,2-1.9C395.1,14,395.3,13.8,395.4,13.8"/>
<path class="st0" d="M403.6,16.2c-2,0-3.7,3.1-3.7,5c0,0.4,0.1,1.4,1.3,1.4c1.3,0,2.5-1.4,2.8-2.7l0.6-2.9c0-0.2,0-0.4-0.1-0.5
	C404.3,16.3,404,16.2,403.6,16.2 M404.7,23.7c-0.6,0-0.8-0.9-0.9-2.1c-0.5,0.7-1.7,2.1-3.4,2.1c-1.4,0-1.9-1.2-1.9-2.3
	c0-2.9,3.1-5.9,5.2-5.9c0.3,0,0.6,0.1,1.1,0.2c0.1,0,0.2,0.1,0.3,0.1c0.1,0,0.3-0.2,0.5-0.6c0.2-0.3,0.3-0.5,0.4-0.5
	c0,0,0.2,0,0.2,0.3c0,0.1,0,0.2,0,0.3s0,0.1,0,0.1v0.2c-0.1,0.5-0.4,1.6-0.4,1.9l-0.5,2.6c0,0.2-0.1,1-0.1,1.4c0,0.5,0.2,1,0.4,1
	c0.2,0,0.5-0.3,0.7-0.6c0.6-0.7,0.7-0.8,0.8-0.8c0.2,0,0.2,0.2,0.2,0.3C407.3,21.7,405.8,23.7,404.7,23.7"/>
<path class="st0" d="M401.2,22.4c-1,0-1.1-0.8-1.1-1.2c0-1.8,1.7-4.9,3.6-4.9c0.3,0,0.6,0.1,0.7,0.2c0.1,0.1,0.1,0.2,0.1,0.4
	l-0.6,2.9C403.6,21,402.4,22.4,401.2,22.4 M406,14.5c-0.2,0-0.4,0.2-0.5,0.5l0,0l0,0c-0.2,0.4-0.4,0.5-0.4,0.5s-0.2,0-0.2-0.1
	c-0.5-0.2-0.8-0.2-1.2-0.2c-2.2,0-5.4,3.1-5.4,6.1c0,1.2,0.6,2.4,2,2.4c1.7,0,2.8-1.1,3.4-1.9c0.2,1.1,0.4,1.9,1,1.9
	c1.1,0,2.7-2.1,2.7-2.6c0-0.2-0.1-0.4-0.3-0.4c-0.2,0-0.3,0.1-0.9,0.8c-0.3,0.3-0.5,0.5-0.6,0.5s-0.3-0.3-0.3-0.9
	c0-0.4,0.1-1.2,0.1-1.3l0.5-2.6c0.1-0.2,0.3-1.4,0.4-1.9v-0.1l0,0l0,0v-0.1c0-0.1,0-0.2,0-0.3C406.4,14.7,406.2,14.5,406,14.5
	 M401.2,22.7c1.3,0,2.6-1.4,2.9-2.8l0.6-2.9c0.1-0.6-0.4-0.9-1-0.9c-2,0-3.8,3.2-3.8,5.1C399.8,21.9,400.2,22.7,401.2,22.7
	 M406,14.8c0.1,0,0.1,0.1,0.1,0.2c0,0.1-0.1,0.3-0.1,0.4c-0.1,0.4-0.4,1.7-0.5,2L405,20c0,0.1-0.1,1-0.1,1.4c0,0.5,0.2,1.1,0.5,1.1
	c0.3,0,0.7-0.4,0.8-0.6c0.6-0.6,0.6-0.7,0.7-0.7s0.1,0.1,0.1,0.1c0,0.4-1.5,2.3-2.4,2.3c-0.5,0-0.7-1.1-0.8-2.3
	c-0.4,0.6-1.5,2.3-3.5,2.3c-1.4,0-1.8-1.4-1.8-2.2c0-2.9,3.1-5.8,5.1-5.8c0.3,0,0.7,0.1,1.1,0.2c0.1,0,0.2,0.1,0.3,0.1
	c0.3,0,0.6-0.6,0.6-0.7C405.8,15.1,405.9,14.8,406,14.8"/>
<path class="st0" d="M415.5,23.7c-0.5,0-0.8-0.4-0.8-1c0-0.4,0.2-2.4,0.2-2.5l0.1-0.9c0-0.4,0.1-0.8,0.1-1.3c0-0.3-0.1-1.7-1.1-1.7
	c-0.8,0-1.8,1.1-2.2,3.4l-0.4,2.5c-0.2,1.3-0.3,1.4-0.8,1.4s-0.7-0.1-0.7-0.3c0-0.1,0-0.3,0.1-0.7l0.6-3.8c0-0.2,0.1-0.7,0.1-1
	c0-0.4-0.1-0.9-0.4-0.9c-0.3,0-0.5,0.5-0.6,0.7c-0.1,0.2-0.2,0.4-0.3,0.4c-0.2,0-0.3-0.2-0.3-0.4c0-0.5,0.8-2.1,1.8-2.1
	c0.7,0,0.9,1.1,0.9,1.9c1-1.2,2-1.9,3.2-1.9c0.6,0,1.1,0.3,1.3,1c0.2,0.4,0.2,1.2,0.2,2.3l-0.2,2c0,0.4-0.1,0.8-0.1,1.2
	c0,0.6,0.2,0.6,0.2,0.6c0.2,0,0.3,0,0.4-0.1c0.1-0.1,0.5-0.5,0.7-0.7c0.1-0.1,0.2-0.2,0.2-0.2l0.2-0.2l0.1,0.4
	C417.8,22.2,416.6,23.7,415.5,23.7"/>
<path class="st0" d="M410.7,15.3c-1,0-1.9,1.7-1.9,2.3c0,0.2,0.1,0.5,0.4,0.5c0.3,0,0.4-0.3,0.5-0.5c0.1-0.4,0.3-0.6,0.5-0.6
	c0.2,0,0.3,0.3,0.3,0.8c0,0.3,0,0.8-0.1,1l-0.6,3.8c-0.1,0.4-0.1,0.6-0.1,0.7c0,0.4,0.4,0.5,0.8,0.5c0.7,0,0.8-0.3,0.9-1.5l0.4-2.5
	c0.4-2.3,1.3-3.3,2.1-3.3c0.9,0,0.9,1.3,0.9,1.6c0,0.4,0,0.9-0.1,1.2l-0.1,0.9c0,0-0.2,2-0.2,2.5c0,0.7,0.3,1.2,0.9,1.2
	c1.1,0,2.4-1.5,2.4-2.1l0,0l0,0v-0.1l-0.1-0.4l-0.3,0.3c0,0-0.1,0.1-0.2,0.2c-0.2,0.2-0.6,0.6-0.7,0.7c-0.1,0.1-0.2,0.1-0.3,0.1
	c0,0-0.1-0.1-0.1-0.4c0-0.4,0-0.8,0.1-1.2l0.2-1.9V19c0-0.8,0-1.8-0.2-2.4c-0.3-0.7-0.8-1.1-1.4-1.1c-1.1,0-2.1,0.6-3.1,1.7
	C411.7,16.3,411.5,15.3,410.7,15.3 M410.7,15.6c0.7,0,0.7,1.4,0.7,2.1l0,0c0.8-1.1,1.9-2.1,3.3-2.1c0.7,0,1,0.4,1.2,0.9
	c0.3,0.7,0.2,2.2,0.2,2.3l-0.2,1.9c0,0.4-0.1,0.8-0.1,1.2s0.1,0.7,0.4,0.7c0.2,0,0.3-0.1,0.5-0.2c0.2-0.1,0.8-0.8,0.9-0.9v0.1
	c0,0.4-1.2,1.9-2.2,1.9c-0.6,0-0.7-0.7-0.7-0.9c0-0.4,0.1-2,0.2-2.5l0.1-0.9c0.1-0.4,0.1-0.8,0.1-1.3c0-0.8-0.3-1.9-1.2-1.9
	c-0.8,0-1.9,1-2.3,3.5l-0.4,2.5c-0.2,1.3-0.3,1.3-0.7,1.3c-0.6,0-0.6-0.1-0.6-0.2c0-0.1,0-0.3,0.1-0.7l0.6-3.8
	c0-0.2,0.1-0.8,0.1-1.1c0-0.2,0-1-0.5-1c-0.4,0-0.6,0.4-0.7,0.8c-0.1,0.2-0.1,0.3-0.2,0.3c-0.1,0-0.2-0.2-0.2-0.2
	C409.1,17.2,409.9,15.6,410.7,15.6"/>
<path class="st0" d="M422,13.7c-0.3,0-0.8-1-0.8-1.1c0-0.2,0.7-0.9,0.9-0.9c0.3,0,0.8,0.9,0.8,1s-0.1,0.2-0.1,0.3l-0.3,0.3
	C422.4,13.5,422.2,13.7,422,13.7 M420.7,23.7c-0.5,0-0.6-0.9-0.6-1.4c0-0.9,0.1-1.4,0.8-5.4v-0.2c0-0.1,0-0.1,0-0.2
	c0,0,0-0.1-0.1-0.2c-0.1-0.1-0.4-0.1-0.5-0.1c0,0-0.2,0-0.3,0c-0.1,0-0.2,0-0.3,0c-0.2,0-0.3-0.1-0.3-0.2c0-0.2,0.2-0.4,0.4-0.4
	c0.2,0,0.3,0,0.6,0h0.4l0.3-0.1c0.5-0.1,0.9-0.2,1-0.2c0.3,0,0.3,0.2,0.3,0.2c0,0.1-0.2,0.9-0.2,1l-0.7,3.9
	c-0.1,0.3-0.1,0.9-0.1,1.3c0,0.3,0.1,0.4,0.2,0.4c0.1,0,0.3-0.1,0.5-0.4l0.1-0.1c0.3-0.4,0.4-0.5,0.5-0.5s0.2,0.1,0.2,0.3
	C422.9,22.4,421.3,23.7,420.7,23.7"/>
<path class="st0" d="M422.1,15.3c-0.1,0-0.6,0.1-1.1,0.2c-0.1,0-0.3,0-0.3,0.1h-0.4c-0.3,0-0.4,0-0.6,0c-0.3,0-0.5,0.2-0.5,0.5
	c0,0.2,0.2,0.4,0.4,0.4c0,0,0.2,0,0.3,0s0.2,0,0.3,0c0.2,0,0.3,0,0.5,0.1l0,0c0,0.1,0,0.1,0,0.2V17c-0.7,4-0.8,4.5-0.8,5.4
	c0,0.1,0,1.5,0.8,1.5c0.7,0,2.4-1.3,2.4-2.3c0-0.3-0.2-0.4-0.3-0.4c-0.2,0-0.3,0.2-0.6,0.6l-0.1,0.1l0,0c-0.3,0.3-0.4,0.3-0.4,0.3
	s0-0.1,0-0.3c0-0.4,0.1-1,0.1-1.2l0.7-3.9c0,0,0.2-0.9,0.2-1C422.5,15.5,422.4,15.3,422.1,15.3 M422.1,11.5c-0.3,0-1,0.9-1,1.1
	c0,0.1,0.4,1.2,0.9,1.2c0.1,0,0.3,0,0.6-0.5l0.2-0.2l0,0l0,0c0.1-0.1,0.2-0.2,0.2-0.4C423,12.5,422.5,11.5,422.1,11.5 M422.1,15.6
	c0.1,0,0.2,0,0.2,0.1c0,0-0.2,0.8-0.2,1l-0.7,3.9c-0.1,0.3-0.1,0.9-0.1,1.3c0,0.2,0,0.6,0.3,0.6s0.6-0.4,0.7-0.4
	c0.1-0.1,0.4-0.6,0.5-0.6c0,0,0.1,0,0.1,0.1c0,0.8-1.5,2.1-2.1,2.1c-0.4,0-0.5-0.8-0.5-1.3c0-0.8,0.1-1.3,0.8-5.4c0-0.2,0-0.3,0-0.4
	c0-0.1,0-0.1-0.1-0.2c-0.2-0.1-0.4-0.1-0.6-0.1c-0.1,0-0.5,0.1-0.6,0.1s-0.1,0-0.1-0.1c0-0.2,0.1-0.2,0.3-0.2c0.3,0,0.4,0,1-0.1
	C421,15.8,421.9,15.6,422.1,15.6 M422.1,11.8c0.2,0,0.6,0.8,0.6,0.9c0,0.1-0.1,0.2-0.1,0.3l-0.2,0.2c-0.1,0.1-0.3,0.4-0.4,0.4
	c-0.2,0-0.6-0.9-0.6-1C421.4,12.5,422,11.8,422.1,11.8"/>
<path class="st0" d="M427.8,23.7c-1.8,0-2.8-1.2-2.8-3.1c0-2.4,2-5.2,4.4-5.2c1.3,0,2.3,0.8,2.3,1.4c0,0.4-0.3,0.7-0.7,0.7
	c-0.3,0-0.4-0.1-0.5-0.2c-0.1-0.1-0.4-0.6-0.5-0.7c-0.4-0.3-0.7-0.5-1.1-0.5c-1.2,0-2.6,1.6-2.6,3.7c0,1.7,0.8,2.6,2.3,2.6
	c0.7,0,1.2-0.2,1.7-0.7c0,0,0,0,0.1-0.1c0.3-0.3,0.4-0.4,0.5-0.4c0.2,0,0.3,0.1,0.3,0.3C431.1,22.1,429.6,23.7,427.8,23.7"/>
<path class="st0" d="M429.3,15.3c-2.5,0-4.5,2.9-4.5,5.4c0,2,1.1,3.2,3,3.2c1.9,0,3.5-1.7,3.5-2.2c0-0.2-0.2-0.4-0.4-0.4
	c-0.2,0-0.3,0.1-0.6,0.5l-0.1,0.1c-0.5,0.4-1,0.6-1.6,0.6c-1.4,0-2.2-0.9-2.2-2.4c0-2,1.3-3.6,2.4-3.6c0.3,0,0.7,0.2,1,0.5
	c0,0.1,0.4,0.5,0.4,0.6l0,0l0,0c0.1,0.1,0.3,0.3,0.6,0.3c0.5,0,0.9-0.4,0.9-0.9C431.8,16.2,430.7,15.3,429.3,15.3 M429.3,15.6
	c1.2,0,2.2,0.8,2.2,1.3c0,0.3-0.2,0.6-0.6,0.6c-0.2,0-0.3-0.1-0.4-0.2c-0.1-0.1-0.4-0.5-0.5-0.6c-0.6-0.5-1.1-0.5-1.2-0.5
	c-1.3,0-2.7,1.7-2.7,3.8c0,1.9,1.1,2.7,2.4,2.7c0.7,0,1.3-0.2,1.8-0.7c0.1-0.1,0.4-0.5,0.5-0.5c0.1,0,0.2,0.1,0.2,0.2
	c0,0.4-1.4,2-3.2,2c-1.8,0-2.7-1.2-2.7-2.9C425.1,18.3,427,15.6,429.3,15.6"/>
<path class="st0" d="M445.7,26.8c-0.7,0-1.6-0.4-1.6-1c0,0,0-0.1,0.2-0.4c0.1-0.1,0.1-0.2,0.1-0.3V25c0.2-0.4,0.2-0.5,0.4-0.5
	c0.4,0,0.4,0.4,0.4,0.5c0,0.8,0.5,1,0.7,1c0.4,0,0.6-0.7,0.7-1c0.1-0.2,0.3-1.5,0.3-1.8l0,0c-0.1,0-0.3,0.1-0.3,0.1
	c-0.8,0.3-1.6,0.5-3,0.5c-4,0-6.7-2.6-6.7-6.4c0-4,3.1-7.2,7-7.2c1.3,0,2.8,0.4,4.2,1.1c0.4,0.2,0.5,0.2,0.5,0.2s0,0,0.1-0.1
	c0.2-0.2,0.3-0.3,0.4-0.3c0.1,0,0.3,0,0.3,0.4c0,0.1,0,0.4,0,0.6c0,0.3,0,0.5,0,0.6s0,0.5,0.1,0.8c0,0.3,0.1,0.7,0.1,0.8
	c0,0.4-0.2,0.4-0.3,0.4c-0.3,0-0.4-0.3-0.4-0.6c-0.1-0.6-0.3-1-0.9-1.6c-1.1-1-2.6-1.6-4.3-1.6c-1.5,0-2.6,0.4-3.4,1.2
	c-1,1-1.5,2.5-1.5,4.6c0,4.2,2.6,6.1,5.2,6.1c1.4,0,2.7-0.6,3.1-1.1c0.3-0.5,0.5-2.9,0.5-3.8c0-0.4-0.7-0.6-1.1-0.6h-0.7
	c-0.2-0.1-0.3-0.3-0.3-0.4c0-0.1,0-0.3,0.4-0.3c0,0,0.1,0,0.3,0c0.6,0,2,0.1,2.3,0.1c0.1,0,0.4,0,0.8-0.1c0.3,0,0.6-0.1,0.7-0.1
	c0.2,0,0.2,0.1,0.2,0.3s-0.1,0.3-0.4,0.4c-0.6,0.2-0.7,0.3-0.9,3.1c-0.2,2-0.4,3.5-0.7,4.3C447.7,26,446.7,26.8,445.7,26.8"/>
<path class="st0" d="M443.8,10.1c-4,0-7.1,3.2-7.1,7.3c0,3.9,2.8,6.6,6.9,6.6c1.4,0,2.2-0.2,3-0.5l0,0c0,0,0.1,0,0.2-0.1
	c0,0.4-0.2,1.4-0.2,1.6c-0.1,0.4-0.3,0.9-0.5,0.9c-0.1,0-0.5-0.2-0.6-0.9c0-0.4-0.2-0.6-0.5-0.6c-0.3,0-0.4,0.2-0.6,0.6v0.1l0,0l0,0
	c0,0-0.1,0.1-0.1,0.2c-0.2,0.4-0.2,0.4-0.2,0.5c0,0.6,0.9,1.1,1.7,1.1c1.1,0,2.2-0.8,2.5-1.9c0.3-0.8,0.5-2.3,0.7-4.3
	c0.3-2.8,0.3-2.9,0.8-3h0.1c0.4-0.1,0.5-0.2,0.5-0.5s-0.2-0.5-0.4-0.5c-0.1,0-0.4,0-0.8,0.1c-0.3,0-0.6,0.1-0.8,0.1
	c-0.2,0-1.7-0.1-2.3-0.1c-0.2,0-0.3,0-0.3,0c-0.4,0-0.6,0.2-0.6,0.5c0,0.2,0.1,0.5,0.3,0.5l0,0l0,0h0.7c0.4,0,1,0.1,1,0.5
	c0,0.9-0.2,3.3-0.5,3.7c-0.3,0.5-1.6,1-3,1c-2.5,0-5.1-1.8-5.1-6c0-2,0.5-3.5,1.5-4.5c0.8-0.8,1.9-1.2,3.4-1.2
	c1.6,0,3.1,0.6,4.2,1.6c0.5,0.6,0.7,0.9,0.8,1.5c0,0.2,0.1,0.7,0.6,0.7c0.2,0,0.5-0.2,0.5-0.6c0-0.1,0-0.4-0.1-0.8
	c0-0.3-0.1-0.7-0.1-0.8s0-0.3,0-0.6s0-0.6,0-0.7c0-0.5-0.4-0.6-0.4-0.6c-0.2,0-0.4,0.1-0.5,0.3l0,0c-0.1,0-0.2-0.1-0.4-0.2
	C446.6,10.5,445,10.1,443.8,10.1 M443.8,10.3c0.4,0,2,0,4.2,1.1c0,0,0.5,0.3,0.6,0.3c0,0,0.1,0,0.2-0.1c0.1-0.2,0.2-0.2,0.3-0.2
	s0.2,0.1,0.2,0.3s-0.1,1.1-0.1,1.2c0,0.3,0.1,1.4,0.1,1.6c0,0.2,0,0.3-0.2,0.3s-0.2-0.1-0.3-0.5c-0.1-0.7-0.3-1-0.9-1.7
	c-1.7-1.6-3.8-1.6-4.4-1.6c-1.3,0-2.6,0.3-3.5,1.3c-1.2,1.2-1.5,3-1.5,4.7c0,4.6,3,6.2,5.4,6.2c1.4,0,2.8-0.5,3.2-1.1
	s0.5-3.1,0.5-3.9c0-0.5-0.7-0.7-1.2-0.7h-0.7c-0.1,0-0.1-0.2-0.1-0.3s0.1-0.2,0.3-0.2c0,0,2.2,0.1,2.6,0.1c0.2,0,1.3-0.1,1.5-0.1
	c0.1,0,0.1,0.1,0.1,0.2c0,0.2,0,0.2-0.4,0.3c-0.7,0.2-0.7,0.4-1,3.2c-0.1,0.8-0.3,3.1-0.7,4.3c-0.3,0.9-1.3,1.7-2.2,1.7
	c-0.7,0-1.4-0.4-1.4-0.8c0,0,0.2-0.6,0.3-0.7c0.2-0.5,0.2-0.5,0.4-0.5s0.2,0.1,0.2,0.4c0,0.8,0.6,1.1,0.8,1.1c0.5,0,0.7-0.6,0.8-1.1
	c0.1-0.3,0.3-1.5,0.3-1.8c0-0.1,0-0.1-0.1-0.1s-0.4,0.1-0.5,0.1c-0.8,0.3-1.6,0.5-2.9,0.5c-3.8,0-6.6-2.4-6.6-6.3
	C436.9,13.3,440,10.3,443.8,10.3"/>
<path class="st0" d="M457,16.2c-2,0-3.7,3.1-3.7,5c0,0.4,0.1,1.4,1.3,1.4c1.3,0,2.5-1.4,2.8-2.7L458,17c0-0.2,0-0.4-0.1-0.5
	C457.7,16.3,457.4,16.2,457,16.2 M458.1,23.7c-0.6,0-0.7-0.9-0.9-2.1c-0.5,0.7-1.7,2.1-3.4,2.1c-1.4,0-1.9-1.2-1.9-2.3
	c0-2.9,3.1-5.9,5.2-5.9c0.3,0,0.6,0.1,1.1,0.2c0.1,0,0.2,0.1,0.3,0.1s0.4-0.3,0.5-0.6c0.2-0.3,0.3-0.5,0.4-0.5c0,0,0.2,0,0.2,0.3
	c0,0.1,0,0.2,0,0.3s0,0.1,0,0.1l-0.1,0.5c-0.1,0.6-0.3,1.4-0.4,1.6l-0.5,2.6c0,0.1-0.1,0.9-0.1,1.4s0.2,1,0.4,1
	c0.2,0,0.5-0.3,0.7-0.6c0.6-0.7,0.7-0.8,0.8-0.8c0.1,0,0.2,0.2,0.2,0.3C460.7,21.7,459.2,23.7,458.1,23.7"/>
<path class="st0" d="M454.6,22.4c-1,0-1.1-0.8-1.1-1.2c0-1.8,1.7-4.9,3.6-4.9c0.3,0,0.6,0.1,0.7,0.2c0.1,0.1,0.1,0.2,0.1,0.4
	l-0.6,2.9C457,21,455.8,22.4,454.6,22.4 M459.4,14.5c-0.2,0-0.4,0.2-0.5,0.5s-0.3,0.5-0.4,0.5c0,0-0.2,0-0.2-0.1
	c-0.5-0.2-0.8-0.2-1.1-0.2c-2.2,0-5.4,3.1-5.4,6.1c0,1.1,0.5,2.4,2,2.4c1.6,0,2.8-1.1,3.4-1.9c0.2,1.1,0.4,1.9,1,1.9
	c1.1,0,2.7-2.1,2.7-2.6c0-0.2-0.1-0.4-0.4-0.4c-0.2,0-0.3,0.1-0.9,0.8c-0.2,0.3-0.5,0.5-0.6,0.5s-0.3-0.3-0.3-0.9
	c0-0.4,0.1-1.2,0.1-1.3l0.5-2.6c0-0.2,0.2-1,0.4-1.6l0.1-0.4l0,0l0,0v-0.1c0-0.1,0-0.2,0-0.3C459.8,14.7,459.6,14.5,459.4,14.5
	 M454.6,22.7c1.3,0,2.6-1.4,2.9-2.8l0.6-2.9c0.1-0.6-0.4-0.9-1-0.9c-2,0-3.8,3.2-3.8,5.1C453.2,21.9,453.6,22.7,454.6,22.7
	 M459.4,14.8c0.1,0,0.1,0.1,0.1,0.2c0,0.1-0.1,0.3-0.1,0.4c-0.1,0.4-0.4,1.7-0.5,2l-0.5,2.6c0,0.1-0.1,1-0.1,1.4
	c0,0.5,0.2,1.1,0.5,1.1s0.7-0.4,0.8-0.6c0.6-0.6,0.6-0.7,0.7-0.7c0.1,0,0.1,0.1,0.1,0.1c0,0.4-1.5,2.3-2.4,2.3
	c-0.5,0-0.7-1.1-0.8-2.3c-0.4,0.6-1.5,2.3-3.5,2.3c-1.4,0-1.8-1.4-1.8-2.2c0-2.9,3.1-5.8,5.1-5.8c0.3,0,0.6,0.1,1,0.2
	c0.1,0,0.2,0.1,0.3,0.1c0.3,0,0.6-0.6,0.6-0.7C459.2,15.1,459.3,14.8,459.4,14.8"/>
<path class="st0" d="M464.3,23.7c-0.5,0-0.8,0-0.8-0.3c0-0.1,0-0.3,0-0.5l0.5-3c0.1-0.4,0.1-1.2,0.1-1.8s-0.1-1.3-0.6-1.3
	c-0.2,0-0.4,0.1-0.8,1.3c0,0-0.1,0.4-0.3,0.4c-0.3,0-0.3-0.4-0.3-0.4c0-1.3,0.7-2.7,1.7-2.7c0.9,0,1.1,1.2,1.1,2
	c0.7-1.3,1.5-2,2.3-2c0.6,0,0.8,0.4,0.8,0.7c0,0-0.1,1.6-0.6,1.6c-0.2,0-0.3-0.2-0.3-0.4c-0.1-0.5-0.3-0.7-0.6-0.7
	c-0.8,0-1.2,2.1-1.4,3L465,23C464.9,23.6,464.8,23.7,464.3,23.7"/>
<path class="st0" d="M467.6,15.3c-0.6,0-1.4,0.3-2.2,1.7c-0.1-0.8-0.4-1.7-1.2-1.7c-1.1,0-1.9,1.5-1.9,2.8c0,0.2,0.1,0.6,0.4,0.6
	s0.4-0.3,0.4-0.5c0.3-1.2,0.5-1.2,0.6-1.2c0.4,0,0.4,0.7,0.4,1.1c0,0.5-0.1,1.4-0.1,1.7l-0.5,3c0,0-0.1,0.3-0.1,0.5
	c0,0.4,0.4,0.4,0.9,0.4c0.6,0,0.7-0.3,0.7-0.8l0.5-3.3v-0.1c0.1-0.8,0.5-2.9,1.2-2.9c0.3,0,0.4,0.1,0.5,0.5v0.1
	c0,0.1,0.1,0.4,0.4,0.4c0.7,0,0.7-1.7,0.7-1.7C468.5,15.8,468.4,15.3,467.6,15.3 M467.6,15.6c0.5,0,0.6,0.2,0.6,0.5
	c0,0.5-0.2,1.5-0.4,1.5c-0.1,0-0.2-0.2-0.2-0.3c-0.1-0.5-0.3-0.7-0.7-0.7c-1,0-1.3,2.2-1.5,3.2l-0.5,3.3c-0.1,0.5-0.1,0.6-0.5,0.6
	s-0.6,0-0.6-0.2c0-0.1,0-0.3,0-0.4l0.5-3c0.1-0.4,0.1-1.3,0.1-1.8c0-0.6-0.1-1.4-0.7-1.4c-0.3,0-0.6,0.3-0.9,1.4
	c0,0-0.1,0.3-0.2,0.3c-0.1,0-0.1-0.3-0.1-0.3c0-1.2,0.7-2.6,1.6-2.6c0.9,0,1,1.5,1,2.3l0,0C465.5,17.3,466.4,15.6,467.6,15.6"/>
<path class="st0" d="M474.1,16.1c-1.8,0-3.2,2.8-3.2,4.6c0,0.9,0.5,1.8,1.5,1.8c1.1,0,2.2-1.4,2.4-2.5l0.5-3.1c0-0.2,0-0.3-0.1-0.5
	C474.8,16.3,474.5,16.1,474.1,16.1 M475.6,23.7c-0.9,0-1-1.1-1-1.9c-0.5,0.8-1.5,1.9-2.9,1.9c-1.7,0-2.3-1.5-2.3-2.6
	c0-2.5,2.6-5.7,4.7-5.7c0.4,0,0.7,0.1,1.3,0.4c0.3-1.9,0.7-4.6,0.7-4.8c0-0.1,0-0.1,0-0.1c-0.1-0.1-0.6-0.1-0.9-0.1
	c-0.5,0-0.8,0-0.9-0.1s-0.1-0.1-0.1-0.2c0-0.2,0.1-0.3,0.3-0.3c0.2,0,2.5-0.3,2.6-0.3l0,0c0.2,0,0.3,0.1,0.3,0.3s-0.1,0.8-0.2,1.5
	l-1.3,8.9c0,0.2-0.1,0.7-0.1,0.9c0,0.6,0.2,0.9,0.5,0.9s0.7-0.4,0.9-0.7c0.3-0.4,0.3-0.5,0.5-0.5s0.3,0.1,0.3,0.3
	C478,22,476.7,23.7,475.6,23.7"/>
<path class="st0" d="M472.3,22.4c-0.9,0-1.4-0.9-1.4-1.7c0-1.7,1.4-4.5,3.1-4.5c0.4,0,0.7,0.1,0.9,0.3c0.1,0.1,0.1,0.2,0.1,0.4
	l-0.5,3.1C474.4,21.1,473.4,22.4,472.3,22.4 M477.1,9.7L477.1,9.7L477.1,9.7c-0.3,0-2.3,0.2-2.6,0.3c-0.3,0-0.5,0.2-0.5,0.4
	c0,0.1,0,0.2,0.1,0.3c0.2,0.1,0.4,0.2,1,0.2c0.2,0,0.6,0,0.8,0.1c0,0,0,0,0,0.1c0,0.2-0.3,2.5-0.7,4.6c-0.5-0.3-0.8-0.3-1.2-0.3
	c-2.2,0-4.8,3.2-4.8,5.8c0,1.1,0.7,2.7,2.5,2.7c1.3,0,2.2-0.8,2.8-1.6c0.1,0.8,0.3,1.6,1.1,1.6c1.2,0,2.5-1.7,2.5-2.4
	c0-0.2-0.2-0.4-0.4-0.4c-0.3,0-0.4,0.1-0.6,0.5l0,0l0,0c-0.2,0.3-0.6,0.7-0.8,0.7S476,22,476,21.5c0-0.2,0-0.7,0.1-0.8l1.3-8.8v-0.2
	c0.1-0.8,0.2-1.4,0.2-1.6C477.6,9.9,477.4,9.7,477.1,9.7 M472.3,22.7c1.2,0,2.3-1.5,2.5-2.6l0.5-3.1c0.1-0.6-0.6-1-1.2-1
	c-1.8,0-3.4,2.8-3.4,4.7C470.7,21.7,471.3,22.7,472.3,22.7 M477.1,10c0.1,0,0.2,0,0.2,0.1c0,0.2-0.2,1.4-0.2,1.7l-1.3,8.7
	c0,0.2-0.1,0.7-0.1,0.9c0,0.8,0.3,1,0.6,1c0.4,0,0.9-0.5,1-0.8c0.2-0.4,0.3-0.4,0.4-0.4c0.1,0,0.1,0.1,0.1,0.2
	c0,0.5-1.3,2.2-2.3,2.2c-0.9,0-0.9-1.4-0.9-2.1l0,0c-0.3,0.6-1.3,2.1-3,2.1c-1.6,0-2.2-1.4-2.2-2.4c0-2.4,2.5-5.5,4.6-5.5
	c0.4,0,0.7,0.1,1.4,0.5c0.3-1.8,0.7-4.7,0.7-5c0-0.1,0-0.2-0.1-0.2c-0.2-0.1-0.6-0.1-1-0.1c-0.2,0-0.7,0-0.8-0.1c0,0,0,0,0-0.1
	s0.1-0.2,0.2-0.2C474.7,10.2,477.1,10,477.1,10"/>
<path class="st0" d="M483.7,16.2c-1.2,0-2,1-2.6,3.1c0.9-0.1,1.9-0.2,2.6-0.7c0.3-0.2,0.9-0.7,0.9-1.4
	C484.7,16.8,484.5,16.2,483.7,16.2 M482.4,23.7c-0.9,0-1.4-0.2-1.9-0.7c-0.7-0.7-0.8-1.7-0.8-2.2c0-2.2,1.6-5.4,4.4-5.4
	c0.4,0,1.9,0.1,1.9,1.4c0,0.5-0.2,2.8-5,3v0.1c0,0.1,0,0.3,0,0.4c0,1.6,1.2,2.3,2.3,2.3c0.6,0,1.1-0.2,1.6-0.5c0,0,0.1,0,0.1-0.1
	c0.3-0.3,0.4-0.3,0.5-0.3c0.2,0,0.3,0.1,0.3,0.3C485.8,22.5,484.2,23.7,482.4,23.7"/>
<path class="st0" d="M481.3,19.1c0.5-1.9,1.3-2.8,2.4-2.8c0.7,0,0.8,0.5,0.8,0.8c0,0.6-0.5,1.1-0.8,1.3
	C483,18.9,482.2,19,481.3,19.1 M484.1,15.3c-2.9,0-4.6,3.3-4.6,5.5c0,0.5,0.1,1.5,0.9,2.3c0.5,0.5,1,0.7,2,0.7
	c1.9,0,3.6-1.2,3.6-1.9c0-0.2-0.2-0.4-0.4-0.4c-0.1,0-0.3,0.1-0.6,0.4l-0.1,0.1c-0.5,0.4-0.9,0.5-1.5,0.5c-1.1,0-2.2-0.7-2.2-2.1
	c0-0.1,0-0.3,0-0.4c4.7-0.3,5-2.7,5-3.2C486.1,15.9,485.4,15.3,484.1,15.3 M481,19.4c1-0.1,2.1-0.2,2.9-0.8c0.4-0.2,0.9-0.7,0.9-1.5
	c0-0.5-0.2-1.1-1.1-1.1C481.9,16,481.2,18.5,481,19.4 M484.1,15.6c0.6,0,1.8,0.1,1.8,1.3c0,0.4-0.2,2.7-5,2.9c0,0.1,0,0.4,0,0.6
	c0,1.7,1.3,2.4,2.5,2.4c0.6,0,1.1-0.1,1.7-0.6c0.1-0.1,0.4-0.4,0.5-0.4s0.1,0.1,0.1,0.1c0,0.5-1.4,1.6-3.3,1.6c-1,0-1.4-0.2-1.8-0.6
	c-0.7-0.7-0.8-1.7-0.8-2.1C479.8,18.8,481.3,15.6,484.1,15.6"/>
<path class="st0" d="M494.2,23.7c-0.5,0-0.8-0.4-0.8-1c0-0.4,0.1-2.1,0.2-2.5l0.1-0.9c0.1-0.5,0.1-0.9,0.1-1.3c0-0.8-0.3-1.7-1-1.7
	c-0.8,0-1.8,1.1-2.2,3.4l-0.4,2.5c-0.2,1.3-0.3,1.4-0.8,1.4s-0.7-0.1-0.7-0.3c0-0.1,0-0.3,0.1-0.7l0.6-3.8c0-0.2,0-0.8,0-1
	c0-0.4-0.1-0.9-0.4-0.9c-0.3,0-0.5,0.5-0.6,0.7s-0.2,0.4-0.3,0.4c-0.2,0-0.3-0.2-0.3-0.4c0-0.5,0.8-2.1,1.8-2.1
	c0.7,0,0.9,1.2,0.9,1.9c1-1.2,2-1.9,3.2-1.9c0.8,0,1.2,0.6,1.3,1c0.2,0.4,0.2,1.2,0.2,2.3l-0.2,2c0,0.4-0.1,0.8-0.1,1.2
	c0,0.6,0.2,0.6,0.2,0.6c0.2,0,0.3-0.1,0.4-0.1c0.1-0.1,0.4-0.4,0.6-0.6c0.1-0.1,0.2-0.2,0.3-0.3l0.2-0.2l0.1,0.4
	C496.5,22.2,495.3,23.7,494.2,23.7"/>
<path class="st0" d="M489.5,15.3c-1,0-1.9,1.7-1.9,2.3c0,0.2,0.1,0.5,0.4,0.5s0.4-0.3,0.5-0.5c0.1-0.3,0.3-0.6,0.5-0.6
	s0.3,0.3,0.3,0.8c0,0.3,0,0.8,0,1l-0.6,3.8c-0.1,0.4-0.1,0.6-0.1,0.7c0,0.4,0.4,0.5,0.8,0.5c0.7,0,0.7-0.3,0.9-1.5l0.4-2.5
	c0.4-2.3,1.3-3.3,2.1-3.3c0.9,0,0.9,1.4,0.9,1.6c0,0.4,0,0.8-0.1,1.2l-0.1,0.9c0,0.4-0.2,2.1-0.2,2.5c0,0.7,0.3,1.2,0.9,1.2
	c1.1,0,2.4-1.5,2.4-2.1l0,0l0,0v-0.1l-0.1-0.4l-0.3,0.3c0,0-0.2,0.2-0.3,0.3c-0.2,0.2-0.5,0.6-0.6,0.6c-0.1,0.1-0.2,0.1-0.3,0.1
	c0,0-0.1-0.1-0.1-0.4c0-0.4,0-0.8,0.1-1.2l0.2-1.9V19c0-0.8,0-1.8-0.2-2.4c-0.3-0.7-0.8-1.1-1.4-1.1c-1.1,0-2.1,0.6-3.1,1.6
	C490.4,16.3,490.2,15.3,489.5,15.3 M489.5,15.6c0.7,0,0.7,1.4,0.7,2.1l0,0c0.8-1.1,1.9-2.1,3.3-2.1c0.6,0,1,0.4,1.2,0.9
	c0.3,0.7,0.2,2.2,0.2,2.3l-0.2,1.9c0,0.4-0.1,0.8-0.1,1.2s0.1,0.7,0.4,0.7c0.2,0,0.3-0.1,0.5-0.2c0.2-0.1,0.8-0.8,0.9-0.9v0.1
	c0,0.4-1.1,1.9-2.2,1.9c-0.6,0-0.6-0.7-0.6-0.9c0-0.4,0.1-2,0.2-2.5l0.1-0.9c0.1-0.4,0.1-0.8,0.1-1.3c0-0.8-0.3-1.9-1.2-1.9
	c-0.8,0-1.9,1-2.3,3.5l-0.4,2.5c-0.2,1.3-0.3,1.3-0.7,1.3c-0.6,0-0.6-0.1-0.6-0.2c0-0.1,0-0.3,0.1-0.7l0.6-3.8c0-0.2,0-0.8,0-1.1
	c0-0.2,0-1-0.5-1c-0.4,0-0.6,0.4-0.7,0.8c-0.1,0.2-0.1,0.3-0.2,0.3s-0.2-0.2-0.2-0.2C487.9,17.2,488.7,15.6,489.5,15.6"/>
<path class="st0" d="M500.2,23.7c-1.4,0-2.4-0.6-2.4-1.6c0-0.5,0.3-0.6,0.6-0.6c0.4,0,0.5,0.2,1,1c0.1,0.2,0.3,0.5,1,0.5
	c1,0,1.3-0.6,1.3-1.1c0-0.7-0.4-1.2-1.1-2c-1-1-1.5-1.7-1.5-2.6c0-1.2,1-2,2.4-2c1.1,0,1.9,0.5,1.9,1.2c0,0.4-0.3,0.6-0.6,0.6
	s-0.5-0.2-0.8-0.6c-0.2-0.4-0.5-0.6-0.9-0.6c-0.5,0-0.8,0.4-0.8,0.8c0,0.6,0.4,1.1,0.7,1.4c1.4,1.5,2,2.2,2,3.3
	C502.9,23.2,501.4,23.7,500.2,23.7"/>
<path class="st0" d="M501.4,15.3c-1.5,0-2.5,0.9-2.5,2.1c0,0.9,0.5,1.6,1.5,2.6c0.8,0.9,1.1,1.3,1.1,1.9c0,0.6-0.4,0.9-1.1,0.9
	c-0.6,0-0.7-0.2-0.8-0.4c-0.5-0.9-0.6-1.1-1.1-1.1c-0.3,0-0.7,0.2-0.7,0.7c0,0.8,0.8,1.7,2.5,1.7c1.3,0,2.8-0.6,2.8-2.3
	c0-1.2-0.6-1.8-2-3.3c-0.3-0.3-0.7-0.8-0.7-1.3c0-0.3,0.3-0.6,0.7-0.6c0.4,0,0.6,0.2,0.8,0.6c0.2,0.3,0.4,0.6,0.9,0.6
	c0.4,0,0.7-0.3,0.7-0.8C503.4,15.9,502.6,15.3,501.4,15.3 M501.4,15.6c1,0,1.7,0.5,1.7,1.1c0,0.3-0.2,0.5-0.5,0.5
	c-0.3,0-0.4-0.2-0.6-0.5c-0.3-0.4-0.5-0.7-1-0.7c-0.6,0-1,0.4-1,0.9c0,0.6,0.5,1.2,0.8,1.5c1.4,1.5,1.9,2.1,1.9,3.2
	c0,1.6-1.5,2.1-2.6,2.1c-1.4,0-2.2-0.6-2.2-1.4c0-0.4,0.2-0.5,0.4-0.5c0.4,0,0.4,0.1,0.9,0.9c0.1,0.3,0.3,0.6,1.1,0.6
	c1.2,0,1.4-0.7,1.4-1.2c0-0.7-0.4-1.3-1.2-2.1c-1-1-1.4-1.7-1.4-2.5C499.2,16.2,500.2,15.6,501.4,15.6"/>
<path class="st0" d="M513,16c-1.6,0-2.7,2.2-2.7,4.3c0,1.3,0.5,2.6,1.7,2.6c1.8,0,2.5-2.8,2.5-4.6C514.5,16.9,513.9,16,513,16
	 M512,23.6c-1.1,0-1.8-0.3-2.4-0.8c-0.9-0.9-0.9-2.1-0.9-2.4c0-2.1,1.5-5.1,4.2-5.1c2.3,0,3.2,1.6,3.2,3.1
	C516.1,20.5,514.8,23.6,512,23.6"/>
<path class="st0" d="M512,22.8c-1.5,0-1.6-1.9-1.6-2.5c0-2,1-4.2,2.5-4.2c0.9,0,1.4,0.9,1.4,2.3C514.4,20.2,513.7,22.8,512,22.8
	 M512.9,15.2c-2.8,0-4.3,3-4.3,5.2c0,0.4,0.1,1.6,1,2.5c0.6,0.6,1.4,0.9,2.5,0.9c2.8,0,4.2-3.2,4.2-5.3
	C516.2,16.9,515.3,15.2,512.9,15.2 M512,23.1c1.9,0,2.7-2.9,2.7-4.7c0-1.6-0.7-2.5-1.7-2.5c-1.7,0-2.8,2.4-2.8,4.4
	C510.2,21.9,510.8,23.1,512,23.1 M512.9,15.5c2.2,0,3,1.5,3,2.9c0,2.1-1.3,5.1-3.9,5.1c-1.1,0-1.8-0.3-2.3-0.8
	c-0.8-0.8-0.9-1.9-0.9-2.3C508.9,18.4,510.3,15.5,512.9,15.5"/>
<path class="st0" d="M516.5,26.9c-0.5,0-0.6-0.3-0.6-0.5c0,0,0.3-1.6,0.7-1.6c0.1,0,0.2,0.1,0.2,0.4c0,0.4,0.1,0.6,0.4,0.6
	c0.3,0,0.6-0.3,0.9-2.7c0,0,0.5-4.9,0.6-5.2c0.1-0.5,0.1-1.3,0.1-1.5c0,0-0.1-0.1-0.8-0.1h-0.4c-0.1,0-0.2,0-0.2,0l0,0
	c-0.3,0-0.3-0.2-0.3-0.4c0-0.3,0.1-0.4,0.4-0.4h1c0.2,0,0.4,0,0.6-0.1c0.3-1.5,0.7-3.5,2.2-5c0.6-0.6,1.2-0.8,1.9-0.8
	c0.6,0,0.9,0.2,0.9,0.5c0,0-0.2,1.6-0.5,1.6c-0.2,0-0.3-0.3-0.3-0.4c-0.1-0.2-0.2-0.3-0.3-0.4c-0.1-0.1-0.3-0.3-0.5-0.3
	c-1.4,0-1.8,3-2.1,4.8c1.2,0,1.3,0,1.6,0c0.2,0,0.4,0.2,0.4,0.4c0,0.4-0.3,0.4-0.6,0.4h-0.6c-0.2,0-0.4,0-0.5,0c-0.2,0-0.3,0-0.3,0
	c-0.1,0.1-0.2,1.2-0.2,1.6l-0.4,3.4c-0.3,2.9-0.7,3.7-1.5,4.6C517.8,26.3,517.2,26.9,516.5,26.9"/>
<path class="st0" d="M523.1,9.6c-0.8,0-1.3,0.3-2,0.9c-1.5,1.5-1.9,3.5-2.2,4.9c-0.2,0-0.4,0-0.5,0h-1c-0.5,0-0.5,0.3-0.5,0.6
	c0,0.4,0.2,0.6,0.5,0.6c0,0,0.1,0,0.2,0c0.1,0,0.2,0,0.3,0h0.1c0.4,0,0.6,0,0.7,0c0,0.2-0.1,0.9-0.1,1.4c0,0.3-0.1,0.6-0.1,0.7
	l-0.5,4.5c-0.2,1.7-0.4,2.6-0.7,2.6c-0.2,0-0.2-0.3-0.2-0.5c0-0.4-0.2-0.5-0.4-0.5c-0.5,0-0.8,1.7-0.8,1.7c0,0.1,0.1,0.6,0.8,0.6
	s1.4-0.6,1.6-0.8l0,0c0.9-0.9,1.2-1.7,1.5-4.7L520,18c0-0.3,0.1-1.2,0.2-1.5c0,0,0.1,0,0.2,0c0.1,0,0.3,0,0.5,0h0.6
	c0.2,0,0.7,0,0.7-0.6c0-0.3-0.2-0.4-0.5-0.5c-0.2,0-0.4,0-1.4,0c0.3-1.7,0.7-4.6,1.9-4.6c0.2,0,0.3,0.1,0.5,0.2
	c0.1,0.1,0.2,0.2,0.3,0.4c0,0.2,0.2,0.4,0.5,0.4c0.5,0,0.6-1.7,0.6-1.7C524.1,9.8,523.7,9.6,523.1,9.6 M523.1,9.9
	c0.3,0,0.8,0.1,0.8,0.4c0,0-0.2,1.4-0.4,1.4c-0.1,0-0.2-0.2-0.2-0.3c-0.1-0.2-0.2-0.4-0.3-0.5c-0.1-0.1-0.3-0.3-0.6-0.3
	c-1.5,0-2,3.2-2.2,5.1c1.3,0,1.4,0,1.7,0c0.2,0,0.2,0.1,0.2,0.2c0,0.3-0.1,0.3-0.4,0.3h-0.6c-0.2,0-0.4,0-0.5,0c-0.2,0-0.3,0-0.4,0
	c-0.1,0.1-0.3,1.5-0.3,1.7l-0.4,3.4c-0.3,2.8-0.6,3.6-1.5,4.5c-0.1,0.1-0.8,0.8-1.4,0.8c-0.1,0-0.5,0-0.5-0.3c0-0.1,0.4-1.4,0.6-1.4
	c0.1,0,0.1,0.2,0.1,0.3c0,0.5,0.2,0.8,0.5,0.8c0.4,0,0.8-0.5,1-2.8l0.5-4.6c0-0.2,0.2-1.9,0.2-2.1c0-0.1,0-0.1-0.1-0.2
	c-0.1,0-0.7,0-0.9,0c-0.1,0-0.3,0-0.4,0c-0.1,0-0.1,0-0.2,0s-0.2-0.1-0.2-0.3c0-0.3,0-0.3,0.3-0.3h1c0.2,0,0.5,0,0.7-0.1
	c0.3-1.5,0.7-3.5,2.2-5C521.9,10.1,522.4,9.9,523.1,9.9"/>
<path class="st0" d="M374.5,42.6c-0.5,0-1-0.1-1.5-0.2s-0.9-0.3-1.2-0.5c-0.1-0.1-0.2-0.2-0.3-0.3c0-0.1-0.1-0.4-0.2-0.6
	c0,0-0.1-0.3-0.2-0.8c-0.2-0.5-0.2-0.9-0.2-1.1c0-0.4,0.2-0.4,0.3-0.4c0.2,0,0.4,0.3,0.4,0.5c0.2,0.7,0.6,1.3,1.3,1.7
	c0.6,0.5,1.3,0.7,2.1,0.7c0.8,0,1.4-0.2,1.9-0.7c0.5-0.4,0.8-1,0.8-1.6s-0.2-1.1-0.7-1.5c-0.2-0.1-0.7-0.4-2.2-0.9
	c-1.3-0.4-2.2-0.9-2.8-1.5c-0.6-0.5-0.8-1.3-0.8-2.1c0-1,0.4-1.8,1.1-2.4s1.6-0.9,2.8-0.9c0.6,0,1.2,0.1,1.6,0.3l0.6,0.2h0.1
	c0,0,0.1,0,0.1-0.1l0.1-0.1c0,0,0.1-0.1,0.2-0.1l0,0c0.1,0,0.3,0.1,0.3,0.6c0,0.1,0,0.4,0.1,0.8l0.1,0.9c0,0.2,0,0.3,0,0.4
	c0,0.4-0.2,0.4-0.3,0.4c-0.2,0-0.3-0.3-0.4-0.5c-0.2-0.6-0.6-1.1-1.2-1.5c-0.6-0.4-1.3-0.6-2-0.6c-0.6,0-1.1,0.2-1.5,0.5
	c-0.4,0.3-0.6,0.8-0.6,1.3s0.1,0.8,0.4,1.2c0.2,0.3,0.5,0.5,0.7,0.6c0.3,0.1,1,0.4,2,0.7c2.2,0.7,3.3,1.9,3.3,3.5
	c0,1.1-0.4,2-1.2,2.7C376.8,42.2,375.7,42.6,374.5,42.6"/>
<path class="st0" d="M375,30c-1.1,0-2.1,0.3-2.8,0.9c-0.7,0.6-1.1,1.5-1.1,2.5c0,0.9,0.3,1.7,0.9,2.2c0.6,0.6,1.5,1,2.8,1.5
	c1.6,0.5,2,0.8,2.1,0.9c0.4,0.4,0.7,0.9,0.7,1.4c0,0.6-0.2,1.1-0.7,1.5s-1.1,0.6-1.8,0.6c-0.7,0-1.4-0.2-2-0.7c-0.6-0.4-1-1-1.2-1.7
	c0-0.2-0.2-0.6-0.5-0.6l0,0c-0.2,0-0.4,0.1-0.4,0.5c0,0.2,0.1,0.6,0.2,1.2c0.1,0.5,0.2,0.7,0.2,0.8c0.1,0.3,0.1,0.5,0.2,0.6
	c0.1,0.1,0.2,0.2,0.3,0.3c0.3,0.2,0.7,0.3,1.2,0.5c0.5,0.1,1.1,0.2,1.5,0.2c1.3,0,2.3-0.4,3.2-1.1c0.8-0.7,1.3-1.7,1.3-2.8
	c0-1.7-1.1-2.9-3.4-3.7c-1.1-0.4-1.8-0.6-2-0.7c-0.2-0.1-0.5-0.3-0.7-0.6c-0.2-0.3-0.3-0.7-0.3-1.1c0-0.5,0.2-0.9,0.5-1.2
	c0.4-0.3,0.8-0.5,1.4-0.5c0.7,0,1.4,0.2,2,0.6c0.6,0.4,1,0.8,1.1,1.4c0.1,0.2,0.2,0.6,0.5,0.6c0.2,0,0.4-0.1,0.4-0.5
	c0-0.1,0-0.2,0-0.4l-0.1-0.9c-0.1-0.6-0.1-0.8-0.1-0.8c0-0.6-0.3-0.7-0.5-0.7c-0.1,0-0.2,0.1-0.3,0.1l-0.1,0.1l0,0l0,0l-0.6-0.3
	C376.2,30.1,375.7,30,375,30 M375,30.3c0.6,0,1.1,0.1,1.6,0.3l0.6,0.2c0.1,0,0.1,0,0.2,0s0.1,0,0.2-0.1l0.1-0.1h0.1l0,0
	c0.1,0,0.2,0.1,0.2,0.4c0,0.1,0,0.4,0.1,0.9l0.1,0.9c0,0.2,0,0.3,0,0.3c0,0.2-0.1,0.3-0.2,0.3c-0.1,0-0.2-0.1-0.3-0.4
	c-0.2-0.6-0.6-1.1-1.3-1.5c-0.6-0.4-1.3-0.6-2.1-0.6c-0.6,0-1.1,0.2-1.5,0.5c-0.4,0.4-0.6,0.8-0.6,1.4c0,0.5,0.1,0.9,0.4,1.2
	c0.2,0.3,0.5,0.5,0.8,0.7c0.3,0.1,1,0.4,2.1,0.7c2.1,0.7,3.2,1.8,3.2,3.4c0,1.1-0.4,1.9-1.2,2.6c-0.8,0.7-1.8,1-3,1
	c-0.4,0-0.9-0.1-1.5-0.2c-0.5-0.1-0.9-0.3-1.2-0.4c-0.1-0.1-0.2-0.1-0.2-0.2s-0.1-0.3-0.2-0.6c0,0-0.1-0.3-0.2-0.8
	c-0.2-0.5-0.2-0.9-0.2-1.1s0.1-0.2,0.2-0.2l0,0c0.1,0,0.2,0.1,0.3,0.4c0.2,0.7,0.6,1.3,1.3,1.8c0.7,0.5,1.4,0.7,2.2,0.7
	s1.5-0.2,2-0.7s0.8-1,0.8-1.7c0-0.6-0.3-1.2-0.8-1.6c-0.3-0.2-1-0.5-2.2-1c-1.3-0.4-2.2-0.9-2.7-1.4s-0.8-1.2-0.8-2
	c0-0.9,0.3-1.7,1-2.3C373,30.6,373.9,30.3,375,30.3"/>
<path class="st0" d="M386.2,31c-1.3,0-2.3,0.4-3.1,1.3c-0.8,0.9-1.1,2.1-1.1,3.5c0,1.7,0.5,3.1,1.5,4.3c1,1.2,2.2,1.7,3.6,1.7
	c1.3,0,2.4-0.5,3.2-1.4c0.8-0.9,1.3-2.2,1.3-3.6c0-1.7-0.5-3.1-1.5-4.2C389,31.5,387.7,31,386.2,31 M386.7,42.6
	c-1.9,0-3.4-0.6-4.6-1.7c-1.2-1.1-1.8-2.7-1.8-4.5c0-0.8,0.2-1.6,0.5-2.4c0.3-0.8,0.7-1.5,1.2-2c0.5-0.6,1.2-1,2.1-1.3
	c0.8-0.3,1.7-0.5,2.6-0.5c1.8,0,3.3,0.6,4.5,1.7c1.2,1.1,1.8,2.6,1.8,4.4c0,1.9-0.6,3.4-1.8,4.6C390.1,42,388.6,42.6,386.7,42.6"/>
<path class="st0" d="M387.1,41.7c-1.4,0-2.5-0.6-3.5-1.7s-1.4-2.6-1.4-4.2c0-1.4,0.4-2.6,1.1-3.4c0.7-0.8,1.7-1.3,3-1.3
	c1.5,0,2.7,0.5,3.7,1.6s1.5,2.5,1.5,4.1c0,1.4-0.4,2.6-1.2,3.5C389.3,41.3,388.3,41.7,387.1,41.7 M386.8,30c-0.9,0-1.8,0.2-2.6,0.5
	c-0.9,0.3-1.6,0.8-2.1,1.4c-0.5,0.5-1,1.2-1.3,2c-0.3,0.8-0.5,1.6-0.5,2.4c0,1.9,0.6,3.4,1.8,4.6c1.2,1.2,2.8,1.8,4.7,1.8
	c1.9,0,3.4-0.6,4.6-1.8c1.2-1.2,1.8-2.8,1.8-4.7c0-1.8-0.6-3.3-1.8-4.4C390.2,30.6,388.6,30,386.8,30 M387.1,42
	c1.3,0,2.4-0.5,3.3-1.5s1.3-2.2,1.3-3.7c0-1.7-0.5-3.1-1.6-4.3c-1-1.1-2.3-1.7-3.9-1.7c-1.3,0-2.4,0.4-3.2,1.3s-1.2,2.1-1.2,3.6
	c0,1.7,0.5,3.2,1.5,4.4C384.4,41.4,385.6,42,387.1,42 M386.8,30.3c1.8,0,3.3,0.6,4.4,1.7c1.1,1.1,1.7,2.5,1.7,4.3s-0.6,3.3-1.7,4.5
	c-1.2,1.2-2.6,1.8-4.4,1.8c-1.9,0-3.4-0.6-4.5-1.7c-1.1-1.1-1.7-2.6-1.7-4.4c0-0.8,0.2-1.6,0.5-2.4s0.7-1.4,1.2-1.9s1.2-1,2-1.3
	C385.1,30.4,385.9,30.3,386.8,30.3"/>
<path class="st0" d="M400.6,42.6c-1,0-1.9-0.2-2.7-0.6c-0.8-0.4-1.4-0.9-1.8-1.6c-0.4-0.8-0.6-1.8-0.6-3V33v-0.5
	c0-0.6-0.1-1-0.2-1.2c-0.1-0.2-0.5-0.3-0.9-0.4c-0.3,0-0.3-0.2-0.3-0.3c0-0.1,0-0.3,0.5-0.3c0.1,0,0.3,0,0.6,0c0.3,0,0.5,0,0.6,0
	h0.7h0.7c0.1,0,0.2,0,0.5,0c0.2,0,0.4,0,0.4,0c0.2,0,0.3,0.1,0.3,0.3c0,0.1-0.1,0.3-0.4,0.3c-0.3,0.1-0.5,0.2-0.6,0.4
	c-0.1,0.2-0.2,0.6-0.2,1.1V33v4.3c0,1.4,0.2,2.5,0.7,3.1c0.6,0.9,1.7,1.3,3.2,1.3c1.3,0,2.3-0.4,3-1.1c0.7-0.7,1-1.8,1-3.3v-4.5
	c0-0.7-0.1-1.2-0.3-1.5s-0.5-0.5-1-0.5c-0.3,0-0.4-0.2-0.4-0.3c0-0.2,0.1-0.3,0.3-0.3c0.2,0,0.3,0,0.6,0.1c0.2,0,0.5,0,0.8,0
	c0.6,0,1,0,1.2,0s0.3,0,0.4,0c0.2,0,0.3,0.1,0.3,0.3c0,0.1,0,0.2-0.3,0.3c-0.3,0.1-0.5,0.3-0.6,0.5c-0.1,0.2-0.1,0.5-0.1,1.4v4.3
	c0,1.6-0.3,2.8-1,3.7c-0.4,0.6-1,1-1.8,1.3C402.3,42.4,401.5,42.6,400.6,42.6"/>
<path class="st0" d="M403.6,30.1c-0.2,0-0.4,0.2-0.4,0.4c0,0.1,0,0.4,0.5,0.4c0.4,0,0.7,0.2,0.9,0.4c0.2,0.3,0.3,0.8,0.3,1.4v4.5
	c0,1.4-0.3,2.5-1,3.2c-0.6,0.7-1.6,1-2.9,1c-1.4,0-2.5-0.4-3.1-1.2c-0.4-0.6-0.6-1.6-0.6-3V33v-0.6c0-0.6,0.1-0.9,0.1-1
	c0.1-0.1,0.2-0.2,0.5-0.3c0.4-0.1,0.5-0.4,0.5-0.5c0-0.2-0.1-0.4-0.5-0.4c-0.1,0-0.2,0-0.5,0c-0.2,0-0.4,0-0.5,0h-0.7h-0.7
	c-0.1,0-0.3,0-0.6,0c-0.3,0-0.5,0-0.6,0c-0.6,0-0.6,0.4-0.6,0.5s0,0.4,0.5,0.4c0.4,0.1,0.7,0.2,0.8,0.4c0.1,0.1,0.2,0.4,0.2,1.1v0.5
	v4.4c0,1.2,0.2,2.3,0.6,3s1,1.2,1.8,1.7c0.8,0.4,1.7,0.6,2.7,0.6c0.9,0,1.7-0.2,2.5-0.5c0.8-0.3,1.4-0.8,1.8-1.4
	c0.7-0.9,1-2.2,1-3.8v-4.3c0-0.8,0.1-1.2,0.1-1.4c0.1-0.2,0.3-0.3,0.5-0.5c0.3-0.1,0.3-0.3,0.3-0.4c0-0.2-0.2-0.4-0.4-0.4
	c-0.1,0-0.2,0-0.4,0c-0.1,0-0.4,0-1.2,0c-0.3,0-0.5,0-0.7,0C403.9,30.1,403.7,30.1,403.6,30.1L403.6,30.1L403.6,30.1z M403.6,30.4
	L403.6,30.4c0.1,0,0.3,0,0.6,0.1c0.2,0,0.5,0.1,0.8,0.1c0.6,0,1,0,1.2,0c0.2,0,0.3,0,0.4,0s0.2,0.1,0.2,0.1c0,0.1-0.1,0.2-0.2,0.2
	c-0.3,0.1-0.6,0.3-0.7,0.6c-0.1,0.3-0.2,0.7-0.2,1.5v4.3c0,1.6-0.3,2.8-0.9,3.6c-0.4,0.5-1,1-1.7,1.3s-1.5,0.5-2.4,0.5
	c-1,0-1.9-0.2-2.6-0.6c-0.8-0.4-1.3-0.9-1.7-1.5c-0.4-0.7-0.6-1.7-0.6-2.9v-4.4v-0.5c0-0.6-0.1-1-0.3-1.3c-0.2-0.2-0.5-0.4-1-0.5
	c-0.2,0-0.2-0.1-0.2-0.2s0.1-0.2,0.3-0.2c0.1,0,0.3,0,0.6,0s0.5,0,0.6,0h0.7h0.7c0.1,0,0.2,0,0.5,0c0.2,0,0.4,0,0.4,0
	c0.1,0,0.2,0,0.2,0.1s-0.1,0.2-0.3,0.2c-0.3,0.1-0.6,0.2-0.7,0.4c-0.1,0.2-0.2,0.6-0.2,1.2v0.6v4.3c0,1.5,0.2,2.5,0.7,3.2
	c0.6,0.9,1.7,1.3,3.3,1.3c1.4,0,2.4-0.4,3.1-1.1c0.7-0.7,1-1.9,1-3.4v-4.5c0-0.7-0.1-1.2-0.3-1.6c-0.2-0.3-0.6-0.5-1-0.6
	c-0.2,0-0.2-0.1-0.2-0.2C403.4,30.4,403.5,30.4,403.6,30.4"/>
<path class="st0" d="M415.1,42.5c-0.1,0-0.2,0-0.4-0.1c-0.1,0-0.5,0-0.8,0h-0.6h-0.7c-0.2,0-0.4,0-0.6,0c-0.3,0-0.5,0.1-0.6,0.1
	c-0.4,0-0.4-0.2-0.4-0.3c0-0.1,0.1-0.3,0.4-0.3c0.4-0.1,0.7-0.2,0.8-0.3c0.1-0.1,0.2-0.4,0.2-0.9v-8.5V32c0-0.3,0-0.3,0-0.3
	s-0.1-0.1-0.3-0.1h-2.3c-0.4,0-0.7,0.1-0.9,0.2c-0.2,0.2-0.3,0.5-0.4,1c-0.1,0.3-0.2,0.4-0.4,0.4c-0.1,0-0.3,0-0.3-0.4
	c0-0.1,0-0.4,0.1-0.7c0.1-0.4,0.1-0.7,0.1-1s0-0.5,0.1-0.6c0.1-0.1,0.2-0.2,0.5-0.2h9.3c0.5,0,0.6,0.1,0.7,0.1
	c0.1,0.1,0.1,0.2,0.1,0.7c0,0.4,0,0.6,0,0.7c0,0.2,0,0.3,0.1,0.4c0,0.3-0.2,0.4-0.3,0.4l0,0c-0.1,0-0.3-0.1-0.3-0.4
	c-0.1-0.5-0.2-0.6-0.3-0.7s-0.3-0.2-0.9-0.2h-2.4c-0.3,0-0.4,0.1-0.4,0.1s-0.1,0.1-0.1,0.4v8.4v0.3c0,0.6,0.4,1,1,1.1
	c0.3,0,0.4,0.2,0.4,0.3C415.5,42.3,415.5,42.5,415.1,42.5"/>
<path class="st0" d="M417.9,30.2h-9.3c-0.3,0-0.5,0.1-0.6,0.2c-0.1,0.1-0.1,0.3-0.1,0.7c0,0.2,0,0.6-0.1,1c-0.1,0.3-0.1,0.6-0.1,0.7
	c0,0.3,0.2,0.5,0.4,0.5l0,0c0.2,0,0.4-0.1,0.5-0.5c0.1-0.6,0.3-0.8,0.4-0.9c0.2-0.1,0.4-0.2,0.8-0.2h2.3c0.1,0,0.2,0,0.2,0
	s0,0.1,0,0.2v0.2v8.5c0,0.5-0.1,0.8-0.2,0.8c-0.1,0.1-0.3,0.2-0.7,0.3c-0.5,0.1-0.5,0.3-0.5,0.4c0,0.2,0.1,0.4,0.5,0.4
	c0.1,0,0.2,0,0.6-0.1c0.1,0,0.3,0,0.6,0h0.7h0.6c0.2,0,0.6,0,0.7,0c0.3,0,0.4,0.1,0.5,0.1c0.4,0,0.5-0.2,0.5-0.4
	c0-0.1-0.1-0.4-0.5-0.4c-0.6-0.1-0.9-0.4-0.9-1v-0.3V32c0-0.2,0-0.3,0-0.3l0,0c0,0,0.1,0,0.3,0h2.4c0.6,0,0.8,0.1,0.8,0.1
	c0.1,0,0.2,0.2,0.3,0.6c0.1,0.4,0.3,0.5,0.5,0.5c0.2,0,0.5-0.2,0.4-0.5c0-0.1,0-0.2-0.1-0.4c0-0.1,0-0.3,0-0.7c0-0.4,0-0.7-0.2-0.8
	C418.5,30.3,418.3,30.2,417.9,30.2 M417.9,30.5c0.3,0,0.5,0,0.6,0.1s0.1,0.3,0.1,0.6c0,0.3,0,0.6,0,0.7c0,0.2,0,0.3,0.1,0.4
	c0,0.2-0.1,0.3-0.2,0.3l0,0c-0.1,0-0.2-0.1-0.2-0.3c-0.1-0.4-0.2-0.7-0.4-0.8c-0.2-0.1-0.5-0.2-1-0.2h-2.4c-0.3,0-0.4,0-0.5,0.1
	s-0.1,0.2-0.1,0.5v8.4v0.3c0,0.7,0.4,1.1,1.1,1.2c0.2,0,0.3,0.1,0.3,0.2s-0.1,0.2-0.2,0.2c-0.1,0-0.2,0-0.4-0.1c-0.1,0-0.4,0-0.8,0
	h-0.6h-0.7c-0.2,0-0.4,0-0.6,0c-0.3,0-0.5,0.1-0.6,0.1c-0.2,0-0.3-0.1-0.3-0.2s0.1-0.1,0.3-0.2c0.4-0.1,0.7-0.2,0.9-0.4
	c0.2-0.2,0.2-0.5,0.2-1v-8.5v-0.2c0-0.2,0-0.3-0.1-0.4c-0.1-0.1-0.2-0.1-0.4-0.1h-2.3c-0.5,0-0.8,0.1-1,0.3
	c-0.2,0.2-0.4,0.5-0.5,1.1c-0.1,0.2-0.1,0.3-0.2,0.3l0,0c-0.1,0-0.2-0.1-0.2-0.2s0-0.3,0.1-0.7c0.1-0.4,0.1-0.8,0.1-1
	c0-0.3,0-0.4,0.1-0.5s0.2-0.1,0.4-0.1L417.9,30.5L417.9,30.5z"/>
<path class="st0" d="M428.6,42.5c-0.1,0-0.2,0-0.2-0.1c0,0-0.1-0.1-0.1-0.2s0.1-0.3,0.4-0.3c0.5-0.1,0.8-0.5,0.8-1.3v-0.3V37
	c0-0.3,0-0.4,0-0.4s-0.1,0-0.4,0H424c-0.4,0-0.5,0.1-0.5,0.1s-0.1,0.1-0.1,0.4v3.2c0,0.6,0.1,1,0.3,1.2c0.2,0.2,0.5,0.3,1,0.4
	c0.4,0,0.4,0.2,0.4,0.3c0,0.1,0,0.2-0.1,0.2c-0.1,0.1-0.2,0.1-0.3,0.1s-0.2,0-0.4,0s-0.5,0-1,0h-0.7H422c-0.1,0-0.3,0-0.5,0
	c-0.3,0-0.5,0-0.6,0c-0.3,0-0.3-0.2-0.3-0.3c0-0.1,0-0.3,0.3-0.3l0.4-0.1c0.2,0,0.3-0.2,0.4-0.5c0.1-0.3,0.1-0.9,0.1-1.7v-7.4
	c0-0.5-0.1-0.8-0.3-1s-0.5-0.3-0.9-0.4c-0.3,0-0.4-0.2-0.4-0.3c0-0.1,0.1-0.3,0.3-0.3c0.1,0,0.3,0,0.6,0.1c0.4,0.1,1,0.1,1.6,0.1
	c0.4,0,0.8,0,1.1-0.1c0.2,0,0.3,0,0.4,0c0.4,0,0.4,0.2,0.4,0.3c0,0.1-0.1,0.2-0.3,0.3c-0.4,0.1-0.6,0.2-0.7,0.4
	c-0.1,0.2-0.2,0.4-0.2,0.8v3.1c0,0.4,0.1,0.5,0.1,0.5s0.1,0.1,0.5,0.1h5.1c0.3,0,0.4,0,0.4,0s0-0.1,0-0.2v-2.9c0-0.6-0.1-1-0.2-1.2
	c-0.1-0.2-0.4-0.4-0.8-0.5c-0.3-0.1-0.4-0.2-0.3-0.3c0-0.1,0-0.3,0.3-0.3c0.1,0,0.3,0,0.6,0c0.4,0,0.8,0.1,1.2,0.1
	c0.6,0,1,0,1.3-0.1c0.2,0,0.3,0,0.3,0c0.2,0,0.3,0.2,0.3,0.3c0,0.1,0,0.2-0.3,0.3l-0.3,0.1c-0.1,0-0.3,0.1-0.4,0.3
	c-0.1,0.2-0.2,0.4-0.2,0.7v8.3c0,0.7,0.1,1.1,0.2,1.2c0.1,0.2,0.4,0.3,0.9,0.4c0.3,0,0.4,0.2,0.4,0.3c0,0.1,0,0.2-0.1,0.2
	c-0.1,0.1-0.2,0.1-0.3,0.1c-0.1,0-0.3,0-0.5,0c-0.1,0-0.4,0-0.8,0h-0.6h-0.6c-0.1,0-0.2,0-0.4,0C428.9,42.5,428.7,42.5,428.6,42.5
	L428.6,42.5L428.6,42.5z"/>
<path class="st0" d="M420.6,30.1c-0.3,0-0.5,0.2-0.5,0.4c0,0.1,0,0.4,0.5,0.4c0.4,0.1,0.7,0.2,0.8,0.4c0.1,0.2,0.2,0.5,0.2,0.9v7.4
	c0,1-0.1,1.4-0.1,1.6c-0.1,0.3-0.2,0.4-0.3,0.4l-0.4,0.1c-0.4,0.1-0.4,0.3-0.4,0.5s0.1,0.4,0.5,0.4c0.1,0,0.3,0,0.6,0
	c0.2,0,0.4,0,0.5,0h0.6h0.7c0.7,0,0.9,0,1,0c0.2,0,0.4,0,0.5,0c0.2,0,0.3,0,0.4-0.1c0.1-0.1,0.1-0.2,0.1-0.3c0-0.1-0.1-0.4-0.6-0.5
	c-0.4,0-0.7-0.2-0.9-0.4c-0.1-0.1-0.2-0.4-0.2-1.1V37c0-0.2,0-0.3,0-0.3l0,0c0,0,0.1,0,0.4,0h5.1c0.2,0,0.3,0,0.3,0s0,0.1,0,0.3v3.2
	v0.3c0,1-0.4,1.2-0.7,1.2c-0.4,0.1-0.5,0.3-0.5,0.4c0,0.2,0.1,0.3,0.1,0.3c0.1,0.1,0.2,0.1,0.3,0.1s0.3,0,0.6,0c0.2,0,0.3,0,0.4,0
	h0.7h0.6c0.4,0,0.7,0,0.8,0c0.2,0,0.4,0,0.5,0c0.2,0,0.3,0,0.4-0.1c0.1-0.1,0.1-0.2,0.1-0.3c0-0.1-0.1-0.3-0.5-0.4
	c-0.4,0-0.7-0.2-0.8-0.3c-0.1-0.1-0.2-0.4-0.2-1.1V32c0-0.2,0-0.5,0.1-0.6c0.1-0.2,0.2-0.2,0.3-0.3L432,31c0.4-0.1,0.4-0.3,0.4-0.4
	c0-0.2-0.1-0.4-0.5-0.4c-0.1,0-0.2,0-0.4,0s-0.7,0-1.3,0c-0.4,0-0.8,0-1.2-0.1c-0.3,0-0.5,0-0.6,0c-0.3,0-0.5,0.2-0.5,0.4
	c0,0.1,0,0.4,0.5,0.5c0.3,0.1,0.6,0.2,0.7,0.4c0.1,0.1,0.2,0.5,0.2,1.1v2.9v0.1c0,0-0.1,0-0.3,0h-5c-0.3,0-0.4,0-0.4,0s0-0.2,0-0.4
	V32c0-0.5,0.1-0.7,0.1-0.8c0.1-0.1,0.2-0.2,0.6-0.3c0.4-0.1,0.4-0.3,0.4-0.4c0-0.2-0.1-0.4-0.5-0.4c-0.1,0-0.2,0-0.4,0
	c-0.3,0-0.7,0.1-1.1,0.1c-0.6,0-1.1,0-1.5-0.1C420.9,30.1,420.7,30.1,420.6,30.1L420.6,30.1L420.6,30.1z M420.6,30.3L420.6,30.3
	c0.1,0,0.3,0,0.5,0.1c0.4,0.1,1,0.1,1.6,0.1c0.4,0,0.8,0,1.1-0.1c0.2,0,0.3,0,0.4,0c0.2,0,0.2,0.1,0.2,0.2s-0.1,0.2-0.2,0.2
	c-0.4,0.1-0.6,0.2-0.8,0.4c-0.1,0.2-0.2,0.5-0.2,0.9v3.1c0,0.3,0,0.5,0.1,0.6s0.3,0.1,0.6,0.1h5.1c0.3,0,0.4,0,0.5-0.1
	c0.1,0,0.1-0.1,0.1-0.3v-2.9c0-0.6-0.1-1-0.2-1.3c-0.1-0.2-0.4-0.4-0.8-0.5c-0.2,0-0.3-0.1-0.2-0.2c0-0.1,0.1-0.1,0.2-0.1
	c0.1,0,0.3,0,0.6,0c0.4,0,0.8,0.1,1.2,0.1c0.6,0,1,0,1.3-0.1c0.2,0,0.3,0,0.3,0c0.1,0,0.2,0.1,0.2,0.2s-0.1,0.1-0.2,0.2l-0.3,0.1
	c-0.2,0-0.3,0.2-0.4,0.4c-0.1,0.2-0.2,0.5-0.2,0.8v8.3c0,0.6,0.1,1,0.3,1.3c0.2,0.2,0.5,0.4,1,0.4c0.2,0,0.3,0.1,0.3,0.2
	s-0.1,0.2-0.2,0.2c-0.1,0-0.3,0-0.4,0s-0.4,0-0.9,0h-0.6H430c-0.1,0-0.2,0-0.4,0c-0.4,0-0.6,0-0.6,0l0,0c-0.1,0-0.2-0.1-0.2-0.2
	s0.1-0.2,0.3-0.2c0.6-0.1,0.9-0.6,0.9-1.5v-0.3V37c0-0.3,0-0.4-0.1-0.5c0,0-0.2-0.1-0.5-0.1H424c-0.3,0-0.5,0-0.6,0.1
	s-0.1,0.2-0.1,0.5v3.2c0,0.6,0.1,1,0.3,1.3c0.2,0.2,0.5,0.4,1.1,0.4c0.2,0,0.3,0.1,0.3,0.2s-0.1,0.2-0.2,0.2c-0.1,0-0.2,0-0.4,0
	c-0.2,0-0.5,0-1,0h-0.7h-0.6c-0.1,0-0.3,0-0.5,0c-0.3,0-0.5,0-0.5,0c-0.1,0-0.2-0.1-0.2-0.2s0.1-0.2,0.2-0.2l0.4-0.1
	c0.3-0.1,0.4-0.2,0.5-0.6c0.1-0.3,0.1-0.9,0.1-1.7v-7.4c0-0.5-0.1-0.9-0.3-1.1c-0.2-0.2-0.5-0.4-1-0.4c-0.2,0-0.2-0.1-0.2-0.2
	C420.4,30.4,420.4,30.3,420.6,30.3"/>
<path class="st0" d="M443.5,36.4c-0.1,0.2-0.1,0.3-0.1,0.3c0,0.1,0.1,0.1,0.3,0.1h0.2h2.6c0.1,0,0.3,0,0.3-0.1c0,0,0-0.1,0-0.2v-0.2
	l-1.4-3.6c0-0.1-0.1-0.2-0.1-0.2C445.2,32.7,443.5,36.4,443.5,36.4 M442.2,42.5h-0.8c-0.3,0-0.6,0-0.9,0c-0.2,0-0.3,0-0.4,0
	c-0.3,0-0.5,0-0.5,0c-0.3,0-0.4-0.2-0.4-0.3c0-0.2,0.1-0.3,0.2-0.3l0.3-0.1c0,0,0.2-0.1,0.4-0.4c0.2-0.2,0.3-0.5,0.5-0.7l0.2-0.6
	l4.4-9.8c0-0.1,0.1-0.3,0.4-0.3c0.2,0,0.3,0.1,0.4,0.3l3.9,9.9c0.3,0.7,0.5,1.1,0.6,1.3c0.1,0.1,0.4,0.3,1,0.4
	c0.3,0.1,0.4,0.3,0.4,0.3c0,0.1,0,0.3-0.4,0.3c0,0-0.1,0-0.3,0c-0.3,0-0.8,0-1.6,0s-1.3,0-1.5,0c-0.1,0-0.2,0-0.3,0
	c-0.3,0-0.4-0.2-0.4-0.3c0-0.1,0-0.3,0.3-0.3l0.3-0.1c0.2,0,0.3-0.1,0.3-0.5c0-0.3-0.2-0.9-0.5-1.8l-0.4-1.1
	c-0.2-0.4-0.2-0.5-0.2-0.5l0,0c0,0-0.1,0-0.5,0h-3.1c-0.5,0-0.7,0.1-0.7,0.1s-0.1,0.1-0.4,0.6l-0.6,1.3c-0.2,0.6-0.4,1-0.4,1.2
	s0.1,0.4,0.2,0.5c0.1,0.1,0.3,0.2,0.7,0.3c0.3,0.1,0.4,0.2,0.4,0.3c0,0.1,0,0.1-0.1,0.2s-0.2,0.1-0.3,0.1H442.2z"/>
<path class="st0" d="M443.6,36.7c0,0,0-0.1,0.1-0.2l1.6-3.5v0.1l1.4,3.4v0.1v0.1c0,0-0.1,0-0.2,0h-2.6h-0.2
	C443.6,36.7,443.6,36.7,443.6,36.7 M445.7,29.8c-0.2,0-0.4,0.1-0.5,0.4l-4.4,9.8l-0.2,0.6c-0.1,0.2-0.3,0.5-0.4,0.7
	c-0.2,0.3-0.3,0.3-0.3,0.3l-0.3,0.1c-0.2,0.1-0.3,0.2-0.3,0.4c0,0.2,0.1,0.4,0.5,0.4c0,0,0.2,0,0.5,0c0.1,0,0.2,0,0.4,0
	c0.4,0,0.7,0,0.9,0h0.8h0.1c0.1,0,0.1,0,0.2,0c0.2,0,0.3,0,0.4-0.1c0.1-0.1,0.1-0.2,0.1-0.3c0-0.1-0.1-0.4-0.5-0.4
	c-0.5-0.1-0.6-0.2-0.7-0.2c-0.1-0.1-0.1-0.3-0.1-0.4c0-0.2,0.1-0.5,0.4-1.2l0.6-1.3c0.2-0.5,0.3-0.6,0.3-0.6s0.1-0.1,0.6-0.1h3.1
	c0.3,0,0.4,0,0.4,0s0.1,0.2,0.2,0.4l0.4,1.1c0.4,1.1,0.5,1.5,0.5,1.7c0,0.3-0.1,0.3-0.2,0.3l-0.3,0.1c-0.4,0.1-0.4,0.3-0.4,0.4
	c0,0.2,0.1,0.4,0.5,0.4c0.1,0,0.2,0,0.3,0c0.1,0,0.5,0,1.4,0c0.8,0,1.3,0,1.6,0l0,0l0,0c0.2,0,0.3,0,0.3,0c0.5,0,0.5-0.3,0.5-0.4
	s0-0.4-0.5-0.5c-0.6-0.1-0.9-0.3-1-0.3c-0.1-0.1-0.3-0.3-0.6-1.2l-0.2-0.5l-3.7-9.5C446,29.9,445.8,29.8,445.7,29.8 M443.9,36.9h2.6
	c0.3,0,0.4-0.1,0.4-0.2c0,0,0-0.1,0-0.2v-0.2l-1.4-3.4l-0.1-0.2c-0.1-0.2-0.1-0.3-0.2-0.3l0,0c0,0-0.1,0.1-0.1,0.2l-1.7,3.7
	c-0.1,0.2-0.1,0.3-0.1,0.3c0,0.2,0.1,0.2,0.4,0.2L443.9,36.9z M445.7,30.1c0.1,0,0.2,0.1,0.2,0.2l3.7,9.5l0.2,0.5
	c0.3,0.7,0.5,1.1,0.7,1.3c0.2,0.2,0.5,0.3,1.1,0.4c0.2,0,0.3,0.1,0.3,0.2s-0.1,0.1-0.2,0.1c-0.1,0-0.2,0-0.3,0c-0.3,0-0.8,0-1.6,0
	s-1.3,0-1.5,0c-0.1,0-0.2,0-0.3,0c-0.1,0-0.2-0.1-0.2-0.2s0.1-0.2,0.2-0.2l0.3-0.1c0.3-0.1,0.4-0.3,0.4-0.6c0-0.3-0.2-0.9-0.5-1.8
	l-0.4-1.1c-0.1-0.3-0.2-0.5-0.3-0.5c-0.1,0-0.3-0.1-0.6-0.1h-3.1c-0.4,0-0.7,0-0.8,0.1s-0.2,0.3-0.4,0.7l-0.6,1.3
	c-0.3,0.6-0.4,1-0.4,1.3s0.1,0.5,0.2,0.6c0.1,0.1,0.4,0.2,0.8,0.3c0.2,0,0.3,0.1,0.3,0.2s-0.1,0.1-0.2,0.1s-0.2,0-0.3,0h-0.8
	c-0.3,0-0.6,0-0.9,0c-0.2,0-0.3,0-0.4,0c-0.3,0-0.5,0-0.5,0c-0.2,0-0.2-0.1-0.2-0.2s0-0.2,0.1-0.2l0.3-0.1c0.1,0,0.3-0.2,0.5-0.4
	c0.2-0.2,0.4-0.5,0.5-0.8l0.2-0.6l4.4-9.8C445.5,30.2,445.6,30.1,445.7,30.1"/>
<path class="st0" d="M457.8,42.6c-1,0-1.9-0.2-2.7-0.6s-1.4-0.9-1.8-1.6c-0.4-0.8-0.6-1.8-0.6-3V33v-0.5c0-0.6-0.1-1-0.2-1.2
	c-0.1-0.2-0.5-0.3-0.9-0.4c-0.3,0-0.3-0.2-0.3-0.3c0-0.1,0-0.3,0.5-0.3c0.1,0,0.3,0,0.6,0c0.3,0,0.4,0,0.6,0h0.7h0.7
	c0.1,0,0.2,0,0.5,0c0.2,0,0.4,0,0.5,0c0.3,0,0.3,0.2,0.3,0.3c0,0.1-0.1,0.3-0.4,0.3c-0.3,0.1-0.5,0.2-0.6,0.4
	c-0.1,0.2-0.2,0.6-0.2,1.1V33v4.3c0,1.4,0.2,2.5,0.7,3.1c0.6,0.9,1.7,1.3,3.2,1.3c1.3,0,2.3-0.4,3-1.1c0.7-0.7,1-1.8,1-3.3v-4.5
	c0-0.7-0.1-1.2-0.3-1.5s-0.5-0.4-1-0.5c-0.3,0-0.4-0.2-0.4-0.3c0-0.2,0.1-0.3,0.3-0.3c0.2,0,0.3,0,0.6,0.1c0.2,0,0.5,0,0.8,0
	c0.6,0,1,0,1.2,0c0.2,0,0.3,0,0.4,0c0.2,0,0.3,0.1,0.3,0.3c0,0.1,0,0.2-0.3,0.3c-0.3,0.1-0.5,0.3-0.6,0.5c-0.1,0.2-0.1,0.7-0.1,1.4
	v4.3c0,1.6-0.3,2.8-1,3.7c-0.4,0.5-1,1-1.8,1.3C459.4,42.4,458.6,42.6,457.8,42.6"/>
<path class="st0" d="M460.7,30.1c-0.2,0-0.4,0.2-0.4,0.4c0,0.1,0,0.4,0.5,0.4c0.4,0,0.7,0.2,0.9,0.4c0.2,0.3,0.3,0.8,0.3,1.4v4.5
	c0,1.4-0.3,2.5-1,3.2c-0.6,0.7-1.6,1-2.9,1c-1.4,0-2.5-0.4-3.1-1.2c-0.4-0.6-0.6-1.6-0.6-3V33v-0.6c0-0.6,0.1-0.9,0.1-1
	c0.1-0.1,0.2-0.2,0.5-0.3c0.4-0.1,0.5-0.4,0.5-0.5c0-0.2-0.1-0.4-0.5-0.4c-0.1,0-0.2,0-0.5,0c-0.2,0-0.4,0-0.5,0h-0.7h-0.7
	c-0.1,0-0.3,0-0.6,0s-0.5,0-0.6,0c-0.6,0-0.6,0.4-0.6,0.5s0,0.4,0.5,0.4c0.4,0.1,0.7,0.2,0.8,0.4c0.1,0.1,0.2,0.4,0.2,1.1v0.5v4.4
	c0,1.2,0.2,2.3,0.6,3s1,1.2,1.8,1.7c0.8,0.4,1.7,0.6,2.7,0.6c0.9,0,1.7-0.2,2.5-0.5s1.4-0.8,1.8-1.4c0.7-0.9,1-2.1,1-3.8v-4.3
	c0-0.8,0.1-1.2,0.1-1.4c0.1-0.2,0.3-0.3,0.5-0.5c0.3-0.1,0.3-0.3,0.3-0.4c0-0.2-0.2-0.4-0.4-0.4c-0.1,0-0.2,0-0.4,0
	c-0.1,0-0.4,0-1.2,0c-0.3,0-0.5,0-0.7,0C461.1,30.1,460.9,30.1,460.7,30.1L460.7,30.1L460.7,30.1z M460.7,30.4L460.7,30.4
	c0.1,0,0.3,0,0.6,0.1c0.2,0,0.5,0.1,0.8,0.1c0.6,0,1,0,1.2,0c0.2,0,0.3,0,0.4,0c0.1,0,0.2,0.1,0.2,0.1c0,0.1-0.1,0.2-0.2,0.2
	c-0.4,0.1-0.6,0.3-0.7,0.6c-0.1,0.3-0.2,0.7-0.2,1.5v4.3c0,1.6-0.3,2.8-0.9,3.6c-0.4,0.5-1,1-1.7,1.3s-1.5,0.5-2.4,0.5
	c-1,0-1.9-0.2-2.6-0.6c-0.8-0.4-1.4-0.9-1.7-1.5c-0.4-0.7-0.6-1.7-0.6-2.9v-4.4v-0.5c0-0.6-0.1-1-0.3-1.3c-0.2-0.2-0.5-0.4-1-0.5
	c-0.2,0-0.2-0.1-0.2-0.2s0.1-0.2,0.3-0.2c0.1,0,0.3,0,0.6,0s0.5,0,0.6,0h0.7h0.7c0.1,0,0.2,0,0.5,0c0.2,0,0.4,0,0.4,0
	c0.1,0,0.2,0,0.2,0.1s-0.1,0.2-0.3,0.2c-0.3,0.1-0.6,0.2-0.7,0.4c-0.1,0.2-0.2,0.6-0.2,1.2v0.6v4.3c0,1.5,0.2,2.5,0.7,3.2
	c0.6,0.9,1.7,1.3,3.3,1.3c1.4,0,2.4-0.4,3.1-1.1c0.7-0.7,1-1.9,1-3.4v-4.5c0-0.7-0.1-1.2-0.3-1.6c-0.2-0.3-0.6-0.5-1.1-0.6
	c-0.2,0-0.3-0.1-0.3-0.2C460.5,30.4,460.6,30.4,460.7,30.4"/>
<path class="st0" d="M469,42.6c-0.5,0-1-0.1-1.5-0.2s-0.9-0.3-1.2-0.5c-0.1-0.1-0.2-0.2-0.3-0.3c0-0.1-0.1-0.3-0.2-0.6l-0.2-0.8
	c-0.2-0.5-0.2-0.9-0.2-1.1c0-0.3,0.2-0.4,0.3-0.4c0.2,0,0.4,0.3,0.4,0.5c0.2,0.7,0.6,1.3,1.3,1.7c0.6,0.5,1.3,0.7,2.1,0.7
	c0.8,0,1.4-0.2,1.9-0.7c0.5-0.4,0.8-1,0.8-1.6s-0.2-1.1-0.7-1.5c-0.2-0.1-0.7-0.4-2.2-0.9c-1.3-0.4-2.2-0.9-2.8-1.5
	c-0.6-0.5-0.8-1.3-0.8-2.1c0-1,0.4-1.8,1.1-2.4c0.7-0.6,1.6-0.9,2.8-0.9c0.6,0,1.2,0.1,1.6,0.3l0.6,0.2h0.1c0,0,0.1,0,0.1-0.1
	l0.1-0.1c0,0,0.1-0.1,0.2-0.1l0,0c0.2,0,0.3,0.1,0.3,0.6c0,0.1,0,0.2,0.1,0.8l0.1,0.9c0,0.2,0,0.3,0,0.4c0,0.4-0.2,0.4-0.3,0.4
	c-0.2,0-0.3-0.3-0.4-0.5c-0.2-0.6-0.6-1.1-1.2-1.5c-0.6-0.4-1.3-0.6-2-0.6c-0.6,0-1.1,0.2-1.5,0.5c-0.4,0.3-0.6,0.8-0.6,1.3
	s0.1,0.8,0.4,1.2c0.2,0.3,0.5,0.5,0.7,0.6c0.3,0.1,0.9,0.4,2,0.7c2.2,0.7,3.3,1.9,3.3,3.5c0,1.1-0.4,2-1.2,2.7
	C471.3,42.2,470.2,42.6,469,42.6"/>
<path class="st0" d="M469.5,30c-1.1,0-2.1,0.3-2.8,0.9c-0.8,0.6-1.1,1.5-1.1,2.5c0,0.9,0.3,1.6,0.9,2.2c0.6,0.6,1.5,1,2.8,1.5
	c1.6,0.5,2,0.8,2.1,0.9c0.4,0.4,0.7,0.9,0.7,1.4c0,0.6-0.2,1.1-0.7,1.5s-1.1,0.6-1.8,0.6c-0.7,0-1.4-0.2-2-0.7c-0.6-0.4-1-1-1.2-1.7
	c0-0.2-0.2-0.6-0.5-0.6l0,0c-0.1,0-0.4,0-0.4,0.5c0,0.2,0.1,0.6,0.2,1.2l0.1,0.3c0.1,0.3,0.1,0.5,0.1,0.5c0.1,0.5,0.2,0.6,0.2,0.7
	c0.1,0.1,0.2,0.2,0.3,0.3c0.3,0.2,0.7,0.3,1.2,0.5c0.5,0.1,1.1,0.2,1.5,0.2c1.3,0,2.4-0.4,3.2-1.1c0.8-0.7,1.3-1.7,1.3-2.8
	c0-1.7-1.1-2.9-3.4-3.7c-1.1-0.4-1.8-0.6-2-0.7s-0.5-0.3-0.7-0.6c-0.2-0.3-0.3-0.7-0.3-1.1c0-0.5,0.2-0.9,0.5-1.2
	c0.4-0.3,0.8-0.5,1.4-0.5c0.7,0,1.4,0.2,2,0.6s1,0.8,1.1,1.4c0.1,0.2,0.2,0.6,0.5,0.6c0.2,0,0.4-0.1,0.4-0.5c0,0,0-0.1,0-0.4
	l-0.1-0.9c-0.1-0.6-0.1-0.8-0.1-0.8c0-0.6-0.3-0.7-0.5-0.7s-0.2,0.1-0.3,0.1l-0.1,0.1l0,0c0,0,0,0-0.1,0l-0.6-0.2
	C470.7,30.1,470.2,30,469.5,30 M469.5,30.3c0.6,0,1.1,0.1,1.6,0.3l0.6,0.2c0.1,0,0.1,0,0.2,0c0.1,0,0.1,0,0.2-0.1l0.1-0.1h0.1l0,0
	c0.1,0,0.2,0.1,0.2,0.4c0,0.1,0,0.4,0.1,0.9l0.1,0.9c0,0.2,0,0.3,0,0.3c0,0.2-0.1,0.3-0.2,0.3s-0.2-0.1-0.3-0.4
	c-0.2-0.6-0.6-1.1-1.3-1.5c-0.6-0.4-1.3-0.6-2.1-0.6c-0.6,0-1.1,0.2-1.5,0.5c-0.4,0.4-0.6,0.8-0.6,1.4c0,0.5,0.1,0.9,0.4,1.2
	c0.2,0.3,0.5,0.5,0.8,0.7c0.3,0.1,1,0.4,2,0.7c2.1,0.7,3.2,1.8,3.2,3.4c0,1.1-0.4,1.9-1.2,2.6c-0.8,0.7-1.8,1-3,1
	c-0.4,0-0.9-0.1-1.5-0.2c-0.5-0.1-0.9-0.3-1.2-0.4c-0.1-0.1-0.2-0.1-0.2-0.2s-0.1-0.3-0.2-0.6c0,0-0.1-0.3-0.2-0.8
	c-0.1-0.5-0.2-0.9-0.2-1.1s0.1-0.2,0.2-0.2l0,0c0.1,0,0.2,0.1,0.3,0.4c0.2,0.7,0.6,1.3,1.3,1.8c0.7,0.5,1.4,0.7,2.2,0.7
	s1.5-0.2,2-0.7s0.8-1,0.8-1.7c0-0.6-0.3-1.2-0.8-1.6c-0.3-0.2-1-0.5-2.2-1c-1.3-0.4-2.2-0.9-2.7-1.4s-0.8-1.2-0.8-2
	c0-0.9,0.3-1.7,1-2.3C467.6,30.6,468.4,30.3,469.5,30.3"/>
<path class="st0" d="M481.7,42.5c-0.1,0-0.2,0-0.4-0.1c-0.1,0-0.5,0-0.8,0h-0.6h-0.7c-0.2,0-0.4,0-0.6,0c-0.3,0-0.5,0.1-0.6,0.1
	c-0.4,0-0.4-0.2-0.4-0.3c0-0.1,0.1-0.3,0.4-0.3c0.4-0.1,0.7-0.2,0.8-0.3c0.1-0.2,0.2-0.5,0.2-0.9v-8.5V32c0-0.3-0.1-0.3-0.1-0.3
	s-0.1-0.1-0.3-0.1h-2.3c-0.4,0-0.7,0.1-0.9,0.2c-0.2,0.2-0.3,0.5-0.4,1c-0.1,0.3-0.2,0.4-0.3,0.4s-0.3,0-0.3-0.4
	c0-0.1,0-0.3,0.1-0.7c0.1-0.4,0.1-0.7,0.1-1s0-0.5,0.1-0.6c0.1-0.1,0.2-0.2,0.5-0.2h9.3c0.5,0,0.6,0.1,0.7,0.1
	c0.1,0.1,0.1,0.3,0.1,0.7c0,0.3,0,0.6,0,0.7c0,0.2,0,0.3,0.1,0.4c0,0.3-0.2,0.4-0.3,0.4l0,0c-0.1,0-0.3-0.1-0.3-0.4
	c-0.1-0.5-0.2-0.6-0.3-0.7s-0.3-0.2-0.9-0.2h-2.4c-0.3,0-0.4,0.1-0.4,0.1s-0.1,0.1-0.1,0.4v8.4v0.3c0,0.6,0.4,1,1,1.1
	c0.3,0,0.4,0.2,0.4,0.3C482.1,42.3,482,42.5,481.7,42.5"/>
<path class="st0" d="M484.4,30.2h-9.3c-0.3,0-0.5,0.1-0.6,0.2c-0.1,0.1-0.1,0.3-0.1,0.7c0,0.3,0,0.6-0.1,1c-0.1,0.3-0.1,0.6-0.1,0.7
	c0,0.3,0.2,0.5,0.4,0.5l0,0c0.2,0,0.4-0.1,0.5-0.5c0.1-0.6,0.3-0.8,0.4-0.9c0.2-0.1,0.4-0.2,0.8-0.2h2.3c0.1,0,0.2,0,0.2,0
	s0,0.1,0,0.2v0.2v8.5c0,0.5-0.1,0.8-0.2,0.8c-0.1,0.1-0.3,0.2-0.7,0.3c-0.4,0-0.5,0.3-0.5,0.4c0,0.2,0.1,0.4,0.5,0.4
	c0.1,0,0.2,0,0.6-0.1c0.1,0,0.3,0,0.6,0h0.7h0.6c0.2,0,0.6,0,0.7,0c0.3,0,0.4,0.1,0.5,0.1c0.4,0,0.5-0.2,0.5-0.4
	c0-0.1-0.1-0.4-0.5-0.4c-0.6-0.1-0.9-0.4-0.9-1v-0.3V32c0-0.2,0-0.3,0-0.3l0,0c0,0,0.1,0,0.3,0h2.4c0.6,0,0.8,0.1,0.8,0.1
	c0.1,0,0.2,0.2,0.3,0.6c0.1,0.4,0.3,0.5,0.5,0.5c0.2,0,0.5-0.2,0.4-0.5c0-0.1,0-0.2-0.1-0.4c0-0.1,0-0.4,0-0.7c0-0.4,0-0.7-0.2-0.8
	C485.1,30.3,484.9,30.2,484.4,30.2 M484.4,30.5c0.3,0,0.5,0,0.6,0.1s0.1,0.3,0.1,0.6c0,0.3,0,0.6,0,0.7c0,0.2,0,0.3,0.1,0.4
	c0,0.2-0.1,0.3-0.2,0.3l0,0c-0.1,0-0.2-0.1-0.2-0.3c-0.1-0.4-0.2-0.7-0.4-0.8c-0.2-0.1-0.5-0.2-1-0.2H481c-0.3,0-0.4,0-0.5,0.1
	s-0.1,0.2-0.1,0.5v8.4v0.3c0,0.7,0.4,1.1,1.1,1.2c0.2,0,0.3,0.1,0.3,0.2s-0.1,0.2-0.2,0.2c-0.1,0-0.2,0-0.4-0.1c-0.1,0-0.4,0-0.8,0
	h-0.6h-0.7c-0.2,0-0.4,0-0.6,0c-0.3,0-0.5,0.1-0.6,0.1c-0.2,0-0.3-0.1-0.3-0.2s0.1-0.1,0.3-0.2c0.4-0.1,0.7-0.2,0.9-0.4
	c0.2-0.2,0.2-0.5,0.2-1v-8.5v-0.2c0-0.2,0-0.3-0.1-0.4c-0.1-0.1-0.2-0.1-0.4-0.1h-2.3c-0.5,0-0.8,0.1-1,0.3
	c-0.2,0.2-0.4,0.5-0.5,1.1c-0.1,0.2-0.1,0.3-0.2,0.3l0,0c-0.1,0-0.2-0.1-0.2-0.2s0-0.3,0.1-0.7c0.1-0.4,0.1-0.8,0.1-1
	c0-0.3,0-0.4,0.1-0.5s0.2-0.1,0.4-0.1L484.4,30.5L484.4,30.5z"/>
<path class="st0" d="M490.4,31.1c-0.4,0-0.5,0.1-0.6,0.1c-0.1,0.1-0.1,0.3-0.1,0.5V32v3.5c0,0.3,0.1,0.4,0.1,0.4s0.1,0.1,0.4,0.1h1
	c0.7,0,1.3-0.2,1.7-0.6c0.4-0.4,0.6-0.9,0.6-1.6c0-0.8-0.3-1.5-0.8-2C492,31.4,491.3,31.1,490.4,31.1 M496.5,42.6
	c-0.5,0-1-0.2-1.5-0.4c-0.4-0.3-0.9-0.8-1.3-1.4l-2.3-3.5c-0.1-0.2-0.3-0.3-0.6-0.3h-1.1h-0.2l0,0c0,0,0,0,0,0.1v2.7v0.3
	c0,0.6,0,0.9,0.1,1c0,0.2,0.1,0.3,0.3,0.4c0.2,0.2,0.6,0.3,1.1,0.3c0.3,0,0.4,0.2,0.4,0.3c0,0.1,0,0.2-0.1,0.2
	c-0.1,0.1-0.2,0.1-0.4,0.1c-0.1,0-0.3,0-0.5,0s-0.6,0-1.1,0h-0.8h-0.4c-0.2,0-0.4,0-0.7,0c-0.2,0-0.4,0-0.5,0
	c-0.2,0-0.3-0.1-0.3-0.3c0-0.1,0.1-0.2,0.3-0.3c0.4-0.1,0.7-0.3,0.8-0.5c0.1-0.3,0.2-0.9,0.2-1.9v-6.2v-0.9c0-0.8-0.3-1.3-0.8-1.4
	l-0.4-0.1c-0.3-0.1-0.4-0.2-0.4-0.3c0-0.1,0-0.3,0.4-0.3c0,0,0.2,0,0.6,0c0.2,0,0.5,0,0.8,0s0.7,0,1.3-0.1c0.5,0,0.9,0,1.2,0
	c1.3,0,2.4,0.3,3.1,0.8s1.1,1.3,1.1,2.3c0,1.3-0.7,2.3-2.1,3l2.6,3.8c0.7,1,1.4,1.6,1.9,1.6h0.3c0.1,0,0.2,0,0.2,0.1l0,0v0.1
	c0,0.2-0.3,0.3-0.5,0.4C497.1,42.5,496.8,42.6,496.5,42.6"/>
<path class="st0" d="M489.8,35.9c0,0,0-0.1,0-0.3V32v-0.3c0-0.2,0-0.4,0.1-0.4c0,0,0.2-0.1,0.5-0.1c0.8,0,1.5,0.2,2.1,0.7
	c0.5,0.5,0.8,1.1,0.8,1.9c0,0.7-0.2,1.1-0.6,1.5c-0.4,0.4-0.9,0.5-1.6,0.5h-1C489.9,35.9,489.8,35.9,489.8,35.9 M490.8,30.1
	c-0.3,0-0.7,0-1.2,0c-0.6,0-1.1,0.1-1.3,0.1c-0.3,0-0.5,0-0.7,0c-0.4,0-0.6,0-0.6,0c-0.5,0-0.6,0.4-0.6,0.4c0,0.1,0,0.4,0.5,0.5
	l0.4,0.1c0.3,0,0.7,0.2,0.7,1.2v0.9v6.2c0,0.9-0.1,1.6-0.2,1.8c-0.1,0.3-0.3,0.4-0.7,0.5c-0.4,0.1-0.4,0.3-0.4,0.4
	c0,0.2,0.1,0.4,0.5,0.4c0.1,0,0.3,0,0.5,0c0.3,0,0.5,0,0.7,0h0.4h0.8c0.5,0,0.8,0,1.1,0c0.3,0,0.5,0,0.5,0c0.2,0,0.4-0.1,0.5-0.2
	c0.1-0.1,0.1-0.2,0.1-0.3c0-0.1-0.1-0.4-0.6-0.4s-0.8-0.2-1-0.3c-0.1-0.1-0.2-0.2-0.3-0.4c0-0.1-0.1-0.3-0.1-0.9v-0.3v-2.7l0,0h0.1
	h1.1c0.2,0,0.4,0.1,0.4,0.2l0.1,0.2l2.1,3.3c0.4,0.7,0.9,1.2,1.3,1.5c0.5,0.3,1,0.5,1.5,0.5c0.3,0,0.6,0,0.9-0.1
	c0.1,0,0.5-0.1,0.6-0.5c0-0.1,0-0.2-0.1-0.3c-0.1-0.1-0.2-0.1-0.3-0.1h-0.3c-0.5,0-1.2-0.6-1.8-1.6l-0.3-0.4l-2.2-3.3
	c1.3-0.7,2-1.8,2-3.1c0-1.1-0.4-1.9-1.1-2.4C493.2,30.4,492.1,30.1,490.8,30.1 M490.1,36.2h1c0.8,0,1.3-0.2,1.8-0.6
	c0.4-0.4,0.6-1,0.6-1.7c0-0.8-0.3-1.5-0.9-2.1c-0.6-0.5-1.3-0.8-2.2-0.8c-0.3,0-0.6,0.1-0.7,0.2c-0.1,0.1-0.2,0.3-0.2,0.6v0.3v3.5
	c0,0.3,0,0.4,0.1,0.5C489.7,36.1,489.8,36.2,490.1,36.2 M490.8,30.4c1.3,0,2.3,0.2,3,0.7c0.7,0.5,1,1.2,1,2.2c0,1.3-0.7,2.3-2.1,3
	l2.4,3.5l0.3,0.4c0.7,1.1,1.4,1.6,2,1.7h0.3c0.1,0,0.2,0,0.1,0.1c0,0.1-0.1,0.2-0.4,0.2c-0.2,0.1-0.5,0.1-0.8,0.1
	c-0.5,0-1-0.1-1.4-0.4s-0.8-0.8-1.2-1.4l-2.1-3.3l-0.1-0.2c-0.1-0.2-0.4-0.4-0.7-0.4H490h-0.2c-0.1,0-0.1,0.1-0.1,0.3v2.7v0.3
	c0,0.5,0,0.8,0.1,1c0.1,0.2,0.2,0.3,0.4,0.5c0.2,0.2,0.6,0.3,1.1,0.4c0.2,0,0.3,0.1,0.3,0.2s-0.1,0.2-0.3,0.2c-0.1,0-0.2,0-0.5,0
	c-0.2,0-0.6,0-1.1,0h-0.8h-0.4c-0.2,0-0.4,0-0.7,0c-0.2,0-0.4,0-0.5,0c-0.1,0-0.2-0.1-0.2-0.2s0.1-0.1,0.2-0.2
	c0.5-0.1,0.8-0.3,0.9-0.6c0.1-0.3,0.2-1,0.2-2V33v-0.9c0-0.9-0.3-1.4-0.9-1.5l-0.4-0.1c-0.2,0-0.3-0.1-0.3-0.2s0.1-0.2,0.3-0.2
	c0,0,0.2,0,0.6,0c0.2,0,0.5,0,0.8,0c0.3,0,0.7,0,1.4-0.1C490,30.4,490.4,30.4,490.8,30.4"/>
<path class="st0" d="M504.1,32.7l-1.7,3.7c-0.1,0.2-0.1,0.3-0.1,0.3c0,0.1,0.1,0.1,0.3,0.1h0.2h2.6c0.2,0,0.3,0,0.3-0.1
	c0,0,0-0.1,0-0.2v-0.2l-1.3-3.4l-0.1-0.2C504.2,32.7,504.1,32.7,504.1,32.7L504.1,32.7 M501.1,42.5h-0.8c-0.3,0-0.6,0-0.9,0
	c-0.2,0-0.3,0-0.4,0c-0.3,0-0.5,0-0.5,0c-0.3,0-0.4-0.2-0.4-0.3c0-0.1,0.1-0.3,0.2-0.3l0.3-0.1c0,0,0.2-0.1,0.4-0.4
	c0.2-0.2,0.3-0.5,0.5-0.7l0.2-0.6l4.4-9.8c0-0.1,0.1-0.3,0.4-0.3c0.2,0,0.3,0.1,0.4,0.3l3.7,9.5l0.2,0.5c0.3,0.8,0.5,1.1,0.6,1.3
	c0.1,0.1,0.4,0.3,1,0.4c0.3,0.1,0.4,0.2,0.4,0.3c0,0.1-0.1,0.3-0.4,0.3c0,0-0.1,0-0.3,0c-0.3,0-0.9,0-1.6,0c-0.8,0-1.3,0-1.5,0
	c-0.1,0-0.2,0-0.3,0c-0.3,0-0.4-0.2-0.4-0.3c0-0.1,0-0.3,0.3-0.3l0.3-0.1c0.2,0,0.3-0.2,0.3-0.5s-0.2-0.9-0.5-1.8l-0.4-1.1
	c-0.2-0.4-0.2-0.5-0.2-0.5s-0.1,0-0.5,0h-3.1c-0.5,0-0.7,0.1-0.7,0.1s-0.1,0.1-0.4,0.6l-0.6,1.3c-0.3,0.7-0.4,1.1-0.4,1.2
	c0,0.2,0.1,0.4,0.2,0.5s0.3,0.2,0.7,0.3c0.3,0.1,0.4,0.2,0.4,0.3c0,0.1,0,0.1-0.1,0.2c-0.1,0.1-0.2,0.1-0.3,0.1L501.1,42.5z"/>
<path class="st0" d="M502.4,36.7c0,0,0-0.1,0.1-0.2l1.6-3.5v0.1l1.4,3.4v0.1v0.1c0,0-0.1,0-0.2,0h-2.6h-0.2
	C502.5,36.7,502.5,36.7,502.4,36.7 M504.6,29.8c-0.2,0-0.4,0.1-0.5,0.4l-4.4,9.8l-0.2,0.6c-0.1,0.2-0.3,0.5-0.4,0.7
	c-0.2,0.3-0.3,0.3-0.3,0.3l-0.3,0.1c-0.2,0.1-0.3,0.2-0.3,0.4c0,0.2,0.1,0.4,0.5,0.4c0,0,0.2,0,0.4,0h0.1c0.1,0,0.2,0,0.4,0
	c0.4,0,0.7,0,0.9,0h0.8h0.1c0.1,0,0.1,0,0.2,0c0.2,0,0.3,0,0.4-0.1c0.1-0.1,0.1-0.2,0.1-0.3c0-0.1-0.1-0.4-0.5-0.4
	c-0.5-0.1-0.6-0.2-0.7-0.2c-0.1-0.1-0.1-0.3-0.1-0.4c0-0.2,0.1-0.5,0.4-1.2l0.6-1.3c0.2-0.5,0.3-0.6,0.3-0.6s0.1-0.1,0.6-0.1h3.1
	c0.3,0,0.4,0,0.4,0s0.1,0.1,0.2,0.4l0.4,1.1c0.4,1.1,0.5,1.5,0.5,1.7c0,0.3-0.1,0.3-0.2,0.3l-0.3,0.1c-0.4,0.1-0.4,0.3-0.4,0.4
	c0,0.2,0.1,0.4,0.5,0.4c0.1,0,0.2,0,0.3,0s0.5,0,1.4,0c0.8,0,1.3,0,1.6,0h0.1c0.1,0,0.2,0,0.3,0c0.4,0,0.5-0.3,0.5-0.4
	s0-0.4-0.5-0.5c-0.6-0.1-0.9-0.3-0.9-0.3c-0.1-0.1-0.3-0.3-0.6-1.2l-0.2-0.5l-3.7-9.5C504.9,29.9,504.7,29.8,504.6,29.8 M502.8,36.9
	h2.6c0.3,0,0.4-0.1,0.4-0.2c0,0,0-0.1,0-0.2v-0.2l-1.4-3.4l-0.1-0.2c-0.1-0.2-0.1-0.3-0.2-0.3l0,0c0,0-0.1,0.1-0.1,0.2l-1.7,3.7
	c-0.1,0.2-0.1,0.3-0.1,0.3c0,0.2,0.1,0.2,0.4,0.2L502.8,36.9z M504.6,30.1c0.1,0,0.2,0.1,0.2,0.2l3.7,9.5l0.2,0.5
	c0.3,0.7,0.5,1.1,0.7,1.3c0.2,0.2,0.5,0.3,1.1,0.4c0.2,0,0.3,0.1,0.3,0.2s-0.1,0.1-0.2,0.1s-0.2,0-0.3,0c-0.3,0-0.8,0-1.6,0
	c-0.8,0-1.3,0-1.5,0c-0.1,0-0.2,0-0.3,0c-0.2,0-0.2-0.1-0.2-0.2s0.1-0.2,0.2-0.2l0.3-0.1c0.3-0.1,0.4-0.3,0.4-0.6
	c0-0.3-0.2-0.9-0.5-1.8l-0.4-1.1c-0.1-0.3-0.2-0.5-0.3-0.5s-0.3-0.1-0.6-0.1h-3.1c-0.4,0-0.7,0-0.8,0.1c-0.1,0.1-0.2,0.3-0.4,0.7
	l-0.6,1.3c-0.3,0.6-0.4,1-0.4,1.3s0.1,0.5,0.2,0.6s0.4,0.2,0.8,0.3c0.2,0,0.3,0.1,0.3,0.2s-0.1,0.1-0.2,0.1c-0.1,0-0.2,0-0.3,0h-0.8
	c-0.3,0-0.6,0-1,0c-0.2,0-0.3,0-0.4,0c-0.3,0-0.4,0-0.5,0c-0.2,0-0.2-0.1-0.2-0.2s0.1-0.2,0.1-0.2l0.3-0.1c0.1,0,0.3-0.2,0.5-0.4
	c0.2-0.2,0.4-0.5,0.5-0.8L500,40l4.4-9.8C504.4,30.2,504.5,30.1,504.6,30.1"/>
<path class="st0" d="M512.6,42.5c-0.1,0-0.2,0-0.2-0.1c0,0-0.1-0.1-0.1-0.2s0.1-0.2,0.3-0.3c0.4-0.1,0.6-0.3,0.7-0.5
	c0.1-0.2,0.2-0.6,0.2-1.1v-0.4v-7.7c0-0.7-0.3-1.1-0.8-1.2l-0.4-0.1c-0.3-0.1-0.3-0.2-0.3-0.3c0-0.1,0-0.3,0.4-0.3
	c0.1,0,0.3,0,0.6,0c0.4,0,0.8,0.1,1.3,0.1s1,0,1.4,0c0.2,0,0.3,0,0.4,0c0.3,0,0.3,0.2,0.3,0.3c0,0.1,0,0.3-0.3,0.4l-0.3,0.1
	c-0.4,0.1-0.7,0.6-0.7,1.4v7.5v0.3c0,0.9,0.1,1.1,0.2,1.1c0,0,0.3,0.1,1.2,0.1c1.1,0,2-0.1,2.8-0.4c0.8-0.2,1.2-0.6,1.4-0.9
	c0.1-0.2,0.2-0.3,0.4-0.3c0.1,0,0.2,0,0.2,0.1c0.1,0.1,0.1,0.1,0.1,0.2c0,0.4-0.2,0.9-0.6,1.3c-0.5,0.7-1.4,1-2.5,1
	c-0.2,0-0.4,0-0.6,0l-0.9-0.1c-0.5,0-1.1-0.1-1.7-0.1c-0.7,0-1.3,0-1.8,0.1C512.9,42.5,512.7,42.5,512.6,42.5L512.6,42.5z"/>
<path class="st0" d="M512.4,30.2c-0.5,0-0.6,0.4-0.6,0.5s0,0.3,0.4,0.4l0.4,0.1c0.3,0.1,0.7,0.2,0.7,1.1V40v0.4c0,0.6-0.1,0.9-0.2,1
	c-0.1,0.2-0.3,0.3-0.7,0.4c-0.4,0.1-0.4,0.3-0.4,0.5s0.1,0.4,0.5,0.4c0.2,0,0.3,0,0.5-0.1c0.5-0.1,1.1-0.1,1.7-0.1
	c0.6,0,1.2,0,1.7,0.1l0.9,0.1c0.2,0,0.5,0,0.7,0c1.2,0,2.1-0.3,2.6-1c0.4-0.5,0.6-1,0.6-1.4c0-0.1,0-0.3-0.1-0.3
	c-0.1-0.1-0.1-0.1-0.3-0.1s-0.3,0.1-0.5,0.4c-0.2,0.4-0.6,0.7-1.4,0.9c-0.8,0.2-1.7,0.4-2.7,0.4c-0.9,0-1.1-0.1-1.1-0.1
	s-0.1-0.2-0.1-1v-0.3v-7.5c0-0.8,0.2-1.2,0.6-1.3l0.3-0.1c0.4-0.1,0.5-0.4,0.5-0.5c0-0.2-0.1-0.4-0.5-0.4c0,0-0.2,0-0.4,0
	c-0.5,0-0.9,0-1.4,0c-0.4,0-0.9,0-1.3-0.1C512.7,30.2,512.5,30.2,512.4,30.2 M512.4,30.4c0.1,0,0.3,0,0.5,0c0.4,0,0.8,0.1,1.3,0.1
	s1,0,1.4,0c0.2,0,0.3,0,0.4,0s0.2,0,0.2,0.1s-0.1,0.2-0.3,0.2l-0.3,0.1c-0.5,0.1-0.8,0.6-0.8,1.5v7.5v0.3c0,0.7,0.1,1.1,0.2,1.2
	c0.1,0.1,0.6,0.2,1.3,0.2c1.1,0,2-0.1,2.8-0.4s1.3-0.6,1.5-1c0.1-0.2,0.2-0.2,0.2-0.2c0.1,0,0.1,0.1,0.1,0.2c0,0.4-0.2,0.8-0.6,1.2
	c-0.5,0.6-1.3,0.9-2.4,0.9c-0.2,0-0.4,0-0.6,0l-0.9-0.1c-0.5,0-1.1-0.1-1.7-0.1c-0.7,0-1.3,0-1.8,0.1c-0.2,0-0.4,0-0.5,0.1l0,0
	c-0.1,0-0.2-0.1-0.2-0.2s0.1-0.2,0.2-0.2c0.4-0.1,0.7-0.3,0.8-0.5c0.1-0.2,0.2-0.6,0.2-1.2v-0.4v-7.7c0-0.8-0.3-1.2-0.9-1.3
	l-0.4-0.1c-0.1,0-0.2-0.1-0.2-0.2C512.1,30.5,512.2,30.4,512.4,30.4"/>
<path class="st0" d="M526.5,42.5c-0.1,0-0.2,0-0.3,0c-0.2,0-0.5,0-0.9,0h-1.2l-1,0.1c-0.2,0-0.3,0-0.4,0c-0.3,0-0.4-0.2-0.4-0.3
	c0-0.1,0-0.3,0.4-0.3c0.4-0.1,0.6-0.2,0.8-0.4c0.1-0.1,0.2-0.5,0.2-1.4v-7.4c0-0.8-0.1-1.2-0.2-1.4c-0.1-0.2-0.5-0.4-1-0.4
	c-0.2,0-0.4-0.2-0.4-0.3c0-0.1,0-0.2,0.1-0.2c0.1-0.1,0.2-0.1,0.3-0.1h0.1c0.4,0.1,1,0.1,1.7,0.1c0.4,0,0.8,0,1.1,0h0.6h0.2
	c0.3,0,0.4,0.2,0.4,0.3c0,0.1,0,0.3-0.3,0.3l-0.4,0.2c-0.3,0.1-0.6,0.5-0.6,1.9v6.5c0,0.8,0,1.3,0.1,1.5c0.1,0.3,0.2,0.5,0.4,0.6
	c0.2,0.1,0.4,0.2,0.7,0.2c0.2,0,0.5,0.1,0.5,0.3C526.9,42.2,526.9,42.5,526.5,42.5"/>
<path class="st0" d="M526.1,30.1L526.1,30.1h-0.2h-0.6c-0.3,0-0.6,0-1.1,0c-0.7,0-1.2,0-1.6-0.1c-0.1,0-0.1,0-0.2,0
	c-0.2,0-0.3,0-0.4,0.1c-0.1,0.1-0.1,0.2-0.1,0.3c0,0.1,0.1,0.4,0.5,0.4c0.5,0.1,0.8,0.2,0.9,0.4c0.1,0.1,0.2,0.4,0.2,1.3v7.4
	c0,0.9-0.1,1.2-0.2,1.3c-0.1,0.2-0.3,0.3-0.7,0.3c-0.4,0.1-0.5,0.3-0.5,0.4c0,0.2,0.1,0.4,0.5,0.4c0.1,0,0.3,0,0.4,0l1-0.1h1.2
	c0.4,0,0.7,0,0.9,0c0.1,0,0.3,0,0.4,0c0.4,0,0.5-0.2,0.5-0.5c0-0.4-0.5-0.4-0.7-0.5c-0.4-0.1-0.6-0.1-0.7-0.2
	c-0.1-0.1-0.2-0.3-0.3-0.5c-0.1-0.2-0.1-0.5-0.1-1.5v-6c0-1.5,0.3-1.8,0.5-1.8l0.4-0.2c0.4-0.1,0.4-0.4,0.4-0.5
	C526.6,30.4,526.4,30.1,526.1,30.1 M526.1,30.4c0.2,0,0.2,0.1,0.2,0.2s-0.1,0.2-0.2,0.2l-0.4,0.2c-0.4,0.2-0.6,0.8-0.6,2.1v6.4
	c0,0.8,0,1.3,0.1,1.6c0.1,0.3,0.3,0.5,0.4,0.6c0.2,0.1,0.4,0.2,0.8,0.3c0.3,0,0.4,0.1,0.4,0.2s-0.1,0.2-0.3,0.2c-0.1,0-0.2,0-0.3,0
	c-0.2,0-0.5,0-0.9,0h-1.2l-1,0.1c-0.2,0-0.3,0-0.4,0c-0.2,0-0.2-0.1-0.2-0.2s0.1-0.2,0.3-0.2c0.4-0.1,0.7-0.2,0.8-0.5
	c0.1-0.2,0.2-0.7,0.2-1.4v-7.4c0-0.7-0.1-1.2-0.2-1.4c-0.2-0.2-0.5-0.4-1-0.5c-0.2,0-0.3-0.1-0.3-0.2s0.1-0.2,0.3-0.2
	c0,0,0.1,0,0.2,0c0.4,0.1,1,0.1,1.7,0.1c0.4,0,0.8,0,1.1,0h0.6C526,30.4,526,30.4,526.1,30.4"/>
<path class="st0" d="M533.8,32.7l-1.7,3.7c-0.1,0.2-0.1,0.3-0.1,0.3c0,0.1,0.1,0.1,0.3,0.1h0.2h2.6c0.1,0,0.3,0,0.3-0.1
	c0,0,0-0.1,0-0.2v-0.2l-1.4-3.6C533.9,32.7,533.8,32.7,533.8,32.7L533.8,32.7 M530.8,42.5H530c-0.3,0-0.6,0-0.9,0
	c-0.2,0-0.3,0-0.4,0c-0.3,0-0.5,0-0.5,0c-0.3,0-0.4-0.2-0.4-0.3c0-0.2,0.1-0.3,0.2-0.3l0.3-0.1c0,0,0.2-0.1,0.4-0.4
	c0.2-0.2,0.3-0.5,0.5-0.7l0.2-0.6l4.4-9.8c0-0.1,0.1-0.3,0.4-0.3c0.1,0,0.3,0.1,0.4,0.3l3.7,9.5l0.2,0.5c0.3,0.8,0.5,1.1,0.6,1.3
	c0.2,0.2,0.5,0.3,1,0.4c0.3,0.1,0.4,0.2,0.4,0.3c0,0.1-0.1,0.3-0.4,0.3c0,0-0.1,0-0.3,0c-0.3,0-0.8,0-1.6,0c-0.8,0-1.3,0-1.5,0
	c-0.1,0-0.2,0-0.3,0c-0.3,0-0.4-0.2-0.4-0.3c0-0.1,0-0.3,0.3-0.3l0.3-0.1c0.2,0,0.3-0.1,0.3-0.5c0-0.3-0.2-0.9-0.5-1.8l-0.4-1.1
	c-0.2-0.4-0.2-0.5-0.2-0.5s-0.1,0-0.5,0h-3.1c-0.5,0-0.7,0.1-0.7,0.1s-0.1,0.1-0.4,0.6l-0.6,1.3c-0.2,0.6-0.4,1-0.4,1.2
	s0.1,0.4,0.2,0.5c0.1,0.1,0.3,0.2,0.7,0.3c0.3,0.1,0.4,0.2,0.4,0.3c0,0.1,0,0.1-0.1,0.2s-0.2,0.1-0.3,0.1L530.8,42.5z"/>
<path class="st0" d="M532.2,36.7c0,0,0-0.1,0.1-0.2l1.6-3.5v0.1l1.4,3.4v0.1v0.1c0,0-0.1,0-0.2,0h-2.6H532.2
	C532.2,36.7,532.2,36.7,532.2,36.7 M534.3,29.8c-0.2,0-0.4,0.1-0.5,0.4l-4.4,9.8l-0.2,0.6c-0.1,0.2-0.3,0.5-0.4,0.7
	c-0.2,0.3-0.3,0.3-0.3,0.3l-0.3,0.1c-0.2,0.1-0.3,0.2-0.3,0.4c0,0.2,0.1,0.4,0.5,0.4c0,0,0.2,0,0.5,0c0.1,0,0.2,0,0.4,0
	c0.4,0,0.7,0,0.9,0h0.8h0.1c0.1,0,0.2,0,0.2,0c0.2,0,0.3,0,0.4-0.1c0.1-0.1,0.1-0.2,0.1-0.3c0-0.1-0.1-0.4-0.5-0.4
	c-0.4-0.1-0.6-0.2-0.7-0.2c-0.1-0.1-0.1-0.3-0.1-0.4c0-0.2,0.1-0.5,0.4-1.2l0.6-1.3c0.2-0.5,0.3-0.6,0.3-0.6s0.1-0.1,0.6-0.1h3.1
	c0.3,0,0.4,0,0.4,0s0.1,0.2,0.2,0.4l0.4,1.1c0.4,1.1,0.5,1.5,0.5,1.7c0,0.3-0.1,0.3-0.2,0.3l-0.3,0.1c-0.4,0.1-0.4,0.3-0.4,0.4
	c0,0.2,0.1,0.4,0.5,0.4c0.1,0,0.2,0,0.3,0c0.1,0,0.5,0,1.4,0c0.8,0,1.3,0,1.6,0l0,0l0,0c0.2,0,0.3,0,0.3,0c0.5,0,0.5-0.3,0.5-0.4
	s0-0.4-0.5-0.5c-0.6-0.1-0.9-0.3-1-0.3c-0.1-0.1-0.3-0.3-0.6-1.2l-0.2-0.5l-3.7-9.5C534.6,29.9,534.4,29.8,534.3,29.8 M532.5,36.9
	h2.6c0.3,0,0.4-0.1,0.4-0.2c0,0,0-0.1,0-0.2v-0.2l-1.4-3.4l-0.1-0.2c-0.1-0.2-0.1-0.3-0.2-0.3l0,0c0,0-0.1,0.1-0.1,0.2l-1.7,3.7
	c-0.1,0.2-0.1,0.3-0.1,0.3c0,0.2,0.1,0.2,0.4,0.2L532.5,36.9z M534.3,30.1c0.1,0,0.2,0.1,0.2,0.2l3.7,9.5l0.2,0.5
	c0.3,0.7,0.5,1.1,0.7,1.3c0.2,0.2,0.5,0.3,1.1,0.4c0.2,0,0.3,0.1,0.3,0.2s-0.1,0.1-0.2,0.1c-0.1,0-0.2,0-0.3,0c-0.3,0-0.8,0-1.6,0
	c-0.8,0-1.3,0-1.5,0c-0.1,0-0.2,0-0.3,0c-0.1,0-0.2-0.1-0.2-0.2s0.1-0.2,0.2-0.2l0.3-0.1c0.3-0.1,0.4-0.3,0.4-0.6
	c0-0.3-0.2-0.9-0.5-1.8l-0.4-1.1c-0.1-0.3-0.2-0.5-0.3-0.5c-0.1,0-0.3-0.1-0.6-0.1h-3.1c-0.4,0-0.7,0-0.8,0.1s-0.2,0.3-0.4,0.7
	l-0.6,1.3c-0.3,0.6-0.4,1-0.4,1.3s0.1,0.5,0.2,0.6c0.1,0.1,0.4,0.2,0.8,0.3c0.2,0,0.3,0.1,0.3,0.2s-0.1,0.1-0.2,0.1
	c-0.1,0-0.2,0-0.3,0h-0.8c-0.3,0-0.6,0-1,0c-0.2,0-0.3,0-0.4,0c-0.3,0-0.5,0-0.5,0c-0.2,0-0.2-0.1-0.2-0.2s0-0.2,0.1-0.2l0.3-0.1
	c0.1,0,0.3-0.2,0.5-0.4c0.2-0.2,0.4-0.5,0.5-0.8l0.2-0.6l4.4-9.8C534.1,30.2,534.2,30.1,534.3,30.1"/>
</svg>
