<?xml version="1.0" encoding="utf-8"?>
<!-- Generator: Adobe Illustrator 19.0.0, SVG Export Plug-In . SVG Version: 6.00 Build 0)  -->
<svg version="1.1" id="Layer_1" xmlns="http://www.w3.org/2000/svg" xmlns:xlink="http://www.w3.org/1999/xlink" x="0px" y="0px"
	 width="620px" height="120px" viewBox="0 0 620 120" style="enable-background:new 0 0 620 120;" xml:space="preserve">
<style type="text/css">
	.st0{fill:#FFFFFF;}
</style>
<path class="st0" d="M65.1,45.1c-1.7-1.3-3.6-2.3-5.6-3c-0.9-0.3-1.8-0.6-2.7-0.8c-1.4-0.3-2.8-0.4-4.3-0.4c-1.5,0-2.9,0.2-4.3,0.4
	c-0.9,0.2-1.9,0.4-2.7,0.8c-2,0.7-3.9,1.8-5.6,3l-0.1,0l-1.3-1l0-0.1c1.3-1,2.7-1.9,4.3-2.6c0.9-0.4,1.8-0.8,2.7-1.1
	c2.2-0.7,4.6-1.1,7-1.1c2.4,0,4.8,0.4,7,1.1c0.9,0.3,1.9,0.7,2.7,1.1c1.5,0.7,3,1.6,4.3,2.6l0,0.1L65.1,45.1L65.1,45.1z"/>
<path class="st0" d="M59.5,53.1c1.3-3.1,3.2-5.8,5.6-8c0.4-0.4,0.9-0.8,1.4-1.2c0.5,0.4,0.9,0.8,1.4,1.2c4.5,4.2,7.4,10.2,7.4,16.8
	c0,6.7-2.8,12.6-7.4,16.8c-0.2,0.2-0.5,0.4-0.7,0.6v-2.4c3.9-3.8,6.4-9.2,6.4-15.1c0-6.2-2.7-11.8-6.9-15.6l0,8.3l-3.4-3.4
	c-0.1,0.3-0.2,0.6-0.2,1v0.1c0,0.5,0.1,0.9,0.4,1.2c0.1,0.1,0.2,0.2,0.3,0.3l2.7,2.7v5.8l-4.9-4.9c-0.1,0.3-0.2,0.6-0.2,1v0.1
	c0,0.5,0.1,0.9,0.4,1.2c0.1,0.1,0.2,0.2,0.2,0.3l4.2,4.2v5.8l-4.7-4.7c-0.1,0.3-0.2,0.6-0.2,1v0.1c0,0.5,0.1,0.9,0.4,1.2
	c0.1,0.1,0.1,0.2,0.2,0.3l4,4v16.4h-2.2v-6.3c-0.4,0.2-0.7,0.4-1.1,0.5c-0.9,0.4-1.8,0.8-2.7,1.1c-2,0.7-4.1,1-6.4,1.1v-7.7
	c2.5-2.4,4.4-5.5,5.4-8.9c0.6-1.9,0.9-4,0.9-6.1c0-2.1-0.3-4.2-0.9-6.2c-1.1-3.7-3.2-6.9-6-9.5v0v8.2l-3.4-3.4
	c-0.1,0.3-0.2,0.6-0.2,1v0.1c0,0.5,0.1,0.9,0.4,1.2c0.1,0.1,0.1,0.2,0.2,0.3l2.7,2.6v5.8l-4.9-4.9c-0.1,0.3-0.2,0.6-0.2,1v0.1
	c0,0.5,0.1,0.9,0.4,1.2c0.1,0.1,0.1,0.2,0.3,0.3l4.2,4.2v5.8l-4.7-4.7c-0.1,0.3-0.2,0.6-0.2,1v0.1c0,0.5,0.1,0.9,0.4,1.2
	c0.1,0.1,0.2,0.2,0.3,0.3l4,4V93h-2.3v-8.6c-1.3-0.2-2.6-0.5-3.8-0.9c-0.9-0.3-1.9-0.7-2.7-1.1c-1.3-0.6-2.5-1.3-3.6-2.1v-3.4
	c2.5-2.4,4.4-5.5,5.4-8.9c0.6-1.9,0.9-4,0.9-6.1c0-2.1-0.3-4.2-0.9-6.2c-1.1-3.7-3.2-7-6-9.5v8.2l-3.4-3.4c-0.1,0.3-0.2,0.6-0.2,1
	v0.1c0,0.5,0.1,0.9,0.4,1.2c0.1,0.1,0.1,0.2,0.2,0.3l2.6,2.6v5.8l-4.9-4.9c-0.1,0.3-0.2,0.6-0.2,1v0.1c0,0.5,0.1,0.9,0.4,1.2
	c0.1,0.1,0.2,0.2,0.3,0.3l4.2,4.2v5.8l-4.7-4.7c-0.1,0.3-0.2,0.6-0.2,1v0.1c0,0.5,0.1,0.9,0.4,1.2c0.1,0.1,0.2,0.2,0.2,0.3l4,4v16.5
	h-2.3V76.8c-3.5-4-5.6-9.2-5.6-14.9c0-6.7,2.9-12.6,7.4-16.8c0.4-0.4,0.9-0.8,1.4-1.2c0.5,0.4,0.9,0.8,1.4,1.2c2.4,2.2,4.4,5,5.6,8
	l0,0l0-0.1c1.2-2.9,3.1-5.5,5.3-7.7c0.1-0.1,0.2-0.2,0.3-0.3c0.4-0.4,0.9-0.8,1.4-1.2c0.5,0.4,0.9,0.8,1.4,1.2
	C56.2,47.3,58.2,50,59.5,53.1"/>
<path class="st0" d="M89.7,51.1c0.7,0.1,1.4,0.1,1.6,0.1c1.2,0,2-0.3,2.5-0.8c0.4-0.4,0.7-1.1,0.7-1.7c0-0.6-0.3-1.5-1.1-2.1
	c-0.6-0.4-1.3-0.5-1.9-0.5c-1,0-1.2,0.1-1.3,1.1l-0.4,3.2C89.7,50.8,89.7,50.9,89.7,51.1 M89.4,52.9c-0.1,0.8-0.2,1.8-0.2,2
	c-0.1,0.7-0.2,1.8-0.2,2.1c0,0.6,0.4,0.9,1.6,0.9c0.5,0,1.8,0,2.8-0.8c0.7-0.6,1.1-1.4,1.1-2.3c0-2.5-2.4-2.9-4.7-2.9
	c-0.2,0-0.2,0-0.2,0.1v0C89.5,52,89.5,52.4,89.4,52.9 M91.1,58.6c-0.2,0-0.9,0-1.5-0.1c-0.3,0-0.6,0-0.8,0c-0.3,0-0.5,0-0.6,0
	c-0.2,0-0.7,0-1.1,0.1c-0.4,0-0.7,0-0.8,0c-0.1,0-0.4,0-0.4-0.4c0-0.3,0.2-0.4,0.4-0.4c1.1,0,1.2-1.2,1.3-2.2l0.1-1
	c0.2-2.3,0.5-4.6,0.7-6.5c0-0.4,0.1-0.7,0.1-1c0-0.3,0-0.4-0.3-0.7c-0.2-0.2-0.4-0.3-0.9-0.3c-0.3,0-0.5,0-0.5-0.4
	c0-0.3,0.2-0.4,0.5-0.4c0.1,0,0.5,0,0.9,0.1l0.5,0c0.2,0,0.3,0,0.4,0c0.2,0,0.8,0,1.4-0.1l0.1,0c0.6,0,1.1,0,1.3,0
	c1,0,2.2,0.1,3.1,0.8c0.7,0.6,1.1,1.4,1.1,2.3c0,1.6-1.1,2.4-1.5,2.7c-0.3,0.2-0.5,0.3-1.1,0.4c1.8,0.3,2.8,1.3,2.8,2.8
	C96.2,57.2,93.6,58.6,91.1,58.6"/>
<path class="st0" d="M89.7,52C89.7,52,89.7,52,89.7,52c2.3,0,4.7,0.3,4.7,2.7c0,0.3,0,1.3-1,2.2c-0.9,0.7-2.2,0.7-2.7,0.7
	c-1.4,0-1.5-0.4-1.5-0.7c0-0.2,0.1-1.3,0.2-2.1c0-0.2,0.1-1.3,0.2-2C89.6,52.3,89.7,52.1,89.7,52C89.7,52,89.7,52,89.7,52 M89.8,51
	c0-0.1,0-0.2,0-0.5l0-0.2l0.4-3c0.1-0.9,0.2-1,1.1-1c0.8,0,1.3,0.1,1.9,0.4c1,0.7,1.1,1.8,1.1,2c0,0.6-0.3,1.2-0.6,1.6
	c-0.5,0.5-1.3,0.7-2.4,0.7C91.1,51,90.4,51,89.8,51 M87.3,45.2c-0.6,0-0.7,0.3-0.7,0.5c0,0.5,0.4,0.5,0.7,0.5c0.5,0,0.6,0.1,0.8,0.3
	c0.2,0.3,0.2,0.4,0.2,0.6c0,0.3,0,0.6-0.1,0.9l0,0.1c-0.3,1.9-0.5,4.3-0.7,6.5l-0.1,1c-0.1,1.2-0.3,2.1-1.2,2.1h0
	c-0.1,0-0.5,0-0.5,0.5c0,0.2,0.1,0.5,0.6,0.5c0.1,0,0.4,0,0.8,0c0.4,0,0.9-0.1,1.1-0.1c0.1,0,0.3,0,0.6,0c0.3,0,0.6,0,0.9,0
	c0.4,0,1.2,0.1,1.5,0.1c3,0,5.2-1.9,5.2-4.3c0-1-0.4-2.3-2.4-2.9c0.3-0.1,0.4-0.2,0.7-0.3c0.5-0.3,1.6-1.1,1.6-2.8
	c0-0.9-0.4-1.8-1.1-2.4c-0.9-0.7-2.1-0.8-3.2-0.8c-0.2,0-0.7,0-1.3,0l-0.1,0c-0.6,0-1.2,0.1-1.4,0.1c-0.1,0-0.2,0-0.4,0
	c-0.2,0-0.3,0-0.5,0C87.9,45.3,87.5,45.2,87.3,45.2 M90.6,57.9c0.7,0,1.9-0.1,2.8-0.8c1.1-0.9,1.1-2.1,1.1-2.4c0-2.7-2.6-3-4.9-3
	c-0.2,0-0.3,0.1-0.3,0.2c0,0-0.3,2.6-0.3,2.9c-0.1,0.7-0.2,1.8-0.2,2.1C88.9,57.7,89.5,57.9,90.6,57.9 M91.3,51.3c1,0,2-0.2,2.6-0.8
	c0.4-0.4,0.7-1.2,0.7-1.8c0-0.6-0.2-1.6-1.2-2.2c-0.6-0.4-1.3-0.5-2-0.5c-1.1,0-1.3,0.2-1.4,1.2l-0.4,3c-0.1,0.6-0.1,0.7-0.1,1
	C90.3,51.3,91,51.3,91.3,51.3 M87.3,45.5c0.1,0,0.5,0,0.9,0.1c0.4,0,0.8,0.1,0.9,0.1c0.2,0,0.8,0,1.4-0.1c0.6,0,1.2,0,1.4,0
	c1.1,0,2.2,0.1,3,0.8c1,0.8,1,1.8,1,2.2c0,1.5-1,2.3-1.5,2.6c-0.4,0.2-0.6,0.3-1.6,0.5v0c2.1,0.2,3.2,1.2,3.2,2.8
	c0,2.5-2.4,4.1-5,4.1c-0.2,0-0.9,0-1.5-0.1c-0.6,0-1.3-0.1-1.5-0.1c-0.3,0-1.7,0.1-1.8,0.1c-0.2,0-0.3-0.1-0.3-0.2
	c0-0.2,0.1-0.2,0.3-0.2c1.2,0,1.3-1.3,1.5-2.3c0.3-2.5,0.5-5.3,0.8-7.5c0-0.3,0.1-0.7,0.1-1c0-0.3-0.1-0.5-0.3-0.8
	c-0.2-0.2-0.4-0.4-1-0.4c-0.3,0-0.4,0-0.4-0.2C86.9,45.7,86.9,45.5,87.3,45.5"/>
<path class="st0" d="M102.7,51.1c-1.6,0-2.7,2.2-2.7,4.3c0,1.3,0.5,2.6,1.7,2.6c1.8,0,2.5-2.8,2.5-4.6
	C104.3,52,103.7,51.1,102.7,51.1 M101.8,58.7c-1.1,0-1.8-0.3-2.4-0.8c-0.9-0.9-0.9-2.1-0.9-2.4c0-2.1,1.5-5.1,4.2-5.1
	c2.3,0,3.2,1.6,3.2,3.1C105.8,55.6,104.5,58.7,101.8,58.7"/>
<path class="st0" d="M101.8,57.9c-1.5,0-1.6-1.9-1.6-2.5c0-2,1-4.2,2.5-4.2c0.9,0,1.4,0.9,1.4,2.3C104.1,55.3,103.4,57.9,101.8,57.9
	 M102.7,50.3c-2.8,0-4.3,3-4.3,5.2c0,0.2,0,1.5,1,2.5c0.6,0.6,1.4,0.9,2.5,0.9c2.8,0,4.2-3.2,4.2-5.3
	C105.9,52.1,105.1,50.3,102.7,50.3 M101.8,58.2c1.9,0,2.6-2.9,2.6-4.7c0-1.6-0.7-2.5-1.7-2.5c-1.8,0-2.8,2.4-2.8,4.4
	C99.9,57,100.5,58.2,101.8,58.2 M102.7,50.6c2.2,0,3,1.5,3,2.9c0,2.1-1.3,5.1-3.9,5.1c-1.1,0-1.8-0.3-2.3-0.8
	c-0.8-0.8-0.9-1.9-0.9-2.3C98.6,53.5,100,50.6,102.7,50.6"/>
<path class="st0" d="M109.3,58.7c-0.8,0-1.3-0.6-1.3-1.8c0-0.3,0-0.5,0-0.7c0-0.1,0-0.2,0-0.2l0.7-4.4c0,0-0.7,0-0.7,0
	c-0.1,0-0.5,0-0.5-0.2c0-0.2,0.3-0.3,0.4-0.4c0.6-0.2,1.1-0.5,1.9-1.8c0.2-0.3,0.3-0.5,0.4-0.5c0.1,0,0.2,0,0.2,0.2
	c0,0.1,0,0.3,0,0.4l-0.2,1.4c0,0.1,0,0.1,0,0.1c0,0,0,0,0,0c0,0,0,0,0.1,0c0.5,0,0.9,0,1,0h0.1c0.5,0,0.8,0,0.8,0.4
	c0,0.1,0,0.3-0.1,0.3c-0.1,0.1-0.4,0.2-1,0.2l-1,0c-0.1,0-0.1,0-0.1,0.3l-0.6,3.9c-0.1,0.4-0.1,0.7-0.1,1.1c0,0.8,0.4,0.8,0.6,0.8
	c0.4,0,0.8-0.2,1.4-0.7c0.2-0.2,0.3-0.3,0.4-0.3c0.1,0,0.2,0.1,0.2,0.2C112,57.4,110.5,58.7,109.3,58.7"/>
<path class="st0" d="M110.4,48.5c-0.2,0-0.3,0.2-0.5,0.5l0,0c-0.8,1.3-1.3,1.6-1.8,1.8c-0.1,0-0.5,0.2-0.5,0.5
	c0,0.2,0.2,0.4,0.6,0.4l0.5,0L108,56c0,0.1,0,0.2,0,0.2c0,0.2,0,0.4,0,0.7c0,1.7,0.9,1.9,1.4,1.9c1.3,0,2.8-1.4,2.8-2
	c0-0.2-0.1-0.4-0.4-0.4c-0.1,0-0.3,0.1-0.5,0.3c-0.6,0.5-0.9,0.7-1.3,0.7c-0.1,0-0.4,0-0.4-0.6c0-0.3,0-0.7,0.1-1l0.6-3.9
	c0-0.1,0-0.1,0-0.1c0,0,0,0,0,0l1,0h0c0.6,0,0.9-0.1,1.1-0.2c0.2-0.1,0.2-0.3,0.2-0.4c0-0.6-0.4-0.6-1-0.6c-0.1,0-0.4,0-1,0l0.2-1.4
	c0-0.1,0-0.2,0-0.4C110.7,48.5,110.4,48.5,110.4,48.5 M110.4,48.8c0,0,0,0.1,0,0.1c0,0.1,0,0.3,0,0.3l-0.2,1.4c0,0.2,0,0.2,0.2,0.2
	c0.1,0,0.9,0,1,0c0.6,0,0.7,0,0.7,0.3c0,0.1,0,0.2-0.1,0.2c-0.1,0.1-0.7,0.1-0.9,0.1l-1,0c-0.2,0-0.2,0.1-0.3,0.4l-0.6,3.9
	c0,0.2-0.1,0.6-0.1,1.1c0,0.4,0.1,0.9,0.7,0.9c0.4,0,0.9-0.2,1.5-0.7c0.1-0.1,0.3-0.2,0.4-0.2c0.1,0,0.1,0.1,0.1,0.1
	c0,0.4-1.3,1.7-2.6,1.7c-1.1,0-1.1-1.2-1.1-1.6c0-0.4,0.1-0.7,0.1-0.9l0.7-4.6l-0.8-0.1c-0.1,0-0.3,0-0.3-0.1c0-0.1,0.2-0.2,0.3-0.2
	c0.6-0.3,1.2-0.6,2-1.9C110.1,49,110.3,48.8,110.4,48.8"/>
<path class="st0" d="M118.6,51.2c-2,0-3.7,3.1-3.7,5c0,0.4,0.1,1.4,1.3,1.4c1.3,0,2.5-1.4,2.8-2.7l0.6-2.9c0-0.2,0-0.4-0.1-0.5
	C119.3,51.3,119,51.2,118.6,51.2 M119.7,58.7c-0.6,0-0.8-0.9-0.9-2.1c-0.5,0.7-1.7,2.1-3.4,2.1c-1.4,0-1.9-1.2-1.9-2.3
	c0-2.9,3.1-5.9,5.2-5.9c0.3,0,0.6,0.1,1.1,0.2c0.1,0,0.2,0.1,0.3,0.1c0.1,0,0.3-0.2,0.5-0.6c0.2-0.3,0.3-0.5,0.4-0.5
	c0,0,0.2,0,0.2,0.3c0,0.1,0,0.2,0,0.3c0,0.1,0,0.1,0,0.1l0,0.2c-0.1,0.5-0.4,1.6-0.4,1.9l-0.5,2.6c0,0.2-0.1,1-0.1,1.4
	c0,0.5,0.2,1,0.4,1c0.2,0,0.5-0.3,0.7-0.6c0.6-0.7,0.7-0.8,0.8-0.8c0.2,0,0.2,0.2,0.2,0.3C122.3,56.7,120.8,58.7,119.7,58.7"/>
<path class="st0" d="M116.2,57.4c-1,0-1.1-0.8-1.1-1.2c0-1.8,1.7-4.9,3.6-4.9c0.3,0,0.6,0.1,0.7,0.2c0.1,0.1,0.1,0.2,0.1,0.4
	l-0.6,2.9C118.6,56,117.4,57.4,116.2,57.4 M121,49.5c-0.2,0-0.4,0.2-0.5,0.5l0,0l0,0c-0.2,0.4-0.4,0.5-0.4,0.5c0,0-0.2,0-0.2-0.1
	c-0.5-0.2-0.8-0.2-1.2-0.2c-2.2,0-5.4,3.1-5.4,6.1c0,1.2,0.6,2.4,2,2.4c1.7,0,2.8-1.1,3.4-1.9c0.2,1.1,0.4,1.9,1,1.9
	c1.1,0,2.7-2.1,2.7-2.6c0-0.2-0.1-0.4-0.3-0.4c-0.2,0-0.3,0.1-0.9,0.8c-0.3,0.3-0.5,0.5-0.6,0.5c-0.1,0-0.3-0.3-0.3-0.9
	c0-0.4,0.1-1.2,0.1-1.3l0.5-2.6c0.1-0.2,0.3-1.4,0.4-1.9l0-0.1l0,0v0c0,0,0-0.1,0-0.1c0-0.1,0-0.2,0-0.3
	C121.4,49.7,121.2,49.5,121,49.5 M116.2,57.7c1.3,0,2.6-1.4,2.9-2.8l0.6-2.9c0.1-0.6-0.4-0.9-1-0.9c-2,0-3.8,3.2-3.8,5.1
	C114.8,56.9,115.2,57.7,116.2,57.7 M121,49.8c0.1,0,0.1,0.1,0.1,0.2c0,0.1-0.1,0.3-0.1,0.4c-0.1,0.4-0.4,1.7-0.5,2l-0.5,2.6
	c0,0.1-0.1,1-0.1,1.4c0,0.5,0.2,1.1,0.5,1.1c0.3,0,0.7-0.4,0.8-0.6c0.6-0.6,0.6-0.7,0.7-0.7c0.1,0,0.1,0.1,0.1,0.1
	c0,0.4-1.5,2.3-2.4,2.3c-0.5,0-0.7-1.1-0.8-2.3c-0.4,0.6-1.5,2.3-3.5,2.3c-1.4,0-1.8-1.4-1.8-2.2c0-2.9,3.1-5.8,5.1-5.8
	c0.3,0,0.7,0.1,1.1,0.2c0.1,0,0.2,0.1,0.3,0.1c0.3,0,0.6-0.6,0.6-0.7C120.8,50.1,120.9,49.8,121,49.8"/>
<path class="st0" d="M130.5,58.7c-0.5,0-0.8-0.4-0.8-1c0-0.4,0.2-2.4,0.2-2.5l0.1-0.9c0-0.4,0.1-0.8,0.1-1.3c0-0.3-0.1-1.7-1.1-1.7
	c-0.8,0-1.8,1.1-2.2,3.4l-0.4,2.5c-0.2,1.3-0.3,1.4-0.8,1.4c-0.5,0-0.7-0.1-0.7-0.3c0-0.1,0-0.3,0.1-0.7l0.6-3.8
	c0-0.2,0.1-0.7,0.1-1c0-0.4-0.1-0.9-0.4-0.9c-0.3,0-0.5,0.5-0.6,0.7c-0.1,0.2-0.2,0.4-0.3,0.4c-0.2,0-0.3-0.2-0.3-0.4
	c0-0.5,0.8-2.1,1.8-2.1c0.7,0,0.9,1.1,0.9,1.9c1-1.2,2-1.9,3.2-1.9c0.6,0,1.1,0.3,1.3,1c0.2,0.4,0.2,1.2,0.2,2.3l-0.2,2
	c0,0.4-0.1,0.8-0.1,1.2c0,0.6,0.2,0.6,0.2,0.6c0.2,0,0.3,0,0.4-0.1c0.1-0.1,0.5-0.5,0.7-0.7c0.1-0.1,0.2-0.2,0.2-0.2l0.2-0.2
	l0.1,0.4C132.8,57.2,131.6,58.7,130.5,58.7"/>
<path class="st0" d="M125.7,50.3c-1,0-1.9,1.7-1.9,2.3c0,0.2,0.1,0.5,0.4,0.5c0.3,0,0.4-0.3,0.5-0.5c0.1-0.4,0.3-0.6,0.5-0.6
	c0.2,0,0.3,0.3,0.3,0.8c0,0.3,0,0.8-0.1,1l-0.6,3.8c-0.1,0.4-0.1,0.6-0.1,0.7c0,0.4,0.4,0.5,0.8,0.5c0.7,0,0.8-0.3,0.9-1.5l0.4-2.5
	c0.4-2.3,1.3-3.3,2.1-3.3c0.9,0,0.9,1.3,0.9,1.6c0,0.4,0,0.9-0.1,1.2l-0.1,0.9c0,0-0.2,2-0.2,2.5c0,0.7,0.3,1.2,0.9,1.2
	c1.1,0,2.4-1.5,2.4-2.1v0l0,0l0-0.1l-0.1-0.4l-0.3,0.3c0,0-0.1,0.1-0.2,0.2c-0.2,0.2-0.6,0.6-0.7,0.7c-0.1,0.1-0.2,0.1-0.3,0.1
	c0,0-0.1-0.1-0.1-0.4c0-0.4,0-0.8,0.1-1.2l0.2-1.9l0-0.1c0-0.8,0-1.8-0.2-2.4c-0.3-0.7-0.8-1.1-1.4-1.1c-1.1,0-2.1,0.6-3.1,1.7
	C126.7,51.3,126.5,50.3,125.7,50.3 M125.7,50.6c0.7,0,0.7,1.4,0.7,2.1h0c0.8-1.1,1.9-2.1,3.3-2.1c0.7,0,1,0.4,1.2,0.9
	c0.3,0.7,0.2,2.2,0.2,2.3l-0.2,1.9c0,0.4-0.1,0.8-0.1,1.2c0,0.4,0.1,0.7,0.4,0.7c0.2,0,0.3-0.1,0.5-0.2c0.2-0.1,0.8-0.8,0.9-0.9
	l0,0.1c0,0.4-1.2,1.9-2.2,1.9c-0.6,0-0.7-0.7-0.7-0.9c0-0.4,0.1-2,0.2-2.5l0.1-0.9c0.1-0.4,0.1-0.8,0.1-1.3c0-0.8-0.3-1.9-1.2-1.9
	c-0.8,0-1.9,1-2.3,3.5l-0.4,2.5c-0.2,1.3-0.3,1.3-0.7,1.3c-0.6,0-0.6-0.1-0.6-0.2c0-0.1,0-0.3,0.1-0.7l0.6-3.8
	c0-0.2,0.1-0.8,0.1-1.1c0-0.2,0-1-0.5-1c-0.4,0-0.6,0.4-0.7,0.8c-0.1,0.2-0.1,0.3-0.2,0.3c-0.1,0-0.2-0.2-0.2-0.2
	C124.1,52.2,124.9,50.6,125.7,50.6"/>
<path class="st0" d="M137,48.7c-0.3,0-0.8-1-0.8-1.1c0-0.2,0.7-0.9,0.9-0.9c0.3,0,0.8,0.9,0.8,1c0,0.1-0.1,0.2-0.1,0.3l-0.3,0.3
	C137.4,48.5,137.2,48.7,137,48.7 M135.7,58.7c-0.5,0-0.6-0.9-0.6-1.4c0-0.9,0.1-1.4,0.8-5.4l0-0.2c0-0.1,0-0.1,0-0.2
	c0,0,0-0.1-0.1-0.2c-0.1-0.1-0.4-0.1-0.5-0.1c0,0-0.2,0-0.3,0c-0.1,0-0.2,0-0.3,0c-0.2,0-0.3-0.1-0.3-0.2c0-0.2,0.2-0.4,0.4-0.4
	c0.2,0,0.3,0,0.6,0l0.4,0l0.3-0.1c0.5-0.1,0.9-0.2,1-0.2c0.3,0,0.3,0.2,0.3,0.2c0,0.1-0.2,0.9-0.2,1l-0.7,3.9
	c-0.1,0.3-0.1,0.9-0.1,1.3c0,0.3,0.1,0.4,0.2,0.4c0.1,0,0.3-0.1,0.5-0.4c0,0,0.1-0.1,0.1-0.1c0.3-0.4,0.4-0.5,0.5-0.5
	c0.1,0,0.2,0.1,0.2,0.3C137.9,57.4,136.3,58.7,135.7,58.7"/>
<path class="st0" d="M137.1,50.3c-0.1,0-0.6,0.1-1.1,0.2c-0.1,0-0.3,0-0.3,0.1l-0.4,0c-0.3,0-0.4,0-0.6,0c-0.3,0-0.5,0.2-0.5,0.5
	c0,0.2,0.2,0.4,0.4,0.4c0,0,0.2,0,0.3,0c0.1,0,0.2,0,0.3,0c0.2,0,0.3,0,0.5,0.1c0,0,0,0,0,0c0,0.1,0,0.1,0,0.2l0,0.2
	c-0.7,4-0.8,4.5-0.8,5.4c0,0.1,0,1.5,0.8,1.5c0.7,0,2.4-1.3,2.4-2.3c0-0.3-0.2-0.4-0.3-0.4c-0.2,0-0.3,0.2-0.6,0.6
	c0,0-0.1,0.1-0.1,0.1l0,0c-0.3,0.3-0.4,0.3-0.4,0.3c0,0,0-0.1,0-0.3c0-0.4,0.1-1,0.1-1.2l0.7-3.9c0,0,0.2-0.9,0.2-1
	C137.5,50.5,137.4,50.3,137.1,50.3 M137.1,46.5c-0.3,0-1,0.9-1,1.1c0,0.1,0.4,1.2,0.9,1.2c0.1,0,0.3,0,0.6-0.5l0.2-0.2l0,0l0,0
	c0.1-0.1,0.2-0.2,0.2-0.4C138,47.5,137.5,46.5,137.1,46.5 M137.1,50.6c0.1,0,0.2,0,0.2,0.1c0,0-0.2,0.8-0.2,1l-0.7,3.9
	c-0.1,0.3-0.1,0.9-0.1,1.3c0,0.2,0,0.6,0.3,0.6c0.3,0,0.6-0.4,0.7-0.4c0.1-0.1,0.4-0.6,0.5-0.6c0,0,0.1,0,0.1,0.1
	c0,0.8-1.5,2.1-2.1,2.1c-0.4,0-0.5-0.8-0.5-1.3c0-0.8,0.1-1.3,0.8-5.4c0-0.2,0-0.3,0-0.4c0-0.1,0-0.1-0.1-0.2
	c-0.2-0.1-0.4-0.1-0.6-0.1c-0.1,0-0.5,0.1-0.6,0.1c-0.1,0-0.1,0-0.1-0.1c0-0.2,0.1-0.2,0.3-0.2c0.3,0,0.4,0,1-0.1
	C136,50.8,136.9,50.6,137.1,50.6 M137.1,46.8c0.2,0,0.6,0.8,0.6,0.9c0,0.1-0.1,0.2-0.1,0.3l-0.2,0.2c-0.1,0.1-0.3,0.4-0.4,0.4
	c-0.2,0-0.6-0.9-0.6-1C136.4,47.5,137,46.8,137.1,46.8"/>
<path class="st0" d="M142.8,58.7c-1.8,0-2.8-1.2-2.8-3.1c0-2.4,2-5.2,4.4-5.2c1.3,0,2.3,0.8,2.3,1.4c0,0.4-0.3,0.7-0.7,0.7
	c-0.3,0-0.4-0.1-0.5-0.2c-0.1-0.1-0.4-0.6-0.5-0.7c-0.4-0.3-0.7-0.5-1.1-0.5c-1.2,0-2.6,1.6-2.6,3.7c0,1.7,0.8,2.6,2.3,2.6
	c0.7,0,1.2-0.2,1.7-0.7c0,0,0,0,0.1-0.1c0.3-0.3,0.4-0.4,0.5-0.4c0.2,0,0.3,0.1,0.3,0.3C146.1,57.1,144.6,58.7,142.8,58.7"/>
<path class="st0" d="M144.3,50.3c-2.5,0-4.5,2.9-4.5,5.4c0,2,1.1,3.2,3,3.2c1.9,0,3.5-1.7,3.5-2.2c0-0.2-0.2-0.4-0.4-0.4
	c-0.2,0-0.3,0.1-0.6,0.5c0,0-0.1,0.1-0.1,0.1c-0.5,0.4-1,0.6-1.6,0.6c-1.4,0-2.2-0.9-2.2-2.4c0-2,1.3-3.6,2.4-3.6
	c0.3,0,0.7,0.2,1,0.5c0,0.1,0.4,0.5,0.4,0.6l0,0l0,0c0.1,0.1,0.3,0.3,0.6,0.3c0.5,0,0.9-0.4,0.9-0.9
	C146.8,51.2,145.7,50.3,144.3,50.3 M144.3,50.6c1.2,0,2.2,0.8,2.2,1.3c0,0.3-0.2,0.6-0.6,0.6c-0.2,0-0.3-0.1-0.4-0.2
	c-0.1-0.1-0.4-0.5-0.5-0.6c-0.6-0.5-1.1-0.5-1.2-0.5c-1.3,0-2.7,1.7-2.7,3.8c0,1.9,1.1,2.7,2.4,2.7c0.7,0,1.3-0.2,1.8-0.7
	c0.1-0.1,0.4-0.5,0.5-0.5c0.1,0,0.2,0.1,0.2,0.2c0,0.4-1.4,2-3.2,2c-1.8,0-2.7-1.2-2.7-2.9C140.1,53.3,142,50.6,144.3,50.6"/>
<path class="st0" d="M160.7,61.8c-0.7,0-1.6-0.4-1.6-1c0,0,0-0.1,0.2-0.4c0.1-0.1,0.1-0.2,0.1-0.3l0-0.1c0.2-0.4,0.2-0.5,0.4-0.5
	c0.4,0,0.4,0.4,0.4,0.5c0,0.8,0.5,1,0.7,1c0.4,0,0.6-0.7,0.7-1c0.1-0.2,0.3-1.5,0.3-1.8c0,0,0,0,0,0c-0.1,0-0.3,0.1-0.3,0.1
	c-0.8,0.3-1.6,0.5-3,0.5c-4,0-6.7-2.6-6.7-6.4c0-4,3.1-7.2,7-7.2c1.3,0,2.8,0.4,4.2,1.1c0.4,0.2,0.5,0.2,0.5,0.2c0,0,0,0,0.1-0.1
	c0.2-0.2,0.3-0.3,0.4-0.3c0.1,0,0.3,0,0.3,0.4c0,0.1,0,0.4,0,0.6c0,0.3,0,0.5,0,0.6c0,0.1,0,0.5,0.1,0.8c0,0.3,0.1,0.7,0.1,0.8
	c0,0.4-0.2,0.4-0.3,0.4c-0.3,0-0.4-0.3-0.4-0.6c-0.1-0.6-0.3-1-0.9-1.6c-1.1-1-2.6-1.6-4.3-1.6c-1.5,0-2.6,0.4-3.4,1.2
	c-1,1-1.5,2.5-1.5,4.6c0,4.2,2.6,6.1,5.2,6.1c1.4,0,2.7-0.6,3.1-1.1c0.3-0.5,0.5-2.9,0.5-3.8c0-0.4-0.7-0.6-1.1-0.6h-0.7
	c-0.2-0.1-0.3-0.3-0.3-0.4c0-0.1,0-0.3,0.4-0.3c0,0,0.1,0,0.3,0c0.6,0,2,0.1,2.3,0.1c0.1,0,0.4,0,0.8-0.1c0.3,0,0.6-0.1,0.7-0.1
	c0.2,0,0.2,0.1,0.2,0.3c0,0.2-0.1,0.3-0.4,0.4c-0.6,0.2-0.7,0.3-0.9,3.1c-0.2,2-0.4,3.5-0.7,4.3C162.7,61,161.7,61.8,160.7,61.8"/>
<path class="st0" d="M158.8,45.1c-4,0-7.1,3.2-7.1,7.3c0,3.9,2.8,6.6,6.9,6.6c1.4,0,2.2-0.2,3-0.5l0,0c0,0,0.1,0,0.2-0.1
	c0,0.4-0.2,1.4-0.2,1.6c-0.1,0.4-0.3,0.9-0.5,0.9c-0.1,0-0.5-0.2-0.6-0.9c0-0.4-0.2-0.6-0.5-0.6c-0.3,0-0.4,0.2-0.6,0.6l0,0.1l0,0
	l0,0c0,0-0.1,0.1-0.1,0.2c-0.2,0.4-0.2,0.4-0.2,0.5c0,0.6,0.9,1.1,1.7,1.1c1.1,0,2.2-0.8,2.5-1.9c0.3-0.8,0.5-2.3,0.7-4.3
	c0.3-2.8,0.3-2.9,0.8-3l0.1,0c0.4-0.1,0.5-0.2,0.5-0.5c0-0.3-0.2-0.5-0.4-0.5c-0.1,0-0.4,0-0.8,0.1c-0.3,0-0.6,0.1-0.8,0.1
	c-0.2,0-1.7-0.1-2.3-0.1c-0.2,0-0.3,0-0.3,0c-0.4,0-0.6,0.2-0.6,0.5c0,0.2,0.1,0.5,0.3,0.5l0,0h0h0.7c0.4,0,1,0.1,1,0.5
	c0,0.9-0.2,3.3-0.5,3.7c-0.3,0.5-1.6,1-3,1c-2.5,0-5.1-1.8-5.1-6c0-2,0.5-3.5,1.5-4.5c0.8-0.8,1.9-1.2,3.4-1.2
	c1.6,0,3.1,0.6,4.2,1.6c0.5,0.6,0.7,0.9,0.8,1.5c0,0.2,0.1,0.7,0.6,0.7c0.2,0,0.5-0.2,0.5-0.6c0-0.1,0-0.4-0.1-0.8
	c0-0.3-0.1-0.7-0.1-0.8c0-0.1,0-0.3,0-0.6c0-0.3,0-0.6,0-0.7c0-0.5-0.4-0.6-0.4-0.6c-0.2,0-0.4,0.1-0.5,0.3c0,0,0,0,0,0
	c-0.1,0-0.2-0.1-0.4-0.2C161.6,45.5,160,45.1,158.8,45.1 M158.8,45.3c0.4,0,2,0,4.2,1.1c0,0,0.5,0.3,0.6,0.3c0,0,0.1,0,0.2-0.1
	c0.1-0.2,0.2-0.2,0.3-0.2c0.1,0,0.2,0.1,0.2,0.3c0,0.2-0.1,1.1-0.1,1.2c0,0.3,0.1,1.4,0.1,1.6c0,0.2,0,0.3-0.2,0.3
	c-0.2,0-0.2-0.1-0.3-0.5c-0.1-0.7-0.3-1-0.9-1.7c-1.7-1.6-3.8-1.6-4.4-1.6c-1.3,0-2.6,0.3-3.5,1.3c-1.2,1.2-1.5,3-1.5,4.7
	c0,4.6,3,6.2,5.4,6.2c1.4,0,2.8-0.5,3.2-1.1c0.4-0.6,0.5-3.1,0.5-3.9c0-0.5-0.7-0.7-1.2-0.7h-0.7c-0.1,0-0.1-0.2-0.1-0.3
	c0-0.1,0.1-0.2,0.3-0.2c0,0,2.2,0.1,2.6,0.1c0.2,0,1.3-0.1,1.5-0.1c0.1,0,0.1,0.1,0.1,0.2c0,0.2,0,0.2-0.4,0.3
	c-0.7,0.2-0.7,0.4-1,3.2c-0.1,0.8-0.3,3.1-0.7,4.3c-0.3,0.9-1.3,1.7-2.2,1.7c-0.7,0-1.4-0.4-1.4-0.8c0,0,0.2-0.6,0.3-0.7
	c0.2-0.5,0.2-0.5,0.4-0.5c0.2,0,0.2,0.1,0.2,0.4c0,0.8,0.6,1.1,0.8,1.1c0.5,0,0.7-0.6,0.8-1.1c0.1-0.3,0.3-1.5,0.3-1.8
	c0-0.1,0-0.1-0.1-0.1c-0.1,0-0.4,0.1-0.5,0.1c-0.8,0.3-1.6,0.5-2.9,0.5c-3.8,0-6.6-2.4-6.6-6.3C151.9,48.3,155,45.3,158.8,45.3"/>
<path class="st0" d="M172,51.2c-2,0-3.7,3.1-3.7,5c0,0.4,0.1,1.4,1.3,1.4c1.3,0,2.5-1.4,2.8-2.7l0.6-2.9c0-0.2,0-0.4-0.1-0.5
	C172.7,51.3,172.4,51.2,172,51.2 M173.1,58.7c-0.6,0-0.7-0.9-0.9-2.1c-0.5,0.7-1.7,2.1-3.4,2.1c-1.4,0-1.9-1.2-1.9-2.3
	c0-2.9,3.1-5.9,5.2-5.9c0.3,0,0.6,0.1,1.1,0.2c0.1,0,0.2,0.1,0.3,0.1c0.1,0,0.4-0.3,0.5-0.6c0.2-0.3,0.3-0.5,0.4-0.5
	c0,0,0.2,0,0.2,0.3c0,0.1,0,0.2,0,0.3c0,0.1,0,0.1,0,0.1l-0.1,0.5c-0.1,0.6-0.3,1.4-0.4,1.6l-0.5,2.6c0,0.1-0.1,0.9-0.1,1.4
	c0,0.5,0.2,1,0.4,1c0.2,0,0.5-0.3,0.7-0.6c0.6-0.7,0.7-0.8,0.8-0.8c0.1,0,0.2,0.2,0.2,0.3C175.7,56.7,174.2,58.7,173.1,58.7"/>
<path class="st0" d="M169.6,57.4c-1,0-1.1-0.8-1.1-1.2c0-1.8,1.7-4.9,3.6-4.9c0.3,0,0.6,0.1,0.7,0.2c0.1,0.1,0.1,0.2,0.1,0.4
	l-0.6,2.9C172,56,170.8,57.4,169.6,57.4 M174.4,49.5c-0.2,0-0.4,0.2-0.5,0.5c-0.1,0.3-0.3,0.5-0.4,0.5c0,0-0.2,0-0.2-0.1
	c-0.5-0.2-0.8-0.2-1.1-0.2c-2.2,0-5.4,3.1-5.4,6.1c0,1.1,0.5,2.4,2,2.4c1.6,0,2.8-1.1,3.4-1.9c0.2,1.1,0.4,1.9,1,1.9
	c1.1,0,2.7-2.1,2.7-2.6c0-0.2-0.1-0.4-0.4-0.4c-0.2,0-0.3,0.1-0.9,0.8c-0.2,0.3-0.5,0.5-0.6,0.5c-0.1,0-0.3-0.3-0.3-0.9
	c0-0.4,0.1-1.2,0.1-1.3l0.5-2.6c0-0.2,0.2-1,0.4-1.6l0.1-0.4l0,0v0c0,0,0-0.1,0-0.1c0-0.1,0-0.2,0-0.3
	C174.8,49.7,174.6,49.5,174.4,49.5 M169.6,57.7c1.3,0,2.6-1.4,2.9-2.8l0.6-2.9c0.1-0.6-0.4-0.9-1-0.9c-2,0-3.8,3.2-3.8,5.1
	C168.2,56.9,168.6,57.7,169.6,57.7 M174.4,49.8c0.1,0,0.1,0.1,0.1,0.2c0,0.1-0.1,0.3-0.1,0.4c-0.1,0.4-0.4,1.7-0.5,2l-0.5,2.6
	c0,0.1-0.1,1-0.1,1.4c0,0.5,0.2,1.1,0.5,1.1c0.3,0,0.7-0.4,0.8-0.6c0.6-0.6,0.6-0.7,0.7-0.7c0.1,0,0.1,0.1,0.1,0.1
	c0,0.4-1.5,2.3-2.4,2.3c-0.5,0-0.7-1.1-0.8-2.3c-0.4,0.6-1.5,2.3-3.5,2.3c-1.4,0-1.8-1.4-1.8-2.2c0-2.9,3.1-5.8,5.1-5.8
	c0.3,0,0.6,0.1,1,0.2c0.1,0,0.2,0.1,0.3,0.1c0.3,0,0.6-0.6,0.6-0.7C174.2,50.1,174.3,49.8,174.4,49.8"/>
<path class="st0" d="M179.3,58.7c-0.5,0-0.8,0-0.8-0.3c0-0.1,0-0.3,0-0.5l0.5-3c0.1-0.4,0.1-1.2,0.1-1.8c0-0.6-0.1-1.3-0.6-1.3
	c-0.2,0-0.4,0.1-0.8,1.3c0,0-0.1,0.4-0.3,0.4c-0.3,0-0.3-0.4-0.3-0.4c0-1.3,0.7-2.7,1.7-2.7c0.9,0,1.1,1.2,1.1,2
	c0.7-1.3,1.5-2,2.3-2c0.6,0,0.8,0.4,0.8,0.7c0,0-0.1,1.6-0.6,1.6c-0.2,0-0.3-0.2-0.3-0.4c-0.1-0.5-0.3-0.7-0.6-0.7
	c-0.8,0-1.2,2.1-1.4,3L180,58C179.9,58.6,179.8,58.7,179.3,58.7"/>
<path class="st0" d="M182.6,50.3c-0.6,0-1.4,0.3-2.2,1.7c-0.1-0.8-0.4-1.7-1.2-1.7c-1.1,0-1.9,1.5-1.9,2.8c0,0.2,0.1,0.6,0.4,0.6
	c0.3,0,0.4-0.3,0.4-0.5c0.3-1.2,0.5-1.2,0.6-1.2c0.4,0,0.4,0.7,0.4,1.1c0,0.5-0.1,1.4-0.1,1.7l-0.5,3c0,0-0.1,0.3-0.1,0.5
	c0,0.4,0.4,0.4,0.9,0.4c0.6,0,0.7-0.3,0.7-0.8l0.5-3.3l0-0.1c0.1-0.8,0.5-2.9,1.2-2.9c0.3,0,0.4,0.1,0.5,0.5l0,0.1
	c0,0.1,0.1,0.4,0.4,0.4c0.7,0,0.7-1.7,0.7-1.7C183.5,50.8,183.4,50.3,182.6,50.3 M182.6,50.6c0.5,0,0.6,0.2,0.6,0.5
	c0,0.5-0.2,1.5-0.4,1.5c-0.1,0-0.2-0.2-0.2-0.3c-0.1-0.5-0.3-0.7-0.7-0.7c-1,0-1.3,2.2-1.5,3.2l-0.5,3.3c-0.1,0.5-0.1,0.6-0.5,0.6
	c-0.4,0-0.6,0-0.6-0.2c0-0.1,0-0.3,0-0.4l0.5-3c0.1-0.4,0.1-1.3,0.1-1.8c0-0.6-0.1-1.4-0.7-1.4c-0.3,0-0.6,0.3-0.9,1.4
	c0,0-0.1,0.3-0.2,0.3c-0.1,0-0.1-0.3-0.1-0.3c0-1.2,0.7-2.6,1.6-2.6c0.9,0,1,1.5,1,2.3h0C180.5,52.3,181.4,50.6,182.6,50.6"/>
<path class="st0" d="M189.1,51.1c-1.8,0-3.2,2.8-3.2,4.6c0,0.9,0.5,1.8,1.5,1.8c1.1,0,2.2-1.4,2.4-2.5l0.5-3.1c0-0.2,0-0.3-0.1-0.5
	C189.8,51.3,189.5,51.1,189.1,51.1 M190.6,58.7c-0.9,0-1-1.1-1-1.9c-0.5,0.8-1.5,1.9-2.9,1.9c-1.7,0-2.3-1.5-2.3-2.6
	c0-2.5,2.6-5.7,4.7-5.7c0.4,0,0.7,0.1,1.3,0.4c0.3-1.9,0.7-4.6,0.7-4.8c0-0.1,0-0.1,0-0.1c-0.1-0.1-0.6-0.1-0.9-0.1
	c-0.5,0-0.8,0-0.9-0.1c-0.1-0.1-0.1-0.1-0.1-0.2c0-0.2,0.1-0.3,0.3-0.3c0.2,0,2.5-0.3,2.6-0.3h0c0.2,0,0.3,0.1,0.3,0.3
	c0,0.2-0.1,0.8-0.2,1.5l-1.3,8.9c0,0.2-0.1,0.7-0.1,0.9c0,0.6,0.2,0.9,0.5,0.9c0.3,0,0.7-0.4,0.9-0.7c0.3-0.4,0.3-0.5,0.5-0.5
	c0.2,0,0.3,0.1,0.3,0.3C193,57,191.7,58.7,190.6,58.7"/>
<path class="st0" d="M187.3,57.4c-0.9,0-1.4-0.9-1.4-1.7c0-1.7,1.4-4.5,3.1-4.5c0.4,0,0.7,0.1,0.9,0.3c0.1,0.1,0.1,0.2,0.1,0.4
	l-0.5,3.1C189.4,56.1,188.4,57.4,187.3,57.4 M192.1,44.7L192.1,44.7L192.1,44.7c-0.3,0-2.3,0.2-2.6,0.3c-0.3,0-0.5,0.2-0.5,0.4
	c0,0.1,0,0.2,0.1,0.3c0.2,0.1,0.4,0.2,1,0.2c0.2,0,0.6,0,0.8,0.1c0,0,0,0,0,0.1c0,0.2-0.3,2.5-0.7,4.6c-0.5-0.3-0.8-0.3-1.2-0.3
	c-2.2,0-4.8,3.2-4.8,5.8c0,1.1,0.7,2.7,2.5,2.7c1.3,0,2.2-0.8,2.8-1.6c0.1,0.8,0.3,1.6,1.1,1.6c1.2,0,2.5-1.7,2.5-2.4
	c0-0.2-0.2-0.4-0.4-0.4c-0.3,0-0.4,0.1-0.6,0.5l0,0l0,0c-0.2,0.3-0.6,0.7-0.8,0.7c-0.2,0-0.3-0.3-0.3-0.8c0-0.2,0-0.7,0.1-0.8
	l1.3-8.8l0-0.2c0.1-0.8,0.2-1.4,0.2-1.6C192.6,44.9,192.4,44.7,192.1,44.7 M187.3,57.7c1.2,0,2.3-1.5,2.5-2.6l0.5-3.1
	c0.1-0.6-0.6-1-1.2-1c-1.8,0-3.4,2.8-3.4,4.7C185.7,56.7,186.3,57.7,187.3,57.7 M192.1,45c0.1,0,0.2,0,0.2,0.1
	c0,0.2-0.2,1.4-0.2,1.7l-1.3,8.7c0,0.2-0.1,0.7-0.1,0.9c0,0.8,0.3,1,0.6,1c0.4,0,0.9-0.5,1-0.8c0.2-0.4,0.3-0.4,0.4-0.4
	c0.1,0,0.1,0.1,0.1,0.2c0,0.5-1.3,2.2-2.3,2.2c-0.9,0-0.9-1.4-0.9-2.1h0c-0.3,0.6-1.3,2.1-3,2.1c-1.6,0-2.2-1.4-2.2-2.4
	c0-2.4,2.5-5.5,4.6-5.5c0.4,0,0.7,0.1,1.4,0.5c0.3-1.8,0.7-4.7,0.7-5c0-0.1,0-0.2-0.1-0.2c-0.2-0.1-0.6-0.1-1-0.1
	c-0.2,0-0.7,0-0.8-0.1c0,0,0,0,0-0.1c0-0.1,0.1-0.2,0.2-0.2C189.7,45.2,192.1,45,192.1,45"/>
<path class="st0" d="M198.7,51.2c-1.2,0-2,1-2.6,3.1c0.9-0.1,1.9-0.2,2.6-0.7c0.3-0.2,0.9-0.7,0.9-1.4
	C199.7,51.8,199.5,51.2,198.7,51.2 M197.4,58.7c-0.9,0-1.4-0.2-1.9-0.7c-0.7-0.7-0.8-1.7-0.8-2.2c0-2.2,1.6-5.4,4.4-5.4
	c0.4,0,1.9,0.1,1.9,1.4c0,0.5-0.2,2.8-5,3c0,0,0,0.1,0,0.1c0,0.1,0,0.3,0,0.4c0,1.6,1.2,2.3,2.3,2.3c0.6,0,1.1-0.2,1.6-0.5
	c0,0,0.1,0,0.1-0.1c0.3-0.3,0.4-0.3,0.5-0.3c0.2,0,0.3,0.1,0.3,0.3C200.8,57.5,199.2,58.7,197.4,58.7"/>
<path class="st0" d="M196.3,54.1c0.5-1.9,1.3-2.8,2.4-2.8c0.7,0,0.8,0.5,0.8,0.8c0,0.6-0.5,1.1-0.8,1.3
	C198,53.9,197.2,54,196.3,54.1 M199.1,50.3c-2.9,0-4.6,3.3-4.6,5.5c0,0.5,0.1,1.5,0.9,2.3c0.5,0.5,1,0.7,2,0.7
	c1.9,0,3.6-1.2,3.6-1.9c0-0.2-0.2-0.4-0.4-0.4c-0.1,0-0.3,0.1-0.6,0.4c0,0-0.1,0.1-0.1,0.1c-0.5,0.4-0.9,0.5-1.5,0.5
	c-1.1,0-2.2-0.7-2.2-2.1c0-0.1,0-0.3,0-0.4c4.7-0.3,5-2.7,5-3.2C201.1,50.9,200.4,50.3,199.1,50.3 M196,54.4c1-0.1,2.1-0.2,2.9-0.8
	c0.4-0.2,0.9-0.7,0.9-1.5c0-0.5-0.2-1.1-1.1-1.1C196.9,51,196.2,53.5,196,54.4 M199.1,50.6c0.6,0,1.8,0.1,1.8,1.3
	c0,0.4-0.2,2.7-5,2.9c0,0.1,0,0.4,0,0.6c0,1.7,1.3,2.4,2.5,2.4c0.6,0,1.1-0.1,1.7-0.6c0.1-0.1,0.4-0.4,0.5-0.4
	c0.1,0,0.1,0.1,0.1,0.1c0,0.5-1.4,1.6-3.3,1.6c-1,0-1.4-0.2-1.8-0.6c-0.7-0.7-0.8-1.7-0.8-2.1C194.8,53.8,196.3,50.6,199.1,50.6"/>
<path class="st0" d="M209.2,58.7c-0.5,0-0.8-0.4-0.8-1c0-0.4,0.1-2.1,0.2-2.5l0.1-0.9c0.1-0.5,0.1-0.9,0.1-1.3c0-0.8-0.3-1.7-1-1.7
	c-0.8,0-1.8,1.1-2.2,3.4l-0.4,2.5c-0.2,1.3-0.3,1.4-0.8,1.4c-0.5,0-0.7-0.1-0.7-0.3c0-0.1,0-0.3,0.1-0.7l0.6-3.8c0-0.2,0-0.8,0-1
	c0-0.4-0.1-0.9-0.4-0.9c-0.3,0-0.5,0.5-0.6,0.7c-0.1,0.2-0.2,0.4-0.3,0.4c-0.2,0-0.3-0.2-0.3-0.4c0-0.5,0.8-2.1,1.8-2.1
	c0.7,0,0.9,1.2,0.9,1.9c1-1.2,2-1.9,3.2-1.9c0.8,0,1.2,0.6,1.3,1c0.2,0.4,0.2,1.2,0.2,2.3l-0.2,2c0,0.4-0.1,0.8-0.1,1.2
	c0,0.6,0.2,0.6,0.2,0.6c0.2,0,0.3-0.1,0.4-0.1c0.1-0.1,0.4-0.4,0.6-0.6c0.1-0.1,0.2-0.2,0.3-0.3l0.2-0.2l0.1,0.4
	C211.5,57.2,210.3,58.7,209.2,58.7"/>
<path class="st0" d="M204.5,50.3c-1,0-1.9,1.7-1.9,2.3c0,0.2,0.1,0.5,0.4,0.5c0.3,0,0.4-0.3,0.5-0.5c0.1-0.3,0.3-0.6,0.5-0.6
	c0.2,0,0.3,0.3,0.3,0.8c0,0.3,0,0.8,0,1l-0.6,3.8c-0.1,0.4-0.1,0.6-0.1,0.7c0,0.4,0.4,0.5,0.8,0.5c0.7,0,0.7-0.3,0.9-1.5l0.4-2.5
	c0.4-2.3,1.3-3.3,2.1-3.3c0.9,0,0.9,1.4,0.9,1.6c0,0.4,0,0.8-0.1,1.2l-0.1,0.9c0,0.4-0.2,2.1-0.2,2.5c0,0.7,0.3,1.2,0.9,1.2
	c1.1,0,2.4-1.5,2.4-2.1v0l0,0l0-0.1l-0.1-0.4l-0.3,0.3c0,0-0.2,0.2-0.3,0.3c-0.2,0.2-0.5,0.6-0.6,0.6c-0.1,0.1-0.2,0.1-0.3,0.1
	c0,0-0.1-0.1-0.1-0.4c0-0.4,0-0.8,0.1-1.2l0.2-1.9l0-0.1c0-0.8,0-1.8-0.2-2.4c-0.3-0.7-0.8-1.1-1.4-1.1c-1.1,0-2.1,0.6-3.1,1.6
	C205.4,51.3,205.2,50.3,204.5,50.3 M204.5,50.6c0.7,0,0.7,1.4,0.7,2.1h0c0.8-1.1,1.9-2.1,3.3-2.1c0.6,0,1,0.4,1.2,0.9
	c0.3,0.7,0.2,2.2,0.2,2.3l-0.2,1.9c0,0.4-0.1,0.8-0.1,1.2c0,0.4,0.1,0.7,0.4,0.7c0.2,0,0.3-0.1,0.5-0.2c0.2-0.1,0.8-0.8,0.9-0.9
	l0,0.1c0,0.4-1.1,1.9-2.2,1.9c-0.6,0-0.6-0.7-0.6-0.9c0-0.4,0.1-2,0.2-2.5l0.1-0.9c0.1-0.4,0.1-0.8,0.1-1.3c0-0.8-0.3-1.9-1.2-1.9
	c-0.8,0-1.9,1-2.3,3.5l-0.4,2.5c-0.2,1.3-0.3,1.3-0.7,1.3c-0.6,0-0.6-0.1-0.6-0.2c0-0.1,0-0.3,0.1-0.7l0.6-3.8c0-0.2,0-0.8,0-1.1
	c0-0.2,0-1-0.5-1c-0.4,0-0.6,0.4-0.7,0.8c-0.1,0.2-0.1,0.3-0.2,0.3c-0.1,0-0.2-0.2-0.2-0.2C202.9,52.2,203.7,50.6,204.5,50.6"/>
<path class="st0" d="M215.2,58.7c-1.4,0-2.4-0.6-2.4-1.6c0-0.5,0.3-0.6,0.6-0.6c0.4,0,0.5,0.2,1,1c0.1,0.2,0.3,0.5,1,0.5
	c1,0,1.3-0.6,1.3-1.1c0-0.7-0.4-1.2-1.1-2c-1-1-1.5-1.7-1.5-2.6c0-1.2,1-2,2.4-2c1.1,0,1.9,0.5,1.9,1.2c0,0.4-0.3,0.6-0.6,0.6
	c-0.3,0-0.5-0.2-0.8-0.6c-0.2-0.4-0.5-0.6-0.9-0.6c-0.5,0-0.8,0.4-0.8,0.8c0,0.6,0.4,1.1,0.7,1.4c1.4,1.5,2,2.2,2,3.3
	C217.9,58.2,216.4,58.7,215.2,58.7"/>
<path class="st0" d="M216.4,50.3c-1.5,0-2.5,0.9-2.5,2.1c0,0.9,0.5,1.6,1.5,2.6c0.8,0.9,1.1,1.3,1.1,1.9c0,0.6-0.4,0.9-1.1,0.9
	c-0.6,0-0.7-0.2-0.8-0.4c-0.5-0.9-0.6-1.1-1.1-1.1c-0.3,0-0.7,0.2-0.7,0.7c0,0.8,0.8,1.7,2.5,1.7c1.3,0,2.8-0.6,2.8-2.3
	c0-1.2-0.6-1.8-2-3.3c-0.3-0.3-0.7-0.8-0.7-1.3c0-0.3,0.3-0.6,0.7-0.6c0.4,0,0.6,0.2,0.8,0.6c0.2,0.3,0.4,0.6,0.9,0.6
	c0.4,0,0.7-0.3,0.7-0.8C218.4,50.9,217.6,50.3,216.4,50.3 M216.4,50.6c1,0,1.7,0.5,1.7,1.1c0,0.3-0.2,0.5-0.5,0.5
	c-0.3,0-0.4-0.2-0.6-0.5c-0.3-0.4-0.5-0.7-1-0.7c-0.6,0-1,0.4-1,0.9c0,0.6,0.5,1.2,0.8,1.5c1.4,1.5,1.9,2.1,1.9,3.2
	c0,1.6-1.5,2.1-2.6,2.1c-1.4,0-2.2-0.6-2.2-1.4c0-0.4,0.2-0.5,0.4-0.5c0.4,0,0.4,0.1,0.9,0.9c0.1,0.3,0.3,0.6,1.1,0.6
	c1.2,0,1.4-0.7,1.4-1.2c0-0.7-0.4-1.3-1.2-2.1c-1-1-1.4-1.7-1.4-2.5C214.2,51.2,215.2,50.6,216.4,50.6"/>
<path class="st0" d="M228,51c-1.6,0-2.7,2.2-2.7,4.3c0,1.3,0.5,2.6,1.7,2.6c1.8,0,2.5-2.8,2.5-4.6C229.5,51.9,228.9,51,228,51
	 M227,58.6c-1.1,0-1.8-0.3-2.4-0.8c-0.9-0.9-0.9-2.1-0.9-2.4c0-2.1,1.5-5.1,4.2-5.1c2.3,0,3.2,1.6,3.2,3.1
	C231.1,55.5,229.8,58.6,227,58.6"/>
<path class="st0" d="M227,57.8c-1.5,0-1.6-1.9-1.6-2.5c0-2,1-4.2,2.5-4.2c0.9,0,1.4,0.9,1.4,2.3C229.4,55.2,228.7,57.8,227,57.8
	 M227.9,50.2c-2.8,0-4.3,3-4.3,5.2c0,0.4,0.1,1.6,1,2.5c0.6,0.6,1.4,0.9,2.5,0.9c2.8,0,4.2-3.2,4.2-5.3
	C231.2,51.9,230.3,50.2,227.9,50.2 M227,58.1c1.9,0,2.7-2.9,2.7-4.7c0-1.6-0.7-2.5-1.7-2.5c-1.7,0-2.8,2.4-2.8,4.4
	C225.2,56.9,225.8,58.1,227,58.1 M227.9,50.5c2.2,0,3,1.5,3,2.9c0,2.1-1.3,5.1-3.9,5.1c-1.1,0-1.8-0.3-2.3-0.8
	c-0.8-0.8-0.9-1.9-0.9-2.3C223.9,53.4,225.3,50.5,227.9,50.5"/>
<path class="st0" d="M231.5,61.9c-0.5,0-0.6-0.3-0.6-0.5c0,0,0.3-1.6,0.7-1.6c0.1,0,0.2,0.1,0.2,0.4c0,0.4,0.1,0.6,0.4,0.6
	c0.3,0,0.6-0.3,0.9-2.7c0,0,0.5-4.9,0.6-5.2c0.1-0.5,0.1-1.3,0.1-1.5c0,0-0.1-0.1-0.8-0.1l-0.4,0c-0.1,0-0.2,0-0.2,0h0
	c-0.3,0-0.3-0.2-0.3-0.4c0-0.3,0.1-0.4,0.4-0.4l1,0c0.2,0,0.4,0,0.6-0.1c0.3-1.5,0.7-3.5,2.2-5c0.6-0.6,1.2-0.8,1.9-0.8
	c0.6,0,0.9,0.2,0.9,0.5c0,0-0.2,1.6-0.5,1.6c-0.2,0-0.3-0.3-0.3-0.4c-0.1-0.2-0.2-0.3-0.3-0.4c-0.1-0.1-0.3-0.3-0.5-0.3
	c-1.4,0-1.8,3-2.1,4.8c1.2,0,1.3,0,1.6,0c0.2,0,0.4,0.2,0.4,0.4c0,0.4-0.3,0.4-0.6,0.4h-0.6c-0.2,0-0.4,0-0.5,0c-0.2,0-0.3,0-0.3,0
	c-0.1,0.1-0.2,1.2-0.2,1.6l-0.4,3.4c-0.3,2.9-0.7,3.7-1.5,4.6C232.8,61.3,232.2,61.9,231.5,61.9"/>
<path class="st0" d="M238.1,44.6c-0.8,0-1.3,0.3-2,0.9c-1.5,1.5-1.9,3.5-2.2,4.9c-0.2,0-0.4,0-0.5,0l-1,0c-0.5,0-0.5,0.3-0.5,0.6
	c0,0.4,0.2,0.6,0.5,0.6c0,0,0.1,0,0.2,0c0.1,0,0.2,0,0.3,0l0.1,0c0.4,0,0.6,0,0.7,0c0,0.2-0.1,0.9-0.1,1.4c0,0.3-0.1,0.6-0.1,0.7
	l-0.5,4.5c-0.2,1.7-0.4,2.6-0.7,2.6c-0.2,0-0.2-0.3-0.2-0.5c0-0.4-0.2-0.5-0.4-0.5c-0.5,0-0.8,1.7-0.8,1.7c0,0.1,0.1,0.6,0.8,0.6
	c0.7,0,1.4-0.6,1.6-0.8l0,0c0.9-0.9,1.2-1.7,1.5-4.7L235,53c0-0.3,0.1-1.2,0.2-1.5c0,0,0.1,0,0.2,0c0.1,0,0.3,0,0.5,0l0.6,0
	c0.2,0,0.7,0,0.7-0.6c0-0.3-0.2-0.4-0.5-0.5c-0.2,0-0.4,0-1.4,0c0.3-1.7,0.7-4.6,1.9-4.6c0.2,0,0.3,0.1,0.5,0.2
	c0.1,0.1,0.2,0.2,0.3,0.4c0,0.2,0.2,0.4,0.5,0.4c0.5,0,0.6-1.7,0.6-1.7C239.1,44.8,238.7,44.6,238.1,44.6 M238.1,44.9
	c0.3,0,0.8,0.1,0.8,0.4c0,0-0.2,1.4-0.4,1.4c-0.1,0-0.2-0.2-0.2-0.3c-0.1-0.2-0.2-0.4-0.3-0.5c-0.1-0.1-0.3-0.3-0.6-0.3
	c-1.5,0-2,3.2-2.2,5.1c1.3,0,1.4,0,1.7,0c0.2,0,0.2,0.1,0.2,0.2c0,0.3-0.1,0.3-0.4,0.3h-0.6c-0.2,0-0.4,0-0.5,0c-0.2,0-0.3,0-0.4,0
	c-0.1,0.1-0.3,1.5-0.3,1.7l-0.4,3.4c-0.3,2.8-0.6,3.6-1.5,4.5c-0.1,0.1-0.8,0.8-1.4,0.8c-0.1,0-0.5,0-0.5-0.3c0-0.1,0.4-1.4,0.6-1.4
	c0.1,0,0.1,0.2,0.1,0.3c0,0.5,0.2,0.8,0.5,0.8c0.4,0,0.8-0.5,1-2.8l0.5-4.6c0-0.2,0.2-1.9,0.2-2.1c0-0.1,0-0.1-0.1-0.2
	c-0.1,0-0.7,0-0.9,0c-0.1,0-0.3,0-0.4,0c-0.1,0-0.1,0-0.2,0c-0.1,0-0.2-0.1-0.2-0.3c0-0.3,0-0.3,0.3-0.3l1,0c0.2,0,0.5,0,0.7-0.1
	c0.3-1.5,0.7-3.5,2.2-5C236.9,45.1,237.4,44.9,238.1,44.9"/>
<path class="st0" d="M89.5,77.6c-0.5,0-1-0.1-1.5-0.2c-0.5-0.1-0.9-0.3-1.2-0.5c-0.1-0.1-0.2-0.2-0.3-0.3c0-0.1-0.1-0.4-0.2-0.6
	c0,0-0.1-0.3-0.2-0.8c-0.2-0.5-0.2-0.9-0.2-1.1c0-0.4,0.2-0.4,0.3-0.4c0.2,0,0.4,0.3,0.4,0.5c0.2,0.7,0.6,1.3,1.3,1.7
	c0.6,0.5,1.3,0.7,2.1,0.7c0.8,0,1.4-0.2,1.9-0.7c0.5-0.4,0.8-1,0.8-1.6c0-0.6-0.2-1.1-0.7-1.5c-0.2-0.1-0.7-0.4-2.2-0.9
	c-1.3-0.4-2.2-0.9-2.8-1.5c-0.6-0.5-0.8-1.3-0.8-2.1c0-1,0.4-1.8,1.1-2.4c0.7-0.6,1.6-0.9,2.8-0.9c0.6,0,1.2,0.1,1.6,0.3l0.6,0.2
	c0,0,0.1,0,0.1,0c0,0,0.1,0,0.1-0.1l0.1-0.1c0,0,0.1-0.1,0.2-0.1h0c0.1,0,0.3,0.1,0.3,0.6c0,0.1,0,0.4,0.1,0.8l0.1,0.9
	c0,0.2,0,0.3,0,0.4c0,0.4-0.2,0.4-0.3,0.4c-0.2,0-0.3-0.3-0.4-0.5c-0.2-0.6-0.6-1.1-1.2-1.5c-0.6-0.4-1.3-0.6-2-0.6
	c-0.6,0-1.1,0.2-1.5,0.5c-0.4,0.3-0.6,0.8-0.6,1.3c0,0.5,0.1,0.8,0.4,1.2c0.2,0.3,0.5,0.5,0.7,0.6c0.3,0.1,1,0.4,2,0.7
	c2.2,0.7,3.3,1.9,3.3,3.5c0,1.1-0.4,2-1.2,2.7C91.8,77.2,90.7,77.6,89.5,77.6"/>
<path class="st0" d="M90,65c-1.1,0-2.1,0.3-2.8,0.9c-0.7,0.6-1.1,1.5-1.1,2.5c0,0.9,0.3,1.7,0.9,2.2c0.6,0.6,1.5,1,2.8,1.5
	c1.6,0.5,2,0.8,2.1,0.9c0.4,0.4,0.7,0.9,0.7,1.4c0,0.6-0.2,1.1-0.7,1.5c-0.5,0.4-1.1,0.6-1.8,0.6c-0.7,0-1.4-0.2-2-0.7
	c-0.6-0.4-1-1-1.2-1.7c0-0.2-0.2-0.6-0.5-0.6h0c-0.2,0-0.4,0.1-0.4,0.5c0,0.2,0.1,0.6,0.2,1.2c0.1,0.5,0.2,0.7,0.2,0.8
	c0.1,0.3,0.1,0.5,0.2,0.6c0.1,0.1,0.2,0.2,0.3,0.3c0.3,0.2,0.7,0.3,1.2,0.5c0.5,0.1,1.1,0.2,1.5,0.2c1.3,0,2.3-0.4,3.2-1.1
	c0.8-0.7,1.3-1.7,1.3-2.8c0-1.7-1.1-2.9-3.4-3.7c-1.1-0.4-1.8-0.6-2-0.7c-0.2-0.1-0.5-0.3-0.7-0.6c-0.2-0.3-0.3-0.7-0.3-1.1
	c0-0.5,0.2-0.9,0.5-1.2c0.4-0.3,0.8-0.5,1.4-0.5c0.7,0,1.4,0.2,2,0.6c0.6,0.4,1,0.8,1.1,1.4c0.1,0.2,0.2,0.6,0.5,0.6
	c0.2,0,0.4-0.1,0.4-0.5c0-0.1,0-0.2,0-0.4l-0.1-0.9c-0.1-0.6-0.1-0.8-0.1-0.8c0-0.6-0.3-0.7-0.5-0.7c-0.1,0-0.2,0.1-0.3,0.1
	l-0.1,0.1c0,0,0,0,0,0c0,0,0,0,0,0l-0.6-0.3C91.2,65.1,90.7,65,90,65 M90,65.3c0.6,0,1.1,0.1,1.6,0.3l0.6,0.2c0.1,0,0.1,0,0.2,0
	c0.1,0,0.1,0,0.2-0.1l0.1-0.1c0,0,0.1,0,0.1,0c0,0,0,0,0,0c0.1,0,0.2,0.1,0.2,0.4c0,0.1,0,0.4,0.1,0.9l0.1,0.9c0,0.2,0,0.3,0,0.3
	c0,0.2-0.1,0.3-0.2,0.3c-0.1,0-0.2-0.1-0.3-0.4c-0.2-0.6-0.6-1.1-1.3-1.5c-0.6-0.4-1.3-0.6-2.1-0.6c-0.6,0-1.1,0.2-1.5,0.5
	c-0.4,0.4-0.6,0.8-0.6,1.4c0,0.5,0.1,0.9,0.4,1.2c0.2,0.3,0.5,0.5,0.8,0.7c0.3,0.1,1,0.4,2.1,0.7c2.1,0.7,3.2,1.8,3.2,3.4
	c0,1.1-0.4,1.9-1.2,2.6c-0.8,0.7-1.8,1-3,1c-0.4,0-0.9-0.1-1.5-0.2c-0.5-0.1-0.9-0.3-1.2-0.4c-0.1-0.1-0.2-0.1-0.2-0.2
	c0-0.1-0.1-0.3-0.2-0.6c0,0-0.1-0.3-0.2-0.8c-0.2-0.5-0.2-0.9-0.2-1.1c0-0.2,0.1-0.2,0.2-0.2c0,0,0,0,0,0c0.1,0,0.2,0.1,0.3,0.4
	c0.2,0.7,0.6,1.3,1.3,1.8c0.7,0.5,1.4,0.7,2.2,0.7c0.8,0,1.5-0.2,2-0.7c0.5-0.5,0.8-1,0.8-1.7c0-0.6-0.3-1.2-0.8-1.6
	c-0.3-0.2-1-0.5-2.2-1c-1.3-0.4-2.2-0.9-2.7-1.4c-0.5-0.5-0.8-1.2-0.8-2c0-0.9,0.3-1.7,1-2.3C88,65.6,88.9,65.3,90,65.3"/>
<path class="st0" d="M101.2,66c-1.3,0-2.3,0.4-3.1,1.3c-0.8,0.9-1.1,2.1-1.1,3.5c0,1.7,0.5,3.1,1.5,4.3c1,1.2,2.2,1.7,3.6,1.7
	c1.3,0,2.4-0.5,3.2-1.4c0.8-0.9,1.3-2.2,1.3-3.6c0-1.7-0.5-3.1-1.5-4.2C104,66.5,102.7,66,101.2,66 M101.7,77.6
	c-1.9,0-3.4-0.6-4.6-1.7c-1.2-1.1-1.8-2.7-1.8-4.5c0-0.8,0.2-1.6,0.5-2.4c0.3-0.8,0.7-1.5,1.2-2c0.5-0.6,1.2-1,2.1-1.3
	c0.8-0.3,1.7-0.5,2.6-0.5c1.8,0,3.3,0.6,4.5,1.7c1.2,1.1,1.8,2.6,1.8,4.4c0,1.9-0.6,3.4-1.8,4.6C105.1,77,103.6,77.6,101.7,77.6"/>
<path class="st0" d="M102.1,76.7c-1.4,0-2.5-0.6-3.5-1.7c-1-1.1-1.4-2.6-1.4-4.2c0-1.4,0.4-2.6,1.1-3.4c0.7-0.8,1.7-1.3,3-1.3
	c1.5,0,2.7,0.5,3.7,1.6c1,1.1,1.5,2.5,1.5,4.1c0,1.4-0.4,2.6-1.2,3.5C104.3,76.3,103.3,76.7,102.1,76.7 M101.8,65
	c-0.9,0-1.8,0.2-2.6,0.5c-0.9,0.3-1.6,0.8-2.1,1.4c-0.5,0.5-1,1.2-1.3,2c-0.3,0.8-0.5,1.6-0.5,2.4c0,1.9,0.6,3.4,1.8,4.6
	c1.2,1.2,2.8,1.8,4.7,1.8c1.9,0,3.4-0.6,4.6-1.8c1.2-1.2,1.8-2.8,1.8-4.7c0-1.8-0.6-3.3-1.8-4.4C105.2,65.6,103.6,65,101.8,65
	 M102.1,77c1.3,0,2.4-0.5,3.3-1.5c0.9-1,1.3-2.2,1.3-3.7c0-1.7-0.5-3.1-1.6-4.3c-1-1.1-2.3-1.7-3.9-1.7c-1.3,0-2.4,0.4-3.2,1.3
	c-0.8,0.9-1.2,2.1-1.2,3.6c0,1.7,0.5,3.2,1.5,4.4C99.4,76.4,100.6,77,102.1,77 M101.8,65.3c1.8,0,3.3,0.6,4.4,1.7
	c1.1,1.1,1.7,2.5,1.7,4.3c0,1.8-0.6,3.3-1.7,4.5c-1.2,1.2-2.6,1.8-4.4,1.8c-1.9,0-3.4-0.6-4.5-1.7c-1.1-1.1-1.7-2.6-1.7-4.4
	c0-0.8,0.2-1.6,0.5-2.4c0.3-0.8,0.7-1.4,1.2-1.9c0.5-0.5,1.2-1,2-1.3C100.1,65.4,100.9,65.3,101.8,65.3"/>
<path class="st0" d="M115.6,77.6c-1,0-1.9-0.2-2.7-0.6c-0.8-0.4-1.4-0.9-1.8-1.6c-0.4-0.8-0.6-1.8-0.6-3v-4.4l0-0.5
	c0-0.6-0.1-1-0.2-1.2c-0.1-0.2-0.5-0.3-0.9-0.4c-0.3,0-0.3-0.2-0.3-0.3c0-0.1,0-0.3,0.5-0.3c0.1,0,0.3,0,0.6,0c0.3,0,0.5,0,0.6,0
	l0.7,0h0.7c0.1,0,0.2,0,0.5,0c0.2,0,0.4,0,0.4,0c0.2,0,0.3,0.1,0.3,0.3c0,0.1-0.1,0.3-0.4,0.3c-0.3,0.1-0.5,0.2-0.6,0.4
	c-0.1,0.2-0.2,0.6-0.2,1.1l0,0.6v4.3c0,1.4,0.2,2.5,0.7,3.1c0.6,0.9,1.7,1.3,3.2,1.3c1.3,0,2.3-0.4,3-1.1c0.7-0.7,1-1.8,1-3.3v-4.5
	c0-0.7-0.1-1.2-0.3-1.5c-0.2-0.3-0.5-0.5-1-0.5c-0.3,0-0.4-0.2-0.4-0.3c0-0.2,0.1-0.3,0.3-0.3c0.2,0,0.3,0,0.6,0.1
	c0.2,0,0.5,0,0.8,0c0.6,0,1,0,1.2,0c0.2,0,0.3,0,0.4,0c0.2,0,0.3,0.1,0.3,0.3c0,0.1,0,0.2-0.3,0.3c-0.3,0.1-0.5,0.3-0.6,0.5
	c-0.1,0.2-0.1,0.5-0.1,1.4v4.3c0,1.6-0.3,2.8-1,3.7c-0.4,0.6-1,1-1.8,1.3C117.3,77.4,116.5,77.6,115.6,77.6"/>
<path class="st0" d="M118.6,65.1c-0.2,0-0.4,0.2-0.4,0.4c0,0.1,0,0.4,0.5,0.4c0.4,0,0.7,0.2,0.9,0.4c0.2,0.3,0.3,0.8,0.3,1.4v4.5
	c0,1.4-0.3,2.5-1,3.2c-0.6,0.7-1.6,1-2.9,1c-1.4,0-2.5-0.4-3.1-1.2c-0.4-0.6-0.6-1.6-0.6-3V68l0-0.6c0-0.6,0.1-0.9,0.1-1
	c0.1-0.1,0.2-0.2,0.5-0.3c0.4-0.1,0.5-0.4,0.5-0.5c0-0.2-0.1-0.4-0.5-0.4c-0.1,0-0.2,0-0.5,0c-0.2,0-0.4,0-0.5,0h-0.7l-0.7,0
	c-0.1,0-0.3,0-0.6,0c-0.3,0-0.5,0-0.6,0c-0.6,0-0.6,0.4-0.6,0.5c0,0.1,0,0.4,0.5,0.4c0.4,0.1,0.7,0.2,0.8,0.4
	c0.1,0.1,0.2,0.4,0.2,1.1l0,0.5v4.4c0,1.2,0.2,2.3,0.6,3c0.4,0.7,1,1.2,1.8,1.7c0.8,0.4,1.7,0.6,2.7,0.6c0.9,0,1.7-0.2,2.5-0.5
	c0.8-0.3,1.4-0.8,1.8-1.4c0.7-0.9,1-2.2,1-3.8v-4.3c0-0.8,0.1-1.2,0.1-1.4c0.1-0.2,0.3-0.3,0.5-0.5c0.3-0.1,0.3-0.3,0.3-0.4
	c0-0.2-0.2-0.4-0.4-0.4c-0.1,0-0.2,0-0.4,0c-0.1,0-0.4,0-1.2,0c-0.3,0-0.5,0-0.7,0C118.9,65.1,118.7,65.1,118.6,65.1L118.6,65.1
	L118.6,65.1z M118.6,65.4C118.6,65.4,118.6,65.4,118.6,65.4c0.1,0,0.3,0,0.6,0.1c0.2,0,0.5,0.1,0.8,0.1c0.6,0,1,0,1.2,0
	c0.2,0,0.3,0,0.4,0c0.1,0,0.2,0.1,0.2,0.1c0,0.1-0.1,0.2-0.2,0.2c-0.3,0.1-0.6,0.3-0.7,0.6c-0.1,0.3-0.2,0.7-0.2,1.5v4.3
	c0,1.6-0.3,2.8-0.9,3.6c-0.4,0.5-1,1-1.7,1.3c-0.7,0.3-1.5,0.5-2.4,0.5c-1,0-1.9-0.2-2.6-0.6c-0.8-0.4-1.3-0.9-1.7-1.5
	c-0.4-0.7-0.6-1.7-0.6-2.9v-4.4l0-0.5c0-0.6-0.1-1-0.3-1.3c-0.2-0.2-0.5-0.4-1-0.5c-0.2,0-0.2-0.1-0.2-0.2c0-0.1,0.1-0.2,0.3-0.2
	c0.1,0,0.3,0,0.6,0c0.3,0,0.5,0,0.6,0l0.7,0h0.7c0.1,0,0.2,0,0.5,0c0.2,0,0.4,0,0.4,0c0.1,0,0.2,0,0.2,0.1c0,0.1-0.1,0.2-0.3,0.2
	c-0.3,0.1-0.6,0.2-0.7,0.4c-0.1,0.2-0.2,0.6-0.2,1.2l0,0.6v4.3c0,1.5,0.2,2.5,0.7,3.2c0.6,0.9,1.7,1.3,3.3,1.3
	c1.4,0,2.4-0.4,3.1-1.1c0.7-0.7,1-1.9,1-3.4v-4.5c0-0.7-0.1-1.2-0.3-1.6c-0.2-0.3-0.6-0.5-1-0.6c-0.2,0-0.2-0.1-0.2-0.2
	C118.4,65.4,118.5,65.4,118.6,65.4"/>
<path class="st0" d="M130.1,77.5c-0.1,0-0.2,0-0.4-0.1c-0.1,0-0.5,0-0.8,0l-0.6,0l-0.7,0c-0.2,0-0.4,0-0.6,0c-0.3,0-0.5,0.1-0.6,0.1
	c-0.4,0-0.4-0.2-0.4-0.3c0-0.1,0.1-0.3,0.4-0.3c0.4-0.1,0.7-0.2,0.8-0.3c0.1-0.1,0.2-0.4,0.2-0.9v-8.5l0-0.2c0-0.3,0-0.3,0-0.3
	c0,0-0.1-0.1-0.3-0.1h-2.3c-0.4,0-0.7,0.1-0.9,0.2c-0.2,0.2-0.3,0.5-0.4,1c-0.1,0.3-0.2,0.4-0.4,0.4c-0.1,0-0.3,0-0.3-0.4
	c0-0.1,0-0.4,0.1-0.7c0.1-0.4,0.1-0.7,0.1-1c0-0.3,0-0.5,0.1-0.6c0.1-0.1,0.2-0.2,0.5-0.2h9.3c0.5,0,0.6,0.1,0.7,0.1
	c0.1,0.1,0.1,0.2,0.1,0.7c0,0.4,0,0.6,0,0.7c0,0.2,0,0.3,0.1,0.4c0,0.3-0.2,0.4-0.3,0.4h0c-0.1,0-0.3-0.1-0.3-0.4
	c-0.1-0.5-0.2-0.6-0.3-0.7c-0.1-0.1-0.3-0.2-0.9-0.2h-2.4c-0.3,0-0.4,0.1-0.4,0.1c0,0-0.1,0.1-0.1,0.4v8.4l0,0.3c0,0.6,0.4,1,1,1.1
	c0.3,0,0.4,0.2,0.4,0.3C130.5,77.3,130.5,77.5,130.1,77.5"/>
<path class="st0" d="M132.9,65.2h-9.3c-0.3,0-0.5,0.1-0.6,0.2c-0.1,0.1-0.1,0.3-0.1,0.7c0,0.2,0,0.6-0.1,1c-0.1,0.3-0.1,0.6-0.1,0.7
	c0,0.3,0.2,0.5,0.4,0.5h0c0.2,0,0.4-0.1,0.5-0.5c0.1-0.6,0.3-0.8,0.4-0.9c0.2-0.1,0.4-0.2,0.8-0.2h2.3c0.1,0,0.2,0,0.2,0
	c0,0,0,0.1,0,0.2l0,0.2v8.5c0,0.5-0.1,0.8-0.2,0.8c-0.1,0.1-0.3,0.2-0.7,0.3c-0.5,0.1-0.5,0.3-0.5,0.4c0,0.2,0.1,0.4,0.5,0.4
	c0.1,0,0.2,0,0.6-0.1c0.1,0,0.3,0,0.6,0l0.7,0l0.6,0c0.2,0,0.6,0,0.7,0c0.3,0,0.4,0.1,0.5,0.1c0.4,0,0.5-0.2,0.5-0.4
	c0-0.1-0.1-0.4-0.5-0.4c-0.6-0.1-0.9-0.4-0.9-1l0-0.3V67c0-0.2,0-0.3,0-0.3c0,0,0,0,0,0c0,0,0.1,0,0.3,0h2.4c0.6,0,0.8,0.1,0.8,0.1
	c0.1,0,0.2,0.2,0.3,0.6c0.1,0.4,0.3,0.5,0.5,0.5c0.2,0,0.5-0.2,0.4-0.5c0-0.1,0-0.2-0.1-0.4c0-0.1,0-0.3,0-0.7c0-0.4,0-0.7-0.2-0.8
	C133.5,65.3,133.3,65.2,132.9,65.2 M132.9,65.5c0.3,0,0.5,0,0.6,0.1c0.1,0.1,0.1,0.3,0.1,0.6c0,0.3,0,0.6,0,0.7c0,0.2,0,0.3,0.1,0.4
	c0,0.2-0.1,0.3-0.2,0.3h0c-0.1,0-0.2-0.1-0.2-0.3c-0.1-0.4-0.2-0.7-0.4-0.8c-0.2-0.1-0.5-0.2-1-0.2h-2.4c-0.3,0-0.4,0-0.5,0.1
	c-0.1,0.1-0.1,0.2-0.1,0.5v8.4l0,0.3c0,0.7,0.4,1.1,1.1,1.2c0.2,0,0.3,0.1,0.3,0.2c0,0.1-0.1,0.2-0.2,0.2c-0.1,0-0.2,0-0.4-0.1
	c-0.1,0-0.4,0-0.8,0l-0.6,0l-0.7,0c-0.2,0-0.4,0-0.6,0c-0.3,0-0.5,0.1-0.6,0.1c-0.2,0-0.3-0.1-0.3-0.2c0-0.1,0.1-0.1,0.3-0.2
	c0.4-0.1,0.7-0.2,0.9-0.4c0.2-0.2,0.2-0.5,0.2-1v-8.5l0-0.2c0-0.2,0-0.3-0.1-0.4c-0.1-0.1-0.2-0.1-0.4-0.1h-2.3
	c-0.5,0-0.8,0.1-1,0.3c-0.2,0.2-0.4,0.5-0.5,1.1c-0.1,0.2-0.1,0.3-0.2,0.3h0c-0.1,0-0.2-0.1-0.2-0.2c0-0.1,0-0.3,0.1-0.7
	c0.1-0.4,0.1-0.8,0.1-1c0-0.3,0-0.4,0.1-0.5c0.1-0.1,0.2-0.1,0.4-0.1H132.9z"/>
<path class="st0" d="M143.6,77.5c-0.1,0-0.2,0-0.2-0.1c0,0-0.1-0.1-0.1-0.2c0-0.1,0.1-0.3,0.4-0.3c0.5-0.1,0.8-0.5,0.8-1.3l0-0.3V72
	c0-0.3,0-0.4,0-0.4c0,0-0.1,0-0.4,0H139c-0.4,0-0.5,0.1-0.5,0.1c0,0-0.1,0.1-0.1,0.4v3.2c0,0.6,0.1,1,0.3,1.2c0.2,0.2,0.5,0.3,1,0.4
	c0.4,0,0.4,0.2,0.4,0.3c0,0.1,0,0.2-0.1,0.2c-0.1,0.1-0.2,0.1-0.3,0.1c-0.1,0-0.2,0-0.4,0c-0.2,0-0.5,0-1,0l-0.7,0l-0.6,0
	c-0.1,0-0.3,0-0.5,0c-0.3,0-0.5,0-0.6,0c-0.3,0-0.3-0.2-0.3-0.3c0-0.1,0-0.3,0.3-0.3l0.4-0.1c0.2,0,0.3-0.2,0.4-0.5
	c0.1-0.3,0.1-0.9,0.1-1.7v-7.4c0-0.5-0.1-0.8-0.3-1c-0.2-0.2-0.5-0.3-0.9-0.4c-0.3,0-0.4-0.2-0.4-0.3c0-0.1,0.1-0.3,0.3-0.3
	c0.1,0,0.3,0,0.6,0.1c0.4,0.1,1,0.1,1.6,0.1c0.4,0,0.8,0,1.1-0.1c0.2,0,0.3,0,0.4,0c0.4,0,0.4,0.2,0.4,0.3c0,0.1-0.1,0.2-0.3,0.3
	c-0.4,0.1-0.6,0.2-0.7,0.4c-0.1,0.2-0.2,0.4-0.2,0.8v3.1c0,0.4,0.1,0.5,0.1,0.5c0,0,0.1,0.1,0.5,0.1h5.1c0.3,0,0.4,0,0.4,0
	c0,0,0-0.1,0-0.2v-2.9c0-0.6-0.1-1-0.2-1.2c-0.1-0.2-0.4-0.4-0.8-0.5c-0.3-0.1-0.4-0.2-0.3-0.3c0-0.1,0-0.3,0.3-0.3
	c0.1,0,0.3,0,0.6,0c0.4,0,0.8,0.1,1.2,0.1c0.6,0,1,0,1.3-0.1c0.2,0,0.3,0,0.3,0c0.2,0,0.3,0.2,0.3,0.3c0,0.1,0,0.2-0.3,0.3l-0.3,0.1
	c-0.1,0-0.3,0.1-0.4,0.3c-0.1,0.2-0.2,0.4-0.2,0.7v8.3c0,0.7,0.1,1.1,0.2,1.2c0.1,0.2,0.4,0.3,0.9,0.4c0.3,0,0.4,0.2,0.4,0.3
	c0,0.1,0,0.2-0.1,0.2c-0.1,0.1-0.2,0.1-0.3,0.1c-0.1,0-0.3,0-0.5,0c-0.1,0-0.4,0-0.8,0l-0.6,0l-0.6,0c-0.1,0-0.2,0-0.4,0
	C143.9,77.5,143.7,77.5,143.6,77.5v-0.1V77.5z"/>
<path class="st0" d="M135.6,65.1c-0.3,0-0.5,0.2-0.5,0.4c0,0.1,0,0.4,0.5,0.4c0.4,0.1,0.7,0.2,0.8,0.4c0.1,0.2,0.2,0.5,0.2,0.9v7.4
	c0,1-0.1,1.4-0.1,1.6c-0.1,0.3-0.2,0.4-0.3,0.4l-0.4,0.1c-0.4,0.1-0.4,0.3-0.4,0.5c0,0.2,0.1,0.4,0.5,0.4c0.1,0,0.3,0,0.6,0
	c0.2,0,0.4,0,0.5,0l0.6,0l0.7,0c0.7,0,0.9,0,1,0c0.2,0,0.4,0,0.5,0c0.2,0,0.3,0,0.4-0.1c0.1-0.1,0.1-0.2,0.1-0.3
	c0-0.1-0.1-0.4-0.6-0.5c-0.4,0-0.7-0.2-0.9-0.4c-0.1-0.1-0.2-0.4-0.2-1.1v-3.2c0-0.2,0-0.3,0-0.3c0,0,0,0,0,0c0,0,0.1,0,0.4,0h5.1
	c0.2,0,0.3,0,0.3,0c0,0,0,0.1,0,0.3v3.2l0,0.3c0,1-0.4,1.2-0.7,1.2c-0.4,0.1-0.5,0.3-0.5,0.4c0,0.2,0.1,0.3,0.1,0.3
	c0.1,0.1,0.2,0.1,0.3,0.1c0.1,0,0.3,0,0.6,0c0.2,0,0.3,0,0.4,0l0.7,0l0.6,0c0.4,0,0.7,0,0.8,0c0.2,0,0.4,0,0.5,0
	c0.2,0,0.3,0,0.4-0.1c0.1-0.1,0.1-0.2,0.1-0.3c0-0.1-0.1-0.3-0.5-0.4c-0.4,0-0.7-0.2-0.8-0.3c-0.1-0.1-0.2-0.4-0.2-1.1V67
	c0-0.2,0-0.5,0.1-0.6c0.1-0.2,0.2-0.2,0.3-0.3L147,66c0.4-0.1,0.4-0.3,0.4-0.4c0-0.2-0.1-0.4-0.5-0.4c-0.1,0-0.2,0-0.4,0
	c-0.2,0-0.7,0-1.3,0c-0.4,0-0.8,0-1.2-0.1c-0.3,0-0.5,0-0.6,0c-0.3,0-0.5,0.2-0.5,0.4c0,0.1,0,0.4,0.5,0.5c0.3,0.1,0.6,0.2,0.7,0.4
	c0.1,0.1,0.2,0.5,0.2,1.1v2.9c0,0,0,0.1,0,0.1c0,0-0.1,0-0.3,0H139c-0.3,0-0.4,0-0.4,0c0,0,0-0.2,0-0.4v-3.1c0-0.5,0.1-0.7,0.1-0.8
	c0.1-0.1,0.2-0.2,0.6-0.3c0.4-0.1,0.4-0.3,0.4-0.4c0-0.2-0.1-0.4-0.5-0.4c-0.1,0-0.2,0-0.4,0c-0.3,0-0.7,0.1-1.1,0.1
	c-0.6,0-1.1,0-1.5-0.1C135.9,65.1,135.7,65.1,135.6,65.1L135.6,65.1L135.6,65.1z M135.6,65.3C135.6,65.3,135.6,65.3,135.6,65.3
	c0.1,0,0.3,0,0.5,0.1c0.4,0.1,1,0.1,1.6,0.1c0.4,0,0.8,0,1.1-0.1c0.2,0,0.3,0,0.4,0c0.2,0,0.2,0.1,0.2,0.2c0,0.1-0.1,0.2-0.2,0.2
	c-0.4,0.1-0.6,0.2-0.8,0.4c-0.1,0.2-0.2,0.5-0.2,0.9v3.1c0,0.3,0,0.5,0.1,0.6c0.1,0.1,0.3,0.1,0.6,0.1h5.1c0.3,0,0.4,0,0.5-0.1
	c0.1,0,0.1-0.1,0.1-0.3v-2.9c0-0.6-0.1-1-0.2-1.3c-0.1-0.2-0.4-0.4-0.8-0.5c-0.2,0-0.3-0.1-0.2-0.2c0-0.1,0.1-0.1,0.2-0.1
	c0.1,0,0.3,0,0.6,0c0.4,0,0.8,0.1,1.2,0.1c0.6,0,1,0,1.3-0.1c0.2,0,0.3,0,0.3,0c0.1,0,0.2,0.1,0.2,0.2c0,0.1-0.1,0.1-0.2,0.2
	l-0.3,0.1c-0.2,0-0.3,0.2-0.4,0.4c-0.1,0.2-0.2,0.5-0.2,0.8v8.3c0,0.6,0.1,1,0.3,1.3c0.2,0.2,0.5,0.4,1,0.4c0.2,0,0.3,0.1,0.3,0.2
	c0,0.1-0.1,0.2-0.2,0.2c-0.1,0-0.3,0-0.4,0c-0.1,0-0.4,0-0.9,0l-0.6,0l-0.6,0c-0.1,0-0.2,0-0.4,0c-0.4,0-0.6,0-0.6,0h0
	c-0.1,0-0.2-0.1-0.2-0.2c0-0.1,0.1-0.2,0.3-0.2c0.6-0.1,0.9-0.6,0.9-1.5l0-0.3V72c0-0.3,0-0.4-0.1-0.5c0,0-0.2-0.1-0.5-0.1H139
	c-0.3,0-0.5,0-0.6,0.1c-0.1,0.1-0.1,0.2-0.1,0.5v3.2c0,0.6,0.1,1,0.3,1.3c0.2,0.2,0.5,0.4,1.1,0.4c0.2,0,0.3,0.1,0.3,0.2
	c0,0.1-0.1,0.2-0.2,0.2c-0.1,0-0.2,0-0.4,0c-0.2,0-0.5,0-1,0l-0.7,0l-0.6,0c-0.1,0-0.3,0-0.5,0c-0.3,0-0.5,0-0.5,0
	c-0.1,0-0.2-0.1-0.2-0.2c0-0.1,0.1-0.2,0.2-0.2l0.4-0.1c0.3-0.1,0.4-0.2,0.5-0.6c0.1-0.3,0.1-0.9,0.1-1.7v-7.4
	c0-0.5-0.1-0.9-0.3-1.1c-0.2-0.2-0.5-0.4-1-0.4c-0.2,0-0.2-0.1-0.2-0.2C135.4,65.4,135.4,65.3,135.6,65.3"/>
<path class="st0" d="M158.5,71.4c-0.1,0.2-0.1,0.3-0.1,0.3c0,0.1,0.1,0.1,0.3,0.1l0.2,0h2.6c0.1,0,0.3,0,0.3-0.1c0,0,0-0.1,0-0.2
	l0-0.2l-1.4-3.6c0-0.1-0.1-0.2-0.1-0.2C160.2,67.7,158.5,71.4,158.5,71.4 M157.2,77.5l-0.8,0c-0.3,0-0.6,0-0.9,0c-0.2,0-0.3,0-0.4,0
	c-0.3,0-0.5,0-0.5,0c-0.3,0-0.4-0.2-0.4-0.3c0-0.2,0.1-0.3,0.2-0.3l0.3-0.1c0,0,0.2-0.1,0.4-0.4c0.2-0.2,0.3-0.5,0.5-0.7l0.2-0.6
	l4.4-9.8c0-0.1,0.1-0.3,0.4-0.3c0.2,0,0.3,0.1,0.4,0.3l3.9,9.9c0.3,0.7,0.5,1.1,0.6,1.3c0.1,0.1,0.4,0.3,1,0.4
	c0.3,0.1,0.4,0.3,0.4,0.3c0,0.1,0,0.3-0.4,0.3c0,0-0.1,0-0.3,0c-0.3,0-0.8,0-1.6,0c-0.8,0-1.3,0-1.5,0c-0.1,0-0.2,0-0.3,0
	c-0.3,0-0.4-0.2-0.4-0.3c0-0.1,0-0.3,0.3-0.3l0.3-0.1c0.2,0,0.3-0.1,0.3-0.5c0-0.3-0.2-0.9-0.5-1.8l-0.4-1.1
	c-0.2-0.4-0.2-0.5-0.2-0.5l0,0c0,0-0.1,0-0.5,0h-3.1c-0.5,0-0.7,0.1-0.7,0.1c0,0-0.1,0.1-0.4,0.6l-0.6,1.3c-0.2,0.6-0.4,1-0.4,1.2
	c0,0.2,0.1,0.4,0.2,0.5c0.1,0.1,0.3,0.2,0.7,0.3c0.3,0.1,0.4,0.2,0.4,0.3c0,0.1,0,0.1-0.1,0.2c-0.1,0.1-0.2,0.1-0.3,0.1L157.2,77.5z
	"/>
<path class="st0" d="M158.6,71.7c0,0,0-0.1,0.1-0.2l1.6-3.5l0,0.1l1.4,3.4l0,0.1c0,0,0,0.1,0,0.1c0,0-0.1,0-0.2,0h-2.6l-0.2,0
	C158.6,71.7,158.6,71.7,158.6,71.7 M160.7,64.8c-0.2,0-0.4,0.1-0.5,0.4l-4.4,9.8l-0.2,0.6c-0.1,0.2-0.3,0.5-0.4,0.7
	c-0.2,0.3-0.3,0.3-0.3,0.3l-0.3,0.1c-0.2,0.1-0.3,0.2-0.3,0.4c0,0.2,0.1,0.4,0.5,0.4c0,0,0.2,0,0.5,0c0.1,0,0.2,0,0.4,0
	c0.4,0,0.7,0,0.9,0l0.8,0l0.1,0c0.1,0,0.1,0,0.2,0c0.2,0,0.3,0,0.4-0.1c0.1-0.1,0.1-0.2,0.1-0.3c0-0.1-0.1-0.4-0.5-0.4
	c-0.5-0.1-0.6-0.2-0.7-0.2c-0.1-0.1-0.1-0.3-0.1-0.4c0-0.2,0.1-0.5,0.4-1.2l0.6-1.3c0.2-0.5,0.3-0.6,0.3-0.6c0,0,0.1-0.1,0.6-0.1
	h3.1c0.3,0,0.4,0,0.4,0c0,0,0.1,0.2,0.2,0.4l0.4,1.1c0.4,1.1,0.5,1.5,0.5,1.7c0,0.3-0.1,0.3-0.2,0.3l-0.3,0.1
	c-0.4,0.1-0.4,0.3-0.4,0.4c0,0.2,0.1,0.4,0.5,0.4c0.1,0,0.2,0,0.3,0c0.1,0,0.5,0,1.4,0c0.8,0,1.3,0,1.6,0l0,0l0,0c0.2,0,0.3,0,0.3,0
	c0.5,0,0.5-0.3,0.5-0.4c0-0.1,0-0.4-0.5-0.5c-0.6-0.1-0.9-0.3-1-0.3c-0.1-0.1-0.3-0.3-0.6-1.2l-0.2-0.5l-3.7-9.5
	C161,64.9,160.8,64.8,160.7,64.8 M158.9,71.9h2.6c0.3,0,0.4-0.1,0.4-0.2c0,0,0-0.1,0-0.2l0-0.2l-1.4-3.4l-0.1-0.2
	c-0.1-0.2-0.1-0.3-0.2-0.3c0,0,0,0,0,0c0,0-0.1,0.1-0.1,0.2l-1.7,3.7c-0.1,0.2-0.1,0.3-0.1,0.3c0,0.2,0.1,0.2,0.4,0.2L158.9,71.9z
	 M160.7,65.1c0.1,0,0.2,0.1,0.2,0.2l3.7,9.5l0.2,0.5c0.3,0.7,0.5,1.1,0.7,1.3c0.2,0.2,0.5,0.3,1.1,0.4c0.2,0,0.3,0.1,0.3,0.2
	c0,0.1-0.1,0.1-0.2,0.1c-0.1,0-0.2,0-0.3,0c-0.3,0-0.8,0-1.6,0c-0.8,0-1.3,0-1.5,0c-0.1,0-0.2,0-0.3,0c-0.1,0-0.2-0.1-0.2-0.2
	c0-0.1,0.1-0.2,0.2-0.2l0.3-0.1c0.3-0.1,0.4-0.3,0.4-0.6c0-0.3-0.2-0.9-0.5-1.8l-0.4-1.1c-0.1-0.3-0.2-0.5-0.3-0.5
	c-0.1,0-0.3-0.1-0.6-0.1h-3.1c-0.4,0-0.7,0-0.8,0.1c-0.1,0.1-0.2,0.3-0.4,0.7l-0.6,1.3c-0.3,0.6-0.4,1-0.4,1.3
	c0,0.3,0.1,0.5,0.2,0.6c0.1,0.1,0.4,0.2,0.8,0.3c0.2,0,0.3,0.1,0.3,0.2c0,0.1-0.1,0.1-0.2,0.1c-0.1,0-0.2,0-0.3,0l-0.8,0
	c-0.3,0-0.6,0-0.9,0c-0.2,0-0.3,0-0.4,0c-0.3,0-0.5,0-0.5,0c-0.2,0-0.2-0.1-0.2-0.2c0-0.1,0-0.2,0.1-0.2l0.3-0.1
	c0.1,0,0.3-0.2,0.5-0.4c0.2-0.2,0.4-0.5,0.5-0.8l0.2-0.6l4.4-9.8C160.5,65.2,160.6,65.1,160.7,65.1"/>
<path class="st0" d="M172.8,77.6c-1,0-1.9-0.2-2.7-0.6c-0.8-0.4-1.4-0.9-1.8-1.6c-0.4-0.8-0.6-1.8-0.6-3v-4.4l0-0.5
	c0-0.6-0.1-1-0.2-1.2c-0.1-0.2-0.5-0.3-0.9-0.4c-0.3,0-0.3-0.2-0.3-0.3c0-0.1,0-0.3,0.5-0.3c0.1,0,0.3,0,0.6,0c0.3,0,0.4,0,0.6,0
	l0.7,0h0.7c0.1,0,0.2,0,0.5,0c0.2,0,0.4,0,0.5,0c0.3,0,0.3,0.2,0.3,0.3c0,0.1-0.1,0.3-0.4,0.3c-0.3,0.1-0.5,0.2-0.6,0.4
	c-0.1,0.2-0.2,0.6-0.2,1.1l0,0.6v4.3c0,1.4,0.2,2.5,0.7,3.1c0.6,0.9,1.7,1.3,3.2,1.3c1.3,0,2.3-0.4,3-1.1c0.7-0.7,1-1.8,1-3.3v-4.5
	c0-0.7-0.1-1.2-0.3-1.5c-0.2-0.3-0.5-0.4-1-0.5c-0.3,0-0.4-0.2-0.4-0.3c0-0.2,0.1-0.3,0.3-0.3c0.2,0,0.3,0,0.6,0.1
	c0.2,0,0.5,0,0.8,0c0.6,0,1,0,1.2,0c0.2,0,0.3,0,0.4,0c0.2,0,0.3,0.1,0.3,0.3c0,0.1,0,0.2-0.3,0.3c-0.3,0.1-0.5,0.3-0.6,0.5
	c-0.1,0.2-0.1,0.7-0.1,1.4v4.3c0,1.6-0.3,2.8-1,3.7c-0.4,0.5-1,1-1.8,1.3C174.4,77.4,173.6,77.6,172.8,77.6"/>
<path class="st0" d="M175.7,65.1c-0.2,0-0.4,0.2-0.4,0.4c0,0.1,0,0.4,0.5,0.4c0.4,0,0.7,0.2,0.9,0.4c0.2,0.3,0.3,0.8,0.3,1.4v4.5
	c0,1.4-0.3,2.5-1,3.2c-0.6,0.7-1.6,1-2.9,1c-1.4,0-2.5-0.4-3.1-1.2c-0.4-0.6-0.6-1.6-0.6-3V68l0-0.6c0-0.6,0.1-0.9,0.1-1
	c0.1-0.1,0.2-0.2,0.5-0.3c0.4-0.1,0.5-0.4,0.5-0.5c0-0.2-0.1-0.4-0.5-0.4c-0.1,0-0.2,0-0.5,0c-0.2,0-0.4,0-0.5,0h-0.7l-0.7,0
	c-0.1,0-0.3,0-0.6,0c-0.3,0-0.5,0-0.6,0c-0.6,0-0.6,0.4-0.6,0.5c0,0.1,0,0.4,0.5,0.4c0.4,0.1,0.7,0.2,0.8,0.4
	c0.1,0.1,0.2,0.4,0.2,1.1l0,0.5v4.4c0,1.2,0.2,2.3,0.6,3c0.4,0.7,1,1.2,1.8,1.7c0.8,0.4,1.7,0.6,2.7,0.6c0.9,0,1.7-0.2,2.5-0.5
	c0.8-0.3,1.4-0.8,1.8-1.4c0.7-0.9,1-2.1,1-3.8v-4.3c0-0.8,0.1-1.2,0.1-1.4c0.1-0.2,0.3-0.3,0.5-0.5c0.3-0.1,0.3-0.3,0.3-0.4
	c0-0.2-0.2-0.4-0.4-0.4c-0.1,0-0.2,0-0.4,0c-0.1,0-0.4,0-1.2,0c-0.3,0-0.5,0-0.7,0C176.1,65.1,175.9,65.1,175.7,65.1L175.7,65.1
	L175.7,65.1z M175.7,65.4C175.7,65.4,175.7,65.4,175.7,65.4c0.1,0,0.3,0,0.6,0.1c0.2,0,0.5,0.1,0.8,0.1c0.6,0,1,0,1.2,0
	c0.2,0,0.3,0,0.4,0c0.1,0,0.2,0.1,0.2,0.1c0,0.1-0.1,0.2-0.2,0.2c-0.4,0.1-0.6,0.3-0.7,0.6c-0.1,0.3-0.2,0.7-0.2,1.5v4.3
	c0,1.6-0.3,2.8-0.9,3.6c-0.4,0.5-1,1-1.7,1.3c-0.7,0.3-1.5,0.5-2.4,0.5c-1,0-1.9-0.2-2.6-0.6c-0.8-0.4-1.4-0.9-1.7-1.5
	c-0.4-0.7-0.6-1.7-0.6-2.9v-4.4l0-0.5c0-0.6-0.1-1-0.3-1.3c-0.2-0.2-0.5-0.4-1-0.5c-0.2,0-0.2-0.1-0.2-0.2c0-0.1,0.1-0.2,0.3-0.2
	c0.1,0,0.3,0,0.6,0c0.3,0,0.5,0,0.6,0l0.7,0h0.7c0.1,0,0.2,0,0.5,0c0.2,0,0.4,0,0.4,0c0.1,0,0.2,0,0.2,0.1c0,0.1-0.1,0.2-0.3,0.2
	c-0.3,0.1-0.6,0.2-0.7,0.4c-0.1,0.2-0.2,0.6-0.2,1.2l0,0.6v4.3c0,1.5,0.2,2.5,0.7,3.2c0.6,0.9,1.7,1.3,3.3,1.3
	c1.4,0,2.4-0.4,3.1-1.1c0.7-0.7,1-1.9,1-3.4v-4.5c0-0.7-0.1-1.2-0.3-1.6c-0.2-0.3-0.6-0.5-1.1-0.6c-0.2,0-0.3-0.1-0.3-0.2
	C175.5,65.4,175.6,65.4,175.7,65.4"/>
<path class="st0" d="M184,77.6c-0.5,0-1-0.1-1.5-0.2c-0.5-0.1-0.9-0.3-1.2-0.5c-0.1-0.1-0.2-0.2-0.3-0.3c0-0.1-0.1-0.3-0.2-0.6
	c0,0-0.2-0.8-0.2-0.8c-0.2-0.5-0.2-0.9-0.2-1.1c0-0.3,0.2-0.4,0.3-0.4c0.2,0,0.4,0.3,0.4,0.5c0.2,0.7,0.6,1.3,1.3,1.7
	c0.6,0.5,1.3,0.7,2.1,0.7c0.8,0,1.4-0.2,1.9-0.7c0.5-0.4,0.8-1,0.8-1.6c0-0.6-0.2-1.1-0.7-1.5c-0.2-0.1-0.7-0.4-2.2-0.9
	c-1.3-0.4-2.2-0.9-2.8-1.5c-0.6-0.5-0.8-1.3-0.8-2.1c0-1,0.4-1.8,1.1-2.4c0.7-0.6,1.6-0.9,2.8-0.9c0.6,0,1.2,0.1,1.6,0.3l0.6,0.2
	c0,0,0.1,0,0.1,0c0,0,0.1,0,0.1-0.1l0.1-0.1c0,0,0.1-0.1,0.2-0.1h0c0.2,0,0.3,0.1,0.3,0.6c0,0.1,0,0.2,0.1,0.8l0.1,0.9
	c0,0.2,0,0.3,0,0.4c0,0.4-0.2,0.4-0.3,0.4c-0.2,0-0.3-0.3-0.4-0.5c-0.2-0.6-0.6-1.1-1.2-1.5c-0.6-0.4-1.3-0.6-2-0.6
	c-0.6,0-1.1,0.2-1.5,0.5c-0.4,0.3-0.6,0.8-0.6,1.3c0,0.5,0.1,0.8,0.4,1.2c0.2,0.3,0.5,0.5,0.7,0.6c0.3,0.1,0.9,0.4,2,0.7
	c2.2,0.7,3.3,1.9,3.3,3.5c0,1.1-0.4,2-1.2,2.7C186.3,77.2,185.2,77.6,184,77.6"/>
<path class="st0" d="M184.5,65c-1.1,0-2.1,0.3-2.8,0.9c-0.8,0.6-1.1,1.5-1.1,2.5c0,0.9,0.3,1.6,0.9,2.2c0.6,0.6,1.5,1,2.8,1.5
	c1.6,0.5,2,0.8,2.1,0.9c0.4,0.4,0.7,0.9,0.7,1.4c0,0.6-0.2,1.1-0.7,1.5c-0.5,0.4-1.1,0.6-1.8,0.6c-0.7,0-1.4-0.2-2-0.7
	c-0.6-0.4-1-1-1.2-1.7c0-0.2-0.2-0.6-0.5-0.6h0c-0.1,0-0.4,0-0.4,0.5c0,0.2,0.1,0.6,0.2,1.2l0.1,0.3c0.1,0.3,0.1,0.5,0.1,0.5
	c0.1,0.5,0.2,0.6,0.2,0.7c0.1,0.1,0.2,0.2,0.3,0.3c0.3,0.2,0.7,0.3,1.2,0.5c0.5,0.1,1.1,0.2,1.5,0.2c1.3,0,2.4-0.4,3.2-1.1
	c0.8-0.7,1.3-1.7,1.3-2.8c0-1.7-1.1-2.9-3.4-3.7c-1.1-0.4-1.8-0.6-2-0.7c-0.2-0.1-0.5-0.3-0.7-0.6c-0.2-0.3-0.3-0.7-0.3-1.1
	c0-0.5,0.2-0.9,0.5-1.2c0.4-0.3,0.8-0.5,1.4-0.5c0.7,0,1.4,0.2,2,0.6c0.6,0.4,1,0.8,1.1,1.4c0.1,0.2,0.2,0.6,0.5,0.6
	c0.2,0,0.4-0.1,0.4-0.5c0,0,0-0.1,0-0.4l-0.1-0.9c-0.1-0.6-0.1-0.8-0.1-0.8c0-0.6-0.3-0.7-0.5-0.7c-0.2,0-0.2,0.1-0.3,0.1l-0.1,0.1
	c0,0,0,0,0,0c0,0,0,0-0.1,0l-0.6-0.2C185.7,65.1,185.2,65,184.5,65 M184.5,65.3c0.6,0,1.1,0.1,1.6,0.3l0.6,0.2c0.1,0,0.1,0,0.2,0
	c0.1,0,0.1,0,0.2-0.1l0.1-0.1c0,0,0.1,0,0.1,0c0,0,0,0,0,0c0.1,0,0.2,0.1,0.2,0.4c0,0.1,0,0.4,0.1,0.9l0.1,0.9c0,0.2,0,0.3,0,0.3
	c0,0.2-0.1,0.3-0.2,0.3c-0.1,0-0.2-0.1-0.3-0.4c-0.2-0.6-0.6-1.1-1.3-1.5c-0.6-0.4-1.3-0.6-2.1-0.6c-0.6,0-1.1,0.2-1.5,0.5
	c-0.4,0.4-0.6,0.8-0.6,1.4c0,0.5,0.1,0.9,0.4,1.2c0.2,0.3,0.5,0.5,0.8,0.7c0.3,0.1,1,0.4,2,0.7c2.1,0.7,3.2,1.8,3.2,3.4
	c0,1.1-0.4,1.9-1.2,2.6c-0.8,0.7-1.8,1-3,1c-0.4,0-0.9-0.1-1.5-0.2c-0.5-0.1-0.9-0.3-1.2-0.4c-0.1-0.1-0.2-0.1-0.2-0.2
	c0-0.1-0.1-0.3-0.2-0.6c0,0-0.1-0.3-0.2-0.8c-0.1-0.5-0.2-0.9-0.2-1.1c0-0.2,0.1-0.2,0.2-0.2c0,0,0,0,0,0c0.1,0,0.2,0.1,0.3,0.4
	c0.2,0.7,0.6,1.3,1.3,1.8c0.7,0.5,1.4,0.7,2.2,0.7c0.8,0,1.5-0.2,2-0.7c0.5-0.5,0.8-1,0.8-1.7c0-0.6-0.3-1.2-0.8-1.6
	c-0.3-0.2-1-0.5-2.2-1c-1.3-0.4-2.2-0.9-2.7-1.4c-0.5-0.5-0.8-1.2-0.8-2c0-0.9,0.3-1.7,1-2.3C182.6,65.6,183.4,65.3,184.5,65.3"/>
<path class="st0" d="M196.7,77.5c-0.1,0-0.2,0-0.4-0.1c-0.1,0-0.5,0-0.8,0l-0.6,0l-0.7,0c-0.2,0-0.4,0-0.6,0c-0.3,0-0.5,0.1-0.6,0.1
	c-0.4,0-0.4-0.2-0.4-0.3c0-0.1,0.1-0.3,0.4-0.3c0.4-0.1,0.7-0.2,0.8-0.3c0.1-0.2,0.2-0.5,0.2-0.9v-8.5l0-0.2c0-0.3-0.1-0.3-0.1-0.3
	c0,0-0.1-0.1-0.3-0.1h-2.3c-0.4,0-0.7,0.1-0.9,0.2c-0.2,0.2-0.3,0.5-0.4,1c-0.1,0.3-0.2,0.4-0.3,0.4c-0.1,0-0.3,0-0.3-0.4
	c0-0.1,0-0.3,0.1-0.7c0.1-0.4,0.1-0.7,0.1-1c0-0.3,0-0.5,0.1-0.6c0.1-0.1,0.2-0.2,0.5-0.2h9.3c0.5,0,0.6,0.1,0.7,0.1
	c0.1,0.1,0.1,0.3,0.1,0.7c0,0.3,0,0.6,0,0.7c0,0.2,0,0.3,0.1,0.4c0,0.3-0.2,0.4-0.3,0.4h0c-0.1,0-0.3-0.1-0.3-0.4
	c-0.1-0.5-0.2-0.6-0.3-0.7c-0.1-0.1-0.3-0.2-0.9-0.2h-2.4c-0.3,0-0.4,0.1-0.4,0.1c0,0-0.1,0.1-0.1,0.4v8.4l0,0.3c0,0.6,0.4,1,1,1.1
	c0.3,0,0.4,0.2,0.4,0.3C197.1,77.3,197,77.5,196.7,77.5"/>
<path class="st0" d="M199.4,65.2h-9.3c-0.3,0-0.5,0.1-0.6,0.2c-0.1,0.1-0.1,0.3-0.1,0.7c0,0.3,0,0.6-0.1,1c-0.1,0.3-0.1,0.6-0.1,0.7
	c0,0.3,0.2,0.5,0.4,0.5h0c0.2,0,0.4-0.1,0.5-0.5c0.1-0.6,0.3-0.8,0.4-0.9c0.2-0.1,0.4-0.2,0.8-0.2h2.3c0.1,0,0.2,0,0.2,0
	c0,0,0,0.1,0,0.2l0,0.2v8.5c0,0.5-0.1,0.8-0.2,0.8c-0.1,0.1-0.3,0.2-0.7,0.3c-0.4,0-0.5,0.3-0.5,0.4c0,0.2,0.1,0.4,0.5,0.4
	c0.1,0,0.2,0,0.6-0.1c0.1,0,0.3,0,0.6,0l0.7,0l0.6,0c0.2,0,0.6,0,0.7,0c0.3,0,0.4,0.1,0.5,0.1c0.4,0,0.5-0.2,0.5-0.4
	c0-0.1-0.1-0.4-0.5-0.4c-0.6-0.1-0.9-0.4-0.9-1l0-0.3V67c0-0.2,0-0.3,0-0.3c0,0,0,0,0,0c0,0,0.1,0,0.3,0h2.4c0.6,0,0.8,0.1,0.8,0.1
	c0.1,0,0.2,0.2,0.3,0.6c0.1,0.4,0.3,0.5,0.5,0.5c0.2,0,0.5-0.2,0.4-0.5c0-0.1,0-0.2-0.1-0.4c0-0.1,0-0.4,0-0.7c0-0.4,0-0.7-0.2-0.8
	C200.1,65.3,199.9,65.2,199.4,65.2 M199.4,65.5c0.3,0,0.5,0,0.6,0.1c0.1,0.1,0.1,0.3,0.1,0.6c0,0.3,0,0.6,0,0.7c0,0.2,0,0.3,0.1,0.4
	c0,0.2-0.1,0.3-0.2,0.3h0c-0.1,0-0.2-0.1-0.2-0.3c-0.1-0.4-0.2-0.7-0.4-0.8c-0.2-0.1-0.5-0.2-1-0.2h-2.4c-0.3,0-0.4,0-0.5,0.1
	c-0.1,0.1-0.1,0.2-0.1,0.5v8.4l0,0.3c0,0.7,0.4,1.1,1.1,1.2c0.2,0,0.3,0.1,0.3,0.2c0,0.1-0.1,0.2-0.2,0.2c-0.1,0-0.2,0-0.4-0.1
	c-0.1,0-0.4,0-0.8,0l-0.6,0l-0.7,0c-0.2,0-0.4,0-0.6,0c-0.3,0-0.5,0.1-0.6,0.1c-0.2,0-0.3-0.1-0.3-0.2c0-0.1,0.1-0.1,0.3-0.2
	c0.4-0.1,0.7-0.2,0.9-0.4c0.2-0.2,0.2-0.5,0.2-1v-8.5l0-0.2c0-0.2,0-0.3-0.1-0.4c-0.1-0.1-0.2-0.1-0.4-0.1h-2.3
	c-0.5,0-0.8,0.1-1,0.3c-0.2,0.2-0.4,0.5-0.5,1.1c-0.1,0.2-0.1,0.3-0.2,0.3h0c-0.1,0-0.2-0.1-0.2-0.2c0-0.1,0-0.3,0.1-0.7
	c0.1-0.4,0.1-0.8,0.1-1c0-0.3,0-0.4,0.1-0.5c0.1-0.1,0.2-0.1,0.4-0.1H199.4z"/>
<path class="st0" d="M205.4,66.1c-0.4,0-0.5,0.1-0.6,0.1c-0.1,0.1-0.1,0.3-0.1,0.5l0,0.3v3.5c0,0.3,0.1,0.4,0.1,0.4
	c0,0,0.1,0.1,0.4,0.1h1c0.7,0,1.3-0.2,1.7-0.6c0.4-0.4,0.6-0.9,0.6-1.6c0-0.8-0.3-1.5-0.8-2C207,66.4,206.3,66.1,205.4,66.1
	 M211.5,77.6c-0.5,0-1-0.2-1.5-0.4c-0.4-0.3-0.9-0.8-1.3-1.4l-2.3-3.5c-0.1-0.2-0.3-0.3-0.6-0.3h-1.1l-0.2,0h0c0,0,0,0,0,0.1v2.7
	l0,0.3c0,0.6,0,0.9,0.1,1c0,0.2,0.1,0.3,0.3,0.4c0.2,0.2,0.6,0.3,1.1,0.3c0.3,0,0.4,0.2,0.4,0.3c0,0.1,0,0.2-0.1,0.2
	c-0.1,0.1-0.2,0.1-0.4,0.1c-0.1,0-0.3,0-0.5,0c-0.2,0-0.6,0-1.1,0l-0.8,0l-0.4,0c-0.2,0-0.4,0-0.7,0c-0.2,0-0.4,0-0.5,0
	c-0.2,0-0.3-0.1-0.3-0.3c0-0.1,0.1-0.2,0.3-0.3c0.4-0.1,0.7-0.3,0.8-0.5c0.1-0.3,0.2-0.9,0.2-1.9v-6.2l0-0.9c0-0.8-0.3-1.3-0.8-1.4
	l-0.4-0.1c-0.3-0.1-0.4-0.2-0.4-0.3c0-0.1,0-0.3,0.4-0.3c0,0,0.2,0,0.6,0c0.2,0,0.5,0,0.8,0c0.3,0,0.7,0,1.3-0.1c0.5,0,0.9,0,1.2,0
	c1.3,0,2.4,0.3,3.1,0.8c0.7,0.5,1.1,1.3,1.1,2.3c0,1.3-0.7,2.3-2.1,3l2.6,3.8c0.7,1,1.4,1.6,1.9,1.6l0.3,0c0.1,0,0.2,0,0.2,0.1l0,0
	l0,0.1c0,0.2-0.3,0.3-0.5,0.4C212.1,77.5,211.8,77.6,211.5,77.6"/>
<path class="st0" d="M204.8,70.9c0,0,0-0.1,0-0.3V67l0-0.3c0-0.2,0-0.4,0.1-0.4c0,0,0.2-0.1,0.5-0.1c0.8,0,1.5,0.2,2.1,0.7
	c0.5,0.5,0.8,1.1,0.8,1.9c0,0.7-0.2,1.1-0.6,1.5c-0.4,0.4-0.9,0.5-1.6,0.5h-1C204.9,70.9,204.8,70.9,204.8,70.9 M205.8,65.1
	c-0.3,0-0.7,0-1.2,0c-0.6,0-1.1,0.1-1.3,0.1c-0.3,0-0.5,0-0.7,0c-0.4,0-0.6,0-0.6,0c-0.5,0-0.6,0.4-0.6,0.4c0,0.1,0,0.4,0.5,0.5
	l0.4,0.1c0.3,0,0.7,0.2,0.7,1.2l0,0.9v6.2c0,0.9-0.1,1.6-0.2,1.8c-0.1,0.3-0.3,0.4-0.7,0.5c-0.4,0.1-0.4,0.3-0.4,0.4
	c0,0.2,0.1,0.4,0.5,0.4c0.1,0,0.3,0,0.5,0c0.3,0,0.5,0,0.7,0l0.4,0l0.8,0c0.5,0,0.8,0,1.1,0c0.3,0,0.5,0,0.5,0
	c0.2,0,0.4-0.1,0.5-0.2c0.1-0.1,0.1-0.2,0.1-0.3c0-0.1-0.1-0.4-0.6-0.4c-0.5,0-0.8-0.2-1-0.3c-0.1-0.1-0.2-0.2-0.3-0.4
	c0-0.1-0.1-0.3-0.1-0.9l0-0.3v-2.7c0,0,0,0,0,0l0.1,0h1.1c0.2,0,0.4,0.1,0.4,0.2l0.1,0.2l2.1,3.3c0.4,0.7,0.9,1.2,1.3,1.5
	c0.5,0.3,1,0.5,1.5,0.5c0.3,0,0.6,0,0.9-0.1c0.1,0,0.5-0.1,0.6-0.5c0-0.1,0-0.2-0.1-0.3c-0.1-0.1-0.2-0.1-0.3-0.1l-0.3,0
	c-0.5,0-1.2-0.6-1.8-1.6l-0.3-0.4l-2.2-3.3c1.3-0.7,2-1.8,2-3.1c0-1.1-0.4-1.9-1.1-2.4C208.2,65.4,207.1,65.1,205.8,65.1
	 M205.1,71.2h1c0.8,0,1.3-0.2,1.8-0.6c0.4-0.4,0.6-1,0.6-1.7c0-0.8-0.3-1.5-0.9-2.1c-0.6-0.5-1.3-0.8-2.2-0.8
	c-0.3,0-0.6,0.1-0.7,0.2c-0.1,0.1-0.2,0.3-0.2,0.6l0,0.3v3.5c0,0.3,0,0.4,0.1,0.5C204.7,71.1,204.8,71.2,205.1,71.2 M205.8,65.4
	c1.3,0,2.3,0.2,3,0.7c0.7,0.5,1,1.2,1,2.2c0,1.3-0.7,2.3-2.1,3l2.4,3.5l0.3,0.4c0.7,1.1,1.4,1.6,2,1.7l0.3,0c0.1,0,0.2,0,0.1,0.1
	c0,0.1-0.1,0.2-0.4,0.2c-0.2,0.1-0.5,0.1-0.8,0.1c-0.5,0-1-0.1-1.4-0.4c-0.4-0.3-0.8-0.8-1.2-1.4l-2.1-3.3l-0.1-0.2
	c-0.1-0.2-0.4-0.4-0.7-0.4h-1.1l-0.2,0c-0.1,0-0.1,0.1-0.1,0.3v2.7l0,0.3c0,0.5,0,0.8,0.1,1c0.1,0.2,0.2,0.3,0.4,0.5
	c0.2,0.2,0.6,0.3,1.1,0.4c0.2,0,0.3,0.1,0.3,0.2c0,0.1-0.1,0.2-0.3,0.2c-0.1,0-0.2,0-0.5,0c-0.2,0-0.6,0-1.1,0l-0.8,0l-0.4,0
	c-0.2,0-0.4,0-0.7,0c-0.2,0-0.4,0-0.5,0c-0.1,0-0.2-0.1-0.2-0.2c0-0.1,0.1-0.1,0.2-0.2c0.5-0.1,0.8-0.3,0.9-0.6c0.1-0.3,0.2-1,0.2-2
	v-6.2l0-0.9c0-0.9-0.3-1.4-0.9-1.5l-0.4-0.1c-0.2,0-0.3-0.1-0.3-0.2c0-0.1,0.1-0.2,0.3-0.2c0,0,0.2,0,0.6,0c0.2,0,0.5,0,0.8,0
	c0.3,0,0.7,0,1.4-0.1C205,65.4,205.4,65.4,205.8,65.4"/>
<path class="st0" d="M219.1,67.7l-1.7,3.7c-0.1,0.2-0.1,0.3-0.1,0.3c0,0.1,0.1,0.1,0.3,0.1l0.2,0h2.6c0.2,0,0.3,0,0.3-0.1
	c0,0,0-0.1,0-0.2l0-0.2l-1.3-3.4l-0.1-0.2C219.2,67.7,219.1,67.7,219.1,67.7C219.1,67.7,219.1,67.7,219.1,67.7 M216.1,77.5l-0.8,0
	c-0.3,0-0.6,0-0.9,0c-0.2,0-0.3,0-0.4,0c-0.3,0-0.5,0-0.5,0c-0.3,0-0.4-0.2-0.4-0.3c0-0.1,0.1-0.3,0.2-0.3l0.3-0.1
	c0,0,0.2-0.1,0.4-0.4c0.2-0.2,0.3-0.5,0.5-0.7l0.2-0.6l4.4-9.8c0-0.1,0.1-0.3,0.4-0.3c0.2,0,0.3,0.1,0.4,0.3l3.7,9.5l0.2,0.5
	c0.3,0.8,0.5,1.1,0.6,1.3c0.1,0.1,0.4,0.3,1,0.4c0.3,0.1,0.4,0.2,0.4,0.3c0,0.1-0.1,0.3-0.4,0.3c0,0-0.1,0-0.3,0c-0.3,0-0.9,0-1.6,0
	c-0.8,0-1.3,0-1.5,0c-0.1,0-0.2,0-0.3,0c-0.3,0-0.4-0.2-0.4-0.3c0-0.1,0-0.3,0.3-0.3l0.3-0.1c0.2,0,0.3-0.2,0.3-0.5
	c0-0.3-0.2-0.9-0.5-1.8l-0.4-1.1c-0.2-0.4-0.2-0.5-0.2-0.5c0,0-0.1,0-0.5,0h-3.1c-0.5,0-0.7,0.1-0.7,0.1c0,0-0.1,0.1-0.4,0.6
	l-0.6,1.3c-0.3,0.7-0.4,1.1-0.4,1.2c0,0.2,0.1,0.4,0.2,0.5c0.1,0.1,0.3,0.2,0.7,0.3c0.3,0.1,0.4,0.2,0.4,0.3c0,0.1,0,0.1-0.1,0.2
	c-0.1,0.1-0.2,0.1-0.3,0.1L216.1,77.5z"/>
<path class="st0" d="M217.4,71.7c0,0,0-0.1,0.1-0.2l1.6-3.5l0,0.1l1.4,3.4l0,0.1c0,0,0,0.1,0,0.1c0,0-0.1,0-0.2,0h-2.6l-0.2,0
	C217.5,71.7,217.5,71.7,217.4,71.7 M219.6,64.8c-0.2,0-0.4,0.1-0.5,0.4l-4.4,9.8l-0.2,0.6c-0.1,0.2-0.3,0.5-0.4,0.7
	c-0.2,0.3-0.3,0.3-0.3,0.3l-0.3,0.1c-0.2,0.1-0.3,0.2-0.3,0.4c0,0.2,0.1,0.4,0.5,0.4c0,0,0.2,0,0.4,0l0.1,0c0.1,0,0.2,0,0.4,0
	c0.4,0,0.7,0,0.9,0l0.8,0l0.1,0c0.1,0,0.1,0,0.2,0c0.2,0,0.3,0,0.4-0.1c0.1-0.1,0.1-0.2,0.1-0.3c0-0.1-0.1-0.4-0.5-0.4
	c-0.5-0.1-0.6-0.2-0.7-0.2c-0.1-0.1-0.1-0.3-0.1-0.4c0-0.2,0.1-0.5,0.4-1.2l0.6-1.3c0.2-0.5,0.3-0.6,0.3-0.6c0,0,0.1-0.1,0.6-0.1
	h3.1c0.3,0,0.4,0,0.4,0c0,0,0.1,0.1,0.2,0.4l0.4,1.1c0.4,1.1,0.5,1.5,0.5,1.7c0,0.3-0.1,0.3-0.2,0.3l-0.3,0.1
	c-0.4,0.1-0.4,0.3-0.4,0.4c0,0.2,0.1,0.4,0.5,0.4c0.1,0,0.2,0,0.3,0c0.1,0,0.5,0,1.4,0c0.8,0,1.3,0,1.6,0l0.1,0c0.1,0,0.2,0,0.3,0
	c0.4,0,0.5-0.3,0.5-0.4c0-0.1,0-0.4-0.5-0.5c-0.6-0.1-0.9-0.3-0.9-0.3c-0.1-0.1-0.3-0.3-0.6-1.2l-0.2-0.5l-3.7-9.5
	C219.9,64.9,219.7,64.8,219.6,64.8 M217.8,71.9h2.6c0.3,0,0.4-0.1,0.4-0.2c0,0,0-0.1,0-0.2l0-0.2l-1.4-3.4l-0.1-0.2
	c-0.1-0.2-0.1-0.3-0.2-0.3c0,0,0,0,0,0c0,0-0.1,0.1-0.1,0.2l-1.7,3.7c-0.1,0.2-0.1,0.3-0.1,0.3c0,0.2,0.1,0.2,0.4,0.2L217.8,71.9z
	 M219.6,65.1c0.1,0,0.2,0.1,0.2,0.2l3.7,9.5l0.2,0.5c0.3,0.7,0.5,1.1,0.7,1.3c0.2,0.2,0.5,0.3,1.1,0.4c0.2,0,0.3,0.1,0.3,0.2
	c0,0.1-0.1,0.1-0.2,0.1c-0.1,0-0.2,0-0.3,0c-0.3,0-0.8,0-1.6,0c-0.8,0-1.3,0-1.5,0c-0.1,0-0.2,0-0.3,0c-0.2,0-0.2-0.1-0.2-0.2
	c0-0.1,0.1-0.2,0.2-0.2l0.3-0.1c0.3-0.1,0.4-0.3,0.4-0.6c0-0.3-0.2-0.9-0.5-1.8l-0.4-1.1c-0.1-0.3-0.2-0.5-0.3-0.5
	c-0.1,0-0.3-0.1-0.6-0.1h-3.1c-0.4,0-0.7,0-0.8,0.1c-0.1,0.1-0.2,0.3-0.4,0.7l-0.6,1.3c-0.3,0.6-0.4,1-0.4,1.3
	c0,0.3,0.1,0.5,0.2,0.6c0.1,0.1,0.4,0.2,0.8,0.3c0.2,0,0.3,0.1,0.3,0.2c0,0.1-0.1,0.1-0.2,0.1c-0.1,0-0.2,0-0.3,0l-0.8,0
	c-0.3,0-0.6,0-1,0c-0.2,0-0.3,0-0.4,0c-0.3,0-0.4,0-0.5,0c-0.2,0-0.2-0.1-0.2-0.2c0-0.1,0.1-0.2,0.1-0.2l0.3-0.1
	c0.1,0,0.3-0.2,0.5-0.4c0.2-0.2,0.4-0.5,0.5-0.8l0.2-0.6l4.4-9.8C219.4,65.2,219.5,65.1,219.6,65.1"/>
<path class="st0" d="M227.6,77.5c-0.1,0-0.2,0-0.2-0.1c0,0-0.1-0.1-0.1-0.2c0-0.1,0.1-0.2,0.3-0.3c0.4-0.1,0.6-0.3,0.7-0.5
	c0.1-0.2,0.2-0.6,0.2-1.1l0-0.4v-7.7c0-0.7-0.3-1.1-0.8-1.2l-0.4-0.1c-0.3-0.1-0.3-0.2-0.3-0.3c0-0.1,0-0.3,0.4-0.3
	c0.1,0,0.3,0,0.6,0c0.4,0,0.8,0.1,1.3,0.1c0.5,0,1,0,1.4,0c0.2,0,0.3,0,0.4,0c0.3,0,0.3,0.2,0.3,0.3c0,0.1,0,0.3-0.3,0.4l-0.3,0.1
	c-0.4,0.1-0.7,0.6-0.7,1.4v7.5l0,0.3c0,0.9,0.1,1.1,0.2,1.1c0,0,0.3,0.1,1.2,0.1c1.1,0,2-0.1,2.8-0.4c0.8-0.2,1.2-0.6,1.4-0.9
	c0.1-0.2,0.2-0.3,0.4-0.3c0.1,0,0.2,0,0.2,0.1c0.1,0.1,0.1,0.1,0.1,0.2c0,0.4-0.2,0.9-0.6,1.3c-0.5,0.7-1.4,1-2.5,1
	c-0.2,0-0.4,0-0.6,0l-0.9-0.1c-0.5,0-1.1-0.1-1.7-0.1c-0.7,0-1.3,0-1.8,0.1C227.9,77.5,227.7,77.5,227.6,77.5L227.6,77.5z"/>
<path class="st0" d="M227.4,65.2c-0.5,0-0.6,0.4-0.6,0.5c0,0.1,0,0.3,0.4,0.4l0.4,0.1c0.3,0.1,0.7,0.2,0.7,1.1v7.7l0,0.4
	c0,0.6-0.1,0.9-0.2,1c-0.1,0.2-0.3,0.3-0.7,0.4c-0.4,0.1-0.4,0.3-0.4,0.5c0,0.2,0.1,0.4,0.5,0.4c0.2,0,0.3,0,0.5-0.1
	c0.5-0.1,1.1-0.1,1.7-0.1c0.6,0,1.2,0,1.7,0.1l0.9,0.1c0.2,0,0.5,0,0.7,0c1.2,0,2.1-0.3,2.6-1c0.4-0.5,0.6-1,0.6-1.4
	c0-0.1,0-0.3-0.1-0.3c-0.1-0.1-0.1-0.1-0.3-0.1c-0.2,0-0.3,0.1-0.5,0.4c-0.2,0.4-0.6,0.7-1.4,0.9c-0.8,0.2-1.7,0.4-2.7,0.4
	c-0.9,0-1.1-0.1-1.1-0.1c0,0-0.1-0.2-0.1-1l0-0.3v-7.5c0-0.8,0.2-1.2,0.6-1.3l0.3-0.1c0.4-0.1,0.5-0.4,0.5-0.5
	c0-0.2-0.1-0.4-0.5-0.4c0,0-0.2,0-0.4,0c-0.5,0-0.9,0-1.4,0c-0.4,0-0.9,0-1.3-0.1C227.7,65.2,227.5,65.2,227.4,65.2 M227.4,65.4
	c0.1,0,0.3,0,0.5,0c0.4,0,0.8,0.1,1.3,0.1c0.5,0,1,0,1.4,0c0.2,0,0.3,0,0.4,0c0.1,0,0.2,0,0.2,0.1c0,0.1-0.1,0.2-0.3,0.2l-0.3,0.1
	c-0.5,0.1-0.8,0.6-0.8,1.5v7.5l0,0.3c0,0.7,0.1,1.1,0.2,1.2c0.1,0.1,0.6,0.2,1.3,0.2c1.1,0,2-0.1,2.8-0.4c0.8-0.3,1.3-0.6,1.5-1
	c0.1-0.2,0.2-0.2,0.2-0.2c0.1,0,0.1,0.1,0.1,0.2c0,0.4-0.2,0.8-0.6,1.2c-0.5,0.6-1.3,0.9-2.4,0.9c-0.2,0-0.4,0-0.6,0l-0.9-0.1
	c-0.5,0-1.1-0.1-1.7-0.1c-0.7,0-1.3,0-1.8,0.1c-0.2,0-0.4,0-0.5,0.1h0c-0.1,0-0.2-0.1-0.2-0.2c0-0.1,0.1-0.2,0.2-0.2
	c0.4-0.1,0.7-0.3,0.8-0.5c0.1-0.2,0.2-0.6,0.2-1.2l0-0.4v-7.7c0-0.8-0.3-1.2-0.9-1.3l-0.4-0.1c-0.1,0-0.2-0.1-0.2-0.2
	C227.1,65.5,227.2,65.4,227.4,65.4"/>
<path class="st0" d="M241.5,77.5c-0.1,0-0.2,0-0.3,0c-0.2,0-0.5,0-0.9,0l-1.2,0l-1,0.1c-0.2,0-0.3,0-0.4,0c-0.3,0-0.4-0.2-0.4-0.3
	c0-0.1,0-0.3,0.4-0.3c0.4-0.1,0.6-0.2,0.8-0.4c0.1-0.1,0.2-0.5,0.2-1.4v-7.4c0-0.8-0.1-1.2-0.2-1.4c-0.1-0.2-0.5-0.4-1-0.4
	c-0.2,0-0.4-0.2-0.4-0.3c0-0.1,0-0.2,0.1-0.2c0.1-0.1,0.2-0.1,0.3-0.1c0,0,0.1,0,0.1,0c0.4,0.1,1,0.1,1.7,0.1c0.4,0,0.8,0,1.1,0
	l0.6,0l0.2,0c0.3,0,0.4,0.2,0.4,0.3c0,0.1,0,0.3-0.3,0.3l-0.4,0.2c-0.3,0.1-0.6,0.5-0.6,1.9v6.5c0,0.8,0,1.3,0.1,1.5
	c0.1,0.3,0.2,0.5,0.4,0.6c0.2,0.1,0.4,0.2,0.7,0.2c0.2,0,0.5,0.1,0.5,0.3C241.9,77.2,241.9,77.5,241.5,77.5"/>
<path class="st0" d="M241.1,65.1c0,0-0.1,0-0.1,0l-0.1,0l-0.6,0c-0.3,0-0.6,0-1.1,0c-0.7,0-1.2,0-1.6-0.1c-0.1,0-0.1,0-0.2,0
	c-0.2,0-0.3,0-0.4,0.1c-0.1,0.1-0.1,0.2-0.1,0.3c0,0.1,0.1,0.4,0.5,0.4c0.5,0.1,0.8,0.2,0.9,0.4c0.1,0.1,0.2,0.4,0.2,1.3v7.4
	c0,0.9-0.1,1.2-0.2,1.3c-0.1,0.2-0.3,0.3-0.7,0.3c-0.4,0.1-0.5,0.3-0.5,0.4c0,0.2,0.1,0.4,0.5,0.4c0.1,0,0.3,0,0.4,0l1-0.1l1.2,0
	c0.4,0,0.7,0,0.9,0c0.1,0,0.3,0,0.4,0c0.4,0,0.5-0.2,0.5-0.5c0-0.4-0.5-0.4-0.7-0.5c-0.4-0.1-0.6-0.1-0.7-0.2
	c-0.1-0.1-0.2-0.3-0.3-0.5c-0.1-0.2-0.1-0.5-0.1-1.5V68c0-1.5,0.3-1.8,0.5-1.8l0.4-0.2c0.4-0.1,0.4-0.4,0.4-0.5
	C241.6,65.4,241.4,65.1,241.1,65.1 M241.1,65.4c0.2,0,0.2,0.1,0.2,0.2c0,0.1-0.1,0.2-0.2,0.2l-0.4,0.2c-0.4,0.2-0.6,0.8-0.6,2.1v6.4
	c0,0.8,0,1.3,0.1,1.6c0.1,0.3,0.3,0.5,0.4,0.6c0.2,0.1,0.4,0.2,0.8,0.3c0.3,0,0.4,0.1,0.4,0.2c0,0.1-0.1,0.2-0.3,0.2
	c-0.1,0-0.2,0-0.3,0c-0.2,0-0.5,0-0.9,0l-1.2,0l-1,0.1c-0.2,0-0.3,0-0.4,0c-0.2,0-0.2-0.1-0.2-0.2c0-0.1,0.1-0.2,0.3-0.2
	c0.4-0.1,0.7-0.2,0.8-0.5c0.1-0.2,0.2-0.7,0.2-1.4v-7.4c0-0.7-0.1-1.2-0.2-1.4c-0.2-0.2-0.5-0.4-1-0.5c-0.2,0-0.3-0.1-0.3-0.2
	c0-0.1,0.1-0.2,0.3-0.2c0,0,0.1,0,0.2,0c0.4,0.1,1,0.1,1.7,0.1c0.4,0,0.8,0,1.1,0l0.6,0C241,65.4,241,65.4,241.1,65.4"/>
<path class="st0" d="M248.8,67.7l-1.7,3.7c-0.1,0.2-0.1,0.3-0.1,0.3c0,0.1,0.1,0.1,0.3,0.1l0.2,0h2.6c0.1,0,0.3,0,0.3-0.1
	c0,0,0-0.1,0-0.2l0-0.2l-1.4-3.6C248.9,67.7,248.8,67.7,248.8,67.7C248.8,67.7,248.8,67.7,248.8,67.7 M245.8,77.5l-0.8,0
	c-0.3,0-0.6,0-0.9,0c-0.2,0-0.3,0-0.4,0c-0.3,0-0.5,0-0.5,0c-0.3,0-0.4-0.2-0.4-0.3c0-0.2,0.1-0.3,0.2-0.3l0.3-0.1
	c0,0,0.2-0.1,0.4-0.4c0.2-0.2,0.3-0.5,0.5-0.7l0.2-0.6l4.4-9.8c0-0.1,0.1-0.3,0.4-0.3c0.1,0,0.3,0.1,0.4,0.3l3.7,9.5l0.2,0.5
	c0.3,0.8,0.5,1.1,0.6,1.3c0.2,0.2,0.5,0.3,1,0.4c0.3,0.1,0.4,0.2,0.4,0.3c0,0.1-0.1,0.3-0.4,0.3c0,0-0.1,0-0.3,0c-0.3,0-0.8,0-1.6,0
	c-0.8,0-1.3,0-1.5,0c-0.1,0-0.2,0-0.3,0c-0.3,0-0.4-0.2-0.4-0.3c0-0.1,0-0.3,0.3-0.3l0.3-0.1c0.2,0,0.3-0.1,0.3-0.5
	c0-0.3-0.2-0.9-0.5-1.8l-0.4-1.1c-0.2-0.4-0.2-0.5-0.2-0.5c0,0-0.1,0-0.5,0h-3.1c-0.5,0-0.7,0.1-0.7,0.1c0,0-0.1,0.1-0.4,0.6
	l-0.6,1.3c-0.2,0.6-0.4,1-0.4,1.2c0,0.2,0.1,0.4,0.2,0.5c0.1,0.1,0.3,0.2,0.7,0.3c0.3,0.1,0.4,0.2,0.4,0.3c0,0.1,0,0.1-0.1,0.2
	c-0.1,0.1-0.2,0.1-0.3,0.1L245.8,77.5z"/>
<path class="st0" d="M247.2,71.7c0,0,0-0.1,0.1-0.2l1.6-3.5l0,0.1l1.4,3.4l0,0.1c0,0,0,0.1,0,0.1c0,0-0.1,0-0.2,0h-2.6l-0.2,0
	C247.2,71.7,247.2,71.7,247.2,71.7 M249.3,64.8c-0.2,0-0.4,0.1-0.5,0.4l-4.4,9.8l-0.2,0.6c-0.1,0.2-0.3,0.5-0.4,0.7
	c-0.2,0.3-0.3,0.3-0.3,0.3l-0.3,0.1c-0.2,0.1-0.3,0.2-0.3,0.4c0,0.2,0.1,0.4,0.5,0.4c0,0,0.2,0,0.5,0c0.1,0,0.2,0,0.4,0
	c0.4,0,0.7,0,0.9,0l0.8,0l0.1,0c0.1,0,0.2,0,0.2,0c0.2,0,0.3,0,0.4-0.1c0.1-0.1,0.1-0.2,0.1-0.3c0-0.1-0.1-0.4-0.5-0.4
	c-0.4-0.1-0.6-0.2-0.7-0.2c-0.1-0.1-0.1-0.3-0.1-0.4c0-0.2,0.1-0.5,0.4-1.2l0.6-1.3c0.2-0.5,0.3-0.6,0.3-0.6c0,0,0.1-0.1,0.6-0.1
	h3.1c0.3,0,0.4,0,0.4,0c0,0,0.1,0.2,0.2,0.4l0.4,1.1c0.4,1.1,0.5,1.5,0.5,1.7c0,0.3-0.1,0.3-0.2,0.3l-0.3,0.1
	c-0.4,0.1-0.4,0.3-0.4,0.4c0,0.2,0.1,0.4,0.5,0.4c0.1,0,0.2,0,0.3,0c0.1,0,0.5,0,1.4,0c0.8,0,1.3,0,1.6,0l0,0l0,0c0.2,0,0.3,0,0.3,0
	c0.5,0,0.5-0.3,0.5-0.4c0-0.1,0-0.4-0.5-0.5c-0.6-0.1-0.9-0.3-1-0.3c-0.1-0.1-0.3-0.3-0.6-1.2l-0.2-0.5l-3.7-9.5
	C249.6,64.9,249.4,64.8,249.3,64.8 M247.5,71.9h2.6c0.3,0,0.4-0.1,0.4-0.2c0,0,0-0.1,0-0.2l0-0.2l-1.4-3.4l-0.1-0.2
	c-0.1-0.2-0.1-0.3-0.2-0.3c0,0,0,0,0,0c0,0-0.1,0.1-0.1,0.2l-1.7,3.7c-0.1,0.2-0.1,0.3-0.1,0.3c0,0.2,0.1,0.2,0.4,0.2L247.5,71.9z
	 M249.3,65.1c0.1,0,0.2,0.1,0.2,0.2l3.7,9.5l0.2,0.5c0.3,0.7,0.5,1.1,0.7,1.3c0.2,0.2,0.5,0.3,1.1,0.4c0.2,0,0.3,0.1,0.3,0.2
	c0,0.1-0.1,0.1-0.2,0.1c-0.1,0-0.2,0-0.3,0c-0.3,0-0.8,0-1.6,0c-0.8,0-1.3,0-1.5,0c-0.1,0-0.2,0-0.3,0c-0.1,0-0.2-0.1-0.2-0.2
	c0-0.1,0.1-0.2,0.2-0.2l0.3-0.1c0.3-0.1,0.4-0.3,0.4-0.6c0-0.3-0.2-0.9-0.5-1.8l-0.4-1.1c-0.1-0.3-0.2-0.5-0.3-0.5
	c-0.1,0-0.3-0.1-0.6-0.1h-3.1c-0.4,0-0.7,0-0.8,0.1c-0.1,0.1-0.2,0.3-0.4,0.7l-0.6,1.3c-0.3,0.6-0.4,1-0.4,1.3
	c0,0.3,0.1,0.5,0.2,0.6c0.1,0.1,0.4,0.2,0.8,0.3c0.2,0,0.3,0.1,0.3,0.2c0,0.1-0.1,0.1-0.2,0.1c-0.1,0-0.2,0-0.3,0l-0.8,0
	c-0.3,0-0.6,0-1,0c-0.2,0-0.3,0-0.4,0c-0.3,0-0.5,0-0.5,0c-0.2,0-0.2-0.1-0.2-0.2c0-0.1,0-0.2,0.1-0.2l0.3-0.1
	c0.1,0,0.3-0.2,0.5-0.4c0.2-0.2,0.4-0.5,0.5-0.8l0.2-0.6l4.4-9.8C249.1,65.2,249.2,65.1,249.3,65.1"/>
</svg>
